M48
; DRILL file {KiCad (6.0.5)} date Sat Aug  6 13:23:40 2022
; FORMAT={-:-/ absolute / inch / decimal}
; #@! TF.CreationDate,2022-08-06T13:23:40-04:00
; #@! TF.GenerationSoftware,Kicad,Pcbnew,(6.0.5)
; #@! TF.FileFunction,Plated,1,2,PTH
FMAT,2
INCH
; #@! TA.AperFunction,Plated,PTH,ViaDrill
T1C0.0157
; #@! TA.AperFunction,Plated,PTH,ComponentDrill
T2C0.0300
; #@! TA.AperFunction,Plated,PTH,ComponentDrill
T3C0.0315
; #@! TA.AperFunction,Plated,PTH,ComponentDrill
T4C0.0354
; #@! TA.AperFunction,Plated,PTH,ComponentDrill
T5C0.0394
; #@! TA.AperFunction,Plated,PTH,ComponentDrill
T6C0.0787
; #@! TA.AperFunction,Plated,PTH,ViaDrill
T7C0.1969
%
G90
G05
T1
X1.55Y-1.2
X1.6Y-1.11
X1.77Y-0.59
X1.77Y-0.64
X2.59Y-0.65
X2.83Y-0.51
X2.845Y-0.705
X2.85Y-0.2
X2.91Y-0.87
X3.0Y-0.87
X3.03Y-0.21
X3.06Y-0.28
X3.07Y-0.56
X3.13Y-0.55
X3.19Y-0.55
X3.25Y-0.55
T2
X0.4Y0.0026
X0.5Y0.0026
X0.6Y0.0026
X0.7Y0.0026
X3.05Y0.0026
X3.15Y0.0026
X3.25Y0.0026
X3.35Y0.0026
T3
X0.448Y-1.2014
X0.651Y-1.2014
X1.29Y-0.59
X1.29Y-0.89
X1.45Y-0.59
X1.45Y-0.89
X1.7Y-1.15
X1.7Y-1.3
X2.0Y-1.15
X2.0Y-1.3
X2.3Y-0.6
X2.3Y-0.9
X2.46Y-0.6
X2.46Y-0.9
X3.098Y-1.2014
X3.301Y-1.2014
T4
X1.3Y-0.3888
X1.4Y-0.3888
X1.65Y-0.3888
X1.75Y-0.3888
X2.0Y-0.4
X2.1Y-0.4
X2.35Y-0.4
X2.45Y-0.4
T5
X1.7004Y-0.9197
X1.8004Y-0.9197
X1.9004Y-0.9197
X2.0004Y-0.9197
T6
X0.0677Y-0.0238
X0.0677Y-0.9687
X1.0323Y-0.0238
X1.0323Y-0.9687
X2.7177Y-0.0238
X2.7177Y-0.9687
X3.6823Y-0.0238
X3.6823Y-0.9687
T7
X1.378Y-1.1811
X2.3622Y-1.1811
T0
M30
