  0
SECTION
  2
HEADER
  9
$ANGBASE
  50
0.0
  9
$ANGDIR
  70
1
  9
$MEASUREMENT
  70
0
  0
ENDSEC
  0
SECTION
  2
TABLES
  0
TABLE
  2
LTYPE
  70
4
  0
LTYPE
  5
40F
  2
CONTINUOUS
  70
0
  3
Solid line
  72
65
  73
0
  40
0.0
  0
LTYPE
  5
410
  2
DASHDOT
 70
0
  3
Dash Dot ____ _ ____ _
 72
65
 73
4
 40
2.0
 49
1.25
 49
-0.25
 49
0.25
 49
-0.25
  0
LTYPE
  5
411
  2
DASHED
 70
0
  3
Dashed __ __ __ __ __
 72
65
 73
2
 40
0.75
 49
0.5
 49
-0.25
  0
LTYPE
  5
43B
  2
DOTTED
 70
0
  3
Dotted .  .  .  .
 72
65
 73
2
 40
0.2
 49
0.0
 49
-0.2
  0
ENDTAB
  0
TABLE
  2
STYLE
  70
4
  0
STYLE
  2
KICAD
  70
0
  40
0
  41
1
  42
1
  50
0
  71
0
  3
isocp.shx
  0
STYLE
  2
KICADB
  70
0
  40
0
  41
1
  42
1
  50
0
  71
0
  3
isocp.shx
  0
STYLE
  2
KICADI
  70
0
  40
0
  41
1
  42
1
  50
15
  71
0
  3
isocp.shx
  0
STYLE
  2
KICADBI
  70
0
  40
0
  41
1
  42
1
  50
15
  71
0
  3
isocp.shx
  0
ENDTAB
  0
TABLE
  2
LAYER
  70
1
  0
LAYER
  2
BLACK
  70
0
  62
7
  6
CONTINUOUS
  0
ENDTAB
  0
ENDSEC
  0
SECTION
  2
ENTITIES
0
LINE
8
BLACK
6
CONTINUOUS
10
0.908835
20
-1.64138
11
0.915449
21
-1.64374
0
LINE
8
BLACK
6
CONTINUOUS
10
0.915449
20
-1.64374
11
0.921378
21
-1.6475
0
LINE
8
BLACK
6
CONTINUOUS
10
0.921378
20
-1.6475
11
0.926326
21
-1.65248
0
LINE
8
BLACK
6
CONTINUOUS
10
0.926326
20
-1.65248
11
0.930047
21
-1.65844
0
LINE
8
BLACK
6
CONTINUOUS
10
0.930047
20
-1.65844
11
0.932356
21
-1.66507
0
LINE
8
BLACK
6
CONTINUOUS
10
0.932356
20
-1.66507
11
0.933138
21
-1.67205
0
LINE
8
BLACK
6
CONTINUOUS
10
0.933138
20
-1.67205
11
0.933126
21
-1.67293
0
LINE
8
BLACK
6
CONTINUOUS
10
0.933126
20
-1.67293
11
0.932149
21
-1.67988
0
LINE
8
BLACK
6
CONTINUOUS
10
0.932149
20
-1.67988
11
0.929656
21
-1.68644
0
LINE
8
BLACK
6
CONTINUOUS
10
0.929656
20
-1.68644
11
0.92577
21
-1.69229
0
LINE
8
BLACK
6
CONTINUOUS
10
0.92577
20
-1.69229
11
0.920685
21
-1.69713
0
LINE
8
BLACK
6
CONTINUOUS
10
0.920685
20
-1.69713
11
0.914654
21
-1.70073
0
LINE
8
BLACK
6
CONTINUOUS
10
0.914654
20
-1.70073
11
0.907976
21
-1.7029
0
LINE
8
BLACK
6
CONTINUOUS
10
0.907976
20
-1.7029
11
0.900983
21
-1.70354
0
LINE
8
BLACK
6
CONTINUOUS
10
0.900983
20
-1.70354
11
0.894023
21
-1.70261
0
LINE
8
BLACK
6
CONTINUOUS
10
0.894023
20
-1.70261
11
0.887442
21
-1.70016
0
LINE
8
BLACK
6
CONTINUOUS
10
0.887442
20
-1.70016
11
0.881566
21
-1.69632
0
LINE
8
BLACK
6
CONTINUOUS
10
0.881566
20
-1.69632
11
0.876688
21
-1.69126
0
LINE
8
BLACK
6
CONTINUOUS
10
0.876688
20
-1.69126
11
0.873051
21
-1.68526
0
LINE
8
BLACK
6
CONTINUOUS
10
0.873051
20
-1.68526
11
0.870835
21
-1.6786
0
LINE
8
BLACK
6
CONTINUOUS
10
0.870835
20
-1.6786
11
0.870149
21
-1.67161
0
LINE
8
BLACK
6
CONTINUOUS
10
0.870149
20
-1.67161
11
0.871029
21
-1.66464
0
LINE
8
BLACK
6
CONTINUOUS
10
0.871029
20
-1.66464
11
0.873431
21
-1.65804
0
LINE
8
BLACK
6
CONTINUOUS
10
0.873431
20
-1.65804
11
0.877235
21
-1.65214
0
LINE
8
BLACK
6
CONTINUOUS
10
0.877235
20
-1.65214
11
0.882251
21
-1.64723
0
LINE
8
BLACK
6
CONTINUOUS
10
0.882251
20
-1.64723
11
0.888232
21
-1.64355
0
LINE
8
BLACK
6
CONTINUOUS
10
0.888232
20
-1.64355
11
0.894879
21
-1.64129
0
LINE
8
BLACK
6
CONTINUOUS
10
0.894879
20
-1.64129
11
0.901862
21
-1.64055
0
LINE
8
BLACK
6
CONTINUOUS
10
0.901862
20
-1.64055
11
0.908835
21
-1.64138
0
LINE
8
BLACK
6
CONTINUOUS
10
1.20883
20
-1.64138
11
1.21545
21
-1.64374
0
LINE
8
BLACK
6
CONTINUOUS
10
1.21545
20
-1.64374
11
1.22138
21
-1.6475
0
LINE
8
BLACK
6
CONTINUOUS
10
1.22138
20
-1.6475
11
1.22633
21
-1.65248
0
LINE
8
BLACK
6
CONTINUOUS
10
1.22633
20
-1.65248
11
1.23005
21
-1.65844
0
LINE
8
BLACK
6
CONTINUOUS
10
1.23005
20
-1.65844
11
1.23236
21
-1.66507
0
LINE
8
BLACK
6
CONTINUOUS
10
1.23236
20
-1.66507
11
1.23314
21
-1.67205
0
LINE
8
BLACK
6
CONTINUOUS
10
1.23314
20
-1.67205
11
1.23313
21
-1.67293
0
LINE
8
BLACK
6
CONTINUOUS
10
1.23313
20
-1.67293
11
1.23215
21
-1.67988
0
LINE
8
BLACK
6
CONTINUOUS
10
1.23215
20
-1.67988
11
1.22966
21
-1.68644
0
LINE
8
BLACK
6
CONTINUOUS
10
1.22966
20
-1.68644
11
1.22577
21
-1.69229
0
LINE
8
BLACK
6
CONTINUOUS
10
1.22577
20
-1.69229
11
1.22068
21
-1.69713
0
LINE
8
BLACK
6
CONTINUOUS
10
1.22068
20
-1.69713
11
1.21465
21
-1.70073
0
LINE
8
BLACK
6
CONTINUOUS
10
1.21465
20
-1.70073
11
1.20798
21
-1.7029
0
LINE
8
BLACK
6
CONTINUOUS
10
1.20798
20
-1.7029
11
1.20098
21
-1.70354
0
LINE
8
BLACK
6
CONTINUOUS
10
1.20098
20
-1.70354
11
1.19402
21
-1.70261
0
LINE
8
BLACK
6
CONTINUOUS
10
1.19402
20
-1.70261
11
1.18744
21
-1.70016
0
LINE
8
BLACK
6
CONTINUOUS
10
1.18744
20
-1.70016
11
1.18157
21
-1.69632
0
LINE
8
BLACK
6
CONTINUOUS
10
1.18157
20
-1.69632
11
1.17669
21
-1.69126
0
LINE
8
BLACK
6
CONTINUOUS
10
1.17669
20
-1.69126
11
1.17305
21
-1.68526
0
LINE
8
BLACK
6
CONTINUOUS
10
1.17305
20
-1.68526
11
1.17083
21
-1.6786
0
LINE
8
BLACK
6
CONTINUOUS
10
1.17083
20
-1.6786
11
1.17015
21
-1.67161
0
LINE
8
BLACK
6
CONTINUOUS
10
1.17015
20
-1.67161
11
1.17103
21
-1.66464
0
LINE
8
BLACK
6
CONTINUOUS
10
1.17103
20
-1.66464
11
1.17343
21
-1.65804
0
LINE
8
BLACK
6
CONTINUOUS
10
1.17343
20
-1.65804
11
1.17723
21
-1.65214
0
LINE
8
BLACK
6
CONTINUOUS
10
1.17723
20
-1.65214
11
1.18225
21
-1.64723
0
LINE
8
BLACK
6
CONTINUOUS
10
1.18225
20
-1.64723
11
1.18823
21
-1.64355
0
LINE
8
BLACK
6
CONTINUOUS
10
1.18823
20
-1.64355
11
1.19488
21
-1.64129
0
LINE
8
BLACK
6
CONTINUOUS
10
1.19488
20
-1.64129
11
1.20186
21
-1.64055
0
LINE
8
BLACK
6
CONTINUOUS
10
1.20186
20
-1.64055
11
1.20883
21
-1.64138
0
LINE
8
BLACK
6
CONTINUOUS
10
2.50943
20
-1.54472
11
2.51563
21
-1.54693
0
LINE
8
BLACK
6
CONTINUOUS
10
2.51563
20
-1.54693
11
2.52119
21
-1.55045
0
LINE
8
BLACK
6
CONTINUOUS
10
2.52119
20
-1.55045
11
2.52583
21
-1.55512
0
LINE
8
BLACK
6
CONTINUOUS
10
2.52583
20
-1.55512
11
2.52932
21
-1.56071
0
LINE
8
BLACK
6
CONTINUOUS
10
2.52932
20
-1.56071
11
2.53148
21
-1.56692
0
LINE
8
BLACK
6
CONTINUOUS
10
2.53148
20
-1.56692
11
2.53222
21
-1.57346
0
LINE
8
BLACK
6
CONTINUOUS
10
2.53222
20
-1.57346
11
2.53221
21
-1.57429
0
LINE
8
BLACK
6
CONTINUOUS
10
2.53221
20
-1.57429
11
2.53129
21
-1.58081
0
LINE
8
BLACK
6
CONTINUOUS
10
2.53129
20
-1.58081
11
2.52895
21
-1.58696
0
LINE
8
BLACK
6
CONTINUOUS
10
2.52895
20
-1.58696
11
2.52531
21
-1.59244
0
LINE
8
BLACK
6
CONTINUOUS
10
2.52531
20
-1.59244
11
2.52054
21
-1.59698
0
LINE
8
BLACK
6
CONTINUOUS
10
2.52054
20
-1.59698
11
2.51489
21
-1.60035
0
LINE
8
BLACK
6
CONTINUOUS
10
2.51489
20
-1.60035
11
2.50863
21
-1.60239
0
LINE
8
BLACK
6
CONTINUOUS
10
2.50863
20
-1.60239
11
2.50207
21
-1.60299
0
LINE
8
BLACK
6
CONTINUOUS
10
2.50207
20
-1.60299
11
2.49555
21
-1.60212
0
LINE
8
BLACK
6
CONTINUOUS
10
2.49555
20
-1.60212
11
2.48938
21
-1.59982
0
LINE
8
BLACK
6
CONTINUOUS
10
2.48938
20
-1.59982
11
2.48387
21
-1.59622
0
LINE
8
BLACK
6
CONTINUOUS
10
2.48387
20
-1.59622
11
2.4793
21
-1.59148
0
LINE
8
BLACK
6
CONTINUOUS
10
2.4793
20
-1.59148
11
2.47589
21
-1.58585
0
LINE
8
BLACK
6
CONTINUOUS
10
2.47589
20
-1.58585
11
2.47381
21
-1.5796
0
LINE
8
BLACK
6
CONTINUOUS
10
2.47381
20
-1.5796
11
2.47316
21
-1.57305
0
LINE
8
BLACK
6
CONTINUOUS
10
2.47316
20
-1.57305
11
2.47399
21
-1.56652
0
LINE
8
BLACK
6
CONTINUOUS
10
2.47399
20
-1.56652
11
2.47624
21
-1.56034
0
LINE
8
BLACK
6
CONTINUOUS
10
2.47624
20
-1.56034
11
2.47981
21
-1.5548
0
LINE
8
BLACK
6
CONTINUOUS
10
2.47981
20
-1.5548
11
2.48451
21
-1.5502
0
LINE
8
BLACK
6
CONTINUOUS
10
2.48451
20
-1.5502
11
2.49012
21
-1.54675
0
LINE
8
BLACK
6
CONTINUOUS
10
2.49012
20
-1.54675
11
2.49635
21
-1.54463
0
LINE
8
BLACK
6
CONTINUOUS
10
2.49635
20
-1.54463
11
2.5029
21
-1.54394
0
LINE
8
BLACK
6
CONTINUOUS
10
2.5029
20
-1.54394
11
2.50943
21
-1.54472
0
LINE
8
BLACK
6
CONTINUOUS
10
2.30643
20
-1.54472
11
2.31263
21
-1.54693
0
LINE
8
BLACK
6
CONTINUOUS
10
2.31263
20
-1.54693
11
2.31819
21
-1.55045
0
LINE
8
BLACK
6
CONTINUOUS
10
2.31819
20
-1.55045
11
2.32283
21
-1.55512
0
LINE
8
BLACK
6
CONTINUOUS
10
2.32283
20
-1.55512
11
2.32632
21
-1.56071
0
LINE
8
BLACK
6
CONTINUOUS
10
2.32632
20
-1.56071
11
2.32848
21
-1.56692
0
LINE
8
BLACK
6
CONTINUOUS
10
2.32848
20
-1.56692
11
2.32922
21
-1.57346
0
LINE
8
BLACK
6
CONTINUOUS
10
2.32922
20
-1.57346
11
2.32921
21
-1.57429
0
LINE
8
BLACK
6
CONTINUOUS
10
2.32921
20
-1.57429
11
2.32829
21
-1.58081
0
LINE
8
BLACK
6
CONTINUOUS
10
2.32829
20
-1.58081
11
2.32595
21
-1.58696
0
LINE
8
BLACK
6
CONTINUOUS
10
2.32595
20
-1.58696
11
2.32231
21
-1.59244
0
LINE
8
BLACK
6
CONTINUOUS
10
2.32231
20
-1.59244
11
2.31754
21
-1.59698
0
LINE
8
BLACK
6
CONTINUOUS
10
2.31754
20
-1.59698
11
2.31189
21
-1.60035
0
LINE
8
BLACK
6
CONTINUOUS
10
2.31189
20
-1.60035
11
2.30563
21
-1.60239
0
LINE
8
BLACK
6
CONTINUOUS
10
2.30563
20
-1.60239
11
2.29907
21
-1.60299
0
LINE
8
BLACK
6
CONTINUOUS
10
2.29907
20
-1.60299
11
2.29255
21
-1.60212
0
LINE
8
BLACK
6
CONTINUOUS
10
2.29255
20
-1.60212
11
2.28638
21
-1.59982
0
LINE
8
BLACK
6
CONTINUOUS
10
2.28638
20
-1.59982
11
2.28087
21
-1.59622
0
LINE
8
BLACK
6
CONTINUOUS
10
2.28087
20
-1.59622
11
2.2763
21
-1.59148
0
LINE
8
BLACK
6
CONTINUOUS
10
2.2763
20
-1.59148
11
2.27289
21
-1.58585
0
LINE
8
BLACK
6
CONTINUOUS
10
2.27289
20
-1.58585
11
2.27081
21
-1.5796
0
LINE
8
BLACK
6
CONTINUOUS
10
2.27081
20
-1.5796
11
2.27016
21
-1.57305
0
LINE
8
BLACK
6
CONTINUOUS
10
2.27016
20
-1.57305
11
2.27099
21
-1.56652
0
LINE
8
BLACK
6
CONTINUOUS
10
2.27099
20
-1.56652
11
2.27324
21
-1.56034
0
LINE
8
BLACK
6
CONTINUOUS
10
2.27324
20
-1.56034
11
2.27681
21
-1.5548
0
LINE
8
BLACK
6
CONTINUOUS
10
2.27681
20
-1.5548
11
2.28151
21
-1.5502
0
LINE
8
BLACK
6
CONTINUOUS
10
2.28151
20
-1.5502
11
2.28712
21
-1.54675
0
LINE
8
BLACK
6
CONTINUOUS
10
2.28712
20
-1.54675
11
2.29335
21
-1.54463
0
LINE
8
BLACK
6
CONTINUOUS
10
2.29335
20
-1.54463
11
2.2999
21
-1.54394
0
LINE
8
BLACK
6
CONTINUOUS
10
2.2999
20
-1.54394
11
2.30643
21
-1.54472
0
LINE
8
BLACK
6
CONTINUOUS
10
-0.140568
20
-1.54472
11
-0.134366
21
-1.54693
0
LINE
8
BLACK
6
CONTINUOUS
10
-0.134366
20
-1.54693
11
-0.128808
21
-1.55045
0
LINE
8
BLACK
6
CONTINUOUS
10
-0.128808
20
-1.55045
11
-0.12417
21
-1.55512
0
LINE
8
BLACK
6
CONTINUOUS
10
-0.12417
20
-1.55512
11
-0.120681
21
-1.56071
0
LINE
8
BLACK
6
CONTINUOUS
10
-0.120681
20
-1.56071
11
-0.118517
21
-1.56692
0
LINE
8
BLACK
6
CONTINUOUS
10
-0.118517
20
-1.56692
11
-0.117783
21
-1.57346
0
LINE
8
BLACK
6
CONTINUOUS
10
-0.117783
20
-1.57346
11
-0.117794
21
-1.57429
0
LINE
8
BLACK
6
CONTINUOUS
10
-0.117794
20
-1.57429
11
-0.11871
21
-1.58081
0
LINE
8
BLACK
6
CONTINUOUS
10
-0.11871
20
-1.58081
11
-0.121048
21
-1.58696
0
LINE
8
BLACK
6
CONTINUOUS
10
-0.121048
20
-1.58696
11
-0.124691
21
-1.59244
0
LINE
8
BLACK
6
CONTINUOUS
10
-0.124691
20
-1.59244
11
-0.129458
21
-1.59698
0
LINE
8
BLACK
6
CONTINUOUS
10
-0.129458
20
-1.59698
11
-0.135112
21
-1.60035
0
LINE
8
BLACK
6
CONTINUOUS
10
-0.135112
20
-1.60035
11
-0.141373
21
-1.60239
0
LINE
8
BLACK
6
CONTINUOUS
10
-0.141373
20
-1.60239
11
-0.147929
21
-1.60299
0
LINE
8
BLACK
6
CONTINUOUS
10
-0.147929
20
-1.60299
11
-0.154454
21
-1.60212
0
LINE
8
BLACK
6
CONTINUOUS
10
-0.154454
20
-1.60212
11
-0.160624
21
-1.59982
0
LINE
8
BLACK
6
CONTINUOUS
10
-0.160624
20
-1.59982
11
-0.166132
21
-1.59622
0
LINE
8
BLACK
6
CONTINUOUS
10
-0.166132
20
-1.59622
11
-0.170705
21
-1.59148
0
LINE
8
BLACK
6
CONTINUOUS
10
-0.170705
20
-1.59148
11
-0.174115
21
-1.58585
0
LINE
8
BLACK
6
CONTINUOUS
10
-0.174115
20
-1.58585
11
-0.176193
21
-1.5796
0
LINE
8
BLACK
6
CONTINUOUS
10
-0.176193
20
-1.5796
11
-0.176835
21
-1.57305
0
LINE
8
BLACK
6
CONTINUOUS
10
-0.176835
20
-1.57305
11
-0.17601
21
-1.56652
0
LINE
8
BLACK
6
CONTINUOUS
10
-0.17601
20
-1.56652
11
-0.173759
21
-1.56034
0
LINE
8
BLACK
6
CONTINUOUS
10
-0.173759
20
-1.56034
11
-0.170193
21
-1.5548
0
LINE
8
BLACK
6
CONTINUOUS
10
-0.170193
20
-1.5548
11
-0.165489
21
-1.5502
0
LINE
8
BLACK
6
CONTINUOUS
10
-0.165489
20
-1.5502
11
-0.159883
21
-1.54675
0
LINE
8
BLACK
6
CONTINUOUS
10
-0.159883
20
-1.54675
11
-0.153651
21
-1.54463
0
LINE
8
BLACK
6
CONTINUOUS
10
-0.153651
20
-1.54463
11
-0.147104
21
-1.54394
0
LINE
8
BLACK
6
CONTINUOUS
10
-0.147104
20
-1.54394
11
-0.140568
21
-1.54472
0
LINE
8
BLACK
6
CONTINUOUS
10
-0.343568
20
-1.54472
11
-0.337366
21
-1.54693
0
LINE
8
BLACK
6
CONTINUOUS
10
-0.337366
20
-1.54693
11
-0.331808
21
-1.55045
0
LINE
8
BLACK
6
CONTINUOUS
10
-0.331808
20
-1.55045
11
-0.32717
21
-1.55512
0
LINE
8
BLACK
6
CONTINUOUS
10
-0.32717
20
-1.55512
11
-0.323681
21
-1.56071
0
LINE
8
BLACK
6
CONTINUOUS
10
-0.323681
20
-1.56071
11
-0.321517
21
-1.56692
0
LINE
8
BLACK
6
CONTINUOUS
10
-0.321517
20
-1.56692
11
-0.320783
21
-1.57346
0
LINE
8
BLACK
6
CONTINUOUS
10
-0.320783
20
-1.57346
11
-0.320794
21
-1.57429
0
LINE
8
BLACK
6
CONTINUOUS
10
-0.320794
20
-1.57429
11
-0.32171
21
-1.58081
0
LINE
8
BLACK
6
CONTINUOUS
10
-0.32171
20
-1.58081
11
-0.324048
21
-1.58696
0
LINE
8
BLACK
6
CONTINUOUS
10
-0.324048
20
-1.58696
11
-0.327691
21
-1.59244
0
LINE
8
BLACK
6
CONTINUOUS
10
-0.327691
20
-1.59244
11
-0.332458
21
-1.59698
0
LINE
8
BLACK
6
CONTINUOUS
10
-0.332458
20
-1.59698
11
-0.338112
21
-1.60035
0
LINE
8
BLACK
6
CONTINUOUS
10
-0.338112
20
-1.60035
11
-0.344373
21
-1.60239
0
LINE
8
BLACK
6
CONTINUOUS
10
-0.344373
20
-1.60239
11
-0.350929
21
-1.60299
0
LINE
8
BLACK
6
CONTINUOUS
10
-0.350929
20
-1.60299
11
-0.357454
21
-1.60212
0
LINE
8
BLACK
6
CONTINUOUS
10
-0.357454
20
-1.60212
11
-0.363624
21
-1.59982
0
LINE
8
BLACK
6
CONTINUOUS
10
-0.363624
20
-1.59982
11
-0.369132
21
-1.59622
0
LINE
8
BLACK
6
CONTINUOUS
10
-0.369132
20
-1.59622
11
-0.373705
21
-1.59148
0
LINE
8
BLACK
6
CONTINUOUS
10
-0.373705
20
-1.59148
11
-0.377115
21
-1.58585
0
LINE
8
BLACK
6
CONTINUOUS
10
-0.377115
20
-1.58585
11
-0.379193
21
-1.5796
0
LINE
8
BLACK
6
CONTINUOUS
10
-0.379193
20
-1.5796
11
-0.379835
21
-1.57305
0
LINE
8
BLACK
6
CONTINUOUS
10
-0.379835
20
-1.57305
11
-0.37901
21
-1.56652
0
LINE
8
BLACK
6
CONTINUOUS
10
-0.37901
20
-1.56652
11
-0.376759
21
-1.56034
0
LINE
8
BLACK
6
CONTINUOUS
10
-0.376759
20
-1.56034
11
-0.373193
21
-1.5548
0
LINE
8
BLACK
6
CONTINUOUS
10
-0.373193
20
-1.5548
11
-0.368489
21
-1.5502
0
LINE
8
BLACK
6
CONTINUOUS
10
-0.368489
20
-1.5502
11
-0.362883
21
-1.54675
0
LINE
8
BLACK
6
CONTINUOUS
10
-0.362883
20
-1.54675
11
-0.356651
21
-1.54463
0
LINE
8
BLACK
6
CONTINUOUS
10
-0.356651
20
-1.54463
11
-0.350104
21
-1.54394
0
LINE
8
BLACK
6
CONTINUOUS
10
-0.350104
20
-1.54394
11
-0.343568
21
-1.54472
0
LINE
8
BLACK
6
CONTINUOUS
10
0.908835
20
-1.49138
11
0.915449
21
-1.49374
0
LINE
8
BLACK
6
CONTINUOUS
10
0.915449
20
-1.49374
11
0.921378
21
-1.4975
0
LINE
8
BLACK
6
CONTINUOUS
10
0.921378
20
-1.4975
11
0.926326
21
-1.50248
0
LINE
8
BLACK
6
CONTINUOUS
10
0.926326
20
-1.50248
11
0.930047
21
-1.50844
0
LINE
8
BLACK
6
CONTINUOUS
10
0.930047
20
-1.50844
11
0.932356
21
-1.51507
0
LINE
8
BLACK
6
CONTINUOUS
10
0.932356
20
-1.51507
11
0.933138
21
-1.52205
0
LINE
8
BLACK
6
CONTINUOUS
10
0.933138
20
-1.52205
11
0.933126
21
-1.52293
0
LINE
8
BLACK
6
CONTINUOUS
10
0.933126
20
-1.52293
11
0.932149
21
-1.52988
0
LINE
8
BLACK
6
CONTINUOUS
10
0.932149
20
-1.52988
11
0.929656
21
-1.53644
0
LINE
8
BLACK
6
CONTINUOUS
10
0.929656
20
-1.53644
11
0.92577
21
-1.54229
0
LINE
8
BLACK
6
CONTINUOUS
10
0.92577
20
-1.54229
11
0.920685
21
-1.54713
0
LINE
8
BLACK
6
CONTINUOUS
10
0.920685
20
-1.54713
11
0.914654
21
-1.55073
0
LINE
8
BLACK
6
CONTINUOUS
10
0.914654
20
-1.55073
11
0.907976
21
-1.5529
0
LINE
8
BLACK
6
CONTINUOUS
10
0.907976
20
-1.5529
11
0.900983
21
-1.55354
0
LINE
8
BLACK
6
CONTINUOUS
10
0.900983
20
-1.55354
11
0.894023
21
-1.55261
0
LINE
8
BLACK
6
CONTINUOUS
10
0.894023
20
-1.55261
11
0.887442
21
-1.55016
0
LINE
8
BLACK
6
CONTINUOUS
10
0.887442
20
-1.55016
11
0.881566
21
-1.54632
0
LINE
8
BLACK
6
CONTINUOUS
10
0.881566
20
-1.54632
11
0.876688
21
-1.54126
0
LINE
8
BLACK
6
CONTINUOUS
10
0.876688
20
-1.54126
11
0.873051
21
-1.53526
0
LINE
8
BLACK
6
CONTINUOUS
10
0.873051
20
-1.53526
11
0.870835
21
-1.5286
0
LINE
8
BLACK
6
CONTINUOUS
10
0.870835
20
-1.5286
11
0.870149
21
-1.52161
0
LINE
8
BLACK
6
CONTINUOUS
10
0.870149
20
-1.52161
11
0.871029
21
-1.51464
0
LINE
8
BLACK
6
CONTINUOUS
10
0.871029
20
-1.51464
11
0.873431
21
-1.50804
0
LINE
8
BLACK
6
CONTINUOUS
10
0.873431
20
-1.50804
11
0.877235
21
-1.50214
0
LINE
8
BLACK
6
CONTINUOUS
10
0.877235
20
-1.50214
11
0.882251
21
-1.49723
0
LINE
8
BLACK
6
CONTINUOUS
10
0.882251
20
-1.49723
11
0.888232
21
-1.49355
0
LINE
8
BLACK
6
CONTINUOUS
10
0.888232
20
-1.49355
11
0.894879
21
-1.49129
0
LINE
8
BLACK
6
CONTINUOUS
10
0.894879
20
-1.49129
11
0.901862
21
-1.49055
0
LINE
8
BLACK
6
CONTINUOUS
10
0.901862
20
-1.49055
11
0.908835
21
-1.49138
0
LINE
8
BLACK
6
CONTINUOUS
10
1.20883
20
-1.49138
11
1.21545
21
-1.49374
0
LINE
8
BLACK
6
CONTINUOUS
10
1.21545
20
-1.49374
11
1.22138
21
-1.4975
0
LINE
8
BLACK
6
CONTINUOUS
10
1.22138
20
-1.4975
11
1.22633
21
-1.50248
0
LINE
8
BLACK
6
CONTINUOUS
10
1.22633
20
-1.50248
11
1.23005
21
-1.50844
0
LINE
8
BLACK
6
CONTINUOUS
10
1.23005
20
-1.50844
11
1.23236
21
-1.51507
0
LINE
8
BLACK
6
CONTINUOUS
10
1.23236
20
-1.51507
11
1.23314
21
-1.52205
0
LINE
8
BLACK
6
CONTINUOUS
10
1.23314
20
-1.52205
11
1.23313
21
-1.52293
0
LINE
8
BLACK
6
CONTINUOUS
10
1.23313
20
-1.52293
11
1.23215
21
-1.52988
0
LINE
8
BLACK
6
CONTINUOUS
10
1.23215
20
-1.52988
11
1.22966
21
-1.53644
0
LINE
8
BLACK
6
CONTINUOUS
10
1.22966
20
-1.53644
11
1.22577
21
-1.54229
0
LINE
8
BLACK
6
CONTINUOUS
10
1.22577
20
-1.54229
11
1.22068
21
-1.54713
0
LINE
8
BLACK
6
CONTINUOUS
10
1.22068
20
-1.54713
11
1.21465
21
-1.55073
0
LINE
8
BLACK
6
CONTINUOUS
10
1.21465
20
-1.55073
11
1.20798
21
-1.5529
0
LINE
8
BLACK
6
CONTINUOUS
10
1.20798
20
-1.5529
11
1.20098
21
-1.55354
0
LINE
8
BLACK
6
CONTINUOUS
10
1.20098
20
-1.55354
11
1.19402
21
-1.55261
0
LINE
8
BLACK
6
CONTINUOUS
10
1.19402
20
-1.55261
11
1.18744
21
-1.55016
0
LINE
8
BLACK
6
CONTINUOUS
10
1.18744
20
-1.55016
11
1.18157
21
-1.54632
0
LINE
8
BLACK
6
CONTINUOUS
10
1.18157
20
-1.54632
11
1.17669
21
-1.54126
0
LINE
8
BLACK
6
CONTINUOUS
10
1.17669
20
-1.54126
11
1.17305
21
-1.53526
0
LINE
8
BLACK
6
CONTINUOUS
10
1.17305
20
-1.53526
11
1.17083
21
-1.5286
0
LINE
8
BLACK
6
CONTINUOUS
10
1.17083
20
-1.5286
11
1.17015
21
-1.52161
0
LINE
8
BLACK
6
CONTINUOUS
10
1.17015
20
-1.52161
11
1.17103
21
-1.51464
0
LINE
8
BLACK
6
CONTINUOUS
10
1.17103
20
-1.51464
11
1.17343
21
-1.50804
0
LINE
8
BLACK
6
CONTINUOUS
10
1.17343
20
-1.50804
11
1.17723
21
-1.50214
0
LINE
8
BLACK
6
CONTINUOUS
10
1.17723
20
-1.50214
11
1.18225
21
-1.49723
0
LINE
8
BLACK
6
CONTINUOUS
10
1.18225
20
-1.49723
11
1.18823
21
-1.49355
0
LINE
8
BLACK
6
CONTINUOUS
10
1.18823
20
-1.49355
11
1.19488
21
-1.49129
0
LINE
8
BLACK
6
CONTINUOUS
10
1.19488
20
-1.49129
11
1.20186
21
-1.49055
0
LINE
8
BLACK
6
CONTINUOUS
10
1.20186
20
-1.49055
11
1.20883
21
-1.49138
0
LINE
8
BLACK
6
CONTINUOUS
10
0.23902
20
-1.28685
11
0.247754
21
-1.28841
0
LINE
8
BLACK
6
CONTINUOUS
10
0.247754
20
-1.28841
11
0.256117
21
-1.29137
0
LINE
8
BLACK
6
CONTINUOUS
10
0.256117
20
-1.29137
11
0.263883
21
-1.29566
0
LINE
8
BLACK
6
CONTINUOUS
10
0.263883
20
-1.29566
11
0.270845
21
-1.30116
0
LINE
8
BLACK
6
CONTINUOUS
10
0.270845
20
-1.30116
11
0.276816
21
-1.30772
0
LINE
8
BLACK
6
CONTINUOUS
10
0.276816
20
-1.30772
11
0.281634
21
-1.31517
0
LINE
8
BLACK
6
CONTINUOUS
10
0.281634
20
-1.31517
11
0.285172
21
-1.3233
0
LINE
8
BLACK
6
CONTINUOUS
10
0.285172
20
-1.3233
11
0.287333
21
-1.33191
0
LINE
8
BLACK
6
CONTINUOUS
10
0.287333
20
-1.33191
11
0.28806
21
-1.34075
0
LINE
8
BLACK
6
CONTINUOUS
10
0.28806
20
-1.34075
11
0.287995
21
-1.34339
0
LINE
8
BLACK
6
CONTINUOUS
10
0.287995
20
-1.34339
11
0.286837
21
-1.35219
0
LINE
8
BLACK
6
CONTINUOUS
10
0.286837
20
-1.35219
11
0.284258
21
-1.36068
0
LINE
8
BLACK
6
CONTINUOUS
10
0.284258
20
-1.36068
11
0.280328
21
-1.36863
0
LINE
8
BLACK
6
CONTINUOUS
10
0.280328
20
-1.36863
11
0.275151
21
-1.37583
0
LINE
8
BLACK
6
CONTINUOUS
10
0.275151
20
-1.37583
11
0.268867
21
-1.3821
0
LINE
8
BLACK
6
CONTINUOUS
10
0.268867
20
-1.3821
11
0.261645
21
-1.38725
0
LINE
8
BLACK
6
CONTINUOUS
10
0.261645
20
-1.38725
11
0.253678
21
-1.39115
0
LINE
8
BLACK
6
CONTINUOUS
10
0.253678
20
-1.39115
11
0.245181
21
-1.3937
0
LINE
8
BLACK
6
CONTINUOUS
10
0.245181
20
-1.3937
11
0.236382
21
-1.39483
0
LINE
8
BLACK
6
CONTINUOUS
10
0.236382
20
-1.39483
11
0.227516
21
-1.3945
0
LINE
8
BLACK
6
CONTINUOUS
10
0.227516
20
-1.3945
11
0.218823
21
-1.39273
0
LINE
8
BLACK
6
CONTINUOUS
10
0.218823
20
-1.39273
11
0.210535
21
-1.38957
0
LINE
8
BLACK
6
CONTINUOUS
10
0.210535
20
-1.38957
11
0.202876
21
-1.38509
0
LINE
8
BLACK
6
CONTINUOUS
10
0.202876
20
-1.38509
11
0.19605
21
-1.37943
0
LINE
8
BLACK
6
CONTINUOUS
10
0.19605
20
-1.37943
11
0.190242
21
-1.37272
0
LINE
8
BLACK
6
CONTINUOUS
10
0.190242
20
-1.37272
11
0.185607
21
-1.36516
0
LINE
8
BLACK
6
CONTINUOUS
10
0.185607
20
-1.36516
11
0.182269
21
-1.35694
0
LINE
8
BLACK
6
CONTINUOUS
10
0.182269
20
-1.35694
11
0.180319
21
-1.34828
0
LINE
8
BLACK
6
CONTINUOUS
10
0.180319
20
-1.34828
11
0.179808
21
-1.33943
0
LINE
8
BLACK
6
CONTINUOUS
10
0.179808
20
-1.33943
11
0.180751
21
-1.3306
0
LINE
8
BLACK
6
CONTINUOUS
10
0.180751
20
-1.3306
11
0.183122
21
-1.32206
0
LINE
8
BLACK
6
CONTINUOUS
10
0.183122
20
-1.32206
11
0.186857
21
-1.31401
0
LINE
8
BLACK
6
CONTINUOUS
10
0.186857
20
-1.31401
11
0.191856
21
-1.30668
0
LINE
8
BLACK
6
CONTINUOUS
10
0.191856
20
-1.30668
11
0.197985
21
-1.30027
0
LINE
8
BLACK
6
CONTINUOUS
10
0.197985
20
-1.30027
11
0.205079
21
-1.29494
0
LINE
8
BLACK
6
CONTINUOUS
10
0.205079
20
-1.29494
11
0.212948
21
-1.29084
0
LINE
8
BLACK
6
CONTINUOUS
10
0.212948
20
-1.29084
11
0.22138
21
-1.28809
0
LINE
8
BLACK
6
CONTINUOUS
10
0.22138
20
-1.28809
11
0.23015
21
-1.28675
0
LINE
8
BLACK
6
CONTINUOUS
10
0.23015
20
-1.28675
11
0.23902
21
-1.28685
0
LINE
8
BLACK
6
CONTINUOUS
10
-0.725547
20
-1.28685
11
-0.716813
21
-1.28841
0
LINE
8
BLACK
6
CONTINUOUS
10
-0.716813
20
-1.28841
11
-0.70845
21
-1.29137
0
LINE
8
BLACK
6
CONTINUOUS
10
-0.70845
20
-1.29137
11
-0.700684
21
-1.29566
0
LINE
8
BLACK
6
CONTINUOUS
10
-0.700684
20
-1.29566
11
-0.693722
21
-1.30116
0
LINE
8
BLACK
6
CONTINUOUS
10
-0.693722
20
-1.30116
11
-0.687751
21
-1.30772
0
LINE
8
BLACK
6
CONTINUOUS
10
-0.687751
20
-1.30772
11
-0.682933
21
-1.31517
0
LINE
8
BLACK
6
CONTINUOUS
10
-0.682933
20
-1.31517
11
-0.679395
21
-1.3233
0
LINE
8
BLACK
6
CONTINUOUS
10
-0.679395
20
-1.3233
11
-0.677234
21
-1.33191
0
LINE
8
BLACK
6
CONTINUOUS
10
-0.677234
20
-1.33191
11
-0.676507
21
-1.34075
0
LINE
8
BLACK
6
CONTINUOUS
10
-0.676507
20
-1.34075
11
-0.676572
21
-1.34339
0
LINE
8
BLACK
6
CONTINUOUS
10
-0.676572
20
-1.34339
11
-0.67773
21
-1.35219
0
LINE
8
BLACK
6
CONTINUOUS
10
-0.67773
20
-1.35219
11
-0.680309
21
-1.36068
0
LINE
8
BLACK
6
CONTINUOUS
10
-0.680309
20
-1.36068
11
-0.684239
21
-1.36863
0
LINE
8
BLACK
6
CONTINUOUS
10
-0.684239
20
-1.36863
11
-0.689416
21
-1.37583
0
LINE
8
BLACK
6
CONTINUOUS
10
-0.689416
20
-1.37583
11
-0.6957
21
-1.3821
0
LINE
8
BLACK
6
CONTINUOUS
10
-0.6957
20
-1.3821
11
-0.702922
21
-1.38725
0
LINE
8
BLACK
6
CONTINUOUS
10
-0.702922
20
-1.38725
11
-0.710889
21
-1.39115
0
LINE
8
BLACK
6
CONTINUOUS
10
-0.710889
20
-1.39115
11
-0.719386
21
-1.3937
0
LINE
8
BLACK
6
CONTINUOUS
10
-0.719386
20
-1.3937
11
-0.728185
21
-1.39483
0
LINE
8
BLACK
6
CONTINUOUS
10
-0.728185
20
-1.39483
11
-0.737051
21
-1.3945
0
LINE
8
BLACK
6
CONTINUOUS
10
-0.737051
20
-1.3945
11
-0.745744
21
-1.39273
0
LINE
8
BLACK
6
CONTINUOUS
10
-0.745744
20
-1.39273
11
-0.754032
21
-1.38957
0
LINE
8
BLACK
6
CONTINUOUS
10
-0.754032
20
-1.38957
11
-0.761691
21
-1.38509
0
LINE
8
BLACK
6
CONTINUOUS
10
-0.761691
20
-1.38509
11
-0.768517
21
-1.37943
0
LINE
8
BLACK
6
CONTINUOUS
10
-0.768517
20
-1.37943
11
-0.774325
21
-1.37272
0
LINE
8
BLACK
6
CONTINUOUS
10
-0.774325
20
-1.37272
11
-0.77896
21
-1.36516
0
LINE
8
BLACK
6
CONTINUOUS
10
-0.77896
20
-1.36516
11
-0.782298
21
-1.35694
0
LINE
8
BLACK
6
CONTINUOUS
10
-0.782298
20
-1.35694
11
-0.784248
21
-1.34828
0
LINE
8
BLACK
6
CONTINUOUS
10
-0.784248
20
-1.34828
11
-0.784759
21
-1.33943
0
LINE
8
BLACK
6
CONTINUOUS
10
-0.784759
20
-1.33943
11
-0.783816
21
-1.3306
0
LINE
8
BLACK
6
CONTINUOUS
10
-0.783816
20
-1.3306
11
-0.781445
21
-1.32206
0
LINE
8
BLACK
6
CONTINUOUS
10
-0.781445
20
-1.32206
11
-0.77771
21
-1.31401
0
LINE
8
BLACK
6
CONTINUOUS
10
-0.77771
20
-1.31401
11
-0.772711
21
-1.30668
0
LINE
8
BLACK
6
CONTINUOUS
10
-0.772711
20
-1.30668
11
-0.766582
21
-1.30027
0
LINE
8
BLACK
6
CONTINUOUS
10
-0.766582
20
-1.30027
11
-0.759488
21
-1.29494
0
LINE
8
BLACK
6
CONTINUOUS
10
-0.759488
20
-1.29494
11
-0.751619
21
-1.29084
0
LINE
8
BLACK
6
CONTINUOUS
10
-0.751619
20
-1.29084
11
-0.743186
21
-1.28809
0
LINE
8
BLACK
6
CONTINUOUS
10
-0.743186
20
-1.28809
11
-0.734417
21
-1.28675
0
LINE
8
BLACK
6
CONTINUOUS
10
-0.734417
20
-1.28675
11
-0.725547
21
-1.28685
0
LINE
8
BLACK
6
CONTINUOUS
10
2.88902
20
-1.28685
11
2.89775
21
-1.28841
0
LINE
8
BLACK
6
CONTINUOUS
10
2.89775
20
-1.28841
11
2.90612
21
-1.29137
0
LINE
8
BLACK
6
CONTINUOUS
10
2.90612
20
-1.29137
11
2.91388
21
-1.29566
0
LINE
8
BLACK
6
CONTINUOUS
10
2.91388
20
-1.29566
11
2.92085
21
-1.30116
0
LINE
8
BLACK
6
CONTINUOUS
10
2.92085
20
-1.30116
11
2.92682
21
-1.30772
0
LINE
8
BLACK
6
CONTINUOUS
10
2.92682
20
-1.30772
11
2.93163
21
-1.31517
0
LINE
8
BLACK
6
CONTINUOUS
10
2.93163
20
-1.31517
11
2.93517
21
-1.3233
0
LINE
8
BLACK
6
CONTINUOUS
10
2.93517
20
-1.3233
11
2.93733
21
-1.33191
0
LINE
8
BLACK
6
CONTINUOUS
10
2.93733
20
-1.33191
11
2.93806
21
-1.34075
0
LINE
8
BLACK
6
CONTINUOUS
10
2.93806
20
-1.34075
11
2.938
21
-1.34339
0
LINE
8
BLACK
6
CONTINUOUS
10
2.938
20
-1.34339
11
2.93684
21
-1.35219
0
LINE
8
BLACK
6
CONTINUOUS
10
2.93684
20
-1.35219
11
2.93426
21
-1.36068
0
LINE
8
BLACK
6
CONTINUOUS
10
2.93426
20
-1.36068
11
2.93033
21
-1.36863
0
LINE
8
BLACK
6
CONTINUOUS
10
2.93033
20
-1.36863
11
2.92515
21
-1.37583
0
LINE
8
BLACK
6
CONTINUOUS
10
2.92515
20
-1.37583
11
2.91887
21
-1.3821
0
LINE
8
BLACK
6
CONTINUOUS
10
2.91887
20
-1.3821
11
2.91164
21
-1.38725
0
LINE
8
BLACK
6
CONTINUOUS
10
2.91164
20
-1.38725
11
2.90368
21
-1.39115
0
LINE
8
BLACK
6
CONTINUOUS
10
2.90368
20
-1.39115
11
2.89518
21
-1.3937
0
LINE
8
BLACK
6
CONTINUOUS
10
2.89518
20
-1.3937
11
2.88638
21
-1.39483
0
LINE
8
BLACK
6
CONTINUOUS
10
2.88638
20
-1.39483
11
2.87752
21
-1.3945
0
LINE
8
BLACK
6
CONTINUOUS
10
2.87752
20
-1.3945
11
2.86882
21
-1.39273
0
LINE
8
BLACK
6
CONTINUOUS
10
2.86882
20
-1.39273
11
2.86054
21
-1.38957
0
LINE
8
BLACK
6
CONTINUOUS
10
2.86054
20
-1.38957
11
2.85288
21
-1.38509
0
LINE
8
BLACK
6
CONTINUOUS
10
2.85288
20
-1.38509
11
2.84605
21
-1.37943
0
LINE
8
BLACK
6
CONTINUOUS
10
2.84605
20
-1.37943
11
2.84024
21
-1.37272
0
LINE
8
BLACK
6
CONTINUOUS
10
2.84024
20
-1.37272
11
2.83561
21
-1.36516
0
LINE
8
BLACK
6
CONTINUOUS
10
2.83561
20
-1.36516
11
2.83227
21
-1.35694
0
LINE
8
BLACK
6
CONTINUOUS
10
2.83227
20
-1.35694
11
2.83032
21
-1.34828
0
LINE
8
BLACK
6
CONTINUOUS
10
2.83032
20
-1.34828
11
2.82981
21
-1.33943
0
LINE
8
BLACK
6
CONTINUOUS
10
2.82981
20
-1.33943
11
2.83075
21
-1.3306
0
LINE
8
BLACK
6
CONTINUOUS
10
2.83075
20
-1.3306
11
2.83312
21
-1.32206
0
LINE
8
BLACK
6
CONTINUOUS
10
2.83312
20
-1.32206
11
2.83686
21
-1.31401
0
LINE
8
BLACK
6
CONTINUOUS
10
2.83686
20
-1.31401
11
2.84186
21
-1.30668
0
LINE
8
BLACK
6
CONTINUOUS
10
2.84186
20
-1.30668
11
2.84798
21
-1.30027
0
LINE
8
BLACK
6
CONTINUOUS
10
2.84798
20
-1.30027
11
2.85508
21
-1.29494
0
LINE
8
BLACK
6
CONTINUOUS
10
2.85508
20
-1.29494
11
2.86295
21
-1.29084
0
LINE
8
BLACK
6
CONTINUOUS
10
2.86295
20
-1.29084
11
2.87138
21
-1.28809
0
LINE
8
BLACK
6
CONTINUOUS
10
2.87138
20
-1.28809
11
2.88015
21
-1.28675
0
LINE
8
BLACK
6
CONTINUOUS
10
2.88015
20
-1.28675
11
2.88902
21
-1.28685
0
LINE
8
BLACK
6
CONTINUOUS
10
1.92445
20
-1.28685
11
1.93319
21
-1.28841
0
LINE
8
BLACK
6
CONTINUOUS
10
1.93319
20
-1.28841
11
1.94155
21
-1.29137
0
LINE
8
BLACK
6
CONTINUOUS
10
1.94155
20
-1.29137
11
1.94932
21
-1.29566
0
LINE
8
BLACK
6
CONTINUOUS
10
1.94932
20
-1.29566
11
1.95628
21
-1.30116
0
LINE
8
BLACK
6
CONTINUOUS
10
1.95628
20
-1.30116
11
1.96225
21
-1.30772
0
LINE
8
BLACK
6
CONTINUOUS
10
1.96225
20
-1.30772
11
1.96707
21
-1.31517
0
LINE
8
BLACK
6
CONTINUOUS
10
1.96707
20
-1.31517
11
1.9706
21
-1.3233
0
LINE
8
BLACK
6
CONTINUOUS
10
1.9706
20
-1.3233
11
1.97277
21
-1.33191
0
LINE
8
BLACK
6
CONTINUOUS
10
1.97277
20
-1.33191
11
1.97349
21
-1.34075
0
LINE
8
BLACK
6
CONTINUOUS
10
1.97349
20
-1.34075
11
1.97343
21
-1.34339
0
LINE
8
BLACK
6
CONTINUOUS
10
1.97343
20
-1.34339
11
1.97227
21
-1.35219
0
LINE
8
BLACK
6
CONTINUOUS
10
1.97227
20
-1.35219
11
1.96969
21
-1.36068
0
LINE
8
BLACK
6
CONTINUOUS
10
1.96969
20
-1.36068
11
1.96576
21
-1.36863
0
LINE
8
BLACK
6
CONTINUOUS
10
1.96576
20
-1.36863
11
1.96058
21
-1.37583
0
LINE
8
BLACK
6
CONTINUOUS
10
1.96058
20
-1.37583
11
1.9543
21
-1.3821
0
LINE
8
BLACK
6
CONTINUOUS
10
1.9543
20
-1.3821
11
1.94708
21
-1.38725
0
LINE
8
BLACK
6
CONTINUOUS
10
1.94708
20
-1.38725
11
1.93911
21
-1.39115
0
LINE
8
BLACK
6
CONTINUOUS
10
1.93911
20
-1.39115
11
1.93061
21
-1.3937
0
LINE
8
BLACK
6
CONTINUOUS
10
1.93061
20
-1.3937
11
1.92181
21
-1.39483
0
LINE
8
BLACK
6
CONTINUOUS
10
1.92181
20
-1.39483
11
1.91295
21
-1.3945
0
LINE
8
BLACK
6
CONTINUOUS
10
1.91295
20
-1.3945
11
1.90426
21
-1.39273
0
LINE
8
BLACK
6
CONTINUOUS
10
1.90426
20
-1.39273
11
1.89597
21
-1.38957
0
LINE
8
BLACK
6
CONTINUOUS
10
1.89597
20
-1.38957
11
1.88831
21
-1.38509
0
LINE
8
BLACK
6
CONTINUOUS
10
1.88831
20
-1.38509
11
1.88148
21
-1.37943
0
LINE
8
BLACK
6
CONTINUOUS
10
1.88148
20
-1.37943
11
1.87568
21
-1.37272
0
LINE
8
BLACK
6
CONTINUOUS
10
1.87568
20
-1.37272
11
1.87104
21
-1.36516
0
LINE
8
BLACK
6
CONTINUOUS
10
1.87104
20
-1.36516
11
1.8677
21
-1.35694
0
LINE
8
BLACK
6
CONTINUOUS
10
1.8677
20
-1.35694
11
1.86575
21
-1.34828
0
LINE
8
BLACK
6
CONTINUOUS
10
1.86575
20
-1.34828
11
1.86524
21
-1.33943
0
LINE
8
BLACK
6
CONTINUOUS
10
1.86524
20
-1.33943
11
1.86618
21
-1.3306
0
LINE
8
BLACK
6
CONTINUOUS
10
1.86618
20
-1.3306
11
1.86855
21
-1.32206
0
LINE
8
BLACK
6
CONTINUOUS
10
1.86855
20
-1.32206
11
1.87229
21
-1.31401
0
LINE
8
BLACK
6
CONTINUOUS
10
1.87229
20
-1.31401
11
1.87729
21
-1.30668
0
LINE
8
BLACK
6
CONTINUOUS
10
1.87729
20
-1.30668
11
1.88342
21
-1.30027
0
LINE
8
BLACK
6
CONTINUOUS
10
1.88342
20
-1.30027
11
1.89051
21
-1.29494
0
LINE
8
BLACK
6
CONTINUOUS
10
1.89051
20
-1.29494
11
1.89838
21
-1.29084
0
LINE
8
BLACK
6
CONTINUOUS
10
1.89838
20
-1.29084
11
1.90681
21
-1.28809
0
LINE
8
BLACK
6
CONTINUOUS
10
1.90681
20
-1.28809
11
1.91558
21
-1.28675
0
LINE
8
BLACK
6
CONTINUOUS
10
1.91558
20
-1.28675
11
1.92445
21
-1.28685
0
LINE
8
BLACK
6
CONTINUOUS
10
0.935501
20
-1.3252
11
0.868572
21
-1.3252
0
LINE
8
BLACK
6
CONTINUOUS
10
0.868572
20
-1.3252
11
0.868572
21
-1.25827
0
LINE
8
BLACK
6
CONTINUOUS
10
0.868572
20
-1.25827
11
0.935501
21
-1.25827
0
LINE
8
BLACK
6
CONTINUOUS
10
0.935501
20
-1.25827
11
0.935501
21
-1.3252
0
LINE
8
BLACK
6
CONTINUOUS
10
1.01238
20
-1.25991
11
1.01877
21
-1.26275
0
LINE
8
BLACK
6
CONTINUOUS
10
1.01877
20
-1.26275
11
1.02443
21
-1.26686
0
LINE
8
BLACK
6
CONTINUOUS
10
1.02443
20
-1.26686
11
1.02911
21
-1.27206
0
LINE
8
BLACK
6
CONTINUOUS
10
1.02911
20
-1.27206
11
1.03261
21
-1.27812
0
LINE
8
BLACK
6
CONTINUOUS
10
1.03261
20
-1.27812
11
1.03477
21
-1.28477
0
LINE
8
BLACK
6
CONTINUOUS
10
1.03477
20
-1.28477
11
1.0355
21
-1.29173
0
LINE
8
BLACK
6
CONTINUOUS
10
1.0355
20
-1.29173
11
1.03477
21
-1.29869
0
LINE
8
BLACK
6
CONTINUOUS
10
1.03477
20
-1.29869
11
1.03261
21
-1.30534
0
LINE
8
BLACK
6
CONTINUOUS
10
1.03261
20
-1.30534
11
1.02911
21
-1.3114
0
LINE
8
BLACK
6
CONTINUOUS
10
1.02911
20
-1.3114
11
1.02443
21
-1.3166
0
LINE
8
BLACK
6
CONTINUOUS
10
1.02443
20
-1.3166
11
1.01877
21
-1.32071
0
LINE
8
BLACK
6
CONTINUOUS
10
1.01877
20
-1.32071
11
1.01238
21
-1.32356
0
LINE
8
BLACK
6
CONTINUOUS
10
1.01238
20
-1.32356
11
1.00553
21
-1.32501
0
LINE
8
BLACK
6
CONTINUOUS
10
1.00553
20
-1.32501
11
0.998538
21
-1.32501
0
LINE
8
BLACK
6
CONTINUOUS
10
0.998538
20
-1.32501
11
0.991695
21
-1.32356
0
LINE
8
BLACK
6
CONTINUOUS
10
0.991695
20
-1.32356
11
0.985304
21
-1.32071
0
LINE
8
BLACK
6
CONTINUOUS
10
0.985304
20
-1.32071
11
0.979644
21
-1.3166
0
LINE
8
BLACK
6
CONTINUOUS
10
0.979644
20
-1.3166
11
0.974963
21
-1.3114
0
LINE
8
BLACK
6
CONTINUOUS
10
0.974963
20
-1.3114
11
0.971465
21
-1.30534
0
LINE
8
BLACK
6
CONTINUOUS
10
0.971465
20
-1.30534
11
0.969303
21
-1.29869
0
LINE
8
BLACK
6
CONTINUOUS
10
0.969303
20
-1.29869
11
0.968572
21
-1.29173
0
LINE
8
BLACK
6
CONTINUOUS
10
0.968572
20
-1.29173
11
0.969303
21
-1.28477
0
LINE
8
BLACK
6
CONTINUOUS
10
0.969303
20
-1.28477
11
0.971465
21
-1.27812
0
LINE
8
BLACK
6
CONTINUOUS
10
0.971465
20
-1.27812
11
0.974963
21
-1.27206
0
LINE
8
BLACK
6
CONTINUOUS
10
0.974963
20
-1.27206
11
0.979644
21
-1.26686
0
LINE
8
BLACK
6
CONTINUOUS
10
0.979644
20
-1.26686
11
0.985304
21
-1.26275
0
LINE
8
BLACK
6
CONTINUOUS
10
0.985304
20
-1.26275
11
0.991695
21
-1.25991
0
LINE
8
BLACK
6
CONTINUOUS
10
0.991695
20
-1.25991
11
0.998538
21
-1.25845
0
LINE
8
BLACK
6
CONTINUOUS
10
0.998538
20
-1.25845
11
1.00553
21
-1.25845
0
LINE
8
BLACK
6
CONTINUOUS
10
1.00553
20
-1.25845
11
1.01238
21
-1.25991
0
LINE
8
BLACK
6
CONTINUOUS
10
1.11238
20
-1.25991
11
1.11877
21
-1.26275
0
LINE
8
BLACK
6
CONTINUOUS
10
1.11877
20
-1.26275
11
1.12443
21
-1.26686
0
LINE
8
BLACK
6
CONTINUOUS
10
1.12443
20
-1.26686
11
1.12911
21
-1.27206
0
LINE
8
BLACK
6
CONTINUOUS
10
1.12911
20
-1.27206
11
1.13261
21
-1.27812
0
LINE
8
BLACK
6
CONTINUOUS
10
1.13261
20
-1.27812
11
1.13477
21
-1.28477
0
LINE
8
BLACK
6
CONTINUOUS
10
1.13477
20
-1.28477
11
1.1355
21
-1.29173
0
LINE
8
BLACK
6
CONTINUOUS
10
1.1355
20
-1.29173
11
1.13477
21
-1.29869
0
LINE
8
BLACK
6
CONTINUOUS
10
1.13477
20
-1.29869
11
1.13261
21
-1.30534
0
LINE
8
BLACK
6
CONTINUOUS
10
1.13261
20
-1.30534
11
1.12911
21
-1.3114
0
LINE
8
BLACK
6
CONTINUOUS
10
1.12911
20
-1.3114
11
1.12443
21
-1.3166
0
LINE
8
BLACK
6
CONTINUOUS
10
1.12443
20
-1.3166
11
1.11877
21
-1.32071
0
LINE
8
BLACK
6
CONTINUOUS
10
1.11877
20
-1.32071
11
1.11238
21
-1.32356
0
LINE
8
BLACK
6
CONTINUOUS
10
1.11238
20
-1.32356
11
1.10553
21
-1.32501
0
LINE
8
BLACK
6
CONTINUOUS
10
1.10553
20
-1.32501
11
1.09854
21
-1.32501
0
LINE
8
BLACK
6
CONTINUOUS
10
1.09854
20
-1.32501
11
1.0917
21
-1.32356
0
LINE
8
BLACK
6
CONTINUOUS
10
1.0917
20
-1.32356
11
1.0853
21
-1.32071
0
LINE
8
BLACK
6
CONTINUOUS
10
1.0853
20
-1.32071
11
1.07964
21
-1.3166
0
LINE
8
BLACK
6
CONTINUOUS
10
1.07964
20
-1.3166
11
1.07496
21
-1.3114
0
LINE
8
BLACK
6
CONTINUOUS
10
1.07496
20
-1.3114
11
1.07146
21
-1.30534
0
LINE
8
BLACK
6
CONTINUOUS
10
1.07146
20
-1.30534
11
1.0693
21
-1.29869
0
LINE
8
BLACK
6
CONTINUOUS
10
1.0693
20
-1.29869
11
1.06857
21
-1.29173
0
LINE
8
BLACK
6
CONTINUOUS
10
1.06857
20
-1.29173
11
1.0693
21
-1.28477
0
LINE
8
BLACK
6
CONTINUOUS
10
1.0693
20
-1.28477
11
1.07146
21
-1.27812
0
LINE
8
BLACK
6
CONTINUOUS
10
1.07146
20
-1.27812
11
1.07496
21
-1.27206
0
LINE
8
BLACK
6
CONTINUOUS
10
1.07496
20
-1.27206
11
1.07964
21
-1.26686
0
LINE
8
BLACK
6
CONTINUOUS
10
1.07964
20
-1.26686
11
1.0853
21
-1.26275
0
LINE
8
BLACK
6
CONTINUOUS
10
1.0853
20
-1.26275
11
1.0917
21
-1.25991
0
LINE
8
BLACK
6
CONTINUOUS
10
1.0917
20
-1.25991
11
1.09854
21
-1.25845
0
LINE
8
BLACK
6
CONTINUOUS
10
1.09854
20
-1.25845
11
1.10553
21
-1.25845
0
LINE
8
BLACK
6
CONTINUOUS
10
1.10553
20
-1.25845
11
1.11238
21
-1.25991
0
LINE
8
BLACK
6
CONTINUOUS
10
1.21238
20
-1.25991
11
1.21877
21
-1.26275
0
LINE
8
BLACK
6
CONTINUOUS
10
1.21877
20
-1.26275
11
1.22443
21
-1.26686
0
LINE
8
BLACK
6
CONTINUOUS
10
1.22443
20
-1.26686
11
1.22911
21
-1.27206
0
LINE
8
BLACK
6
CONTINUOUS
10
1.22911
20
-1.27206
11
1.23261
21
-1.27812
0
LINE
8
BLACK
6
CONTINUOUS
10
1.23261
20
-1.27812
11
1.23477
21
-1.28477
0
LINE
8
BLACK
6
CONTINUOUS
10
1.23477
20
-1.28477
11
1.2355
21
-1.29173
0
LINE
8
BLACK
6
CONTINUOUS
10
1.2355
20
-1.29173
11
1.23477
21
-1.29869
0
LINE
8
BLACK
6
CONTINUOUS
10
1.23477
20
-1.29869
11
1.23261
21
-1.30534
0
LINE
8
BLACK
6
CONTINUOUS
10
1.23261
20
-1.30534
11
1.22911
21
-1.3114
0
LINE
8
BLACK
6
CONTINUOUS
10
1.22911
20
-1.3114
11
1.22443
21
-1.3166
0
LINE
8
BLACK
6
CONTINUOUS
10
1.22443
20
-1.3166
11
1.21877
21
-1.32071
0
LINE
8
BLACK
6
CONTINUOUS
10
1.21877
20
-1.32071
11
1.21238
21
-1.32356
0
LINE
8
BLACK
6
CONTINUOUS
10
1.21238
20
-1.32356
11
1.20553
21
-1.32501
0
LINE
8
BLACK
6
CONTINUOUS
10
1.20553
20
-1.32501
11
1.19854
21
-1.32501
0
LINE
8
BLACK
6
CONTINUOUS
10
1.19854
20
-1.32501
11
1.19169
21
-1.32356
0
LINE
8
BLACK
6
CONTINUOUS
10
1.19169
20
-1.32356
11
1.1853
21
-1.32071
0
LINE
8
BLACK
6
CONTINUOUS
10
1.1853
20
-1.32071
11
1.17964
21
-1.3166
0
LINE
8
BLACK
6
CONTINUOUS
10
1.17964
20
-1.3166
11
1.17496
21
-1.3114
0
LINE
8
BLACK
6
CONTINUOUS
10
1.17496
20
-1.3114
11
1.17146
21
-1.30534
0
LINE
8
BLACK
6
CONTINUOUS
10
1.17146
20
-1.30534
11
1.1693
21
-1.29869
0
LINE
8
BLACK
6
CONTINUOUS
10
1.1693
20
-1.29869
11
1.16857
21
-1.29173
0
LINE
8
BLACK
6
CONTINUOUS
10
1.16857
20
-1.29173
11
1.1693
21
-1.28477
0
LINE
8
BLACK
6
CONTINUOUS
10
1.1693
20
-1.28477
11
1.17146
21
-1.27812
0
LINE
8
BLACK
6
CONTINUOUS
10
1.17146
20
-1.27812
11
1.17496
21
-1.27206
0
LINE
8
BLACK
6
CONTINUOUS
10
1.17496
20
-1.27206
11
1.17964
21
-1.26686
0
LINE
8
BLACK
6
CONTINUOUS
10
1.17964
20
-1.26686
11
1.1853
21
-1.26275
0
LINE
8
BLACK
6
CONTINUOUS
10
1.1853
20
-1.26275
11
1.19169
21
-1.25991
0
LINE
8
BLACK
6
CONTINUOUS
10
1.19169
20
-1.25991
11
1.19854
21
-1.25845
0
LINE
8
BLACK
6
CONTINUOUS
10
1.19854
20
-1.25845
11
1.20553
21
-1.25845
0
LINE
8
BLACK
6
CONTINUOUS
10
1.20553
20
-1.25845
11
1.21238
21
-1.25991
0
LINE
8
BLACK
6
CONTINUOUS
10
1.50883
20
-1.24138
11
1.51545
21
-1.24374
0
LINE
8
BLACK
6
CONTINUOUS
10
1.51545
20
-1.24374
11
1.52138
21
-1.2475
0
LINE
8
BLACK
6
CONTINUOUS
10
1.52138
20
-1.2475
11
1.52633
21
-1.25248
0
LINE
8
BLACK
6
CONTINUOUS
10
1.52633
20
-1.25248
11
1.53005
21
-1.25844
0
LINE
8
BLACK
6
CONTINUOUS
10
1.53005
20
-1.25844
11
1.53236
21
-1.26507
0
LINE
8
BLACK
6
CONTINUOUS
10
1.53236
20
-1.26507
11
1.53314
21
-1.27205
0
LINE
8
BLACK
6
CONTINUOUS
10
1.53314
20
-1.27205
11
1.53313
21
-1.27293
0
LINE
8
BLACK
6
CONTINUOUS
10
1.53313
20
-1.27293
11
1.53215
21
-1.27988
0
LINE
8
BLACK
6
CONTINUOUS
10
1.53215
20
-1.27988
11
1.52966
21
-1.28644
0
LINE
8
BLACK
6
CONTINUOUS
10
1.52966
20
-1.28644
11
1.52577
21
-1.29229
0
LINE
8
BLACK
6
CONTINUOUS
10
1.52577
20
-1.29229
11
1.52068
21
-1.29713
0
LINE
8
BLACK
6
CONTINUOUS
10
1.52068
20
-1.29713
11
1.51465
21
-1.30073
0
LINE
8
BLACK
6
CONTINUOUS
10
1.51465
20
-1.30073
11
1.50798
21
-1.3029
0
LINE
8
BLACK
6
CONTINUOUS
10
1.50798
20
-1.3029
11
1.50098
21
-1.30354
0
LINE
8
BLACK
6
CONTINUOUS
10
1.50098
20
-1.30354
11
1.49402
21
-1.30261
0
LINE
8
BLACK
6
CONTINUOUS
10
1.49402
20
-1.30261
11
1.48744
21
-1.30016
0
LINE
8
BLACK
6
CONTINUOUS
10
1.48744
20
-1.30016
11
1.48157
21
-1.29632
0
LINE
8
BLACK
6
CONTINUOUS
10
1.48157
20
-1.29632
11
1.47669
21
-1.29126
0
LINE
8
BLACK
6
CONTINUOUS
10
1.47669
20
-1.29126
11
1.47305
21
-1.28526
0
LINE
8
BLACK
6
CONTINUOUS
10
1.47305
20
-1.28526
11
1.47083
21
-1.2786
0
LINE
8
BLACK
6
CONTINUOUS
10
1.47083
20
-1.2786
11
1.47015
21
-1.27161
0
LINE
8
BLACK
6
CONTINUOUS
10
1.47015
20
-1.27161
11
1.47103
21
-1.26464
0
LINE
8
BLACK
6
CONTINUOUS
10
1.47103
20
-1.26464
11
1.47343
21
-1.25804
0
LINE
8
BLACK
6
CONTINUOUS
10
1.47343
20
-1.25804
11
1.47723
21
-1.25214
0
LINE
8
BLACK
6
CONTINUOUS
10
1.47723
20
-1.25214
11
1.48225
21
-1.24723
0
LINE
8
BLACK
6
CONTINUOUS
10
1.48225
20
-1.24723
11
1.48823
21
-1.24355
0
LINE
8
BLACK
6
CONTINUOUS
10
1.48823
20
-1.24355
11
1.49488
21
-1.24129
0
LINE
8
BLACK
6
CONTINUOUS
10
1.49488
20
-1.24129
11
1.50186
21
-1.24055
0
LINE
8
BLACK
6
CONTINUOUS
10
1.50186
20
-1.24055
11
1.50883
21
-1.24138
0
LINE
8
BLACK
6
CONTINUOUS
10
1.66883
20
-1.24138
11
1.67545
21
-1.24374
0
LINE
8
BLACK
6
CONTINUOUS
10
1.67545
20
-1.24374
11
1.68138
21
-1.2475
0
LINE
8
BLACK
6
CONTINUOUS
10
1.68138
20
-1.2475
11
1.68633
21
-1.25248
0
LINE
8
BLACK
6
CONTINUOUS
10
1.68633
20
-1.25248
11
1.69005
21
-1.25844
0
LINE
8
BLACK
6
CONTINUOUS
10
1.69005
20
-1.25844
11
1.69236
21
-1.26507
0
LINE
8
BLACK
6
CONTINUOUS
10
1.69236
20
-1.26507
11
1.69314
21
-1.27205
0
LINE
8
BLACK
6
CONTINUOUS
10
1.69314
20
-1.27205
11
1.69313
21
-1.27293
0
LINE
8
BLACK
6
CONTINUOUS
10
1.69313
20
-1.27293
11
1.69215
21
-1.27988
0
LINE
8
BLACK
6
CONTINUOUS
10
1.69215
20
-1.27988
11
1.68966
21
-1.28644
0
LINE
8
BLACK
6
CONTINUOUS
10
1.68966
20
-1.28644
11
1.68577
21
-1.29229
0
LINE
8
BLACK
6
CONTINUOUS
10
1.68577
20
-1.29229
11
1.68068
21
-1.29713
0
LINE
8
BLACK
6
CONTINUOUS
10
1.68068
20
-1.29713
11
1.67465
21
-1.30073
0
LINE
8
BLACK
6
CONTINUOUS
10
1.67465
20
-1.30073
11
1.66798
21
-1.3029
0
LINE
8
BLACK
6
CONTINUOUS
10
1.66798
20
-1.3029
11
1.66098
21
-1.30354
0
LINE
8
BLACK
6
CONTINUOUS
10
1.66098
20
-1.30354
11
1.65402
21
-1.30261
0
LINE
8
BLACK
6
CONTINUOUS
10
1.65402
20
-1.30261
11
1.64744
21
-1.30016
0
LINE
8
BLACK
6
CONTINUOUS
10
1.64744
20
-1.30016
11
1.64157
21
-1.29632
0
LINE
8
BLACK
6
CONTINUOUS
10
1.64157
20
-1.29632
11
1.63669
21
-1.29126
0
LINE
8
BLACK
6
CONTINUOUS
10
1.63669
20
-1.29126
11
1.63305
21
-1.28526
0
LINE
8
BLACK
6
CONTINUOUS
10
1.63305
20
-1.28526
11
1.63083
21
-1.2786
0
LINE
8
BLACK
6
CONTINUOUS
10
1.63083
20
-1.2786
11
1.63015
21
-1.27161
0
LINE
8
BLACK
6
CONTINUOUS
10
1.63015
20
-1.27161
11
1.63103
21
-1.26464
0
LINE
8
BLACK
6
CONTINUOUS
10
1.63103
20
-1.26464
11
1.63343
21
-1.25804
0
LINE
8
BLACK
6
CONTINUOUS
10
1.63343
20
-1.25804
11
1.63723
21
-1.25214
0
LINE
8
BLACK
6
CONTINUOUS
10
1.63723
20
-1.25214
11
1.64225
21
-1.24723
0
LINE
8
BLACK
6
CONTINUOUS
10
1.64225
20
-1.24723
11
1.64823
21
-1.24355
0
LINE
8
BLACK
6
CONTINUOUS
10
1.64823
20
-1.24355
11
1.65488
21
-1.24129
0
LINE
8
BLACK
6
CONTINUOUS
10
1.65488
20
-1.24129
11
1.66186
21
-1.24055
0
LINE
8
BLACK
6
CONTINUOUS
10
1.66186
20
-1.24055
11
1.66883
21
-1.24138
0
LINE
8
BLACK
6
CONTINUOUS
10
0.658835
20
-1.23138
11
0.665449
21
-1.23374
0
LINE
8
BLACK
6
CONTINUOUS
10
0.665449
20
-1.23374
11
0.671378
21
-1.2375
0
LINE
8
BLACK
6
CONTINUOUS
10
0.671378
20
-1.2375
11
0.676326
21
-1.24248
0
LINE
8
BLACK
6
CONTINUOUS
10
0.676326
20
-1.24248
11
0.680047
21
-1.24844
0
LINE
8
BLACK
6
CONTINUOUS
10
0.680047
20
-1.24844
11
0.682356
21
-1.25507
0
LINE
8
BLACK
6
CONTINUOUS
10
0.682356
20
-1.25507
11
0.683138
21
-1.26205
0
LINE
8
BLACK
6
CONTINUOUS
10
0.683138
20
-1.26205
11
0.683126
21
-1.26293
0
LINE
8
BLACK
6
CONTINUOUS
10
0.683126
20
-1.26293
11
0.682149
21
-1.26988
0
LINE
8
BLACK
6
CONTINUOUS
10
0.682149
20
-1.26988
11
0.679656
21
-1.27644
0
LINE
8
BLACK
6
CONTINUOUS
10
0.679656
20
-1.27644
11
0.67577
21
-1.28229
0
LINE
8
BLACK
6
CONTINUOUS
10
0.67577
20
-1.28229
11
0.670685
21
-1.28713
0
LINE
8
BLACK
6
CONTINUOUS
10
0.670685
20
-1.28713
11
0.664654
21
-1.29073
0
LINE
8
BLACK
6
CONTINUOUS
10
0.664654
20
-1.29073
11
0.657976
21
-1.2929
0
LINE
8
BLACK
6
CONTINUOUS
10
0.657976
20
-1.2929
11
0.650983
21
-1.29354
0
LINE
8
BLACK
6
CONTINUOUS
10
0.650983
20
-1.29354
11
0.644023
21
-1.29261
0
LINE
8
BLACK
6
CONTINUOUS
10
0.644023
20
-1.29261
11
0.637442
21
-1.29016
0
LINE
8
BLACK
6
CONTINUOUS
10
0.637442
20
-1.29016
11
0.631566
21
-1.28632
0
LINE
8
BLACK
6
CONTINUOUS
10
0.631566
20
-1.28632
11
0.626688
21
-1.28126
0
LINE
8
BLACK
6
CONTINUOUS
10
0.626688
20
-1.28126
11
0.623051
21
-1.27526
0
LINE
8
BLACK
6
CONTINUOUS
10
0.623051
20
-1.27526
11
0.620835
21
-1.2686
0
LINE
8
BLACK
6
CONTINUOUS
10
0.620835
20
-1.2686
11
0.620149
21
-1.26161
0
LINE
8
BLACK
6
CONTINUOUS
10
0.620149
20
-1.26161
11
0.621029
21
-1.25464
0
LINE
8
BLACK
6
CONTINUOUS
10
0.621029
20
-1.25464
11
0.623431
21
-1.24804
0
LINE
8
BLACK
6
CONTINUOUS
10
0.623431
20
-1.24804
11
0.627235
21
-1.24214
0
LINE
8
BLACK
6
CONTINUOUS
10
0.627235
20
-1.24214
11
0.632251
21
-1.23723
0
LINE
8
BLACK
6
CONTINUOUS
10
0.632251
20
-1.23723
11
0.638232
21
-1.23355
0
LINE
8
BLACK
6
CONTINUOUS
10
0.638232
20
-1.23355
11
0.644879
21
-1.23129
0
LINE
8
BLACK
6
CONTINUOUS
10
0.644879
20
-1.23129
11
0.651862
21
-1.23055
0
LINE
8
BLACK
6
CONTINUOUS
10
0.651862
20
-1.23055
11
0.658835
21
-1.23138
0
LINE
8
BLACK
6
CONTINUOUS
10
0.498835
20
-1.23138
11
0.505449
21
-1.23374
0
LINE
8
BLACK
6
CONTINUOUS
10
0.505449
20
-1.23374
11
0.511378
21
-1.2375
0
LINE
8
BLACK
6
CONTINUOUS
10
0.511378
20
-1.2375
11
0.516326
21
-1.24248
0
LINE
8
BLACK
6
CONTINUOUS
10
0.516326
20
-1.24248
11
0.520047
21
-1.24844
0
LINE
8
BLACK
6
CONTINUOUS
10
0.520047
20
-1.24844
11
0.522356
21
-1.25507
0
LINE
8
BLACK
6
CONTINUOUS
10
0.522356
20
-1.25507
11
0.523138
21
-1.26205
0
LINE
8
BLACK
6
CONTINUOUS
10
0.523138
20
-1.26205
11
0.523126
21
-1.26293
0
LINE
8
BLACK
6
CONTINUOUS
10
0.523126
20
-1.26293
11
0.522149
21
-1.26988
0
LINE
8
BLACK
6
CONTINUOUS
10
0.522149
20
-1.26988
11
0.519656
21
-1.27644
0
LINE
8
BLACK
6
CONTINUOUS
10
0.519656
20
-1.27644
11
0.51577
21
-1.28229
0
LINE
8
BLACK
6
CONTINUOUS
10
0.51577
20
-1.28229
11
0.510685
21
-1.28713
0
LINE
8
BLACK
6
CONTINUOUS
10
0.510685
20
-1.28713
11
0.504654
21
-1.29073
0
LINE
8
BLACK
6
CONTINUOUS
10
0.504654
20
-1.29073
11
0.497976
21
-1.2929
0
LINE
8
BLACK
6
CONTINUOUS
10
0.497976
20
-1.2929
11
0.490983
21
-1.29354
0
LINE
8
BLACK
6
CONTINUOUS
10
0.490983
20
-1.29354
11
0.484023
21
-1.29261
0
LINE
8
BLACK
6
CONTINUOUS
10
0.484023
20
-1.29261
11
0.477442
21
-1.29016
0
LINE
8
BLACK
6
CONTINUOUS
10
0.477442
20
-1.29016
11
0.471566
21
-1.28632
0
LINE
8
BLACK
6
CONTINUOUS
10
0.471566
20
-1.28632
11
0.466688
21
-1.28126
0
LINE
8
BLACK
6
CONTINUOUS
10
0.466688
20
-1.28126
11
0.463051
21
-1.27526
0
LINE
8
BLACK
6
CONTINUOUS
10
0.463051
20
-1.27526
11
0.460835
21
-1.2686
0
LINE
8
BLACK
6
CONTINUOUS
10
0.460835
20
-1.2686
11
0.460149
21
-1.26161
0
LINE
8
BLACK
6
CONTINUOUS
10
0.460149
20
-1.26161
11
0.461029
21
-1.25464
0
LINE
8
BLACK
6
CONTINUOUS
10
0.461029
20
-1.25464
11
0.463431
21
-1.24804
0
LINE
8
BLACK
6
CONTINUOUS
10
0.463431
20
-1.24804
11
0.467235
21
-1.24214
0
LINE
8
BLACK
6
CONTINUOUS
10
0.467235
20
-1.24214
11
0.472251
21
-1.23723
0
LINE
8
BLACK
6
CONTINUOUS
10
0.472251
20
-1.23723
11
0.478232
21
-1.23355
0
LINE
8
BLACK
6
CONTINUOUS
10
0.478232
20
-1.23355
11
0.484879
21
-1.23129
0
LINE
8
BLACK
6
CONTINUOUS
10
0.484879
20
-1.23129
11
0.491862
21
-1.23055
0
LINE
8
BLACK
6
CONTINUOUS
10
0.491862
20
-1.23055
11
0.498835
21
-1.23138
0
LINE
8
BLACK
6
CONTINUOUS
10
1.66883
20
-0.941383
11
1.67545
21
-0.943739
0
LINE
8
BLACK
6
CONTINUOUS
10
1.67545
20
-0.943739
11
1.68138
21
-0.947501
0
LINE
8
BLACK
6
CONTINUOUS
10
1.68138
20
-0.947501
11
1.68633
21
-0.952484
0
LINE
8
BLACK
6
CONTINUOUS
10
1.68633
20
-0.952484
11
1.69005
21
-0.958438
0
LINE
8
BLACK
6
CONTINUOUS
10
1.69005
20
-0.958438
11
1.69236
21
-0.965069
0
LINE
8
BLACK
6
CONTINUOUS
10
1.69236
20
-0.965069
11
1.69314
21
-0.972047
0
LINE
8
BLACK
6
CONTINUOUS
10
1.69314
20
-0.972047
11
1.69313
21
-0.972927
0
LINE
8
BLACK
6
CONTINUOUS
10
1.69313
20
-0.972927
11
1.69215
21
-0.97988
0
LINE
8
BLACK
6
CONTINUOUS
10
1.69215
20
-0.97988
11
1.68966
21
-0.986444
0
LINE
8
BLACK
6
CONTINUOUS
10
1.68966
20
-0.986444
11
1.68577
21
-0.992293
0
LINE
8
BLACK
6
CONTINUOUS
10
1.68577
20
-0.992293
11
1.68068
21
-0.997135
0
LINE
8
BLACK
6
CONTINUOUS
10
1.68068
20
-0.997135
11
1.67465
21
-1.00073
0
LINE
8
BLACK
6
CONTINUOUS
10
1.67465
20
-1.00073
11
1.66798
21
-1.0029
0
LINE
8
BLACK
6
CONTINUOUS
10
1.66798
20
-1.0029
11
1.66098
21
-1.00354
0
LINE
8
BLACK
6
CONTINUOUS
10
1.66098
20
-1.00354
11
1.65402
21
-1.00261
0
LINE
8
BLACK
6
CONTINUOUS
10
1.65402
20
-1.00261
11
1.64744
21
-1.00016
0
LINE
8
BLACK
6
CONTINUOUS
10
1.64744
20
-1.00016
11
1.64157
21
-0.996315
0
LINE
8
BLACK
6
CONTINUOUS
10
1.64157
20
-0.996315
11
1.63669
21
-0.991264
0
LINE
8
BLACK
6
CONTINUOUS
10
1.63669
20
-0.991264
11
1.63305
21
-0.985258
0
LINE
8
BLACK
6
CONTINUOUS
10
1.63305
20
-0.985258
11
1.63083
21
-0.978596
0
LINE
8
BLACK
6
CONTINUOUS
10
1.63083
20
-0.978596
11
1.63015
21
-0.971607
0
LINE
8
BLACK
6
CONTINUOUS
10
1.63015
20
-0.971607
11
1.63103
21
-0.964641
0
LINE
8
BLACK
6
CONTINUOUS
10
1.63103
20
-0.964641
11
1.63343
21
-0.958043
0
LINE
8
BLACK
6
CONTINUOUS
10
1.63343
20
-0.958043
11
1.63723
21
-0.952141
0
LINE
8
BLACK
6
CONTINUOUS
10
1.63723
20
-0.952141
11
1.64225
21
-0.947228
0
LINE
8
BLACK
6
CONTINUOUS
10
1.64225
20
-0.947228
11
1.64823
21
-0.943549
0
LINE
8
BLACK
6
CONTINUOUS
10
1.64823
20
-0.943549
11
1.65488
21
-0.941286
0
LINE
8
BLACK
6
CONTINUOUS
10
1.65488
20
-0.941286
11
1.66186
21
-0.940552
0
LINE
8
BLACK
6
CONTINUOUS
10
1.66186
20
-0.940552
11
1.66883
21
-0.941383
0
LINE
8
BLACK
6
CONTINUOUS
10
1.50883
20
-0.941383
11
1.51545
21
-0.943739
0
LINE
8
BLACK
6
CONTINUOUS
10
1.51545
20
-0.943739
11
1.52138
21
-0.947501
0
LINE
8
BLACK
6
CONTINUOUS
10
1.52138
20
-0.947501
11
1.52633
21
-0.952484
0
LINE
8
BLACK
6
CONTINUOUS
10
1.52633
20
-0.952484
11
1.53005
21
-0.958438
0
LINE
8
BLACK
6
CONTINUOUS
10
1.53005
20
-0.958438
11
1.53236
21
-0.965069
0
LINE
8
BLACK
6
CONTINUOUS
10
1.53236
20
-0.965069
11
1.53314
21
-0.972047
0
LINE
8
BLACK
6
CONTINUOUS
10
1.53314
20
-0.972047
11
1.53313
21
-0.972927
0
LINE
8
BLACK
6
CONTINUOUS
10
1.53313
20
-0.972927
11
1.53215
21
-0.97988
0
LINE
8
BLACK
6
CONTINUOUS
10
1.53215
20
-0.97988
11
1.52966
21
-0.986444
0
LINE
8
BLACK
6
CONTINUOUS
10
1.52966
20
-0.986444
11
1.52577
21
-0.992293
0
LINE
8
BLACK
6
CONTINUOUS
10
1.52577
20
-0.992293
11
1.52068
21
-0.997135
0
LINE
8
BLACK
6
CONTINUOUS
10
1.52068
20
-0.997135
11
1.51465
21
-1.00073
0
LINE
8
BLACK
6
CONTINUOUS
10
1.51465
20
-1.00073
11
1.50798
21
-1.0029
0
LINE
8
BLACK
6
CONTINUOUS
10
1.50798
20
-1.0029
11
1.50098
21
-1.00354
0
LINE
8
BLACK
6
CONTINUOUS
10
1.50098
20
-1.00354
11
1.49402
21
-1.00261
0
LINE
8
BLACK
6
CONTINUOUS
10
1.49402
20
-1.00261
11
1.48744
21
-1.00016
0
LINE
8
BLACK
6
CONTINUOUS
10
1.48744
20
-1.00016
11
1.48157
21
-0.996315
0
LINE
8
BLACK
6
CONTINUOUS
10
1.48157
20
-0.996315
11
1.47669
21
-0.991264
0
LINE
8
BLACK
6
CONTINUOUS
10
1.47669
20
-0.991264
11
1.47305
21
-0.985258
0
LINE
8
BLACK
6
CONTINUOUS
10
1.47305
20
-0.985258
11
1.47083
21
-0.978596
0
LINE
8
BLACK
6
CONTINUOUS
10
1.47083
20
-0.978596
11
1.47015
21
-0.971607
0
LINE
8
BLACK
6
CONTINUOUS
10
1.47015
20
-0.971607
11
1.47103
21
-0.964641
0
LINE
8
BLACK
6
CONTINUOUS
10
1.47103
20
-0.964641
11
1.47343
21
-0.958043
0
LINE
8
BLACK
6
CONTINUOUS
10
1.47343
20
-0.958043
11
1.47723
21
-0.952141
0
LINE
8
BLACK
6
CONTINUOUS
10
1.47723
20
-0.952141
11
1.48225
21
-0.947228
0
LINE
8
BLACK
6
CONTINUOUS
10
1.48225
20
-0.947228
11
1.48823
21
-0.943549
0
LINE
8
BLACK
6
CONTINUOUS
10
1.48823
20
-0.943549
11
1.49488
21
-0.941286
0
LINE
8
BLACK
6
CONTINUOUS
10
1.49488
20
-0.941286
11
1.50186
21
-0.940552
0
LINE
8
BLACK
6
CONTINUOUS
10
1.50186
20
-0.940552
11
1.50883
21
-0.941383
0
LINE
8
BLACK
6
CONTINUOUS
10
0.658835
20
-0.931383
11
0.665449
21
-0.933739
0
LINE
8
BLACK
6
CONTINUOUS
10
0.665449
20
-0.933739
11
0.671378
21
-0.937501
0
LINE
8
BLACK
6
CONTINUOUS
10
0.671378
20
-0.937501
11
0.676326
21
-0.942484
0
LINE
8
BLACK
6
CONTINUOUS
10
0.676326
20
-0.942484
11
0.680047
21
-0.948438
0
LINE
8
BLACK
6
CONTINUOUS
10
0.680047
20
-0.948438
11
0.682356
21
-0.955069
0
LINE
8
BLACK
6
CONTINUOUS
10
0.682356
20
-0.955069
11
0.683138
21
-0.962047
0
LINE
8
BLACK
6
CONTINUOUS
10
0.683138
20
-0.962047
11
0.683126
21
-0.962927
0
LINE
8
BLACK
6
CONTINUOUS
10
0.683126
20
-0.962927
11
0.682149
21
-0.96988
0
LINE
8
BLACK
6
CONTINUOUS
10
0.682149
20
-0.96988
11
0.679656
21
-0.976444
0
LINE
8
BLACK
6
CONTINUOUS
10
0.679656
20
-0.976444
11
0.67577
21
-0.982293
0
LINE
8
BLACK
6
CONTINUOUS
10
0.67577
20
-0.982293
11
0.670685
21
-0.987135
0
LINE
8
BLACK
6
CONTINUOUS
10
0.670685
20
-0.987135
11
0.664654
21
-0.99073
0
LINE
8
BLACK
6
CONTINUOUS
10
0.664654
20
-0.99073
11
0.657976
21
-0.9929
0
LINE
8
BLACK
6
CONTINUOUS
10
0.657976
20
-0.9929
11
0.650983
21
-0.993536
0
LINE
8
BLACK
6
CONTINUOUS
10
0.650983
20
-0.993536
11
0.644023
21
-0.992608
0
LINE
8
BLACK
6
CONTINUOUS
10
0.644023
20
-0.992608
11
0.637442
21
-0.99016
0
LINE
8
BLACK
6
CONTINUOUS
10
0.637442
20
-0.99016
11
0.631566
21
-0.986315
0
LINE
8
BLACK
6
CONTINUOUS
10
0.631566
20
-0.986315
11
0.626688
21
-0.981264
0
LINE
8
BLACK
6
CONTINUOUS
10
0.626688
20
-0.981264
11
0.623051
21
-0.975258
0
LINE
8
BLACK
6
CONTINUOUS
10
0.623051
20
-0.975258
11
0.620835
21
-0.968596
0
LINE
8
BLACK
6
CONTINUOUS
10
0.620835
20
-0.968596
11
0.620149
21
-0.961607
0
LINE
8
BLACK
6
CONTINUOUS
10
0.620149
20
-0.961607
11
0.621029
21
-0.954641
0
LINE
8
BLACK
6
CONTINUOUS
10
0.621029
20
-0.954641
11
0.623431
21
-0.948043
0
LINE
8
BLACK
6
CONTINUOUS
10
0.623431
20
-0.948043
11
0.627235
21
-0.942141
0
LINE
8
BLACK
6
CONTINUOUS
10
0.627235
20
-0.942141
11
0.632251
21
-0.937228
0
LINE
8
BLACK
6
CONTINUOUS
10
0.632251
20
-0.937228
11
0.638232
21
-0.933549
0
LINE
8
BLACK
6
CONTINUOUS
10
0.638232
20
-0.933549
11
0.644879
21
-0.931286
0
LINE
8
BLACK
6
CONTINUOUS
10
0.644879
20
-0.931286
11
0.651862
21
-0.930552
0
LINE
8
BLACK
6
CONTINUOUS
10
0.651862
20
-0.930552
11
0.658835
21
-0.931383
0
LINE
8
BLACK
6
CONTINUOUS
10
0.498835
20
-0.931383
11
0.505449
21
-0.933739
0
LINE
8
BLACK
6
CONTINUOUS
10
0.505449
20
-0.933739
11
0.511378
21
-0.937501
0
LINE
8
BLACK
6
CONTINUOUS
10
0.511378
20
-0.937501
11
0.516326
21
-0.942484
0
LINE
8
BLACK
6
CONTINUOUS
10
0.516326
20
-0.942484
11
0.520047
21
-0.948438
0
LINE
8
BLACK
6
CONTINUOUS
10
0.520047
20
-0.948438
11
0.522356
21
-0.955069
0
LINE
8
BLACK
6
CONTINUOUS
10
0.522356
20
-0.955069
11
0.523138
21
-0.962047
0
LINE
8
BLACK
6
CONTINUOUS
10
0.523138
20
-0.962047
11
0.523126
21
-0.962927
0
LINE
8
BLACK
6
CONTINUOUS
10
0.523126
20
-0.962927
11
0.522149
21
-0.96988
0
LINE
8
BLACK
6
CONTINUOUS
10
0.522149
20
-0.96988
11
0.519656
21
-0.976444
0
LINE
8
BLACK
6
CONTINUOUS
10
0.519656
20
-0.976444
11
0.51577
21
-0.982293
0
LINE
8
BLACK
6
CONTINUOUS
10
0.51577
20
-0.982293
11
0.510685
21
-0.987135
0
LINE
8
BLACK
6
CONTINUOUS
10
0.510685
20
-0.987135
11
0.504654
21
-0.99073
0
LINE
8
BLACK
6
CONTINUOUS
10
0.504654
20
-0.99073
11
0.497976
21
-0.9929
0
LINE
8
BLACK
6
CONTINUOUS
10
0.497976
20
-0.9929
11
0.490983
21
-0.993536
0
LINE
8
BLACK
6
CONTINUOUS
10
0.490983
20
-0.993536
11
0.484023
21
-0.992608
0
LINE
8
BLACK
6
CONTINUOUS
10
0.484023
20
-0.992608
11
0.477442
21
-0.99016
0
LINE
8
BLACK
6
CONTINUOUS
10
0.477442
20
-0.99016
11
0.471566
21
-0.986315
0
LINE
8
BLACK
6
CONTINUOUS
10
0.471566
20
-0.986315
11
0.466688
21
-0.981264
0
LINE
8
BLACK
6
CONTINUOUS
10
0.466688
20
-0.981264
11
0.463051
21
-0.975258
0
LINE
8
BLACK
6
CONTINUOUS
10
0.463051
20
-0.975258
11
0.460835
21
-0.968596
0
LINE
8
BLACK
6
CONTINUOUS
10
0.460835
20
-0.968596
11
0.460149
21
-0.961607
0
LINE
8
BLACK
6
CONTINUOUS
10
0.460149
20
-0.961607
11
0.461029
21
-0.954641
0
LINE
8
BLACK
6
CONTINUOUS
10
0.461029
20
-0.954641
11
0.463431
21
-0.948043
0
LINE
8
BLACK
6
CONTINUOUS
10
0.463431
20
-0.948043
11
0.467235
21
-0.942141
0
LINE
8
BLACK
6
CONTINUOUS
10
0.467235
20
-0.942141
11
0.472251
21
-0.937228
0
LINE
8
BLACK
6
CONTINUOUS
10
0.472251
20
-0.937228
11
0.478232
21
-0.933549
0
LINE
8
BLACK
6
CONTINUOUS
10
0.478232
20
-0.933549
11
0.484879
21
-0.931286
0
LINE
8
BLACK
6
CONTINUOUS
10
0.484879
20
-0.931286
11
0.491862
21
-0.930552
0
LINE
8
BLACK
6
CONTINUOUS
10
0.491862
20
-0.930552
11
0.498835
21
-0.931383
0
LINE
8
BLACK
6
CONTINUOUS
10
1.58708
20
-0.80748
11
1.51621
21
-0.80748
0
LINE
8
BLACK
6
CONTINUOUS
10
1.51621
20
-0.80748
11
1.51621
21
-0.736614
0
LINE
8
BLACK
6
CONTINUOUS
10
1.51621
20
-0.736614
11
1.58708
21
-0.736614
0
LINE
8
BLACK
6
CONTINUOUS
10
1.58708
20
-0.736614
11
1.58708
21
-0.80748
0
LINE
8
BLACK
6
CONTINUOUS
10
1.23708
20
-0.80748
11
1.16621
21
-0.80748
0
LINE
8
BLACK
6
CONTINUOUS
10
1.16621
20
-0.80748
11
1.16621
21
-0.736614
0
LINE
8
BLACK
6
CONTINUOUS
10
1.16621
20
-0.736614
11
1.23708
21
-0.736614
0
LINE
8
BLACK
6
CONTINUOUS
10
1.23708
20
-0.736614
11
1.23708
21
-0.80748
0
LINE
8
BLACK
6
CONTINUOUS
10
1.31259
20
-0.738348
11
1.31936
21
-0.741361
0
LINE
8
BLACK
6
CONTINUOUS
10
1.31936
20
-0.741361
11
1.32535
21
-0.745715
0
LINE
8
BLACK
6
CONTINUOUS
10
1.32535
20
-0.745715
11
1.33031
21
-0.75122
0
LINE
8
BLACK
6
CONTINUOUS
10
1.33031
20
-0.75122
11
1.33401
21
-0.757635
0
LINE
8
BLACK
6
CONTINUOUS
10
1.33401
20
-0.757635
11
1.3363
21
-0.76468
0
LINE
8
BLACK
6
CONTINUOUS
10
1.3363
20
-0.76468
11
1.33708
21
-0.772047
0
LINE
8
BLACK
6
CONTINUOUS
10
1.33708
20
-0.772047
11
1.3363
21
-0.779414
0
LINE
8
BLACK
6
CONTINUOUS
10
1.3363
20
-0.779414
11
1.33401
21
-0.786459
0
LINE
8
BLACK
6
CONTINUOUS
10
1.33401
20
-0.786459
11
1.33031
21
-0.792874
0
LINE
8
BLACK
6
CONTINUOUS
10
1.33031
20
-0.792874
11
1.32535
21
-0.798379
0
LINE
8
BLACK
6
CONTINUOUS
10
1.32535
20
-0.798379
11
1.31936
21
-0.802733
0
LINE
8
BLACK
6
CONTINUOUS
10
1.31936
20
-0.802733
11
1.31259
21
-0.805746
0
LINE
8
BLACK
6
CONTINUOUS
10
1.31259
20
-0.805746
11
1.30535
21
-0.807286
0
LINE
8
BLACK
6
CONTINUOUS
10
1.30535
20
-0.807286
11
1.29794
21
-0.807286
0
LINE
8
BLACK
6
CONTINUOUS
10
1.29794
20
-0.807286
11
1.29069
21
-0.805746
0
LINE
8
BLACK
6
CONTINUOUS
10
1.29069
20
-0.805746
11
1.28393
21
-0.802733
0
LINE
8
BLACK
6
CONTINUOUS
10
1.28393
20
-0.802733
11
1.27793
21
-0.798379
0
LINE
8
BLACK
6
CONTINUOUS
10
1.27793
20
-0.798379
11
1.27298
21
-0.792874
0
LINE
8
BLACK
6
CONTINUOUS
10
1.27298
20
-0.792874
11
1.26927
21
-0.786459
0
LINE
8
BLACK
6
CONTINUOUS
10
1.26927
20
-0.786459
11
1.26698
21
-0.779414
0
LINE
8
BLACK
6
CONTINUOUS
10
1.26698
20
-0.779414
11
1.26621
21
-0.772047
0
LINE
8
BLACK
6
CONTINUOUS
10
1.26621
20
-0.772047
11
1.26698
21
-0.76468
0
LINE
8
BLACK
6
CONTINUOUS
10
1.26698
20
-0.76468
11
1.26927
21
-0.757635
0
LINE
8
BLACK
6
CONTINUOUS
10
1.26927
20
-0.757635
11
1.27298
21
-0.75122
0
LINE
8
BLACK
6
CONTINUOUS
10
1.27298
20
-0.75122
11
1.27793
21
-0.745715
0
LINE
8
BLACK
6
CONTINUOUS
10
1.27793
20
-0.745715
11
1.28393
21
-0.741361
0
LINE
8
BLACK
6
CONTINUOUS
10
1.28393
20
-0.741361
11
1.29069
21
-0.738348
0
LINE
8
BLACK
6
CONTINUOUS
10
1.29069
20
-0.738348
11
1.29794
21
-0.736808
0
LINE
8
BLACK
6
CONTINUOUS
10
1.29794
20
-0.736808
11
1.30535
21
-0.736808
0
LINE
8
BLACK
6
CONTINUOUS
10
1.30535
20
-0.736808
11
1.31259
21
-0.738348
0
LINE
8
BLACK
6
CONTINUOUS
10
1.66259
20
-0.738348
11
1.66936
21
-0.741361
0
LINE
8
BLACK
6
CONTINUOUS
10
1.66936
20
-0.741361
11
1.67535
21
-0.745715
0
LINE
8
BLACK
6
CONTINUOUS
10
1.67535
20
-0.745715
11
1.68031
21
-0.75122
0
LINE
8
BLACK
6
CONTINUOUS
10
1.68031
20
-0.75122
11
1.68401
21
-0.757635
0
LINE
8
BLACK
6
CONTINUOUS
10
1.68401
20
-0.757635
11
1.6863
21
-0.76468
0
LINE
8
BLACK
6
CONTINUOUS
10
1.6863
20
-0.76468
11
1.68708
21
-0.772047
0
LINE
8
BLACK
6
CONTINUOUS
10
1.68708
20
-0.772047
11
1.6863
21
-0.779414
0
LINE
8
BLACK
6
CONTINUOUS
10
1.6863
20
-0.779414
11
1.68401
21
-0.786459
0
LINE
8
BLACK
6
CONTINUOUS
10
1.68401
20
-0.786459
11
1.68031
21
-0.792874
0
LINE
8
BLACK
6
CONTINUOUS
10
1.68031
20
-0.792874
11
1.67535
21
-0.798379
0
LINE
8
BLACK
6
CONTINUOUS
10
1.67535
20
-0.798379
11
1.66936
21
-0.802733
0
LINE
8
BLACK
6
CONTINUOUS
10
1.66936
20
-0.802733
11
1.66259
21
-0.805746
0
LINE
8
BLACK
6
CONTINUOUS
10
1.66259
20
-0.805746
11
1.65535
21
-0.807286
0
LINE
8
BLACK
6
CONTINUOUS
10
1.65535
20
-0.807286
11
1.64794
21
-0.807286
0
LINE
8
BLACK
6
CONTINUOUS
10
1.64794
20
-0.807286
11
1.64069
21
-0.805746
0
LINE
8
BLACK
6
CONTINUOUS
10
1.64069
20
-0.805746
11
1.63393
21
-0.802733
0
LINE
8
BLACK
6
CONTINUOUS
10
1.63393
20
-0.802733
11
1.62793
21
-0.798379
0
LINE
8
BLACK
6
CONTINUOUS
10
1.62793
20
-0.798379
11
1.62298
21
-0.792874
0
LINE
8
BLACK
6
CONTINUOUS
10
1.62298
20
-0.792874
11
1.61927
21
-0.786459
0
LINE
8
BLACK
6
CONTINUOUS
10
1.61927
20
-0.786459
11
1.61698
21
-0.779414
0
LINE
8
BLACK
6
CONTINUOUS
10
1.61698
20
-0.779414
11
1.61621
21
-0.772047
0
LINE
8
BLACK
6
CONTINUOUS
10
1.61621
20
-0.772047
11
1.61698
21
-0.76468
0
LINE
8
BLACK
6
CONTINUOUS
10
1.61698
20
-0.76468
11
1.61927
21
-0.757635
0
LINE
8
BLACK
6
CONTINUOUS
10
1.61927
20
-0.757635
11
1.62298
21
-0.75122
0
LINE
8
BLACK
6
CONTINUOUS
10
1.62298
20
-0.75122
11
1.62793
21
-0.745715
0
LINE
8
BLACK
6
CONTINUOUS
10
1.62793
20
-0.745715
11
1.63393
21
-0.741361
0
LINE
8
BLACK
6
CONTINUOUS
10
1.63393
20
-0.741361
11
1.64069
21
-0.738348
0
LINE
8
BLACK
6
CONTINUOUS
10
1.64069
20
-0.738348
11
1.64794
21
-0.736808
0
LINE
8
BLACK
6
CONTINUOUS
10
1.64794
20
-0.736808
11
1.65535
21
-0.736808
0
LINE
8
BLACK
6
CONTINUOUS
10
1.65535
20
-0.736808
11
1.66259
21
-0.738348
0
LINE
8
BLACK
6
CONTINUOUS
10
0.887075
20
-0.79626
11
0.816209
21
-0.79626
0
LINE
8
BLACK
6
CONTINUOUS
10
0.816209
20
-0.79626
11
0.816209
21
-0.725394
0
LINE
8
BLACK
6
CONTINUOUS
10
0.816209
20
-0.725394
11
0.887075
21
-0.725394
0
LINE
8
BLACK
6
CONTINUOUS
10
0.887075
20
-0.725394
11
0.887075
21
-0.79626
0
LINE
8
BLACK
6
CONTINUOUS
10
0.537075
20
-0.79626
11
0.466209
21
-0.79626
0
LINE
8
BLACK
6
CONTINUOUS
10
0.466209
20
-0.79626
11
0.466209
21
-0.725394
0
LINE
8
BLACK
6
CONTINUOUS
10
0.466209
20
-0.725394
11
0.537075
21
-0.725394
0
LINE
8
BLACK
6
CONTINUOUS
10
0.537075
20
-0.725394
11
0.537075
21
-0.79626
0
LINE
8
BLACK
6
CONTINUOUS
10
0.962592
20
-0.727128
11
0.969359
21
-0.730141
0
LINE
8
BLACK
6
CONTINUOUS
10
0.969359
20
-0.730141
11
0.975352
21
-0.734495
0
LINE
8
BLACK
6
CONTINUOUS
10
0.975352
20
-0.734495
11
0.980308
21
-0.74
0
LINE
8
BLACK
6
CONTINUOUS
10
0.980308
20
-0.74
11
0.984012
21
-0.746415
0
LINE
8
BLACK
6
CONTINUOUS
10
0.984012
20
-0.746415
11
0.986301
21
-0.75346
0
LINE
8
BLACK
6
CONTINUOUS
10
0.986301
20
-0.75346
11
0.987075
21
-0.760827
0
LINE
8
BLACK
6
CONTINUOUS
10
0.987075
20
-0.760827
11
0.986301
21
-0.768194
0
LINE
8
BLACK
6
CONTINUOUS
10
0.986301
20
-0.768194
11
0.984012
21
-0.775239
0
LINE
8
BLACK
6
CONTINUOUS
10
0.984012
20
-0.775239
11
0.980308
21
-0.781654
0
LINE
8
BLACK
6
CONTINUOUS
10
0.980308
20
-0.781654
11
0.975352
21
-0.787159
0
LINE
8
BLACK
6
CONTINUOUS
10
0.975352
20
-0.787159
11
0.969359
21
-0.791513
0
LINE
8
BLACK
6
CONTINUOUS
10
0.969359
20
-0.791513
11
0.962592
21
-0.794526
0
LINE
8
BLACK
6
CONTINUOUS
10
0.962592
20
-0.794526
11
0.955346
21
-0.796066
0
LINE
8
BLACK
6
CONTINUOUS
10
0.955346
20
-0.796066
11
0.947939
21
-0.796066
0
LINE
8
BLACK
6
CONTINUOUS
10
0.947939
20
-0.796066
11
0.940693
21
-0.794526
0
LINE
8
BLACK
6
CONTINUOUS
10
0.940693
20
-0.794526
11
0.933926
21
-0.791513
0
LINE
8
BLACK
6
CONTINUOUS
10
0.933926
20
-0.791513
11
0.927933
21
-0.787159
0
LINE
8
BLACK
6
CONTINUOUS
10
0.927933
20
-0.787159
11
0.922976
21
-0.781654
0
LINE
8
BLACK
6
CONTINUOUS
10
0.922976
20
-0.781654
11
0.919273
21
-0.775239
0
LINE
8
BLACK
6
CONTINUOUS
10
0.919273
20
-0.775239
11
0.916984
21
-0.768194
0
LINE
8
BLACK
6
CONTINUOUS
10
0.916984
20
-0.768194
11
0.916209
21
-0.760827
0
LINE
8
BLACK
6
CONTINUOUS
10
0.916209
20
-0.760827
11
0.916984
21
-0.75346
0
LINE
8
BLACK
6
CONTINUOUS
10
0.916984
20
-0.75346
11
0.919273
21
-0.746415
0
LINE
8
BLACK
6
CONTINUOUS
10
0.919273
20
-0.746415
11
0.922976
21
-0.74
0
LINE
8
BLACK
6
CONTINUOUS
10
0.922976
20
-0.74
11
0.927933
21
-0.734495
0
LINE
8
BLACK
6
CONTINUOUS
10
0.927933
20
-0.734495
11
0.933926
21
-0.730141
0
LINE
8
BLACK
6
CONTINUOUS
10
0.933926
20
-0.730141
11
0.940693
21
-0.727128
0
LINE
8
BLACK
6
CONTINUOUS
10
0.940693
20
-0.727128
11
0.947939
21
-0.725588
0
LINE
8
BLACK
6
CONTINUOUS
10
0.947939
20
-0.725588
11
0.955346
21
-0.725588
0
LINE
8
BLACK
6
CONTINUOUS
10
0.955346
20
-0.725588
11
0.962592
21
-0.727128
0
LINE
8
BLACK
6
CONTINUOUS
10
0.612592
20
-0.727128
11
0.619359
21
-0.730141
0
LINE
8
BLACK
6
CONTINUOUS
10
0.619359
20
-0.730141
11
0.625352
21
-0.734495
0
LINE
8
BLACK
6
CONTINUOUS
10
0.625352
20
-0.734495
11
0.630308
21
-0.74
0
LINE
8
BLACK
6
CONTINUOUS
10
0.630308
20
-0.74
11
0.634012
21
-0.746415
0
LINE
8
BLACK
6
CONTINUOUS
10
0.634012
20
-0.746415
11
0.636301
21
-0.75346
0
LINE
8
BLACK
6
CONTINUOUS
10
0.636301
20
-0.75346
11
0.637075
21
-0.760827
0
LINE
8
BLACK
6
CONTINUOUS
10
0.637075
20
-0.760827
11
0.636301
21
-0.768194
0
LINE
8
BLACK
6
CONTINUOUS
10
0.636301
20
-0.768194
11
0.634012
21
-0.775239
0
LINE
8
BLACK
6
CONTINUOUS
10
0.634012
20
-0.775239
11
0.630308
21
-0.781654
0
LINE
8
BLACK
6
CONTINUOUS
10
0.630308
20
-0.781654
11
0.625352
21
-0.787159
0
LINE
8
BLACK
6
CONTINUOUS
10
0.625352
20
-0.787159
11
0.619359
21
-0.791513
0
LINE
8
BLACK
6
CONTINUOUS
10
0.619359
20
-0.791513
11
0.612592
21
-0.794526
0
LINE
8
BLACK
6
CONTINUOUS
10
0.612592
20
-0.794526
11
0.605346
21
-0.796066
0
LINE
8
BLACK
6
CONTINUOUS
10
0.605346
20
-0.796066
11
0.597939
21
-0.796066
0
LINE
8
BLACK
6
CONTINUOUS
10
0.597939
20
-0.796066
11
0.590693
21
-0.794526
0
LINE
8
BLACK
6
CONTINUOUS
10
0.590693
20
-0.794526
11
0.583926
21
-0.791513
0
LINE
8
BLACK
6
CONTINUOUS
10
0.583926
20
-0.791513
11
0.577933
21
-0.787159
0
LINE
8
BLACK
6
CONTINUOUS
10
0.577933
20
-0.787159
11
0.572976
21
-0.781654
0
LINE
8
BLACK
6
CONTINUOUS
10
0.572976
20
-0.781654
11
0.569273
21
-0.775239
0
LINE
8
BLACK
6
CONTINUOUS
10
0.569273
20
-0.775239
11
0.566984
21
-0.768194
0
LINE
8
BLACK
6
CONTINUOUS
10
0.566984
20
-0.768194
11
0.566209
21
-0.760827
0
LINE
8
BLACK
6
CONTINUOUS
10
0.566209
20
-0.760827
11
0.566984
21
-0.75346
0
LINE
8
BLACK
6
CONTINUOUS
10
0.566984
20
-0.75346
11
0.569273
21
-0.746415
0
LINE
8
BLACK
6
CONTINUOUS
10
0.569273
20
-0.746415
11
0.572976
21
-0.74
0
LINE
8
BLACK
6
CONTINUOUS
10
0.572976
20
-0.74
11
0.577933
21
-0.734495
0
LINE
8
BLACK
6
CONTINUOUS
10
0.577933
20
-0.734495
11
0.583926
21
-0.730141
0
LINE
8
BLACK
6
CONTINUOUS
10
0.583926
20
-0.730141
11
0.590693
21
-0.727128
0
LINE
8
BLACK
6
CONTINUOUS
10
0.590693
20
-0.727128
11
0.597939
21
-0.725588
0
LINE
8
BLACK
6
CONTINUOUS
10
0.597939
20
-0.725588
11
0.605346
21
-0.725588
0
LINE
8
BLACK
6
CONTINUOUS
10
0.605346
20
-0.725588
11
0.612592
21
-0.727128
0
LINE
8
BLACK
6
CONTINUOUS
10
0.23902
20
-0.341973
11
0.247754
21
-0.343528
0
LINE
8
BLACK
6
CONTINUOUS
10
0.247754
20
-0.343528
11
0.256117
21
-0.34649
0
LINE
8
BLACK
6
CONTINUOUS
10
0.256117
20
-0.34649
11
0.263883
21
-0.350777
0
LINE
8
BLACK
6
CONTINUOUS
10
0.263883
20
-0.350777
11
0.270845
21
-0.356275
0
LINE
8
BLACK
6
CONTINUOUS
10
0.270845
20
-0.356275
11
0.276816
21
-0.362837
0
LINE
8
BLACK
6
CONTINUOUS
10
0.276816
20
-0.362837
11
0.281634
21
-0.370285
0
LINE
8
BLACK
6
CONTINUOUS
10
0.281634
20
-0.370285
11
0.285172
21
-0.378421
0
LINE
8
BLACK
6
CONTINUOUS
10
0.285172
20
-0.378421
11
0.287333
21
-0.387025
0
LINE
8
BLACK
6
CONTINUOUS
10
0.287333
20
-0.387025
11
0.28806
21
-0.395866
0
LINE
8
BLACK
6
CONTINUOUS
10
0.28806
20
-0.395866
11
0.287995
21
-0.398511
0
LINE
8
BLACK
6
CONTINUOUS
10
0.287995
20
-0.398511
11
0.286837
21
-0.407306
0
LINE
8
BLACK
6
CONTINUOUS
10
0.286837
20
-0.407306
11
0.284258
21
-0.415794
0
LINE
8
BLACK
6
CONTINUOUS
10
0.284258
20
-0.415794
11
0.280328
21
-0.423747
0
LINE
8
BLACK
6
CONTINUOUS
10
0.280328
20
-0.423747
11
0.275151
21
-0.430951
0
LINE
8
BLACK
6
CONTINUOUS
10
0.275151
20
-0.430951
11
0.268867
21
-0.437213
0
LINE
8
BLACK
6
CONTINUOUS
10
0.268867
20
-0.437213
11
0.261645
21
-0.442365
0
LINE
8
BLACK
6
CONTINUOUS
10
0.261645
20
-0.442365
11
0.253678
21
-0.446268
0
LINE
8
BLACK
6
CONTINUOUS
10
0.253678
20
-0.446268
11
0.245181
21
-0.448817
0
LINE
8
BLACK
6
CONTINUOUS
10
0.245181
20
-0.448817
11
0.236382
21
-0.449944
0
LINE
8
BLACK
6
CONTINUOUS
10
0.236382
20
-0.449944
11
0.227516
21
-0.449619
0
LINE
8
BLACK
6
CONTINUOUS
10
0.227516
20
-0.449619
11
0.218823
21
-0.447851
0
LINE
8
BLACK
6
CONTINUOUS
10
0.218823
20
-0.447851
11
0.210535
21
-0.444686
0
LINE
8
BLACK
6
CONTINUOUS
10
0.210535
20
-0.444686
11
0.202876
21
-0.44021
0
LINE
8
BLACK
6
CONTINUOUS
10
0.202876
20
-0.44021
11
0.19605
21
-0.434543
0
LINE
8
BLACK
6
CONTINUOUS
10
0.19605
20
-0.434543
11
0.190242
21
-0.427838
0
LINE
8
BLACK
6
CONTINUOUS
10
0.190242
20
-0.427838
11
0.185607
21
-0.420274
0
LINE
8
BLACK
6
CONTINUOUS
10
0.185607
20
-0.420274
11
0.182269
21
-0.412054
0
LINE
8
BLACK
6
CONTINUOUS
10
0.182269
20
-0.412054
11
0.180319
21
-0.4034
0
LINE
8
BLACK
6
CONTINUOUS
10
0.180319
20
-0.4034
11
0.179808
21
-0.394544
0
LINE
8
BLACK
6
CONTINUOUS
10
0.179808
20
-0.394544
11
0.180751
21
-0.385722
0
LINE
8
BLACK
6
CONTINUOUS
10
0.180751
20
-0.385722
11
0.183122
21
-0.377174
0
LINE
8
BLACK
6
CONTINUOUS
10
0.183122
20
-0.377174
11
0.186857
21
-0.369127
0
LINE
8
BLACK
6
CONTINUOUS
10
0.186857
20
-0.369127
11
0.191856
21
-0.361799
0
LINE
8
BLACK
6
CONTINUOUS
10
0.191856
20
-0.361799
11
0.197985
21
-0.355385
0
LINE
8
BLACK
6
CONTINUOUS
10
0.197985
20
-0.355385
11
0.205079
21
-0.350058
0
LINE
8
BLACK
6
CONTINUOUS
10
0.205079
20
-0.350058
11
0.212948
21
-0.345962
0
LINE
8
BLACK
6
CONTINUOUS
10
0.212948
20
-0.345962
11
0.22138
21
-0.343206
0
LINE
8
BLACK
6
CONTINUOUS
10
0.22138
20
-0.343206
11
0.23015
21
-0.341864
0
LINE
8
BLACK
6
CONTINUOUS
10
0.23015
20
-0.341864
11
0.23902
21
-0.341973
0
LINE
8
BLACK
6
CONTINUOUS
10
-0.725547
20
-0.341973
11
-0.716813
21
-0.343528
0
LINE
8
BLACK
6
CONTINUOUS
10
-0.716813
20
-0.343528
11
-0.70845
21
-0.34649
0
LINE
8
BLACK
6
CONTINUOUS
10
-0.70845
20
-0.34649
11
-0.700684
21
-0.350777
0
LINE
8
BLACK
6
CONTINUOUS
10
-0.700684
20
-0.350777
11
-0.693722
21
-0.356275
0
LINE
8
BLACK
6
CONTINUOUS
10
-0.693722
20
-0.356275
11
-0.687751
21
-0.362837
0
LINE
8
BLACK
6
CONTINUOUS
10
-0.687751
20
-0.362837
11
-0.682933
21
-0.370285
0
LINE
8
BLACK
6
CONTINUOUS
10
-0.682933
20
-0.370285
11
-0.679395
21
-0.378421
0
LINE
8
BLACK
6
CONTINUOUS
10
-0.679395
20
-0.378421
11
-0.677234
21
-0.387025
0
LINE
8
BLACK
6
CONTINUOUS
10
-0.677234
20
-0.387025
11
-0.676507
21
-0.395866
0
LINE
8
BLACK
6
CONTINUOUS
10
-0.676507
20
-0.395866
11
-0.676572
21
-0.398511
0
LINE
8
BLACK
6
CONTINUOUS
10
-0.676572
20
-0.398511
11
-0.67773
21
-0.407306
0
LINE
8
BLACK
6
CONTINUOUS
10
-0.67773
20
-0.407306
11
-0.680309
21
-0.415794
0
LINE
8
BLACK
6
CONTINUOUS
10
-0.680309
20
-0.415794
11
-0.684239
21
-0.423747
0
LINE
8
BLACK
6
CONTINUOUS
10
-0.684239
20
-0.423747
11
-0.689416
21
-0.430951
0
LINE
8
BLACK
6
CONTINUOUS
10
-0.689416
20
-0.430951
11
-0.6957
21
-0.437213
0
LINE
8
BLACK
6
CONTINUOUS
10
-0.6957
20
-0.437213
11
-0.702922
21
-0.442365
0
LINE
8
BLACK
6
CONTINUOUS
10
-0.702922
20
-0.442365
11
-0.710889
21
-0.446268
0
LINE
8
BLACK
6
CONTINUOUS
10
-0.710889
20
-0.446268
11
-0.719386
21
-0.448817
0
LINE
8
BLACK
6
CONTINUOUS
10
-0.719386
20
-0.448817
11
-0.728185
21
-0.449944
0
LINE
8
BLACK
6
CONTINUOUS
10
-0.728185
20
-0.449944
11
-0.737051
21
-0.449619
0
LINE
8
BLACK
6
CONTINUOUS
10
-0.737051
20
-0.449619
11
-0.745744
21
-0.447851
0
LINE
8
BLACK
6
CONTINUOUS
10
-0.745744
20
-0.447851
11
-0.754032
21
-0.444686
0
LINE
8
BLACK
6
CONTINUOUS
10
-0.754032
20
-0.444686
11
-0.761691
21
-0.44021
0
LINE
8
BLACK
6
CONTINUOUS
10
-0.761691
20
-0.44021
11
-0.768517
21
-0.434543
0
LINE
8
BLACK
6
CONTINUOUS
10
-0.768517
20
-0.434543
11
-0.774325
21
-0.427838
0
LINE
8
BLACK
6
CONTINUOUS
10
-0.774325
20
-0.427838
11
-0.77896
21
-0.420274
0
LINE
8
BLACK
6
CONTINUOUS
10
-0.77896
20
-0.420274
11
-0.782298
21
-0.412054
0
LINE
8
BLACK
6
CONTINUOUS
10
-0.782298
20
-0.412054
11
-0.784248
21
-0.4034
0
LINE
8
BLACK
6
CONTINUOUS
10
-0.784248
20
-0.4034
11
-0.784759
21
-0.394544
0
LINE
8
BLACK
6
CONTINUOUS
10
-0.784759
20
-0.394544
11
-0.783816
21
-0.385722
0
LINE
8
BLACK
6
CONTINUOUS
10
-0.783816
20
-0.385722
11
-0.781445
21
-0.377174
0
LINE
8
BLACK
6
CONTINUOUS
10
-0.781445
20
-0.377174
11
-0.77771
21
-0.369127
0
LINE
8
BLACK
6
CONTINUOUS
10
-0.77771
20
-0.369127
11
-0.772711
21
-0.361799
0
LINE
8
BLACK
6
CONTINUOUS
10
-0.772711
20
-0.361799
11
-0.766582
21
-0.355385
0
LINE
8
BLACK
6
CONTINUOUS
10
-0.766582
20
-0.355385
11
-0.759488
21
-0.350058
0
LINE
8
BLACK
6
CONTINUOUS
10
-0.759488
20
-0.350058
11
-0.751619
21
-0.345962
0
LINE
8
BLACK
6
CONTINUOUS
10
-0.751619
20
-0.345962
11
-0.743186
21
-0.343206
0
LINE
8
BLACK
6
CONTINUOUS
10
-0.743186
20
-0.343206
11
-0.734417
21
-0.341864
0
LINE
8
BLACK
6
CONTINUOUS
10
-0.734417
20
-0.341864
11
-0.725547
21
-0.341973
0
LINE
8
BLACK
6
CONTINUOUS
10
1.92445
20
-0.341973
11
1.93319
21
-0.343528
0
LINE
8
BLACK
6
CONTINUOUS
10
1.93319
20
-0.343528
11
1.94155
21
-0.34649
0
LINE
8
BLACK
6
CONTINUOUS
10
1.94155
20
-0.34649
11
1.94932
21
-0.350777
0
LINE
8
BLACK
6
CONTINUOUS
10
1.94932
20
-0.350777
11
1.95628
21
-0.356275
0
LINE
8
BLACK
6
CONTINUOUS
10
1.95628
20
-0.356275
11
1.96225
21
-0.362837
0
LINE
8
BLACK
6
CONTINUOUS
10
1.96225
20
-0.362837
11
1.96707
21
-0.370285
0
LINE
8
BLACK
6
CONTINUOUS
10
1.96707
20
-0.370285
11
1.9706
21
-0.378421
0
LINE
8
BLACK
6
CONTINUOUS
10
1.9706
20
-0.378421
11
1.97277
21
-0.387025
0
LINE
8
BLACK
6
CONTINUOUS
10
1.97277
20
-0.387025
11
1.97349
21
-0.395866
0
LINE
8
BLACK
6
CONTINUOUS
10
1.97349
20
-0.395866
11
1.97343
21
-0.398511
0
LINE
8
BLACK
6
CONTINUOUS
10
1.97343
20
-0.398511
11
1.97227
21
-0.407306
0
LINE
8
BLACK
6
CONTINUOUS
10
1.97227
20
-0.407306
11
1.96969
21
-0.415794
0
LINE
8
BLACK
6
CONTINUOUS
10
1.96969
20
-0.415794
11
1.96576
21
-0.423747
0
LINE
8
BLACK
6
CONTINUOUS
10
1.96576
20
-0.423747
11
1.96058
21
-0.430951
0
LINE
8
BLACK
6
CONTINUOUS
10
1.96058
20
-0.430951
11
1.9543
21
-0.437213
0
LINE
8
BLACK
6
CONTINUOUS
10
1.9543
20
-0.437213
11
1.94708
21
-0.442365
0
LINE
8
BLACK
6
CONTINUOUS
10
1.94708
20
-0.442365
11
1.93911
21
-0.446268
0
LINE
8
BLACK
6
CONTINUOUS
10
1.93911
20
-0.446268
11
1.93061
21
-0.448817
0
LINE
8
BLACK
6
CONTINUOUS
10
1.93061
20
-0.448817
11
1.92181
21
-0.449944
0
LINE
8
BLACK
6
CONTINUOUS
10
1.92181
20
-0.449944
11
1.91295
21
-0.449619
0
LINE
8
BLACK
6
CONTINUOUS
10
1.91295
20
-0.449619
11
1.90426
21
-0.447851
0
LINE
8
BLACK
6
CONTINUOUS
10
1.90426
20
-0.447851
11
1.89597
21
-0.444686
0
LINE
8
BLACK
6
CONTINUOUS
10
1.89597
20
-0.444686
11
1.88831
21
-0.44021
0
LINE
8
BLACK
6
CONTINUOUS
10
1.88831
20
-0.44021
11
1.88148
21
-0.434543
0
LINE
8
BLACK
6
CONTINUOUS
10
1.88148
20
-0.434543
11
1.87568
21
-0.427838
0
LINE
8
BLACK
6
CONTINUOUS
10
1.87568
20
-0.427838
11
1.87104
21
-0.420274
0
LINE
8
BLACK
6
CONTINUOUS
10
1.87104
20
-0.420274
11
1.8677
21
-0.412054
0
LINE
8
BLACK
6
CONTINUOUS
10
1.8677
20
-0.412054
11
1.86575
21
-0.4034
0
LINE
8
BLACK
6
CONTINUOUS
10
1.86575
20
-0.4034
11
1.86524
21
-0.394544
0
LINE
8
BLACK
6
CONTINUOUS
10
1.86524
20
-0.394544
11
1.86618
21
-0.385722
0
LINE
8
BLACK
6
CONTINUOUS
10
1.86618
20
-0.385722
11
1.86855
21
-0.377174
0
LINE
8
BLACK
6
CONTINUOUS
10
1.86855
20
-0.377174
11
1.87229
21
-0.369127
0
LINE
8
BLACK
6
CONTINUOUS
10
1.87229
20
-0.369127
11
1.87729
21
-0.361799
0
LINE
8
BLACK
6
CONTINUOUS
10
1.87729
20
-0.361799
11
1.88342
21
-0.355385
0
LINE
8
BLACK
6
CONTINUOUS
10
1.88342
20
-0.355385
11
1.89051
21
-0.350058
0
LINE
8
BLACK
6
CONTINUOUS
10
1.89051
20
-0.350058
11
1.89838
21
-0.345962
0
LINE
8
BLACK
6
CONTINUOUS
10
1.89838
20
-0.345962
11
1.90681
21
-0.343206
0
LINE
8
BLACK
6
CONTINUOUS
10
1.90681
20
-0.343206
11
1.91558
21
-0.341864
0
LINE
8
BLACK
6
CONTINUOUS
10
1.91558
20
-0.341864
11
1.92445
21
-0.341973
0
LINE
8
BLACK
6
CONTINUOUS
10
2.88902
20
-0.341973
11
2.89775
21
-0.343528
0
LINE
8
BLACK
6
CONTINUOUS
10
2.89775
20
-0.343528
11
2.90612
21
-0.34649
0
LINE
8
BLACK
6
CONTINUOUS
10
2.90612
20
-0.34649
11
2.91388
21
-0.350777
0
LINE
8
BLACK
6
CONTINUOUS
10
2.91388
20
-0.350777
11
2.92085
21
-0.356275
0
LINE
8
BLACK
6
CONTINUOUS
10
2.92085
20
-0.356275
11
2.92682
21
-0.362837
0
LINE
8
BLACK
6
CONTINUOUS
10
2.92682
20
-0.362837
11
2.93163
21
-0.370285
0
LINE
8
BLACK
6
CONTINUOUS
10
2.93163
20
-0.370285
11
2.93517
21
-0.378421
0
LINE
8
BLACK
6
CONTINUOUS
10
2.93517
20
-0.378421
11
2.93733
21
-0.387025
0
LINE
8
BLACK
6
CONTINUOUS
10
2.93733
20
-0.387025
11
2.93806
21
-0.395866
0
LINE
8
BLACK
6
CONTINUOUS
10
2.93806
20
-0.395866
11
2.938
21
-0.398511
0
LINE
8
BLACK
6
CONTINUOUS
10
2.938
20
-0.398511
11
2.93684
21
-0.407306
0
LINE
8
BLACK
6
CONTINUOUS
10
2.93684
20
-0.407306
11
2.93426
21
-0.415794
0
LINE
8
BLACK
6
CONTINUOUS
10
2.93426
20
-0.415794
11
2.93033
21
-0.423747
0
LINE
8
BLACK
6
CONTINUOUS
10
2.93033
20
-0.423747
11
2.92515
21
-0.430951
0
LINE
8
BLACK
6
CONTINUOUS
10
2.92515
20
-0.430951
11
2.91887
21
-0.437213
0
LINE
8
BLACK
6
CONTINUOUS
10
2.91887
20
-0.437213
11
2.91164
21
-0.442365
0
LINE
8
BLACK
6
CONTINUOUS
10
2.91164
20
-0.442365
11
2.90368
21
-0.446268
0
LINE
8
BLACK
6
CONTINUOUS
10
2.90368
20
-0.446268
11
2.89518
21
-0.448817
0
LINE
8
BLACK
6
CONTINUOUS
10
2.89518
20
-0.448817
11
2.88638
21
-0.449944
0
LINE
8
BLACK
6
CONTINUOUS
10
2.88638
20
-0.449944
11
2.87752
21
-0.449619
0
LINE
8
BLACK
6
CONTINUOUS
10
2.87752
20
-0.449619
11
2.86882
21
-0.447851
0
LINE
8
BLACK
6
CONTINUOUS
10
2.86882
20
-0.447851
11
2.86054
21
-0.444686
0
LINE
8
BLACK
6
CONTINUOUS
10
2.86054
20
-0.444686
11
2.85288
21
-0.44021
0
LINE
8
BLACK
6
CONTINUOUS
10
2.85288
20
-0.44021
11
2.84605
21
-0.434543
0
LINE
8
BLACK
6
CONTINUOUS
10
2.84605
20
-0.434543
11
2.84024
21
-0.427838
0
LINE
8
BLACK
6
CONTINUOUS
10
2.84024
20
-0.427838
11
2.83561
21
-0.420274
0
LINE
8
BLACK
6
CONTINUOUS
10
2.83561
20
-0.420274
11
2.83227
21
-0.412054
0
LINE
8
BLACK
6
CONTINUOUS
10
2.83227
20
-0.412054
11
2.83032
21
-0.4034
0
LINE
8
BLACK
6
CONTINUOUS
10
2.83032
20
-0.4034
11
2.82981
21
-0.394544
0
LINE
8
BLACK
6
CONTINUOUS
10
2.82981
20
-0.394544
11
2.83075
21
-0.385722
0
LINE
8
BLACK
6
CONTINUOUS
10
2.83075
20
-0.385722
11
2.83312
21
-0.377174
0
LINE
8
BLACK
6
CONTINUOUS
10
2.83312
20
-0.377174
11
2.83686
21
-0.369127
0
LINE
8
BLACK
6
CONTINUOUS
10
2.83686
20
-0.369127
11
2.84186
21
-0.361799
0
LINE
8
BLACK
6
CONTINUOUS
10
2.84186
20
-0.361799
11
2.84798
21
-0.355385
0
LINE
8
BLACK
6
CONTINUOUS
10
2.84798
20
-0.355385
11
2.85508
21
-0.350058
0
LINE
8
BLACK
6
CONTINUOUS
10
2.85508
20
-0.350058
11
2.86295
21
-0.345962
0
LINE
8
BLACK
6
CONTINUOUS
10
2.86295
20
-0.345962
11
2.87138
21
-0.343206
0
LINE
8
BLACK
6
CONTINUOUS
10
2.87138
20
-0.343206
11
2.88015
21
-0.341864
0
LINE
8
BLACK
6
CONTINUOUS
10
2.88015
20
-0.341864
11
2.88902
21
-0.341973
0
LINE
8
BLACK
6
CONTINUOUS
10
-0.391507
20
-0.340281
11
-0.385206
21
-0.342524
0
LINE
8
BLACK
6
CONTINUOUS
10
-0.385206
20
-0.342524
11
-0.379559
21
-0.346108
0
LINE
8
BLACK
6
CONTINUOUS
10
-0.379559
20
-0.346108
11
-0.374847
21
-0.350854
0
LINE
8
BLACK
6
CONTINUOUS
10
-0.374847
20
-0.350854
11
-0.371303
21
-0.356526
0
LINE
8
BLACK
6
CONTINUOUS
10
-0.371303
20
-0.356526
11
-0.369103
21
-0.362842
0
LINE
8
BLACK
6
CONTINUOUS
10
-0.369103
20
-0.362842
11
-0.368358
21
-0.369488
0
LINE
8
BLACK
6
CONTINUOUS
10
-0.368358
20
-0.369488
11
-0.368369
21
-0.370326
0
LINE
8
BLACK
6
CONTINUOUS
10
-0.368369
20
-0.370326
11
-0.3693
21
-0.376949
0
LINE
8
BLACK
6
CONTINUOUS
10
-0.3693
20
-0.376949
11
-0.371675
21
-0.383201
0
LINE
8
BLACK
6
CONTINUOUS
10
-0.371675
20
-0.383201
11
-0.375376
21
-0.388772
0
LINE
8
BLACK
6
CONTINUOUS
10
-0.375376
20
-0.388772
11
-0.38022
21
-0.393384
0
LINE
8
BLACK
6
CONTINUOUS
10
-0.38022
20
-0.393384
11
-0.385964
21
-0.396809
0
LINE
8
BLACK
6
CONTINUOUS
10
-0.385964
20
-0.396809
11
-0.392325
21
-0.398875
0
LINE
8
BLACK
6
CONTINUOUS
10
-0.392325
20
-0.398875
11
-0.398986
21
-0.399482
0
LINE
8
BLACK
6
CONTINUOUS
10
-0.398986
20
-0.399482
11
-0.405615
21
-0.398597
0
LINE
8
BLACK
6
CONTINUOUS
10
-0.405615
20
-0.398597
11
-0.411884
21
-0.396266
0
LINE
8
BLACK
6
CONTINUOUS
10
-0.411884
20
-0.396266
11
-0.41748
21
-0.392604
0
LINE
8
BLACK
6
CONTINUOUS
10
-0.41748
20
-0.392604
11
-0.422126
21
-0.387793
0
LINE
8
BLACK
6
CONTINUOUS
10
-0.422126
20
-0.387793
11
-0.425591
21
-0.382072
0
LINE
8
BLACK
6
CONTINUOUS
10
-0.425591
20
-0.382072
11
-0.427702
21
-0.375726
0
LINE
8
BLACK
6
CONTINUOUS
10
-0.427702
20
-0.375726
11
-0.428355
21
-0.369069
0
LINE
8
BLACK
6
CONTINUOUS
10
-0.428355
20
-0.369069
11
-0.427516
21
-0.362434
0
LINE
8
BLACK
6
CONTINUOUS
10
-0.427516
20
-0.362434
11
-0.425229
21
-0.356149
0
LINE
8
BLACK
6
CONTINUOUS
10
-0.425229
20
-0.356149
11
-0.421606
21
-0.350527
0
LINE
8
BLACK
6
CONTINUOUS
10
-0.421606
20
-0.350527
11
-0.416827
21
-0.345848
0
LINE
8
BLACK
6
CONTINUOUS
10
-0.416827
20
-0.345848
11
-0.411131
21
-0.342343
0
LINE
8
BLACK
6
CONTINUOUS
10
-0.411131
20
-0.342343
11
-0.4048
21
-0.340188
0
LINE
8
BLACK
6
CONTINUOUS
10
-0.4048
20
-0.340188
11
-0.398148
21
-0.339489
0
LINE
8
BLACK
6
CONTINUOUS
10
-0.398148
20
-0.339489
11
-0.391507
21
-0.340281
0
LINE
8
BLACK
6
CONTINUOUS
10
-0.291507
20
-0.340281
11
-0.285206
21
-0.342524
0
LINE
8
BLACK
6
CONTINUOUS
10
-0.285206
20
-0.342524
11
-0.279559
21
-0.346108
0
LINE
8
BLACK
6
CONTINUOUS
10
-0.279559
20
-0.346108
11
-0.274847
21
-0.350854
0
LINE
8
BLACK
6
CONTINUOUS
10
-0.274847
20
-0.350854
11
-0.271303
21
-0.356526
0
LINE
8
BLACK
6
CONTINUOUS
10
-0.271303
20
-0.356526
11
-0.269103
21
-0.362842
0
LINE
8
BLACK
6
CONTINUOUS
10
-0.269103
20
-0.362842
11
-0.268358
21
-0.369488
0
LINE
8
BLACK
6
CONTINUOUS
10
-0.268358
20
-0.369488
11
-0.268369
21
-0.370326
0
LINE
8
BLACK
6
CONTINUOUS
10
-0.268369
20
-0.370326
11
-0.2693
21
-0.376949
0
LINE
8
BLACK
6
CONTINUOUS
10
-0.2693
20
-0.376949
11
-0.271675
21
-0.383201
0
LINE
8
BLACK
6
CONTINUOUS
10
-0.271675
20
-0.383201
11
-0.275376
21
-0.388772
0
LINE
8
BLACK
6
CONTINUOUS
10
-0.275376
20
-0.388772
11
-0.28022
21
-0.393384
0
LINE
8
BLACK
6
CONTINUOUS
10
-0.28022
20
-0.393384
11
-0.285964
21
-0.396809
0
LINE
8
BLACK
6
CONTINUOUS
10
-0.285964
20
-0.396809
11
-0.292325
21
-0.398875
0
LINE
8
BLACK
6
CONTINUOUS
10
-0.292325
20
-0.398875
11
-0.298986
21
-0.399482
0
LINE
8
BLACK
6
CONTINUOUS
10
-0.298986
20
-0.399482
11
-0.305615
21
-0.398597
0
LINE
8
BLACK
6
CONTINUOUS
10
-0.305615
20
-0.398597
11
-0.311884
21
-0.396266
0
LINE
8
BLACK
6
CONTINUOUS
10
-0.311884
20
-0.396266
11
-0.31748
21
-0.392604
0
LINE
8
BLACK
6
CONTINUOUS
10
-0.31748
20
-0.392604
11
-0.322126
21
-0.387793
0
LINE
8
BLACK
6
CONTINUOUS
10
-0.322126
20
-0.387793
11
-0.325591
21
-0.382072
0
LINE
8
BLACK
6
CONTINUOUS
10
-0.325591
20
-0.382072
11
-0.327702
21
-0.375726
0
LINE
8
BLACK
6
CONTINUOUS
10
-0.327702
20
-0.375726
11
-0.328355
21
-0.369069
0
LINE
8
BLACK
6
CONTINUOUS
10
-0.328355
20
-0.369069
11
-0.327516
21
-0.362434
0
LINE
8
BLACK
6
CONTINUOUS
10
-0.327516
20
-0.362434
11
-0.325229
21
-0.356149
0
LINE
8
BLACK
6
CONTINUOUS
10
-0.325229
20
-0.356149
11
-0.321606
21
-0.350527
0
LINE
8
BLACK
6
CONTINUOUS
10
-0.321606
20
-0.350527
11
-0.316827
21
-0.345848
0
LINE
8
BLACK
6
CONTINUOUS
10
-0.316827
20
-0.345848
11
-0.311131
21
-0.342343
0
LINE
8
BLACK
6
CONTINUOUS
10
-0.311131
20
-0.342343
11
-0.3048
21
-0.340188
0
LINE
8
BLACK
6
CONTINUOUS
10
-0.3048
20
-0.340188
11
-0.298148
21
-0.339489
0
LINE
8
BLACK
6
CONTINUOUS
10
-0.298148
20
-0.339489
11
-0.291507
21
-0.340281
0
LINE
8
BLACK
6
CONTINUOUS
10
-0.191507
20
-0.340281
11
-0.185206
21
-0.342524
0
LINE
8
BLACK
6
CONTINUOUS
10
-0.185206
20
-0.342524
11
-0.179559
21
-0.346108
0
LINE
8
BLACK
6
CONTINUOUS
10
-0.179559
20
-0.346108
11
-0.174847
21
-0.350854
0
LINE
8
BLACK
6
CONTINUOUS
10
-0.174847
20
-0.350854
11
-0.171303
21
-0.356526
0
LINE
8
BLACK
6
CONTINUOUS
10
-0.171303
20
-0.356526
11
-0.169103
21
-0.362842
0
LINE
8
BLACK
6
CONTINUOUS
10
-0.169103
20
-0.362842
11
-0.168358
21
-0.369488
0
LINE
8
BLACK
6
CONTINUOUS
10
-0.168358
20
-0.369488
11
-0.168369
21
-0.370326
0
LINE
8
BLACK
6
CONTINUOUS
10
-0.168369
20
-0.370326
11
-0.1693
21
-0.376949
0
LINE
8
BLACK
6
CONTINUOUS
10
-0.1693
20
-0.376949
11
-0.171675
21
-0.383201
0
LINE
8
BLACK
6
CONTINUOUS
10
-0.171675
20
-0.383201
11
-0.175376
21
-0.388772
0
LINE
8
BLACK
6
CONTINUOUS
10
-0.175376
20
-0.388772
11
-0.18022
21
-0.393384
0
LINE
8
BLACK
6
CONTINUOUS
10
-0.18022
20
-0.393384
11
-0.185964
21
-0.396809
0
LINE
8
BLACK
6
CONTINUOUS
10
-0.185964
20
-0.396809
11
-0.192325
21
-0.398875
0
LINE
8
BLACK
6
CONTINUOUS
10
-0.192325
20
-0.398875
11
-0.198986
21
-0.399482
0
LINE
8
BLACK
6
CONTINUOUS
10
-0.198986
20
-0.399482
11
-0.205615
21
-0.398597
0
LINE
8
BLACK
6
CONTINUOUS
10
-0.205615
20
-0.398597
11
-0.211884
21
-0.396266
0
LINE
8
BLACK
6
CONTINUOUS
10
-0.211884
20
-0.396266
11
-0.21748
21
-0.392604
0
LINE
8
BLACK
6
CONTINUOUS
10
-0.21748
20
-0.392604
11
-0.222126
21
-0.387793
0
LINE
8
BLACK
6
CONTINUOUS
10
-0.222126
20
-0.387793
11
-0.225591
21
-0.382072
0
LINE
8
BLACK
6
CONTINUOUS
10
-0.225591
20
-0.382072
11
-0.227702
21
-0.375726
0
LINE
8
BLACK
6
CONTINUOUS
10
-0.227702
20
-0.375726
11
-0.228355
21
-0.369069
0
LINE
8
BLACK
6
CONTINUOUS
10
-0.228355
20
-0.369069
11
-0.227516
21
-0.362434
0
LINE
8
BLACK
6
CONTINUOUS
10
-0.227516
20
-0.362434
11
-0.225229
21
-0.356149
0
LINE
8
BLACK
6
CONTINUOUS
10
-0.225229
20
-0.356149
11
-0.221606
21
-0.350527
0
LINE
8
BLACK
6
CONTINUOUS
10
-0.221606
20
-0.350527
11
-0.216827
21
-0.345848
0
LINE
8
BLACK
6
CONTINUOUS
10
-0.216827
20
-0.345848
11
-0.211131
21
-0.342343
0
LINE
8
BLACK
6
CONTINUOUS
10
-0.211131
20
-0.342343
11
-0.2048
21
-0.340188
0
LINE
8
BLACK
6
CONTINUOUS
10
-0.2048
20
-0.340188
11
-0.198148
21
-0.339489
0
LINE
8
BLACK
6
CONTINUOUS
10
-0.198148
20
-0.339489
11
-0.191507
21
-0.340281
0
LINE
8
BLACK
6
CONTINUOUS
10
-0.0915071
20
-0.340281
11
-0.0852065
21
-0.342524
0
LINE
8
BLACK
6
CONTINUOUS
10
-0.0852065
20
-0.342524
11
-0.0795595
21
-0.346108
0
LINE
8
BLACK
6
CONTINUOUS
10
-0.0795595
20
-0.346108
11
-0.0748468
21
-0.350854
0
LINE
8
BLACK
6
CONTINUOUS
10
-0.0748468
20
-0.350854
11
-0.0713026
21
-0.356526
0
LINE
8
BLACK
6
CONTINUOUS
10
-0.0713026
20
-0.356526
11
-0.0691031
21
-0.362842
0
LINE
8
BLACK
6
CONTINUOUS
10
-0.0691031
20
-0.362842
11
-0.0683576
21
-0.369488
0
LINE
8
BLACK
6
CONTINUOUS
10
-0.0683576
20
-0.369488
11
-0.0683693
21
-0.370326
0
LINE
8
BLACK
6
CONTINUOUS
10
-0.0683693
20
-0.370326
11
-0.0693001
21
-0.376949
0
LINE
8
BLACK
6
CONTINUOUS
10
-0.0693001
20
-0.376949
11
-0.0716751
21
-0.383201
0
LINE
8
BLACK
6
CONTINUOUS
10
-0.0716751
20
-0.383201
11
-0.0753763
21
-0.388772
0
LINE
8
BLACK
6
CONTINUOUS
10
-0.0753763
20
-0.388772
11
-0.0802196
21
-0.393384
0
LINE
8
BLACK
6
CONTINUOUS
10
-0.0802196
20
-0.393384
11
-0.0859644
21
-0.396809
0
LINE
8
BLACK
6
CONTINUOUS
10
-0.0859644
20
-0.396809
11
-0.0923253
21
-0.398875
0
LINE
8
BLACK
6
CONTINUOUS
10
-0.0923253
20
-0.398875
11
-0.0989859
21
-0.399482
0
LINE
8
BLACK
6
CONTINUOUS
10
-0.0989859
20
-0.399482
11
-0.105615
21
-0.398597
0
LINE
8
BLACK
6
CONTINUOUS
10
-0.105615
20
-0.398597
11
-0.111884
21
-0.396266
0
LINE
8
BLACK
6
CONTINUOUS
10
-0.111884
20
-0.396266
11
-0.11748
21
-0.392604
0
LINE
8
BLACK
6
CONTINUOUS
10
-0.11748
20
-0.392604
11
-0.122126
21
-0.387793
0
LINE
8
BLACK
6
CONTINUOUS
10
-0.122126
20
-0.387793
11
-0.125591
21
-0.382072
0
LINE
8
BLACK
6
CONTINUOUS
10
-0.125591
20
-0.382072
11
-0.127702
21
-0.375726
0
LINE
8
BLACK
6
CONTINUOUS
10
-0.127702
20
-0.375726
11
-0.128355
21
-0.369069
0
LINE
8
BLACK
6
CONTINUOUS
10
-0.128355
20
-0.369069
11
-0.127516
21
-0.362434
0
LINE
8
BLACK
6
CONTINUOUS
10
-0.127516
20
-0.362434
11
-0.125229
21
-0.356149
0
LINE
8
BLACK
6
CONTINUOUS
10
-0.125229
20
-0.356149
11
-0.121606
21
-0.350527
0
LINE
8
BLACK
6
CONTINUOUS
10
-0.121606
20
-0.350527
11
-0.116827
21
-0.345848
0
LINE
8
BLACK
6
CONTINUOUS
10
-0.116827
20
-0.345848
11
-0.111131
21
-0.342343
0
LINE
8
BLACK
6
CONTINUOUS
10
-0.111131
20
-0.342343
11
-0.1048
21
-0.340188
0
LINE
8
BLACK
6
CONTINUOUS
10
-0.1048
20
-0.340188
11
-0.0981481
21
-0.339489
0
LINE
8
BLACK
6
CONTINUOUS
10
-0.0981481
20
-0.339489
11
-0.0915071
21
-0.340281
0
LINE
8
BLACK
6
CONTINUOUS
10
2.35849
20
-0.340281
11
2.36479
21
-0.342524
0
LINE
8
BLACK
6
CONTINUOUS
10
2.36479
20
-0.342524
11
2.37044
21
-0.346108
0
LINE
8
BLACK
6
CONTINUOUS
10
2.37044
20
-0.346108
11
2.37515
21
-0.350854
0
LINE
8
BLACK
6
CONTINUOUS
10
2.37515
20
-0.350854
11
2.3787
21
-0.356526
0
LINE
8
BLACK
6
CONTINUOUS
10
2.3787
20
-0.356526
11
2.3809
21
-0.362842
0
LINE
8
BLACK
6
CONTINUOUS
10
2.3809
20
-0.362842
11
2.38164
21
-0.369488
0
LINE
8
BLACK
6
CONTINUOUS
10
2.38164
20
-0.369488
11
2.38163
21
-0.370326
0
LINE
8
BLACK
6
CONTINUOUS
10
2.38163
20
-0.370326
11
2.3807
21
-0.376949
0
LINE
8
BLACK
6
CONTINUOUS
10
2.3807
20
-0.376949
11
2.37832
21
-0.383201
0
LINE
8
BLACK
6
CONTINUOUS
10
2.37832
20
-0.383201
11
2.37462
21
-0.388772
0
LINE
8
BLACK
6
CONTINUOUS
10
2.37462
20
-0.388772
11
2.36978
21
-0.393384
0
LINE
8
BLACK
6
CONTINUOUS
10
2.36978
20
-0.393384
11
2.36404
21
-0.396809
0
LINE
8
BLACK
6
CONTINUOUS
10
2.36404
20
-0.396809
11
2.35767
21
-0.398875
0
LINE
8
BLACK
6
CONTINUOUS
10
2.35767
20
-0.398875
11
2.35101
21
-0.399482
0
LINE
8
BLACK
6
CONTINUOUS
10
2.35101
20
-0.399482
11
2.34438
21
-0.398597
0
LINE
8
BLACK
6
CONTINUOUS
10
2.34438
20
-0.398597
11
2.33812
21
-0.396266
0
LINE
8
BLACK
6
CONTINUOUS
10
2.33812
20
-0.396266
11
2.33252
21
-0.392604
0
LINE
8
BLACK
6
CONTINUOUS
10
2.33252
20
-0.392604
11
2.32787
21
-0.387793
0
LINE
8
BLACK
6
CONTINUOUS
10
2.32787
20
-0.387793
11
2.32441
21
-0.382072
0
LINE
8
BLACK
6
CONTINUOUS
10
2.32441
20
-0.382072
11
2.3223
21
-0.375726
0
LINE
8
BLACK
6
CONTINUOUS
10
2.3223
20
-0.375726
11
2.32165
21
-0.369069
0
LINE
8
BLACK
6
CONTINUOUS
10
2.32165
20
-0.369069
11
2.32248
21
-0.362434
0
LINE
8
BLACK
6
CONTINUOUS
10
2.32248
20
-0.362434
11
2.32477
21
-0.356149
0
LINE
8
BLACK
6
CONTINUOUS
10
2.32477
20
-0.356149
11
2.32839
21
-0.350527
0
LINE
8
BLACK
6
CONTINUOUS
10
2.32839
20
-0.350527
11
2.33317
21
-0.345848
0
LINE
8
BLACK
6
CONTINUOUS
10
2.33317
20
-0.345848
11
2.33887
21
-0.342343
0
LINE
8
BLACK
6
CONTINUOUS
10
2.33887
20
-0.342343
11
2.3452
21
-0.340188
0
LINE
8
BLACK
6
CONTINUOUS
10
2.3452
20
-0.340188
11
2.35185
21
-0.339489
0
LINE
8
BLACK
6
CONTINUOUS
10
2.35185
20
-0.339489
11
2.35849
21
-0.340281
0
LINE
8
BLACK
6
CONTINUOUS
10
2.45849
20
-0.340281
11
2.46479
21
-0.342524
0
LINE
8
BLACK
6
CONTINUOUS
10
2.46479
20
-0.342524
11
2.47044
21
-0.346108
0
LINE
8
BLACK
6
CONTINUOUS
10
2.47044
20
-0.346108
11
2.47515
21
-0.350854
0
LINE
8
BLACK
6
CONTINUOUS
10
2.47515
20
-0.350854
11
2.4787
21
-0.356526
0
LINE
8
BLACK
6
CONTINUOUS
10
2.4787
20
-0.356526
11
2.4809
21
-0.362842
0
LINE
8
BLACK
6
CONTINUOUS
10
2.4809
20
-0.362842
11
2.48164
21
-0.369488
0
LINE
8
BLACK
6
CONTINUOUS
10
2.48164
20
-0.369488
11
2.48163
21
-0.370326
0
LINE
8
BLACK
6
CONTINUOUS
10
2.48163
20
-0.370326
11
2.4807
21
-0.376949
0
LINE
8
BLACK
6
CONTINUOUS
10
2.4807
20
-0.376949
11
2.47832
21
-0.383201
0
LINE
8
BLACK
6
CONTINUOUS
10
2.47832
20
-0.383201
11
2.47462
21
-0.388772
0
LINE
8
BLACK
6
CONTINUOUS
10
2.47462
20
-0.388772
11
2.46978
21
-0.393384
0
LINE
8
BLACK
6
CONTINUOUS
10
2.46978
20
-0.393384
11
2.46404
21
-0.396809
0
LINE
8
BLACK
6
CONTINUOUS
10
2.46404
20
-0.396809
11
2.45767
21
-0.398875
0
LINE
8
BLACK
6
CONTINUOUS
10
2.45767
20
-0.398875
11
2.45101
21
-0.399482
0
LINE
8
BLACK
6
CONTINUOUS
10
2.45101
20
-0.399482
11
2.44438
21
-0.398597
0
LINE
8
BLACK
6
CONTINUOUS
10
2.44438
20
-0.398597
11
2.43812
21
-0.396266
0
LINE
8
BLACK
6
CONTINUOUS
10
2.43812
20
-0.396266
11
2.43252
21
-0.392604
0
LINE
8
BLACK
6
CONTINUOUS
10
2.43252
20
-0.392604
11
2.42787
21
-0.387793
0
LINE
8
BLACK
6
CONTINUOUS
10
2.42787
20
-0.387793
11
2.42441
21
-0.382072
0
LINE
8
BLACK
6
CONTINUOUS
10
2.42441
20
-0.382072
11
2.4223
21
-0.375726
0
LINE
8
BLACK
6
CONTINUOUS
10
2.4223
20
-0.375726
11
2.42165
21
-0.369069
0
LINE
8
BLACK
6
CONTINUOUS
10
2.42165
20
-0.369069
11
2.42248
21
-0.362434
0
LINE
8
BLACK
6
CONTINUOUS
10
2.42248
20
-0.362434
11
2.42477
21
-0.356149
0
LINE
8
BLACK
6
CONTINUOUS
10
2.42477
20
-0.356149
11
2.42839
21
-0.350527
0
LINE
8
BLACK
6
CONTINUOUS
10
2.42839
20
-0.350527
11
2.43317
21
-0.345848
0
LINE
8
BLACK
6
CONTINUOUS
10
2.43317
20
-0.345848
11
2.43887
21
-0.342343
0
LINE
8
BLACK
6
CONTINUOUS
10
2.43887
20
-0.342343
11
2.4452
21
-0.340188
0
LINE
8
BLACK
6
CONTINUOUS
10
2.4452
20
-0.340188
11
2.45185
21
-0.339489
0
LINE
8
BLACK
6
CONTINUOUS
10
2.45185
20
-0.339489
11
2.45849
21
-0.340281
0
LINE
8
BLACK
6
CONTINUOUS
10
2.55849
20
-0.340281
11
2.56479
21
-0.342524
0
LINE
8
BLACK
6
CONTINUOUS
10
2.56479
20
-0.342524
11
2.57044
21
-0.346108
0
LINE
8
BLACK
6
CONTINUOUS
10
2.57044
20
-0.346108
11
2.57515
21
-0.350854
0
LINE
8
BLACK
6
CONTINUOUS
10
2.57515
20
-0.350854
11
2.5787
21
-0.356526
0
LINE
8
BLACK
6
CONTINUOUS
10
2.5787
20
-0.356526
11
2.5809
21
-0.362842
0
LINE
8
BLACK
6
CONTINUOUS
10
2.5809
20
-0.362842
11
2.58164
21
-0.369488
0
LINE
8
BLACK
6
CONTINUOUS
10
2.58164
20
-0.369488
11
2.58163
21
-0.370326
0
LINE
8
BLACK
6
CONTINUOUS
10
2.58163
20
-0.370326
11
2.5807
21
-0.376949
0
LINE
8
BLACK
6
CONTINUOUS
10
2.5807
20
-0.376949
11
2.57832
21
-0.383201
0
LINE
8
BLACK
6
CONTINUOUS
10
2.57832
20
-0.383201
11
2.57462
21
-0.388772
0
LINE
8
BLACK
6
CONTINUOUS
10
2.57462
20
-0.388772
11
2.56978
21
-0.393384
0
LINE
8
BLACK
6
CONTINUOUS
10
2.56978
20
-0.393384
11
2.56404
21
-0.396809
0
LINE
8
BLACK
6
CONTINUOUS
10
2.56404
20
-0.396809
11
2.55767
21
-0.398875
0
LINE
8
BLACK
6
CONTINUOUS
10
2.55767
20
-0.398875
11
2.55101
21
-0.399482
0
LINE
8
BLACK
6
CONTINUOUS
10
2.55101
20
-0.399482
11
2.54438
21
-0.398597
0
LINE
8
BLACK
6
CONTINUOUS
10
2.54438
20
-0.398597
11
2.53812
21
-0.396266
0
LINE
8
BLACK
6
CONTINUOUS
10
2.53812
20
-0.396266
11
2.53252
21
-0.392604
0
LINE
8
BLACK
6
CONTINUOUS
10
2.53252
20
-0.392604
11
2.52787
21
-0.387793
0
LINE
8
BLACK
6
CONTINUOUS
10
2.52787
20
-0.387793
11
2.52441
21
-0.382072
0
LINE
8
BLACK
6
CONTINUOUS
10
2.52441
20
-0.382072
11
2.5223
21
-0.375726
0
LINE
8
BLACK
6
CONTINUOUS
10
2.5223
20
-0.375726
11
2.52165
21
-0.369069
0
LINE
8
BLACK
6
CONTINUOUS
10
2.52165
20
-0.369069
11
2.52248
21
-0.362434
0
LINE
8
BLACK
6
CONTINUOUS
10
2.52248
20
-0.362434
11
2.52477
21
-0.356149
0
LINE
8
BLACK
6
CONTINUOUS
10
2.52477
20
-0.356149
11
2.52839
21
-0.350527
0
LINE
8
BLACK
6
CONTINUOUS
10
2.52839
20
-0.350527
11
2.53317
21
-0.345848
0
LINE
8
BLACK
6
CONTINUOUS
10
2.53317
20
-0.345848
11
2.53887
21
-0.342343
0
LINE
8
BLACK
6
CONTINUOUS
10
2.53887
20
-0.342343
11
2.5452
21
-0.340188
0
LINE
8
BLACK
6
CONTINUOUS
10
2.5452
20
-0.340188
11
2.55185
21
-0.339489
0
LINE
8
BLACK
6
CONTINUOUS
10
2.55185
20
-0.339489
11
2.55849
21
-0.340281
0
LINE
8
BLACK
6
CONTINUOUS
10
2.25849
20
-0.340281
11
2.26479
21
-0.342524
0
LINE
8
BLACK
6
CONTINUOUS
10
2.26479
20
-0.342524
11
2.27044
21
-0.346108
0
LINE
8
BLACK
6
CONTINUOUS
10
2.27044
20
-0.346108
11
2.27515
21
-0.350854
0
LINE
8
BLACK
6
CONTINUOUS
10
2.27515
20
-0.350854
11
2.2787
21
-0.356526
0
LINE
8
BLACK
6
CONTINUOUS
10
2.2787
20
-0.356526
11
2.2809
21
-0.362842
0
LINE
8
BLACK
6
CONTINUOUS
10
2.2809
20
-0.362842
11
2.28164
21
-0.369488
0
LINE
8
BLACK
6
CONTINUOUS
10
2.28164
20
-0.369488
11
2.28163
21
-0.370326
0
LINE
8
BLACK
6
CONTINUOUS
10
2.28163
20
-0.370326
11
2.2807
21
-0.376949
0
LINE
8
BLACK
6
CONTINUOUS
10
2.2807
20
-0.376949
11
2.27832
21
-0.383201
0
LINE
8
BLACK
6
CONTINUOUS
10
2.27832
20
-0.383201
11
2.27462
21
-0.388772
0
LINE
8
BLACK
6
CONTINUOUS
10
2.27462
20
-0.388772
11
2.26978
21
-0.393384
0
LINE
8
BLACK
6
CONTINUOUS
10
2.26978
20
-0.393384
11
2.26404
21
-0.396809
0
LINE
8
BLACK
6
CONTINUOUS
10
2.26404
20
-0.396809
11
2.25767
21
-0.398875
0
LINE
8
BLACK
6
CONTINUOUS
10
2.25767
20
-0.398875
11
2.25101
21
-0.399482
0
LINE
8
BLACK
6
CONTINUOUS
10
2.25101
20
-0.399482
11
2.24438
21
-0.398597
0
LINE
8
BLACK
6
CONTINUOUS
10
2.24438
20
-0.398597
11
2.23812
21
-0.396266
0
LINE
8
BLACK
6
CONTINUOUS
10
2.23812
20
-0.396266
11
2.23252
21
-0.392604
0
LINE
8
BLACK
6
CONTINUOUS
10
2.23252
20
-0.392604
11
2.22787
21
-0.387793
0
LINE
8
BLACK
6
CONTINUOUS
10
2.22787
20
-0.387793
11
2.22441
21
-0.382072
0
LINE
8
BLACK
6
CONTINUOUS
10
2.22441
20
-0.382072
11
2.2223
21
-0.375726
0
LINE
8
BLACK
6
CONTINUOUS
10
2.2223
20
-0.375726
11
2.22165
21
-0.369069
0
LINE
8
BLACK
6
CONTINUOUS
10
2.22165
20
-0.369069
11
2.22248
21
-0.362434
0
LINE
8
BLACK
6
CONTINUOUS
10
2.22248
20
-0.362434
11
2.22477
21
-0.356149
0
LINE
8
BLACK
6
CONTINUOUS
10
2.22477
20
-0.356149
11
2.22839
21
-0.350527
0
LINE
8
BLACK
6
CONTINUOUS
10
2.22839
20
-0.350527
11
2.23317
21
-0.345848
0
LINE
8
BLACK
6
CONTINUOUS
10
2.23317
20
-0.345848
11
2.23887
21
-0.342343
0
LINE
8
BLACK
6
CONTINUOUS
10
2.23887
20
-0.342343
11
2.2452
21
-0.340188
0
LINE
8
BLACK
6
CONTINUOUS
10
2.2452
20
-0.340188
11
2.25185
21
-0.339489
0
LINE
8
BLACK
6
CONTINUOUS
10
2.25185
20
-0.339489
11
2.25849
21
-0.340281
  0
ENDSEC
  0
EOF
