%TF.GenerationSoftware,KiCad,Pcbnew,(6.0.5)*%
%TF.CreationDate,2022-08-06T13:23:44-04:00*%
%TF.ProjectId,RICM Greenpower Instrument Cluster,5249434d-2047-4726-9565-6e706f776572,rev?*%
%TF.SameCoordinates,Original*%
%TF.FileFunction,Legend,Top*%
%TF.FilePolarity,Positive*%
%FSLAX46Y46*%
G04 Gerber Fmt 4.6, Leading zero omitted, Abs format (unit mm)*
G04 Created by KiCad (PCBNEW (6.0.5)) date 2022-08-06 13:23:44*
%MOMM*%
%LPD*%
G01*
G04 APERTURE LIST*
%ADD10C,0.150000*%
%ADD11C,0.120000*%
G04 APERTURE END LIST*
D10*
%TO.C,SW2*%
X79946666Y-26634761D02*
X80089523Y-26682380D01*
X80327619Y-26682380D01*
X80422857Y-26634761D01*
X80470476Y-26587142D01*
X80518095Y-26491904D01*
X80518095Y-26396666D01*
X80470476Y-26301428D01*
X80422857Y-26253809D01*
X80327619Y-26206190D01*
X80137142Y-26158571D01*
X80041904Y-26110952D01*
X79994285Y-26063333D01*
X79946666Y-25968095D01*
X79946666Y-25872857D01*
X79994285Y-25777619D01*
X80041904Y-25730000D01*
X80137142Y-25682380D01*
X80375238Y-25682380D01*
X80518095Y-25730000D01*
X80851428Y-25682380D02*
X81089523Y-26682380D01*
X81280000Y-25968095D01*
X81470476Y-26682380D01*
X81708571Y-25682380D01*
X82041904Y-25777619D02*
X82089523Y-25730000D01*
X82184761Y-25682380D01*
X82422857Y-25682380D01*
X82518095Y-25730000D01*
X82565714Y-25777619D01*
X82613333Y-25872857D01*
X82613333Y-25968095D01*
X82565714Y-26110952D01*
X81994285Y-26682380D01*
X82613333Y-26682380D01*
%TO.C,R3*%
X34912380Y-18962666D02*
X34436190Y-19296000D01*
X34912380Y-19534095D02*
X33912380Y-19534095D01*
X33912380Y-19153142D01*
X33960000Y-19057904D01*
X34007619Y-19010285D01*
X34102857Y-18962666D01*
X34245714Y-18962666D01*
X34340952Y-19010285D01*
X34388571Y-19057904D01*
X34436190Y-19153142D01*
X34436190Y-19534095D01*
X33912380Y-18629333D02*
X33912380Y-18010285D01*
X34293333Y-18343619D01*
X34293333Y-18200761D01*
X34340952Y-18105523D01*
X34388571Y-18057904D01*
X34483809Y-18010285D01*
X34721904Y-18010285D01*
X34817142Y-18057904D01*
X34864761Y-18105523D01*
X34912380Y-18200761D01*
X34912380Y-18486476D01*
X34864761Y-18581714D01*
X34817142Y-18629333D01*
%TO.C,D3*%
X42441904Y-6367380D02*
X42441904Y-5367380D01*
X42680000Y-5367380D01*
X42822857Y-5415000D01*
X42918095Y-5510238D01*
X42965714Y-5605476D01*
X43013333Y-5795952D01*
X43013333Y-5938809D01*
X42965714Y-6129285D01*
X42918095Y-6224523D01*
X42822857Y-6319761D01*
X42680000Y-6367380D01*
X42441904Y-6367380D01*
X43346666Y-5367380D02*
X43965714Y-5367380D01*
X43632380Y-5748333D01*
X43775238Y-5748333D01*
X43870476Y-5795952D01*
X43918095Y-5843571D01*
X43965714Y-5938809D01*
X43965714Y-6176904D01*
X43918095Y-6272142D01*
X43870476Y-6319761D01*
X43775238Y-6367380D01*
X43489523Y-6367380D01*
X43394285Y-6319761D01*
X43346666Y-6272142D01*
%TO.C,SW1*%
X12636666Y-26634761D02*
X12779523Y-26682380D01*
X13017619Y-26682380D01*
X13112857Y-26634761D01*
X13160476Y-26587142D01*
X13208095Y-26491904D01*
X13208095Y-26396666D01*
X13160476Y-26301428D01*
X13112857Y-26253809D01*
X13017619Y-26206190D01*
X12827142Y-26158571D01*
X12731904Y-26110952D01*
X12684285Y-26063333D01*
X12636666Y-25968095D01*
X12636666Y-25872857D01*
X12684285Y-25777619D01*
X12731904Y-25730000D01*
X12827142Y-25682380D01*
X13065238Y-25682380D01*
X13208095Y-25730000D01*
X13541428Y-25682380D02*
X13779523Y-26682380D01*
X13970000Y-25968095D01*
X14160476Y-26682380D01*
X14398571Y-25682380D01*
X15303333Y-26682380D02*
X14731904Y-26682380D01*
X15017619Y-26682380D02*
X15017619Y-25682380D01*
X14922380Y-25825238D01*
X14827142Y-25920476D01*
X14731904Y-25968095D01*
%TO.C,D1*%
X60221904Y-6652380D02*
X60221904Y-5652380D01*
X60460000Y-5652380D01*
X60602857Y-5700000D01*
X60698095Y-5795238D01*
X60745714Y-5890476D01*
X60793333Y-6080952D01*
X60793333Y-6223809D01*
X60745714Y-6414285D01*
X60698095Y-6509523D01*
X60602857Y-6604761D01*
X60460000Y-6652380D01*
X60221904Y-6652380D01*
X61745714Y-6652380D02*
X61174285Y-6652380D01*
X61460000Y-6652380D02*
X61460000Y-5652380D01*
X61364761Y-5795238D01*
X61269523Y-5890476D01*
X61174285Y-5938095D01*
%TO.C,J1*%
X40312380Y-23693333D02*
X41026666Y-23693333D01*
X41169523Y-23740952D01*
X41264761Y-23836190D01*
X41312380Y-23979047D01*
X41312380Y-24074285D01*
X41312380Y-22693333D02*
X41312380Y-23264761D01*
X41312380Y-22979047D02*
X40312380Y-22979047D01*
X40455238Y-23074285D01*
X40550476Y-23169523D01*
X40598095Y-23264761D01*
%TO.C,R1*%
X60566380Y-19216666D02*
X60090190Y-19550000D01*
X60566380Y-19788095D02*
X59566380Y-19788095D01*
X59566380Y-19407142D01*
X59614000Y-19311904D01*
X59661619Y-19264285D01*
X59756857Y-19216666D01*
X59899714Y-19216666D01*
X59994952Y-19264285D01*
X60042571Y-19311904D01*
X60090190Y-19407142D01*
X60090190Y-19788095D01*
X60566380Y-18264285D02*
X60566380Y-18835714D01*
X60566380Y-18550000D02*
X59566380Y-18550000D01*
X59709238Y-18645238D01*
X59804476Y-18740476D01*
X59852095Y-18835714D01*
%TO.C,D2*%
X51331904Y-6652380D02*
X51331904Y-5652380D01*
X51570000Y-5652380D01*
X51712857Y-5700000D01*
X51808095Y-5795238D01*
X51855714Y-5890476D01*
X51903333Y-6080952D01*
X51903333Y-6223809D01*
X51855714Y-6414285D01*
X51808095Y-6509523D01*
X51712857Y-6604761D01*
X51570000Y-6652380D01*
X51331904Y-6652380D01*
X52284285Y-5747619D02*
X52331904Y-5700000D01*
X52427142Y-5652380D01*
X52665238Y-5652380D01*
X52760476Y-5700000D01*
X52808095Y-5747619D01*
X52855714Y-5842857D01*
X52855714Y-5938095D01*
X52808095Y-6080952D01*
X52236666Y-6652380D01*
X52855714Y-6652380D01*
%TO.C,R6*%
X46823333Y-27292380D02*
X46490000Y-26816190D01*
X46251904Y-27292380D02*
X46251904Y-26292380D01*
X46632857Y-26292380D01*
X46728095Y-26340000D01*
X46775714Y-26387619D01*
X46823333Y-26482857D01*
X46823333Y-26625714D01*
X46775714Y-26720952D01*
X46728095Y-26768571D01*
X46632857Y-26816190D01*
X46251904Y-26816190D01*
X47680476Y-26292380D02*
X47490000Y-26292380D01*
X47394761Y-26340000D01*
X47347142Y-26387619D01*
X47251904Y-26530476D01*
X47204285Y-26720952D01*
X47204285Y-27101904D01*
X47251904Y-27197142D01*
X47299523Y-27244761D01*
X47394761Y-27292380D01*
X47585238Y-27292380D01*
X47680476Y-27244761D01*
X47728095Y-27197142D01*
X47775714Y-27101904D01*
X47775714Y-26863809D01*
X47728095Y-26768571D01*
X47680476Y-26720952D01*
X47585238Y-26673333D01*
X47394761Y-26673333D01*
X47299523Y-26720952D01*
X47251904Y-26768571D01*
X47204285Y-26863809D01*
%TO.C,DS2*%
X12235714Y-28727380D02*
X12235714Y-27727380D01*
X12473809Y-27727380D01*
X12616666Y-27775000D01*
X12711904Y-27870238D01*
X12759523Y-27965476D01*
X12807142Y-28155952D01*
X12807142Y-28298809D01*
X12759523Y-28489285D01*
X12711904Y-28584523D01*
X12616666Y-28679761D01*
X12473809Y-28727380D01*
X12235714Y-28727380D01*
X13188095Y-28679761D02*
X13330952Y-28727380D01*
X13569047Y-28727380D01*
X13664285Y-28679761D01*
X13711904Y-28632142D01*
X13759523Y-28536904D01*
X13759523Y-28441666D01*
X13711904Y-28346428D01*
X13664285Y-28298809D01*
X13569047Y-28251190D01*
X13378571Y-28203571D01*
X13283333Y-28155952D01*
X13235714Y-28108333D01*
X13188095Y-28013095D01*
X13188095Y-27917857D01*
X13235714Y-27822619D01*
X13283333Y-27775000D01*
X13378571Y-27727380D01*
X13616666Y-27727380D01*
X13759523Y-27775000D01*
X14140476Y-27822619D02*
X14188095Y-27775000D01*
X14283333Y-27727380D01*
X14521428Y-27727380D01*
X14616666Y-27775000D01*
X14664285Y-27822619D01*
X14711904Y-27917857D01*
X14711904Y-28013095D01*
X14664285Y-28155952D01*
X14092857Y-28727380D01*
X14711904Y-28727380D01*
%TO.C,R4*%
X30848380Y-18962666D02*
X30372190Y-19296000D01*
X30848380Y-19534095D02*
X29848380Y-19534095D01*
X29848380Y-19153142D01*
X29896000Y-19057904D01*
X29943619Y-19010285D01*
X30038857Y-18962666D01*
X30181714Y-18962666D01*
X30276952Y-19010285D01*
X30324571Y-19057904D01*
X30372190Y-19153142D01*
X30372190Y-19534095D01*
X30181714Y-18105523D02*
X30848380Y-18105523D01*
X29800761Y-18343619D02*
X30515047Y-18581714D01*
X30515047Y-17962666D01*
%TO.C,R2*%
X56502380Y-19216666D02*
X56026190Y-19550000D01*
X56502380Y-19788095D02*
X55502380Y-19788095D01*
X55502380Y-19407142D01*
X55550000Y-19311904D01*
X55597619Y-19264285D01*
X55692857Y-19216666D01*
X55835714Y-19216666D01*
X55930952Y-19264285D01*
X55978571Y-19311904D01*
X56026190Y-19407142D01*
X56026190Y-19788095D01*
X55597619Y-18835714D02*
X55550000Y-18788095D01*
X55502380Y-18692857D01*
X55502380Y-18454761D01*
X55550000Y-18359523D01*
X55597619Y-18311904D01*
X55692857Y-18264285D01*
X55788095Y-18264285D01*
X55930952Y-18311904D01*
X56502380Y-18883333D01*
X56502380Y-18264285D01*
%TO.C,R5*%
X46823333Y-31102380D02*
X46490000Y-30626190D01*
X46251904Y-31102380D02*
X46251904Y-30102380D01*
X46632857Y-30102380D01*
X46728095Y-30150000D01*
X46775714Y-30197619D01*
X46823333Y-30292857D01*
X46823333Y-30435714D01*
X46775714Y-30530952D01*
X46728095Y-30578571D01*
X46632857Y-30626190D01*
X46251904Y-30626190D01*
X47728095Y-30102380D02*
X47251904Y-30102380D01*
X47204285Y-30578571D01*
X47251904Y-30530952D01*
X47347142Y-30483333D01*
X47585238Y-30483333D01*
X47680476Y-30530952D01*
X47728095Y-30578571D01*
X47775714Y-30673809D01*
X47775714Y-30911904D01*
X47728095Y-31007142D01*
X47680476Y-31054761D01*
X47585238Y-31102380D01*
X47347142Y-31102380D01*
X47251904Y-31054761D01*
X47204285Y-31007142D01*
%TO.C,DS1*%
X79545714Y-28727380D02*
X79545714Y-27727380D01*
X79783809Y-27727380D01*
X79926666Y-27775000D01*
X80021904Y-27870238D01*
X80069523Y-27965476D01*
X80117142Y-28155952D01*
X80117142Y-28298809D01*
X80069523Y-28489285D01*
X80021904Y-28584523D01*
X79926666Y-28679761D01*
X79783809Y-28727380D01*
X79545714Y-28727380D01*
X80498095Y-28679761D02*
X80640952Y-28727380D01*
X80879047Y-28727380D01*
X80974285Y-28679761D01*
X81021904Y-28632142D01*
X81069523Y-28536904D01*
X81069523Y-28441666D01*
X81021904Y-28346428D01*
X80974285Y-28298809D01*
X80879047Y-28251190D01*
X80688571Y-28203571D01*
X80593333Y-28155952D01*
X80545714Y-28108333D01*
X80498095Y-28013095D01*
X80498095Y-27917857D01*
X80545714Y-27822619D01*
X80593333Y-27775000D01*
X80688571Y-27727380D01*
X80926666Y-27727380D01*
X81069523Y-27775000D01*
X82021904Y-28727380D02*
X81450476Y-28727380D01*
X81736190Y-28727380D02*
X81736190Y-27727380D01*
X81640952Y-27870238D01*
X81545714Y-27965476D01*
X81450476Y-28013095D01*
%TO.C,D4*%
X33551904Y-6367380D02*
X33551904Y-5367380D01*
X33790000Y-5367380D01*
X33932857Y-5415000D01*
X34028095Y-5510238D01*
X34075714Y-5605476D01*
X34123333Y-5795952D01*
X34123333Y-5938809D01*
X34075714Y-6129285D01*
X34028095Y-6224523D01*
X33932857Y-6319761D01*
X33790000Y-6367380D01*
X33551904Y-6367380D01*
X34980476Y-5700714D02*
X34980476Y-6367380D01*
X34742380Y-5319761D02*
X34504285Y-6034047D01*
X35123333Y-6034047D01*
D11*
%TO.C,SW2*%
X83530000Y-27230000D02*
X79030000Y-27230000D01*
X77877600Y-31556000D02*
X77877600Y-33056000D01*
X84634000Y-29476000D02*
X84634000Y-27976000D01*
X79030000Y-33730000D02*
X83530000Y-33730000D01*
X84634000Y-33056000D02*
X84634000Y-31556000D01*
X77877600Y-27976000D02*
X77877600Y-29476000D01*
%TO.C,R3*%
X38200000Y-15526000D02*
X37870000Y-15526000D01*
X38200000Y-22066000D02*
X38200000Y-15526000D01*
X35460000Y-15526000D02*
X35790000Y-15526000D01*
X35790000Y-22066000D02*
X35460000Y-22066000D01*
X35460000Y-22066000D02*
X35460000Y-15526000D01*
X37870000Y-22066000D02*
X38200000Y-22066000D01*
%TO.C,D3*%
X40620000Y-8330000D02*
X40620000Y-11420000D01*
X40620000Y-11419830D02*
G75*
G03*
X46170000Y-9874538I2560000J1544830D01*
G01*
X46170000Y-9875462D02*
G75*
G03*
X40620000Y-8330170I-2990000J462D01*
G01*
X45680000Y-9875000D02*
G75*
G03*
X45680000Y-9875000I-2500000J0D01*
G01*
%TO.C,SW1*%
X10567600Y-27976000D02*
X10567600Y-29476000D01*
X17324000Y-33056000D02*
X17324000Y-31556000D01*
X17324000Y-29476000D02*
X17324000Y-27976000D01*
X16220000Y-27230000D02*
X11720000Y-27230000D01*
X10567600Y-31556000D02*
X10567600Y-33056000D01*
X11720000Y-33730000D02*
X16220000Y-33730000D01*
%TO.C,D1*%
X58400000Y-8615000D02*
X58400000Y-11705000D01*
X58400000Y-11704830D02*
G75*
G03*
X63950000Y-10159538I2560000J1544830D01*
G01*
X63950000Y-10160462D02*
G75*
G03*
X58400000Y-8615170I-2990000J462D01*
G01*
X63460000Y-10160000D02*
G75*
G03*
X63460000Y-10160000I-2500000J0D01*
G01*
%TO.C,J1*%
X43190000Y-24690000D02*
X41860000Y-24690000D01*
X44460000Y-24690000D02*
X52140000Y-24690000D01*
X52140000Y-24690000D02*
X52140000Y-22030000D01*
X44460000Y-24690000D02*
X44460000Y-22030000D01*
X41860000Y-24690000D02*
X41860000Y-23360000D01*
X44460000Y-22030000D02*
X52140000Y-22030000D01*
%TO.C,R1*%
X61444000Y-22320000D02*
X61114000Y-22320000D01*
X61114000Y-15780000D02*
X61444000Y-15780000D01*
X63854000Y-15780000D02*
X63524000Y-15780000D01*
X63854000Y-22320000D02*
X63854000Y-15780000D01*
X63524000Y-22320000D02*
X63854000Y-22320000D01*
X61114000Y-22320000D02*
X61114000Y-15780000D01*
%TO.C,D2*%
X49510000Y-8615000D02*
X49510000Y-11705000D01*
X55060000Y-10160462D02*
G75*
G03*
X49510000Y-8615170I-2990000J462D01*
G01*
X49510000Y-11704830D02*
G75*
G03*
X55060000Y-10159538I2560000J1544830D01*
G01*
X54570000Y-10160000D02*
G75*
G03*
X54570000Y-10160000I-2500000J0D01*
G01*
%TO.C,R6*%
X43720000Y-27840000D02*
X50260000Y-27840000D01*
X43720000Y-28170000D02*
X43720000Y-27840000D01*
X43720000Y-30580000D02*
X50260000Y-30580000D01*
X50260000Y-30580000D02*
X50260000Y-30250000D01*
X50260000Y-27840000D02*
X50260000Y-28170000D01*
X43720000Y-30250000D02*
X43720000Y-30580000D01*
%TO.C,DS2*%
X13970000Y-26605000D02*
X-30000Y-26605000D01*
X-30000Y-3105000D02*
X27970000Y-3105000D01*
X27970000Y1395000D02*
X27970000Y-26605000D01*
X27970000Y-26605000D02*
X13970000Y-26605000D01*
X-30000Y-26605000D02*
X-30000Y1395000D01*
X27970000Y-22105000D02*
X-30000Y-22105000D01*
X-30000Y1395000D02*
X27970000Y1395000D01*
X3220000Y-24605000D02*
G75*
G03*
X3220000Y-24605000I-1500000J0D01*
G01*
X27720000Y-24605000D02*
G75*
G03*
X27720000Y-24605000I-1500000J0D01*
G01*
X27720000Y-605000D02*
G75*
G03*
X27720000Y-605000I-1500000J0D01*
G01*
X3220000Y-605000D02*
G75*
G03*
X3220000Y-605000I-1500000J0D01*
G01*
%TO.C,R4*%
X31396000Y-15526000D02*
X31726000Y-15526000D01*
X34136000Y-15526000D02*
X33806000Y-15526000D01*
X31396000Y-22066000D02*
X31396000Y-15526000D01*
X34136000Y-22066000D02*
X34136000Y-15526000D01*
X33806000Y-22066000D02*
X34136000Y-22066000D01*
X31726000Y-22066000D02*
X31396000Y-22066000D01*
%TO.C,R2*%
X59790000Y-15780000D02*
X59460000Y-15780000D01*
X59790000Y-22320000D02*
X59790000Y-15780000D01*
X57380000Y-22320000D02*
X57050000Y-22320000D01*
X57050000Y-15780000D02*
X57380000Y-15780000D01*
X59460000Y-22320000D02*
X59790000Y-22320000D01*
X57050000Y-22320000D02*
X57050000Y-15780000D01*
%TO.C,R5*%
X50260000Y-34390000D02*
X50260000Y-34060000D01*
X50260000Y-31650000D02*
X50260000Y-31980000D01*
X43720000Y-34390000D02*
X50260000Y-34390000D01*
X43720000Y-34060000D02*
X43720000Y-34390000D01*
X43720000Y-31650000D02*
X50260000Y-31650000D01*
X43720000Y-31980000D02*
X43720000Y-31650000D01*
%TO.C,DS1*%
X81280000Y-26605000D02*
X67280000Y-26605000D01*
X95280000Y1395000D02*
X95280000Y-26605000D01*
X67280000Y1395000D02*
X95280000Y1395000D01*
X67280000Y-3105000D02*
X95280000Y-3105000D01*
X95280000Y-22105000D02*
X67280000Y-22105000D01*
X95280000Y-26605000D02*
X81280000Y-26605000D01*
X67280000Y-26605000D02*
X67280000Y1395000D01*
X95030000Y-605000D02*
G75*
G03*
X95030000Y-605000I-1500000J0D01*
G01*
X70530000Y-24605000D02*
G75*
G03*
X70530000Y-24605000I-1500000J0D01*
G01*
X95030000Y-24605000D02*
G75*
G03*
X95030000Y-24605000I-1500000J0D01*
G01*
X70530000Y-605000D02*
G75*
G03*
X70530000Y-605000I-1500000J0D01*
G01*
%TO.C,D4*%
X31730000Y-8330000D02*
X31730000Y-11420000D01*
X31730000Y-11419830D02*
G75*
G03*
X37280000Y-9874538I2560000J1544830D01*
G01*
X37280000Y-9875462D02*
G75*
G03*
X31730000Y-8330170I-2990000J462D01*
G01*
X36790000Y-9875000D02*
G75*
G03*
X36790000Y-9875000I-2500000J0D01*
G01*
%TD*%
M02*
