  0
SECTION
  2
HEADER
  9
$ANGBASE
  50
0.0
  9
$ANGDIR
  70
1
  9
$MEASUREMENT
  70
0
  0
ENDSEC
  0
SECTION
  2
TABLES
  0
TABLE
  2
LTYPE
  70
4
  0
LTYPE
  5
40F
  2
CONTINUOUS
  70
0
  3
Solid line
  72
65
  73
0
  40
0.0
  0
LTYPE
  5
410
  2
DASHDOT
 70
0
  3
Dash Dot ____ _ ____ _
 72
65
 73
4
 40
2.0
 49
1.25
 49
-0.25
 49
0.25
 49
-0.25
  0
LTYPE
  5
411
  2
DASHED
 70
0
  3
Dashed __ __ __ __ __
 72
65
 73
2
 40
0.75
 49
0.5
 49
-0.25
  0
LTYPE
  5
43B
  2
DOTTED
 70
0
  3
Dotted .  .  .  .
 72
65
 73
2
 40
0.2
 49
0.0
 49
-0.2
  0
ENDTAB
  0
TABLE
  2
STYLE
  70
4
  0
STYLE
  2
KICAD
  70
0
  40
0
  41
1
  42
1
  50
0
  71
0
  3
isocp.shx
  0
STYLE
  2
KICADB
  70
0
  40
0
  41
1
  42
1
  50
0
  71
0
  3
isocp.shx
  0
STYLE
  2
KICADI
  70
0
  40
0
  41
1
  42
1
  50
15
  71
0
  3
isocp.shx
  0
STYLE
  2
KICADBI
  70
0
  40
0
  41
1
  42
1
  50
15
  71
0
  3
isocp.shx
  0
ENDTAB
  0
TABLE
  2
LAYER
  70
1
  0
LAYER
  2
BLACK
  70
0
  62
7
  6
CONTINUOUS
  0
ENDTAB
  0
ENDSEC
  0
SECTION
  2
ENTITIES
0
LINE
8
BLACK
6
CONTINUOUS
10
-0.216581
20
-0.0706288
11
-0.180532
21
-0.0727417
0
LINE
8
BLACK
6
CONTINUOUS
10
-0.180532
20
-0.0727417
11
-0.144606
21
-0.0763802
0
LINE
8
BLACK
6
CONTINUOUS
10
-0.144606
20
-0.0763802
11
-0.108866
21
-0.0815378
0
LINE
8
BLACK
6
CONTINUOUS
10
-0.108866
20
-0.0815378
11
-0.0733763
21
-0.0882052
0
LINE
8
BLACK
6
CONTINUOUS
10
-0.0733763
20
-0.0882052
11
-0.0382013
21
-0.0963705
0
LINE
8
BLACK
6
CONTINUOUS
10
-0.0382013
20
-0.0963705
11
-0.00340394
21
-0.106019
0
LINE
8
BLACK
6
CONTINUOUS
10
-0.00340394
20
-0.106019
11
0.0309534
21
-0.117133
0
LINE
8
BLACK
6
CONTINUOUS
10
0.0309534
20
-0.117133
11
0.0648089
21
-0.129693
0
LINE
8
BLACK
6
CONTINUOUS
10
0.0648089
20
-0.129693
11
0.0981017
21
-0.143677
0
LINE
8
BLACK
6
CONTINUOUS
10
0.0981017
20
-0.143677
11
0.130772
21
-0.159058
0
LINE
8
BLACK
6
CONTINUOUS
10
0.130772
20
-0.159058
11
0.162761
21
-0.17581
0
LINE
8
BLACK
6
CONTINUOUS
10
0.162761
20
-0.17581
11
0.194012
21
-0.193903
0
LINE
8
BLACK
6
CONTINUOUS
10
0.194012
20
-0.193903
11
0.224468
21
-0.213304
0
LINE
8
BLACK
6
CONTINUOUS
10
0.224468
20
-0.213304
11
0.254075
21
-0.233977
0
LINE
8
BLACK
6
CONTINUOUS
10
0.254075
20
-0.233977
11
0.282779
21
-0.255887
0
LINE
8
BLACK
6
CONTINUOUS
10
0.282779
20
-0.255887
11
0.310528
21
-0.278993
0
LINE
8
BLACK
6
CONTINUOUS
10
0.310528
20
-0.278993
11
0.337274
21
-0.303255
0
LINE
8
BLACK
6
CONTINUOUS
10
0.337274
20
-0.303255
11
0.362968
21
-0.328628
0
LINE
8
BLACK
6
CONTINUOUS
10
0.362968
20
-0.328628
11
0.387563
21
-0.355067
0
LINE
8
BLACK
6
CONTINUOUS
10
0.387563
20
-0.355067
11
0.411016
21
-0.382524
0
LINE
8
BLACK
6
CONTINUOUS
10
0.411016
20
-0.382524
11
0.433285
21
-0.41095
0
LINE
8
BLACK
6
CONTINUOUS
10
0.433285
20
-0.41095
11
0.454329
21
-0.440295
0
LINE
8
BLACK
6
CONTINUOUS
10
0.454329
20
-0.440295
11
0.473505
21
-0.46958
0
LINE
8
BLACK
6
CONTINUOUS
10
0.473505
20
-0.46958
11
1.65898
21
-0.470078
0
LINE
8
BLACK
6
CONTINUOUS
10
1.65898
20
-0.470078
11
1.67816
21
-0.440794
0
LINE
8
BLACK
6
CONTINUOUS
10
1.67816
20
-0.440794
11
1.6992
21
-0.41145
0
LINE
8
BLACK
6
CONTINUOUS
10
1.6992
20
-0.41145
11
1.72147
21
-0.383023
0
LINE
8
BLACK
6
CONTINUOUS
10
1.72147
20
-0.383023
11
1.74492
21
-0.355566
0
LINE
8
BLACK
6
CONTINUOUS
10
1.74492
20
-0.355566
11
1.76952
21
-0.329127
0
LINE
8
BLACK
6
CONTINUOUS
10
1.76952
20
-0.329127
11
1.79521
21
-0.303754
0
LINE
8
BLACK
6
CONTINUOUS
10
1.79521
20
-0.303754
11
1.82196
21
-0.279492
0
LINE
8
BLACK
6
CONTINUOUS
10
1.82196
20
-0.279492
11
1.84971
21
-0.256386
0
LINE
8
BLACK
6
CONTINUOUS
10
1.84971
20
-0.256386
11
1.87841
21
-0.234476
0
LINE
8
BLACK
6
CONTINUOUS
10
1.87841
20
-0.234476
11
1.90802
21
-0.213803
0
LINE
8
BLACK
6
CONTINUOUS
10
1.90802
20
-0.213803
11
1.93847
21
-0.194402
0
LINE
8
BLACK
6
CONTINUOUS
10
1.93847
20
-0.194402
11
1.96972
21
-0.17631
0
LINE
8
BLACK
6
CONTINUOUS
10
1.96972
20
-0.17631
11
2.00171
21
-0.159557
0
LINE
8
BLACK
6
CONTINUOUS
10
2.00171
20
-0.159557
11
2.03438
21
-0.144176
0
LINE
8
BLACK
6
CONTINUOUS
10
2.03438
20
-0.144176
11
2.06768
21
-0.130192
0
LINE
8
BLACK
6
CONTINUOUS
10
2.06768
20
-0.130192
11
2.10153
21
-0.117632
0
LINE
8
BLACK
6
CONTINUOUS
10
2.10153
20
-0.117632
11
2.13589
21
-0.106518
0
LINE
8
BLACK
6
CONTINUOUS
10
2.13589
20
-0.106518
11
2.17069
21
-0.0968696
0
LINE
8
BLACK
6
CONTINUOUS
10
2.17069
20
-0.0968696
11
2.20586
21
-0.0887044
0
LINE
8
BLACK
6
CONTINUOUS
10
2.20586
20
-0.0887044
11
2.24135
21
-0.082037
0
LINE
8
BLACK
6
CONTINUOUS
10
2.24135
20
-0.082037
11
2.27709
21
-0.0768794
0
LINE
8
BLACK
6
CONTINUOUS
10
2.27709
20
-0.0768794
11
2.31302
21
-0.0732409
0
LINE
8
BLACK
6
CONTINUOUS
10
2.31302
20
-0.0732409
11
2.34907
21
-0.071128
0
LINE
8
BLACK
6
CONTINUOUS
10
2.34907
20
-0.071128
11
2.38517
21
-0.0705444
0
LINE
8
BLACK
6
CONTINUOUS
10
2.38517
20
-0.0705444
11
2.42127
21
-0.0714914
0
LINE
8
BLACK
6
CONTINUOUS
10
2.42127
20
-0.0714914
11
2.4573
21
-0.0739671
0
LINE
8
BLACK
6
CONTINUOUS
10
2.4573
20
-0.0739671
11
2.49318
21
-0.0779671
0
LINE
8
BLACK
6
CONTINUOUS
10
2.49318
20
-0.0779671
11
2.52887
21
-0.0834843
0
LINE
8
BLACK
6
CONTINUOUS
10
2.52887
20
-0.0834843
11
2.56429
21
-0.0905086
0
LINE
8
BLACK
6
CONTINUOUS
10
2.56429
20
-0.0905086
11
2.59938
21
-0.0990276
0
LINE
8
BLACK
6
CONTINUOUS
10
2.59938
20
-0.0990276
11
2.63408
21
-0.109026
0
LINE
8
BLACK
6
CONTINUOUS
10
2.63408
20
-0.109026
11
2.66832
21
-0.120485
0
LINE
8
BLACK
6
CONTINUOUS
10
2.66832
20
-0.120485
11
2.70205
21
-0.133386
0
LINE
8
BLACK
6
CONTINUOUS
10
2.70205
20
-0.133386
11
2.7352
21
-0.147704
0
LINE
8
BLACK
6
CONTINUOUS
10
2.7352
20
-0.147704
11
2.76772
21
-0.163413
0
LINE
8
BLACK
6
CONTINUOUS
10
2.76772
20
-0.163413
11
2.79953
21
-0.180487
0
LINE
8
BLACK
6
CONTINUOUS
10
2.79953
20
-0.180487
11
2.8306
21
-0.198893
0
LINE
8
BLACK
6
CONTINUOUS
10
2.8306
20
-0.198893
11
2.86086
21
-0.218599
0
LINE
8
BLACK
6
CONTINUOUS
10
2.86086
20
-0.218599
11
2.89026
21
-0.23957
0
LINE
8
BLACK
6
CONTINUOUS
10
2.89026
20
-0.23957
11
2.91874
21
-0.261767
0
LINE
8
BLACK
6
CONTINUOUS
10
2.91874
20
-0.261767
11
2.94626
21
-0.285152
0
LINE
8
BLACK
6
CONTINUOUS
10
2.94626
20
-0.285152
11
2.97276
21
-0.309681
0
LINE
8
BLACK
6
CONTINUOUS
10
2.97276
20
-0.309681
11
2.99819
21
-0.335312
0
LINE
8
BLACK
6
CONTINUOUS
10
2.99819
20
-0.335312
11
3.02252
21
-0.361997
0
LINE
8
BLACK
6
CONTINUOUS
10
3.02252
20
-0.361997
11
3.0457
21
-0.389689
0
LINE
8
BLACK
6
CONTINUOUS
10
3.0457
20
-0.389689
11
3.06768
21
-0.418338
0
LINE
8
BLACK
6
CONTINUOUS
10
3.06768
20
-0.418338
11
3.08842
21
-0.447893
0
LINE
8
BLACK
6
CONTINUOUS
10
3.08842
20
-0.447893
11
3.1079
21
-0.478301
0
LINE
8
BLACK
6
CONTINUOUS
10
3.1079
20
-0.478301
11
3.12607
21
-0.509506
0
LINE
8
BLACK
6
CONTINUOUS
10
3.12607
20
-0.509506
11
3.1429
21
-0.541454
0
LINE
8
BLACK
6
CONTINUOUS
10
3.1429
20
-0.541454
11
3.15837
21
-0.574086
0
LINE
8
BLACK
6
CONTINUOUS
10
3.15837
20
-0.574086
11
3.17243
21
-0.607344
0
LINE
8
BLACK
6
CONTINUOUS
10
3.17243
20
-0.607344
11
3.18508
21
-0.641168
0
LINE
8
BLACK
6
CONTINUOUS
10
3.18508
20
-0.641168
11
3.19628
21
-0.675497
0
LINE
8
BLACK
6
CONTINUOUS
10
3.19628
20
-0.675497
11
3.20601
21
-0.71027
0
LINE
8
BLACK
6
CONTINUOUS
10
3.20601
20
-0.71027
11
3.21426
21
-0.745425
0
LINE
8
BLACK
6
CONTINUOUS
10
3.21426
20
-0.745425
11
3.22102
21
-0.780897
0
LINE
8
BLACK
6
CONTINUOUS
10
3.22102
20
-0.780897
11
3.22627
21
-0.816625
0
LINE
8
BLACK
6
CONTINUOUS
10
3.22627
20
-0.816625
11
3.23
21
-0.852542
0
LINE
8
BLACK
6
CONTINUOUS
10
3.23
20
-0.852542
11
3.2322
21
-0.888585
0
LINE
8
BLACK
6
CONTINUOUS
10
3.2322
20
-0.888585
11
3.23287
21
-0.924689
0
LINE
8
BLACK
6
CONTINUOUS
10
3.23287
20
-0.924689
11
3.23201
21
-0.960789
0
LINE
8
BLACK
6
CONTINUOUS
10
3.23201
20
-0.960789
11
3.22963
21
-0.99682
0
LINE
8
BLACK
6
CONTINUOUS
10
3.22963
20
-0.99682
11
3.22572
21
-1.03272
0
LINE
8
BLACK
6
CONTINUOUS
10
3.22572
20
-1.03272
11
3.22029
21
-1.06842
0
LINE
8
BLACK
6
CONTINUOUS
10
3.22029
20
-1.06842
11
3.21335
21
-1.10386
0
LINE
8
BLACK
6
CONTINUOUS
10
3.21335
20
-1.10386
11
3.20492
21
-1.13897
0
LINE
8
BLACK
6
CONTINUOUS
10
3.20492
20
-1.13897
11
3.19501
21
-1.17369
0
LINE
8
BLACK
6
CONTINUOUS
10
3.19501
20
-1.17369
11
3.18364
21
-1.20796
0
LINE
8
BLACK
6
CONTINUOUS
10
3.18364
20
-1.20796
11
3.17082
21
-1.24172
0
LINE
8
BLACK
6
CONTINUOUS
10
3.17082
20
-1.24172
11
3.15659
21
-1.27491
0
LINE
8
BLACK
6
CONTINUOUS
10
3.15659
20
-1.27491
11
3.14096
21
-1.30746
0
LINE
8
BLACK
6
CONTINUOUS
10
3.14096
20
-1.30746
11
3.12396
21
-1.33932
0
LINE
8
BLACK
6
CONTINUOUS
10
3.12396
20
-1.33932
11
3.10563
21
-1.37044
0
LINE
8
BLACK
6
CONTINUOUS
10
3.10563
20
-1.37044
11
3.086
21
-1.40074
0
LINE
8
BLACK
6
CONTINUOUS
10
3.086
20
-1.40074
11
3.06511
21
-1.43019
0
LINE
8
BLACK
6
CONTINUOUS
10
3.06511
20
-1.43019
11
3.04298
21
-1.45873
0
LINE
8
BLACK
6
CONTINUOUS
10
3.04298
20
-1.45873
11
3.01966
21
-1.4863
0
LINE
8
BLACK
6
CONTINUOUS
10
3.01966
20
-1.4863
11
2.9952
21
-1.51287
0
LINE
8
BLACK
6
CONTINUOUS
10
2.9952
20
-1.51287
11
2.96963
21
-1.53837
0
LINE
8
BLACK
6
CONTINUOUS
10
2.96963
20
-1.53837
11
2.94301
21
-1.56276
0
LINE
8
BLACK
6
CONTINUOUS
10
2.94301
20
-1.56276
11
2.91538
21
-1.58601
0
LINE
8
BLACK
6
CONTINUOUS
10
2.91538
20
-1.58601
11
2.88678
21
-1.60806
0
LINE
8
BLACK
6
CONTINUOUS
10
2.88678
20
-1.60806
11
2.85728
21
-1.62888
0
LINE
8
BLACK
6
CONTINUOUS
10
2.85728
20
-1.62888
11
2.82692
21
-1.64843
0
LINE
8
BLACK
6
CONTINUOUS
10
2.82692
20
-1.64843
11
2.79576
21
-1.66668
0
LINE
8
BLACK
6
CONTINUOUS
10
2.79576
20
-1.66668
11
2.76385
21
-1.68359
0
LINE
8
BLACK
6
CONTINUOUS
10
2.76385
20
-1.68359
11
2.73126
21
-1.69914
0
LINE
8
BLACK
6
CONTINUOUS
10
2.73126
20
-1.69914
11
2.69804
21
-1.71328
0
LINE
8
BLACK
6
CONTINUOUS
10
2.69804
20
-1.71328
11
2.66424
21
-1.72601
0
LINE
8
BLACK
6
CONTINUOUS
10
2.66424
20
-1.72601
11
2.62994
21
-1.7373
0
LINE
8
BLACK
6
CONTINUOUS
10
2.62994
20
-1.7373
11
2.59519
21
-1.74712
0
LINE
8
BLACK
6
CONTINUOUS
10
2.59519
20
-1.74712
11
2.56006
21
-1.75546
0
LINE
8
BLACK
6
CONTINUOUS
10
2.56006
20
-1.75546
11
2.52461
21
-1.76231
0
LINE
8
BLACK
6
CONTINUOUS
10
2.52461
20
-1.76231
11
2.48889
21
-1.76764
0
LINE
8
BLACK
6
CONTINUOUS
10
2.48889
20
-1.76764
11
2.45298
21
-1.77146
0
LINE
8
BLACK
6
CONTINUOUS
10
2.45298
20
-1.77146
11
2.41695
21
-1.77375
0
LINE
8
BLACK
6
CONTINUOUS
10
2.41695
20
-1.77375
11
2.38084
21
-1.77452
0
LINE
8
BLACK
6
CONTINUOUS
10
2.38084
20
-1.77452
11
2.38084
21
-1.77451
0
LINE
8
BLACK
6
CONTINUOUS
10
2.38084
20
-1.77451
11
2.38084
21
-1.77451
0
LINE
8
BLACK
6
CONTINUOUS
10
2.38084
20
-1.77451
11
2.38084
21
-1.77451
0
LINE
8
BLACK
6
CONTINUOUS
10
2.38084
20
-1.77451
11
-0.248358
21
-1.77402
0
LINE
8
BLACK
6
CONTINUOUS
10
-0.248358
20
-1.77402
11
-0.248358
21
-1.77402
0
LINE
8
BLACK
6
CONTINUOUS
10
-0.248358
20
-1.77402
11
-0.28446
21
-1.77325
0
LINE
8
BLACK
6
CONTINUOUS
10
-0.28446
20
-1.77325
11
-0.320497
21
-1.77096
0
LINE
8
BLACK
6
CONTINUOUS
10
-0.320497
20
-1.77096
11
-0.356405
21
-1.76714
0
LINE
8
BLACK
6
CONTINUOUS
10
-0.356405
20
-1.76714
11
-0.392119
21
-1.76181
0
LINE
8
BLACK
6
CONTINUOUS
10
-0.392119
20
-1.76181
11
-0.427575
21
-1.75496
0
LINE
8
BLACK
6
CONTINUOUS
10
-0.427575
20
-1.75496
11
-0.462708
21
-1.74662
0
LINE
8
BLACK
6
CONTINUOUS
10
-0.462708
20
-1.74662
11
-0.497457
21
-1.7368
0
LINE
8
BLACK
6
CONTINUOUS
10
-0.497457
20
-1.7368
11
-0.531759
21
-1.72551
0
LINE
8
BLACK
6
CONTINUOUS
10
-0.531759
20
-1.72551
11
-0.565551
21
-1.71279
0
LINE
8
BLACK
6
CONTINUOUS
10
-0.565551
20
-1.71279
11
-0.598774
21
-1.69864
0
LINE
8
BLACK
6
CONTINUOUS
10
-0.598774
20
-1.69864
11
-0.631367
21
-1.68309
0
LINE
8
BLACK
6
CONTINUOUS
10
-0.631367
20
-1.68309
11
-0.663272
21
-1.66618
0
LINE
8
BLACK
6
CONTINUOUS
10
-0.663272
20
-1.66618
11
-0.694433
21
-1.64793
0
LINE
8
BLACK
6
CONTINUOUS
10
-0.694433
20
-1.64793
11
-0.724791
21
-1.62838
0
LINE
8
BLACK
6
CONTINUOUS
10
-0.724791
20
-1.62838
11
-0.754295
21
-1.60756
0
LINE
8
BLACK
6
CONTINUOUS
10
-0.754295
20
-1.60756
11
-0.782889
21
-1.58551
0
LINE
8
BLACK
6
CONTINUOUS
10
-0.782889
20
-1.58551
11
-0.810523
21
-1.56226
0
LINE
8
BLACK
6
CONTINUOUS
10
-0.810523
20
-1.56226
11
-0.837147
21
-1.53787
0
LINE
8
BLACK
6
CONTINUOUS
10
-0.837147
20
-1.53787
11
-0.862714
21
-1.51237
0
LINE
8
BLACK
6
CONTINUOUS
10
-0.862714
20
-1.51237
11
-0.887178
21
-1.48581
0
LINE
8
BLACK
6
CONTINUOUS
10
-0.887178
20
-1.48581
11
-0.910493
21
-1.45823
0
LINE
8
BLACK
6
CONTINUOUS
10
-0.910493
20
-1.45823
11
-0.93262
21
-1.42969
0
LINE
8
BLACK
6
CONTINUOUS
10
-0.93262
20
-1.42969
11
-0.953517
21
-1.40024
0
LINE
8
BLACK
6
CONTINUOUS
10
-0.953517
20
-1.40024
11
-0.973148
21
-1.36994
0
LINE
8
BLACK
6
CONTINUOUS
10
-0.973148
20
-1.36994
11
-0.991477
21
-1.33882
0
LINE
8
BLACK
6
CONTINUOUS
10
-0.991477
20
-1.33882
11
-1.00847
21
-1.30696
0
LINE
8
BLACK
6
CONTINUOUS
10
-1.00847
20
-1.30696
11
-1.0241
21
-1.27441
0
LINE
8
BLACK
6
CONTINUOUS
10
-1.0241
20
-1.27441
11
-1.03833
21
-1.24122
0
LINE
8
BLACK
6
CONTINUOUS
10
-1.03833
20
-1.24122
11
-1.05115
21
-1.20746
0
LINE
8
BLACK
6
CONTINUOUS
10
-1.05115
20
-1.20746
11
-1.06252
21
-1.17319
0
LINE
8
BLACK
6
CONTINUOUS
10
-1.06252
20
-1.17319
11
-1.07244
21
-1.13847
0
LINE
8
BLACK
6
CONTINUOUS
10
-1.07244
20
-1.13847
11
-1.08087
21
-1.10336
0
LINE
8
BLACK
6
CONTINUOUS
10
-1.08087
20
-1.10336
11
-1.0878
21
-1.06792
0
LINE
8
BLACK
6
CONTINUOUS
10
-1.0878
20
-1.06792
11
-1.09323
21
-1.03222
0
LINE
8
BLACK
6
CONTINUOUS
10
-1.09323
20
-1.03222
11
-1.09714
21
-0.996321
0
LINE
8
BLACK
6
CONTINUOUS
10
-1.09714
20
-0.996321
11
-1.09953
21
-0.96029
0
LINE
8
BLACK
6
CONTINUOUS
10
-1.09953
20
-0.96029
11
-1.10039
21
-0.924189
0
LINE
8
BLACK
6
CONTINUOUS
10
-1.10039
20
-0.924189
11
-1.09971
21
-0.888085
0
LINE
8
BLACK
6
CONTINUOUS
10
-1.09971
20
-0.888085
11
-1.09751
21
-0.852042
0
LINE
8
BLACK
6
CONTINUOUS
10
-1.09751
20
-0.852042
11
-1.09378
21
-0.816125
0
LINE
8
BLACK
6
CONTINUOUS
10
-1.09378
20
-0.816125
11
-1.08853
21
-0.780398
0
LINE
8
BLACK
6
CONTINUOUS
10
-1.08853
20
-0.780398
11
-1.08178
21
-0.744925
0
LINE
8
BLACK
6
CONTINUOUS
10
-1.08178
20
-0.744925
11
-1.07353
21
-0.709771
0
LINE
8
BLACK
6
CONTINUOUS
10
-1.07353
20
-0.709771
11
-1.06379
21
-0.674998
0
LINE
8
BLACK
6
CONTINUOUS
10
-1.06379
20
-0.674998
11
-1.05259
21
-0.640668
0
LINE
8
BLACK
6
CONTINUOUS
10
-1.05259
20
-0.640668
11
-1.03995
21
-0.606844
0
LINE
8
BLACK
6
CONTINUOUS
10
-1.03995
20
-0.606844
11
-1.02588
21
-0.573586
0
LINE
8
BLACK
6
CONTINUOUS
10
-1.02588
20
-0.573586
11
-1.01042
21
-0.540954
0
LINE
8
BLACK
6
CONTINUOUS
10
-1.01042
20
-0.540954
11
-0.993585
21
-0.509007
0
LINE
8
BLACK
6
CONTINUOUS
10
-0.993585
20
-0.509007
11
-0.975414
21
-0.477801
0
LINE
8
BLACK
6
CONTINUOUS
10
-0.975414
20
-0.477801
11
-0.955938
21
-0.447394
0
LINE
8
BLACK
6
CONTINUOUS
10
-0.955938
20
-0.447394
11
-0.93519
21
-0.417839
0
LINE
8
BLACK
6
CONTINUOUS
10
-0.93519
20
-0.417839
11
-0.913209
21
-0.38919
0
LINE
8
BLACK
6
CONTINUOUS
10
-0.913209
20
-0.38919
11
-0.890034
21
-0.361498
0
LINE
8
BLACK
6
CONTINUOUS
10
-0.890034
20
-0.361498
11
-0.865706
21
-0.334812
0
LINE
8
BLACK
6
CONTINUOUS
10
-0.865706
20
-0.334812
11
-0.840269
21
-0.309182
0
LINE
8
BLACK
6
CONTINUOUS
10
-0.840269
20
-0.309182
11
-0.813769
21
-0.284653
0
LINE
8
BLACK
6
CONTINUOUS
10
-0.813769
20
-0.284653
11
-0.786253
21
-0.261268
0
LINE
8
BLACK
6
CONTINUOUS
10
-0.786253
20
-0.261268
11
-0.757771
21
-0.239071
0
LINE
8
BLACK
6
CONTINUOUS
10
-0.757771
20
-0.239071
11
-0.728374
21
-0.2181
0
LINE
8
BLACK
6
CONTINUOUS
10
-0.728374
20
-0.2181
11
-0.698115
21
-0.198394
0
LINE
8
BLACK
6
CONTINUOUS
10
-0.698115
20
-0.198394
11
-0.667048
21
-0.179987
0
LINE
8
BLACK
6
CONTINUOUS
10
-0.667048
20
-0.179987
11
-0.635229
21
-0.162914
0
LINE
8
BLACK
6
CONTINUOUS
10
-0.635229
20
-0.162914
11
-0.602715
21
-0.147204
0
LINE
8
BLACK
6
CONTINUOUS
10
-0.602715
20
-0.147204
11
-0.569565
21
-0.132886
0
LINE
8
BLACK
6
CONTINUOUS
10
-0.569565
20
-0.132886
11
-0.535837
21
-0.119986
0
LINE
8
BLACK
6
CONTINUOUS
10
-0.535837
20
-0.119986
11
-0.501594
21
-0.108527
0
LINE
8
BLACK
6
CONTINUOUS
10
-0.501594
20
-0.108527
11
-0.466895
21
-0.0985284
0
LINE
8
BLACK
6
CONTINUOUS
10
-0.466895
20
-0.0985284
11
-0.431804
21
-0.0900094
0
LINE
8
BLACK
6
CONTINUOUS
10
-0.431804
20
-0.0900094
11
-0.396384
21
-0.0829851
0
LINE
8
BLACK
6
CONTINUOUS
10
-0.396384
20
-0.0829851
11
-0.360697
21
-0.077468
0
LINE
8
BLACK
6
CONTINUOUS
10
-0.360697
20
-0.077468
11
-0.324809
21
-0.073468
0
LINE
8
BLACK
6
CONTINUOUS
10
-0.324809
20
-0.073468
11
-0.288784
21
-0.0709922
0
LINE
8
BLACK
6
CONTINUOUS
10
-0.288784
20
-0.0709922
11
-0.252686
21
-0.0700453
0
LINE
8
BLACK
6
CONTINUOUS
10
-0.252686
20
-0.0700453
11
-0.216581
21
-0.0706288
0
LINE
8
BLACK
6
CONTINUOUS
10
-0.29786
20
-0.0752211
11
-0.334067
21
-0.078115
0
LINE
8
BLACK
6
CONTINUOUS
10
-0.334067
20
-0.078115
11
-0.370116
21
-0.0825562
0
LINE
8
BLACK
6
CONTINUOUS
10
-0.370116
20
-0.0825562
11
-0.405943
21
-0.0885367
0
LINE
8
BLACK
6
CONTINUOUS
10
-0.405943
20
-0.0885367
11
-0.44148
21
-0.0960454
0
LINE
8
BLACK
6
CONTINUOUS
10
-0.44148
20
-0.0960454
11
-0.476664
21
-0.105069
0
LINE
8
BLACK
6
CONTINUOUS
10
-0.476664
20
-0.105069
11
-0.511429
21
-0.11559
0
LINE
8
BLACK
6
CONTINUOUS
10
-0.511429
20
-0.11559
11
-0.545712
21
-0.12759
0
LINE
8
BLACK
6
CONTINUOUS
10
-0.545712
20
-0.12759
11
-0.579449
21
-0.141046
0
LINE
8
BLACK
6
CONTINUOUS
10
-0.579449
20
-0.141046
11
-0.61258
21
-0.155935
0
LINE
8
BLACK
6
CONTINUOUS
10
-0.61258
20
-0.155935
11
-0.645043
21
-0.172228
0
LINE
8
BLACK
6
CONTINUOUS
10
-0.645043
20
-0.172228
11
-0.676778
21
-0.189896
0
LINE
8
BLACK
6
CONTINUOUS
10
-0.676778
20
-0.189896
11
-0.707728
21
-0.208906
0
LINE
8
BLACK
6
CONTINUOUS
10
-0.707728
20
-0.208906
11
-0.737836
21
-0.229224
0
LINE
8
BLACK
6
CONTINUOUS
10
-0.737836
20
-0.229224
11
-0.767047
21
-0.250812
0
LINE
8
BLACK
6
CONTINUOUS
10
-0.767047
20
-0.250812
11
-0.795306
21
-0.273631
0
LINE
8
BLACK
6
CONTINUOUS
10
-0.795306
20
-0.273631
11
-0.822563
21
-0.297639
0
LINE
8
BLACK
6
CONTINUOUS
10
-0.822563
20
-0.297639
11
-0.848766
21
-0.322792
0
LINE
8
BLACK
6
CONTINUOUS
10
-0.848766
20
-0.322792
11
-0.87387
21
-0.349043
0
LINE
8
BLACK
6
CONTINUOUS
10
-0.87387
20
-0.349043
11
-0.897826
21
-0.376345
0
LINE
8
BLACK
6
CONTINUOUS
10
-0.897826
20
-0.376345
11
-0.920591
21
-0.404648
0
LINE
8
BLACK
6
CONTINUOUS
10
-0.920591
20
-0.404648
11
-0.942124
21
-0.433899
0
LINE
8
BLACK
6
CONTINUOUS
10
-0.942124
20
-0.433899
11
-0.962385
21
-0.464045
0
LINE
8
BLACK
6
CONTINUOUS
10
-0.962385
20
-0.464045
11
-0.981337
21
-0.495031
0
LINE
8
BLACK
6
CONTINUOUS
10
-0.981337
20
-0.495031
11
-0.998945
21
-0.5268
0
LINE
8
BLACK
6
CONTINUOUS
10
-0.998945
20
-0.5268
11
-1.01518
21
-0.559294
0
LINE
8
BLACK
6
CONTINUOUS
10
-1.01518
20
-0.559294
11
-1.03
21
-0.592453
0
LINE
8
BLACK
6
CONTINUOUS
10
-1.03
20
-0.592453
11
-1.04339
21
-0.626216
0
LINE
8
BLACK
6
CONTINUOUS
10
-1.04339
20
-0.626216
11
-1.05533
21
-0.660521
0
LINE
8
BLACK
6
CONTINUOUS
10
-1.05533
20
-0.660521
11
-1.06578
21
-0.695306
0
LINE
8
BLACK
6
CONTINUOUS
10
-1.06578
20
-0.695306
11
-1.07474
21
-0.730506
0
LINE
8
BLACK
6
CONTINUOUS
10
-1.07474
20
-0.730506
11
-1.08218
21
-0.766058
0
LINE
8
BLACK
6
CONTINUOUS
10
-1.08218
20
-0.766058
11
-1.0881
21
-0.801896
0
LINE
8
BLACK
6
CONTINUOUS
10
-1.0881
20
-0.801896
11
-1.09247
21
-0.837954
0
LINE
8
BLACK
6
CONTINUOUS
10
-1.09247
20
-0.837954
11
-1.09529
21
-0.874166
0
LINE
8
BLACK
6
CONTINUOUS
10
-1.09529
20
-0.874166
11
-1.09657
21
-0.910466
0
LINE
8
BLACK
6
CONTINUOUS
10
-1.09657
20
-0.910466
11
-1.09628
21
-0.946787
0
LINE
8
BLACK
6
CONTINUOUS
10
-1.09628
20
-0.946787
11
-1.09445
21
-0.983063
0
LINE
8
BLACK
6
CONTINUOUS
10
-1.09445
20
-0.983063
11
-1.09106
21
-1.01923
0
LINE
8
BLACK
6
CONTINUOUS
10
-1.09106
20
-1.01923
11
-1.08612
21
-1.05521
0
LINE
8
BLACK
6
CONTINUOUS
10
-1.08612
20
-1.05521
11
-1.07965
21
-1.09095
0
LINE
8
BLACK
6
CONTINUOUS
10
-1.07965
20
-1.09095
11
-1.07166
21
-1.12638
0
LINE
8
BLACK
6
CONTINUOUS
10
-1.07166
20
-1.12638
11
-1.06216
21
-1.16144
0
LINE
8
BLACK
6
CONTINUOUS
10
-1.06216
20
-1.16144
11
-1.05116
21
-1.19606
0
LINE
8
BLACK
6
CONTINUOUS
10
-1.05116
20
-1.19606
11
-1.03869
21
-1.23017
0
LINE
8
BLACK
6
CONTINUOUS
10
-1.03869
20
-1.23017
11
-1.02478
21
-1.26373
0
LINE
8
BLACK
6
CONTINUOUS
10
-1.02478
20
-1.26373
11
-1.00944
21
-1.29665
0
LINE
8
BLACK
6
CONTINUOUS
10
-1.00944
20
-1.29665
11
-0.992701
21
-1.32889
0
LINE
8
BLACK
6
CONTINUOUS
10
-0.992701
20
-1.32889
11
-0.974601
21
-1.36038
0
LINE
8
BLACK
6
CONTINUOUS
10
-0.974601
20
-1.36038
11
-0.955169
21
-1.39106
0
LINE
8
BLACK
6
CONTINUOUS
10
-0.955169
20
-1.39106
11
-0.934441
21
-1.42089
0
LINE
8
BLACK
6
CONTINUOUS
10
-0.934441
20
-1.42089
11
-0.912455
21
-1.4498
0
LINE
8
BLACK
6
CONTINUOUS
10
-0.912455
20
-1.4498
11
-0.889252
21
-1.47775
0
LINE
8
BLACK
6
CONTINUOUS
10
-0.889252
20
-1.47775
11
-0.864874
21
-1.50467
0
LINE
8
BLACK
6
CONTINUOUS
10
-0.864874
20
-1.50467
11
-0.839365
21
-1.53053
0
LINE
8
BLACK
6
CONTINUOUS
10
-0.839365
20
-1.53053
11
-0.812773
21
-1.55527
0
LINE
8
BLACK
6
CONTINUOUS
10
-0.812773
20
-1.55527
11
-0.785146
21
-1.57885
0
LINE
8
BLACK
6
CONTINUOUS
10
-0.785146
20
-1.57885
11
-0.756535
21
-1.60123
0
LINE
8
BLACK
6
CONTINUOUS
10
-0.756535
20
-1.60123
11
-0.726992
21
-1.62236
0
LINE
8
BLACK
6
CONTINUOUS
10
-0.726992
20
-1.62236
11
-0.696571
21
-1.64221
0
LINE
8
BLACK
6
CONTINUOUS
10
-0.696571
20
-1.64221
11
-0.665329
21
-1.66073
0
LINE
8
BLACK
6
CONTINUOUS
10
-0.665329
20
-1.66073
11
-0.633322
21
-1.67791
0
LINE
8
BLACK
6
CONTINUOUS
10
-0.633322
20
-1.67791
11
-0.60061
21
-1.69369
0
LINE
8
BLACK
6
CONTINUOUS
10
-0.60061
20
-1.69369
11
-0.567251
21
-1.70806
0
LINE
8
BLACK
6
CONTINUOUS
10
-0.567251
20
-1.70806
11
-0.533308
21
-1.72099
0
LINE
8
BLACK
6
CONTINUOUS
10
-0.533308
20
-1.72099
11
-0.498843
21
-1.73246
0
LINE
8
BLACK
6
CONTINUOUS
10
-0.498843
20
-1.73246
11
-0.463919
21
-1.74244
0
LINE
8
BLACK
6
CONTINUOUS
10
-0.463919
20
-1.74244
11
-0.428599
21
-1.75091
0
LINE
8
BLACK
6
CONTINUOUS
10
-0.428599
20
-1.75091
11
-0.392949
21
-1.75787
0
LINE
8
BLACK
6
CONTINUOUS
10
-0.392949
20
-1.75787
11
-0.357033
21
-1.76329
0
LINE
8
BLACK
6
CONTINUOUS
10
-0.357033
20
-1.76329
11
-0.320919
21
-1.76717
0
LINE
8
BLACK
6
CONTINUOUS
10
-0.320919
20
-1.76717
11
-0.284672
21
-1.7695
0
LINE
8
BLACK
6
CONTINUOUS
10
-0.284672
20
-1.7695
11
-0.248802
21
-1.77026
0
LINE
8
BLACK
6
CONTINUOUS
10
-0.248802
20
-1.77026
11
-0.248358
21
-1.77008
0
LINE
8
BLACK
6
CONTINUOUS
10
-0.248358
20
-1.77008
11
-0.248357
21
-1.77008
0
LINE
8
BLACK
6
CONTINUOUS
10
-0.248357
20
-1.77008
11
-0.248357
21
-1.77008
0
LINE
8
BLACK
6
CONTINUOUS
10
-0.248357
20
-1.77008
11
2.38084
21
-1.77058
0
LINE
8
BLACK
6
CONTINUOUS
10
2.38084
20
-1.77058
11
2.38129
21
-1.77076
0
LINE
8
BLACK
6
CONTINUOUS
10
2.38129
20
-1.77076
11
2.41716
21
-1.77
0
LINE
8
BLACK
6
CONTINUOUS
10
2.41716
20
-1.77
11
2.45341
21
-1.76767
0
LINE
8
BLACK
6
CONTINUOUS
10
2.45341
20
-1.76767
11
2.48952
21
-1.76379
0
LINE
8
BLACK
6
CONTINUOUS
10
2.48952
20
-1.76379
11
2.52543
21
-1.75836
0
LINE
8
BLACK
6
CONTINUOUS
10
2.52543
20
-1.75836
11
2.56109
21
-1.75141
0
LINE
8
BLACK
6
CONTINUOUS
10
2.56109
20
-1.75141
11
2.5964
21
-1.74294
0
LINE
8
BLACK
6
CONTINUOUS
10
2.5964
20
-1.74294
11
2.63133
21
-1.73296
0
LINE
8
BLACK
6
CONTINUOUS
10
2.63133
20
-1.73296
11
2.66579
21
-1.72149
0
LINE
8
BLACK
6
CONTINUOUS
10
2.66579
20
-1.72149
11
2.69974
21
-1.70856
0
LINE
8
BLACK
6
CONTINUOUS
10
2.69974
20
-1.70856
11
2.7331
21
-1.69419
0
LINE
8
BLACK
6
CONTINUOUS
10
2.7331
20
-1.69419
11
2.76581
21
-1.67841
0
LINE
8
BLACK
6
CONTINUOUS
10
2.76581
20
-1.67841
11
2.79782
21
-1.66123
0
LINE
8
BLACK
6
CONTINUOUS
10
2.79782
20
-1.66123
11
2.82906
21
-1.64271
0
LINE
8
BLACK
6
CONTINUOUS
10
2.82906
20
-1.64271
11
2.85948
21
-1.62286
0
LINE
8
BLACK
6
CONTINUOUS
10
2.85948
20
-1.62286
11
2.88902
21
-1.60173
0
LINE
8
BLACK
6
CONTINUOUS
10
2.88902
20
-1.60173
11
2.91763
21
-1.57935
0
LINE
8
BLACK
6
CONTINUOUS
10
2.91763
20
-1.57935
11
2.94526
21
-1.55577
0
LINE
8
BLACK
6
CONTINUOUS
10
2.94526
20
-1.55577
11
2.97185
21
-1.53103
0
LINE
8
BLACK
6
CONTINUOUS
10
2.97185
20
-1.53103
11
2.99736
21
-1.50517
0
LINE
8
BLACK
6
CONTINUOUS
10
2.99736
20
-1.50517
11
3.02174
21
-1.47825
0
LINE
8
BLACK
6
CONTINUOUS
10
3.02174
20
-1.47825
11
3.04494
21
-1.4503
0
LINE
8
BLACK
6
CONTINUOUS
10
3.04494
20
-1.4503
11
3.06693
21
-1.42139
0
LINE
8
BLACK
6
CONTINUOUS
10
3.06693
20
-1.42139
11
3.08766
21
-1.39156
0
LINE
8
BLACK
6
CONTINUOUS
10
3.08766
20
-1.39156
11
3.10709
21
-1.36088
0
LINE
8
BLACK
6
CONTINUOUS
10
3.10709
20
-1.36088
11
3.12519
21
-1.32939
0
LINE
8
BLACK
6
CONTINUOUS
10
3.12519
20
-1.32939
11
3.14192
21
-1.29715
0
LINE
8
BLACK
6
CONTINUOUS
10
3.14192
20
-1.29715
11
3.15726
21
-1.26422
0
LINE
8
BLACK
6
CONTINUOUS
10
3.15726
20
-1.26422
11
3.17118
21
-1.23067
0
LINE
8
BLACK
6
CONTINUOUS
10
3.17118
20
-1.23067
11
3.18365
21
-1.19656
0
LINE
8
BLACK
6
CONTINUOUS
10
3.18365
20
-1.19656
11
3.19464
21
-1.16194
0
LINE
8
BLACK
6
CONTINUOUS
10
3.19464
20
-1.16194
11
3.20415
21
-1.12688
0
LINE
8
BLACK
6
CONTINUOUS
10
3.20415
20
-1.12688
11
3.21214
21
-1.09145
0
LINE
8
BLACK
6
CONTINUOUS
10
3.21214
20
-1.09145
11
3.21861
21
-1.05571
0
LINE
8
BLACK
6
CONTINUOUS
10
3.21861
20
-1.05571
11
3.22354
21
-1.01973
0
LINE
8
BLACK
6
CONTINUOUS
10
3.22354
20
-1.01973
11
3.22693
21
-0.983562
0
LINE
8
BLACK
6
CONTINUOUS
10
3.22693
20
-0.983562
11
3.22877
21
-0.947286
0
LINE
8
BLACK
6
CONTINUOUS
10
3.22877
20
-0.947286
11
3.22905
21
-0.910965
0
LINE
8
BLACK
6
CONTINUOUS
10
3.22905
20
-0.910965
11
3.22778
21
-0.874665
0
LINE
8
BLACK
6
CONTINUOUS
10
3.22778
20
-0.874665
11
3.22495
21
-0.838453
0
LINE
8
BLACK
6
CONTINUOUS
10
3.22495
20
-0.838453
11
3.22058
21
-0.802395
0
LINE
8
BLACK
6
CONTINUOUS
10
3.22058
20
-0.802395
11
3.21467
21
-0.766557
0
LINE
8
BLACK
6
CONTINUOUS
10
3.21467
20
-0.766557
11
3.20723
21
-0.731006
0
LINE
8
BLACK
6
CONTINUOUS
10
3.20723
20
-0.731006
11
3.19827
21
-0.695805
0
LINE
8
BLACK
6
CONTINUOUS
10
3.19827
20
-0.695805
11
3.18782
21
-0.66102
0
LINE
8
BLACK
6
CONTINUOUS
10
3.18782
20
-0.66102
11
3.17588
21
-0.626715
0
LINE
8
BLACK
6
CONTINUOUS
10
3.17588
20
-0.626715
11
3.16249
21
-0.592952
0
LINE
8
BLACK
6
CONTINUOUS
10
3.16249
20
-0.592952
11
3.14766
21
-0.559793
0
LINE
8
BLACK
6
CONTINUOUS
10
3.14766
20
-0.559793
11
3.13143
21
-0.5273
0
LINE
8
BLACK
6
CONTINUOUS
10
3.13143
20
-0.5273
11
3.11382
21
-0.495531
0
LINE
8
BLACK
6
CONTINUOUS
10
3.11382
20
-0.495531
11
3.09487
21
-0.464545
0
LINE
8
BLACK
6
CONTINUOUS
10
3.09487
20
-0.464545
11
3.07461
21
-0.434398
0
LINE
8
BLACK
6
CONTINUOUS
10
3.07461
20
-0.434398
11
3.05308
21
-0.405147
0
LINE
8
BLACK
6
CONTINUOUS
10
3.05308
20
-0.405147
11
3.03031
21
-0.376845
0
LINE
8
BLACK
6
CONTINUOUS
10
3.03031
20
-0.376845
11
3.00636
21
-0.349542
0
LINE
8
BLACK
6
CONTINUOUS
10
3.00636
20
-0.349542
11
2.98125
21
-0.323291
0
LINE
8
BLACK
6
CONTINUOUS
10
2.98125
20
-0.323291
11
2.95505
21
-0.298138
0
LINE
8
BLACK
6
CONTINUOUS
10
2.95505
20
-0.298138
11
2.92779
21
-0.27413
0
LINE
8
BLACK
6
CONTINUOUS
10
2.92779
20
-0.27413
11
2.89953
21
-0.251311
0
LINE
8
BLACK
6
CONTINUOUS
10
2.89953
20
-0.251311
11
2.87032
21
-0.229723
0
LINE
8
BLACK
6
CONTINUOUS
10
2.87032
20
-0.229723
11
2.84021
21
-0.209405
0
LINE
8
BLACK
6
CONTINUOUS
10
2.84021
20
-0.209405
11
2.80926
21
-0.190395
0
LINE
8
BLACK
6
CONTINUOUS
10
2.80926
20
-0.190395
11
2.77753
21
-0.172727
0
LINE
8
BLACK
6
CONTINUOUS
10
2.77753
20
-0.172727
11
2.74507
21
-0.156434
0
LINE
8
BLACK
6
CONTINUOUS
10
2.74507
20
-0.156434
11
2.71194
21
-0.141545
0
LINE
8
BLACK
6
CONTINUOUS
10
2.71194
20
-0.141545
11
2.6782
21
-0.128089
0
LINE
8
BLACK
6
CONTINUOUS
10
2.6782
20
-0.128089
11
2.64392
21
-0.116089
0
LINE
8
BLACK
6
CONTINUOUS
10
2.64392
20
-0.116089
11
2.60915
21
-0.105568
0
LINE
8
BLACK
6
CONTINUOUS
10
2.60915
20
-0.105568
11
2.57397
21
-0.0965446
0
LINE
8
BLACK
6
CONTINUOUS
10
2.57397
20
-0.0965446
11
2.53843
21
-0.0890359
0
LINE
8
BLACK
6
CONTINUOUS
10
2.53843
20
-0.0890359
11
2.5026
21
-0.0830554
0
LINE
8
BLACK
6
CONTINUOUS
10
2.5026
20
-0.0830554
11
2.46655
21
-0.0786142
0
LINE
8
BLACK
6
CONTINUOUS
10
2.46655
20
-0.0786142
11
2.43035
21
-0.0757203
0
LINE
8
BLACK
6
CONTINUOUS
10
2.43035
20
-0.0757203
11
2.39405
21
-0.0743791
0
LINE
8
BLACK
6
CONTINUOUS
10
2.39405
20
-0.0743791
11
2.35773
21
-0.0745931
0
LINE
8
BLACK
6
CONTINUOUS
10
2.35773
20
-0.0745931
11
2.32145
21
-0.0763618
0
LINE
8
BLACK
6
CONTINUOUS
10
2.32145
20
-0.0763618
11
2.28528
21
-0.079682
0
LINE
8
BLACK
6
CONTINUOUS
10
2.28528
20
-0.079682
11
2.24928
21
-0.0845476
0
LINE
8
BLACK
6
CONTINUOUS
10
2.24928
20
-0.0845476
11
2.21353
21
-0.0909498
0
LINE
8
BLACK
6
CONTINUOUS
10
2.21353
20
-0.0909498
11
2.17808
21
-0.0988766
0
LINE
8
BLACK
6
CONTINUOUS
10
2.17808
20
-0.0988766
11
2.14301
21
-0.108314
0
LINE
8
BLACK
6
CONTINUOUS
10
2.14301
20
-0.108314
11
2.10837
21
-0.119244
0
LINE
8
BLACK
6
CONTINUOUS
10
2.10837
20
-0.119244
11
2.07423
21
-0.131647
0
LINE
8
BLACK
6
CONTINUOUS
10
2.07423
20
-0.131647
11
2.04065
21
-0.1455
0
LINE
8
BLACK
6
CONTINUOUS
10
2.04065
20
-0.1455
11
2.0077
21
-0.160777
0
LINE
8
BLACK
6
CONTINUOUS
10
2.0077
20
-0.160777
11
1.97543
21
-0.177452
0
LINE
8
BLACK
6
CONTINUOUS
10
1.97543
20
-0.177452
11
1.94391
21
-0.195492
0
LINE
8
BLACK
6
CONTINUOUS
10
1.94391
20
-0.195492
11
1.91318
21
-0.214866
0
LINE
8
BLACK
6
CONTINUOUS
10
1.91318
20
-0.214866
11
1.88332
21
-0.235537
0
LINE
8
BLACK
6
CONTINUOUS
10
1.88332
20
-0.235537
11
1.85436
21
-0.257468
0
LINE
8
BLACK
6
CONTINUOUS
10
1.85436
20
-0.257468
11
1.82637
21
-0.280619
0
LINE
8
BLACK
6
CONTINUOUS
10
1.82637
20
-0.280619
11
1.7994
21
-0.304946
0
LINE
8
BLACK
6
CONTINUOUS
10
1.7994
20
-0.304946
11
1.7735
21
-0.330406
0
LINE
8
BLACK
6
CONTINUOUS
10
1.7735
20
-0.330406
11
1.7487
21
-0.356951
0
LINE
8
BLACK
6
CONTINUOUS
10
1.7487
20
-0.356951
11
1.72507
21
-0.384533
0
LINE
8
BLACK
6
CONTINUOUS
10
1.72507
20
-0.384533
11
1.70264
21
-0.413102
0
LINE
8
BLACK
6
CONTINUOUS
10
1.70264
20
-0.413102
11
1.68145
21
-0.442605
0
LINE
8
BLACK
6
CONTINUOUS
10
1.68145
20
-0.442605
11
1.66179
21
-0.472616
0
LINE
8
BLACK
6
CONTINUOUS
10
1.66179
20
-0.472616
11
1.66171
21
-0.47309
0
LINE
8
BLACK
6
CONTINUOUS
10
1.66171
20
-0.47309
11
1.66153
21
-0.473225
0
LINE
8
BLACK
6
CONTINUOUS
10
1.66153
20
-0.473225
11
1.66144
21
-0.47344
0
LINE
8
BLACK
6
CONTINUOUS
10
1.66144
20
-0.47344
11
1.66093
21
-0.473648
0
LINE
8
BLACK
6
CONTINUOUS
10
1.66093
20
-0.473648
11
1.66049
21
-0.473965
0
LINE
8
BLACK
6
CONTINUOUS
10
1.66049
20
-0.473965
11
1.66026
21
-0.473927
0
LINE
8
BLACK
6
CONTINUOUS
10
1.66026
20
-0.473927
11
1.66004
21
-0.474016
0
LINE
8
BLACK
6
CONTINUOUS
10
1.66004
20
-0.474016
11
0.47244
21
-0.473517
0
LINE
8
BLACK
6
CONTINUOUS
10
0.47244
20
-0.473517
11
0.472226
21
-0.473428
0
LINE
8
BLACK
6
CONTINUOUS
10
0.472226
20
-0.473428
11
0.471998
21
-0.473466
0
LINE
8
BLACK
6
CONTINUOUS
10
0.471998
20
-0.473466
11
0.471553
21
-0.473149
0
LINE
8
BLACK
6
CONTINUOUS
10
0.471553
20
-0.473149
11
0.471048
21
-0.472939
0
LINE
8
BLACK
6
CONTINUOUS
10
0.471048
20
-0.472939
11
0.47096
21
-0.472726
0
LINE
8
BLACK
6
CONTINUOUS
10
0.47096
20
-0.472726
11
0.470772
21
-0.472591
0
LINE
8
BLACK
6
CONTINUOUS
10
0.470772
20
-0.472591
11
0.470692
21
-0.472117
0
LINE
8
BLACK
6
CONTINUOUS
10
0.470692
20
-0.472117
11
0.451032
21
-0.442106
0
LINE
8
BLACK
6
CONTINUOUS
10
0.451032
20
-0.442106
11
0.429845
21
-0.412603
0
LINE
8
BLACK
6
CONTINUOUS
10
0.429845
20
-0.412603
11
0.407414
21
-0.384034
0
LINE
8
BLACK
6
CONTINUOUS
10
0.407414
20
-0.384034
11
0.383781
21
-0.356452
0
LINE
8
BLACK
6
CONTINUOUS
10
0.383781
20
-0.356452
11
0.358989
21
-0.329906
0
LINE
8
BLACK
6
CONTINUOUS
10
0.358989
20
-0.329906
11
0.333084
21
-0.304447
0
LINE
8
BLACK
6
CONTINUOUS
10
0.333084
20
-0.304447
11
0.306112
21
-0.280119
0
LINE
8
BLACK
6
CONTINUOUS
10
0.306112
20
-0.280119
11
0.278123
21
-0.256969
0
LINE
8
BLACK
6
CONTINUOUS
10
0.278123
20
-0.256969
11
0.249169
21
-0.235038
0
LINE
8
BLACK
6
CONTINUOUS
10
0.249169
20
-0.235038
11
0.219303
21
-0.214367
0
LINE
8
BLACK
6
CONTINUOUS
10
0.219303
20
-0.214367
11
0.188579
21
-0.194993
0
LINE
8
BLACK
6
CONTINUOUS
10
0.188579
20
-0.194993
11
0.157054
21
-0.176953
0
LINE
8
BLACK
6
CONTINUOUS
10
0.157054
20
-0.176953
11
0.124785
21
-0.160278
0
LINE
8
BLACK
6
CONTINUOUS
10
0.124785
20
-0.160278
11
0.0918322
21
-0.145
0
LINE
8
BLACK
6
CONTINUOUS
10
0.0918322
20
-0.145
11
0.0582555
21
-0.131147
0
LINE
8
BLACK
6
CONTINUOUS
10
0.0582555
20
-0.131147
11
0.0241165
21
-0.118745
0
LINE
8
BLACK
6
CONTINUOUS
10
0.0241165
20
-0.118745
11
-0.0105221
21
-0.107815
0
LINE
8
BLACK
6
CONTINUOUS
10
-0.0105221
20
-0.107815
11
-0.0455969
21
-0.0983775
0
LINE
8
BLACK
6
CONTINUOUS
10
-0.0455969
20
-0.0983775
11
-0.0810436
21
-0.0904506
0
LINE
8
BLACK
6
CONTINUOUS
10
-0.0810436
20
-0.0904506
11
-0.116797
21
-0.0840485
0
LINE
8
BLACK
6
CONTINUOUS
10
-0.116797
20
-0.0840485
11
-0.152792
21
-0.0791828
0
LINE
8
BLACK
6
CONTINUOUS
10
-0.152792
20
-0.0791828
11
-0.188962
21
-0.0758626
0
LINE
8
BLACK
6
CONTINUOUS
10
-0.188962
20
-0.0758626
11
-0.225241
21
-0.0740939
0
LINE
8
BLACK
6
CONTINUOUS
10
-0.225241
20
-0.0740939
11
-0.261563
21
-0.07388
0
LINE
8
BLACK
6
CONTINUOUS
10
-0.261563
20
-0.07388
11
-0.29786
21
-0.0752211
  0
ENDSEC
  0
EOF
