%TF.GenerationSoftware,KiCad,Pcbnew,(6.0.5)*%
%TF.CreationDate,2022-08-06T13:23:44-04:00*%
%TF.ProjectId,RICM Greenpower Instrument Cluster,5249434d-2047-4726-9565-6e706f776572,rev?*%
%TF.SameCoordinates,Original*%
%TF.FileFunction,Copper,L1,Top*%
%TF.FilePolarity,Positive*%
%FSLAX46Y46*%
G04 Gerber Fmt 4.6, Leading zero omitted, Abs format (unit mm)*
G04 Created by KiCad (PCBNEW (6.0.5)) date 2022-08-06 13:23:44*
%MOMM*%
%LPD*%
G01*
G04 APERTURE LIST*
%TA.AperFunction,ComponentPad*%
%ADD10C,1.500000*%
%TD*%
%TA.AperFunction,ComponentPad*%
%ADD11C,1.600000*%
%TD*%
%TA.AperFunction,ComponentPad*%
%ADD12O,1.600000X1.600000*%
%TD*%
%TA.AperFunction,ComponentPad*%
%ADD13R,1.800000X1.800000*%
%TD*%
%TA.AperFunction,ComponentPad*%
%ADD14C,1.800000*%
%TD*%
%TA.AperFunction,ComponentPad*%
%ADD15R,1.700000X1.700000*%
%TD*%
%TA.AperFunction,ComponentPad*%
%ADD16O,1.700000X1.700000*%
%TD*%
%TA.AperFunction,ComponentPad*%
%ADD17C,2.750000*%
%TD*%
%TA.AperFunction,ComponentPad*%
%ADD18C,1.524000*%
%TD*%
%TA.AperFunction,ViaPad*%
%ADD19C,7.000000*%
%TD*%
%TA.AperFunction,ViaPad*%
%ADD20C,0.800000*%
%TD*%
%TA.AperFunction,Conductor*%
%ADD21C,1.000000*%
%TD*%
%TA.AperFunction,Conductor*%
%ADD22C,0.250000*%
%TD*%
G04 APERTURE END LIST*
D10*
%TO.P,SW2,1,1*%
%TO.N,Net-(R6-Pad1)*%
X83846600Y-30516000D03*
%TO.P,SW2,2,2*%
%TO.N,GND*%
X78690400Y-30516000D03*
%TD*%
D11*
%TO.P,R3,1*%
%TO.N,Net-(R3-Pad1)*%
X36830000Y-22606000D03*
D12*
%TO.P,R3,2*%
%TO.N,Net-(D3-Pad2)*%
X36830000Y-14986000D03*
%TD*%
D13*
%TO.P,D3,1,K*%
%TO.N,GND*%
X41910000Y-9875000D03*
D14*
%TO.P,D3,2,A*%
%TO.N,Net-(D3-Pad2)*%
X44450000Y-9875000D03*
%TD*%
D10*
%TO.P,SW1,1,1*%
%TO.N,Net-(R5-Pad1)*%
X16536600Y-30516000D03*
%TO.P,SW1,2,2*%
%TO.N,GND*%
X11380400Y-30516000D03*
%TD*%
D13*
%TO.P,D1,1,K*%
%TO.N,GND*%
X59690000Y-10160000D03*
D14*
%TO.P,D1,2,A*%
%TO.N,Net-(D1-Pad2)*%
X62230000Y-10160000D03*
%TD*%
D15*
%TO.P,J1,1,Pin_1*%
%TO.N,+5V*%
X43190000Y-23360000D03*
D16*
%TO.P,J1,2,Pin_2*%
%TO.N,GND*%
X45730000Y-23360000D03*
%TO.P,J1,3,Pin_3*%
%TO.N,SDA*%
X48270000Y-23360000D03*
%TO.P,J1,4,Pin_4*%
%TO.N,SCL*%
X50810000Y-23360000D03*
%TD*%
D11*
%TO.P,R1,1*%
%TO.N,Net-(R1-Pad1)*%
X62484000Y-22860000D03*
D12*
%TO.P,R1,2*%
%TO.N,Net-(D1-Pad2)*%
X62484000Y-15240000D03*
%TD*%
D13*
%TO.P,D2,1,K*%
%TO.N,GND*%
X50800000Y-10160000D03*
D14*
%TO.P,D2,2,A*%
%TO.N,Net-(D2-Pad2)*%
X53340000Y-10160000D03*
%TD*%
D11*
%TO.P,R6,1*%
%TO.N,Net-(R6-Pad1)*%
X43180000Y-29210000D03*
D12*
%TO.P,R6,2*%
%TO.N,+5V*%
X50800000Y-29210000D03*
%TD*%
D17*
%TO.P,DS2,*%
%TO.N,*%
X1720000Y-24605000D03*
X26220000Y-605000D03*
X26220000Y-24605000D03*
X1720000Y-605000D03*
D18*
%TO.P,DS2,1,GND*%
%TO.N,GND*%
X10160000Y65000D03*
%TO.P,DS2,2,VCC*%
%TO.N,+5V*%
X12700000Y65000D03*
%TO.P,DS2,3,SCL*%
%TO.N,SCL*%
X15240000Y65000D03*
%TO.P,DS2,4,SDA*%
%TO.N,SDA*%
X17780000Y65000D03*
%TD*%
D11*
%TO.P,R4,1*%
%TO.N,Net-(R4-Pad1)*%
X32766000Y-22606000D03*
D12*
%TO.P,R4,2*%
%TO.N,Net-(D4-Pad2)*%
X32766000Y-14986000D03*
%TD*%
D11*
%TO.P,R2,1*%
%TO.N,Net-(R2-Pad1)*%
X58420000Y-22860000D03*
D12*
%TO.P,R2,2*%
%TO.N,Net-(D2-Pad2)*%
X58420000Y-15240000D03*
%TD*%
D11*
%TO.P,R5,1*%
%TO.N,Net-(R5-Pad1)*%
X43180000Y-33020000D03*
D12*
%TO.P,R5,2*%
%TO.N,+5V*%
X50800000Y-33020000D03*
%TD*%
D17*
%TO.P,DS1,*%
%TO.N,*%
X69030000Y-605000D03*
X93530000Y-605000D03*
X93530000Y-24605000D03*
X69030000Y-24605000D03*
D18*
%TO.P,DS1,1,GND*%
%TO.N,GND*%
X77470000Y65000D03*
%TO.P,DS1,2,VCC*%
%TO.N,+5V*%
X80010000Y65000D03*
%TO.P,DS1,3,SCL*%
%TO.N,SCL*%
X82550000Y65000D03*
%TO.P,DS1,4,SDA*%
%TO.N,SDA*%
X85090000Y65000D03*
%TD*%
D13*
%TO.P,D4,1,K*%
%TO.N,GND*%
X33020000Y-9875000D03*
D14*
%TO.P,D4,2,A*%
%TO.N,Net-(D4-Pad2)*%
X35560000Y-9875000D03*
%TD*%
D19*
%TO.N,*%
X35000000Y-30000000D03*
X60000000Y-30000000D03*
D20*
%TO.N,GND*%
X72390000Y-5080000D03*
%TO.N,+5V*%
X72263000Y-17907000D03*
%TO.N,SCL*%
X77724000Y-7112000D03*
X71882000Y-12954000D03*
X44958000Y-16256000D03*
%TO.N,SDA*%
X65786000Y-16510000D03*
X44958000Y-14986000D03*
X76962000Y-5334000D03*
%TO.N,Net-(R1-Pad1)*%
X73914000Y-22098000D03*
X77978000Y-14224000D03*
%TO.N,Net-(R2-Pad1)*%
X79502000Y-13970000D03*
X76200000Y-22098000D03*
%TO.N,Net-(R3-Pad1)*%
X81026000Y-13970000D03*
X40640000Y-28194000D03*
%TO.N,Net-(R4-Pad1)*%
X82550000Y-13970000D03*
X39370000Y-30480000D03*
%TD*%
D21*
%TO.N,GND*%
X17780000Y2540000D02*
X30195000Y-9875000D01*
X51460000Y-6960000D02*
X57760000Y-6960000D01*
X34950000Y-6960000D02*
X33020000Y-8890000D01*
X30195000Y-9875000D02*
X33020000Y-9875000D01*
X11430000Y2540000D02*
X17780000Y2540000D01*
X59690000Y-8890000D02*
X59690000Y-10160000D01*
X41300000Y-6960000D02*
X40030000Y-6960000D01*
X41250000Y-6960000D02*
X42570000Y-6960000D01*
X10160000Y65000D02*
X10160000Y1270000D01*
X41910000Y-19050000D02*
X41910000Y-9875000D01*
X42570000Y-6960000D02*
X50140000Y-6960000D01*
X73660000Y-5080000D02*
X77470000Y-1270000D01*
X50800000Y-7620000D02*
X51460000Y-6960000D01*
X77470000Y-1270000D02*
X77470000Y0D01*
X41910000Y-19050000D02*
X45720000Y-22860000D01*
X59300000Y-8500000D02*
X59300000Y-9280000D01*
X50800000Y-10160000D02*
X50800000Y-7620000D01*
X63500000Y-5080000D02*
X73660000Y-5080000D01*
X41910000Y-7620000D02*
X42570000Y-6960000D01*
X40030000Y-6960000D02*
X41250000Y-6960000D01*
X50140000Y-6960000D02*
X51460000Y-6960000D01*
X59300000Y-9280000D02*
X63500000Y-5080000D01*
X40030000Y-6960000D02*
X34950000Y-6960000D01*
X10160000Y1270000D02*
X11430000Y2540000D01*
X57760000Y-6960000D02*
X59300000Y-8500000D01*
X41910000Y-9875000D02*
X41910000Y-7620000D01*
X33020000Y-8890000D02*
X33020000Y-10160000D01*
%TO.N,+5V*%
X12700000Y-8890000D02*
X12700000Y0D01*
X80010000Y-10160000D02*
X80010000Y0D01*
X72263000Y-17907000D02*
X80010000Y-10160000D01*
X44450000Y-25400000D02*
X64770000Y-25400000D01*
X29610489Y-25800489D02*
X12700000Y-8890000D01*
X43190000Y-24120000D02*
X41509511Y-25800489D01*
X64770000Y-25400000D02*
X72263000Y-17907000D01*
X43190000Y-24140000D02*
X44450000Y-25400000D01*
X43190000Y-23360000D02*
X43190000Y-24120000D01*
X41509511Y-25800489D02*
X29610489Y-25800489D01*
X43190000Y-23360000D02*
X43190000Y-24140000D01*
D22*
%TO.N,SCL*%
X57150000Y-19050000D02*
X65786000Y-19050000D01*
X44958000Y-16256000D02*
X54356000Y-16256000D01*
X54356000Y-16256000D02*
X57150000Y-19050000D01*
X65786000Y-19050000D02*
X71882000Y-12954000D01*
X50810000Y-23360000D02*
X50810000Y-23378000D01*
X71882000Y-12954000D02*
X77724000Y-7112000D01*
%TO.N,SDA*%
X44958000Y-14986000D02*
X55372000Y-14986000D01*
X55372000Y-14986000D02*
X57658000Y-17272000D01*
X57658000Y-17272000D02*
X65024000Y-17272000D01*
X65024000Y-17272000D02*
X76962000Y-5334000D01*
%TO.N,Net-(D4-Pad2)*%
X35560000Y-12192000D02*
X35560000Y-9906000D01*
X32766000Y-14986000D02*
X35560000Y-12192000D01*
%TO.N,Net-(R1-Pad1)*%
X73914000Y-22098000D02*
X73914000Y-18288000D01*
X73914000Y-18288000D02*
X77978000Y-14224000D01*
%TO.N,Net-(R2-Pad1)*%
X79248000Y-14732000D02*
X79502000Y-14478000D01*
X76200000Y-18288000D02*
X76200000Y-18034000D01*
X57920000Y-23360000D02*
X58420000Y-22860000D01*
X76200000Y-17780000D02*
X79248000Y-14732000D01*
X76200000Y-22098000D02*
X76200000Y-18288000D01*
X76200000Y-18034000D02*
X76200000Y-17780000D01*
X79502000Y-14478000D02*
X79502000Y-13970000D01*
%TO.N,Net-(R3-Pad1)*%
X81026000Y-20828000D02*
X81026000Y-13970000D01*
X75438000Y-24130000D02*
X77724000Y-24130000D01*
X41910000Y-30734000D02*
X54864000Y-30734000D01*
X40640000Y-28194000D02*
X40640000Y-29464000D01*
X65278000Y-34290000D02*
X75438000Y-24130000D01*
X58420000Y-34290000D02*
X65278000Y-34290000D01*
X54864000Y-30734000D02*
X58420000Y-34290000D01*
X77724000Y-24130000D02*
X81026000Y-20828000D01*
X40640000Y-29464000D02*
X41910000Y-30734000D01*
%TO.N,Net-(R4-Pad1)*%
X65532000Y-34798000D02*
X75692000Y-24638000D01*
X57912000Y-34798000D02*
X65532000Y-34798000D01*
X39370000Y-30480000D02*
X40386000Y-31496000D01*
X75692000Y-24638000D02*
X77978000Y-24638000D01*
X81534000Y-21082000D02*
X81475520Y-21023520D01*
X81475520Y-21023520D02*
X81475520Y-15044480D01*
X81475520Y-15044480D02*
X82550000Y-13970000D01*
X77978000Y-24638000D02*
X81534000Y-21082000D01*
X40386000Y-31496000D02*
X54610000Y-31496000D01*
X54610000Y-31496000D02*
X57912000Y-34798000D01*
%TD*%
M02*
