%TF.GenerationSoftware,KiCad,Pcbnew,(6.0.5)*%
%TF.CreationDate,2022-08-06T13:23:44-04:00*%
%TF.ProjectId,RICM Greenpower Instrument Cluster,5249434d-2047-4726-9565-6e706f776572,rev?*%
%TF.SameCoordinates,Original*%
%TF.FileFunction,Soldermask,Top*%
%TF.FilePolarity,Negative*%
%FSLAX46Y46*%
G04 Gerber Fmt 4.6, Leading zero omitted, Abs format (unit mm)*
G04 Created by KiCad (PCBNEW (6.0.5)) date 2022-08-06 13:23:44*
%MOMM*%
%LPD*%
G01*
G04 APERTURE LIST*
%ADD10C,1.500000*%
%ADD11C,1.600000*%
%ADD12O,1.600000X1.600000*%
%ADD13R,1.800000X1.800000*%
%ADD14C,1.800000*%
%ADD15R,1.700000X1.700000*%
%ADD16O,1.700000X1.700000*%
%ADD17C,2.750000*%
%ADD18C,1.524000*%
G04 APERTURE END LIST*
D10*
%TO.C,SW2*%
X83846600Y-30516000D03*
X78690400Y-30516000D03*
%TD*%
D11*
%TO.C,R3*%
X36830000Y-22606000D03*
D12*
X36830000Y-14986000D03*
%TD*%
D13*
%TO.C,D3*%
X41910000Y-9875000D03*
D14*
X44450000Y-9875000D03*
%TD*%
D10*
%TO.C,SW1*%
X16536600Y-30516000D03*
X11380400Y-30516000D03*
%TD*%
D13*
%TO.C,D1*%
X59690000Y-10160000D03*
D14*
X62230000Y-10160000D03*
%TD*%
D15*
%TO.C,J1*%
X43190000Y-23360000D03*
D16*
X45730000Y-23360000D03*
X48270000Y-23360000D03*
X50810000Y-23360000D03*
%TD*%
D11*
%TO.C,R1*%
X62484000Y-22860000D03*
D12*
X62484000Y-15240000D03*
%TD*%
D13*
%TO.C,D2*%
X50800000Y-10160000D03*
D14*
X53340000Y-10160000D03*
%TD*%
D11*
%TO.C,R6*%
X43180000Y-29210000D03*
D12*
X50800000Y-29210000D03*
%TD*%
D17*
%TO.C,DS2*%
X1720000Y-24605000D03*
X26220000Y-605000D03*
X26220000Y-24605000D03*
X1720000Y-605000D03*
D18*
X10160000Y65000D03*
X12700000Y65000D03*
X15240000Y65000D03*
X17780000Y65000D03*
%TD*%
D11*
%TO.C,R4*%
X32766000Y-22606000D03*
D12*
X32766000Y-14986000D03*
%TD*%
D11*
%TO.C,R2*%
X58420000Y-22860000D03*
D12*
X58420000Y-15240000D03*
%TD*%
D11*
%TO.C,R5*%
X43180000Y-33020000D03*
D12*
X50800000Y-33020000D03*
%TD*%
D17*
%TO.C,DS1*%
X69030000Y-605000D03*
X93530000Y-605000D03*
X93530000Y-24605000D03*
X69030000Y-24605000D03*
D18*
X77470000Y65000D03*
X80010000Y65000D03*
X82550000Y65000D03*
X85090000Y65000D03*
%TD*%
D13*
%TO.C,D4*%
X33020000Y-9875000D03*
D14*
X35560000Y-9875000D03*
%TD*%
M02*
