%TF.GenerationSoftware,KiCad,Pcbnew,(6.0.5)*%
%TF.CreationDate,2022-08-14T01:36:17-04:00*%
%TF.ProjectId,RICM Greenpower Telemetry Module,5249434d-2047-4726-9565-6e706f776572,rev?*%
%TF.SameCoordinates,Original*%
%TF.FileFunction,Soldermask,Bot*%
%TF.FilePolarity,Negative*%
%FSLAX46Y46*%
G04 Gerber Fmt 4.6, Leading zero omitted, Abs format (unit mm)*
G04 Created by KiCad (PCBNEW (6.0.5)) date 2022-08-14 01:36:17*
%MOMM*%
%LPD*%
G01*
G04 APERTURE LIST*
%ADD10R,1.700000X1.700000*%
%ADD11O,1.700000X1.700000*%
%ADD12O,1.800000X1.800000*%
%ADD13O,1.500000X1.500000*%
%ADD14C,2.400000*%
%ADD15O,2.400000X2.400000*%
%ADD16R,1.600000X1.600000*%
%ADD17C,1.600000*%
%ADD18R,4.600000X2.000000*%
%ADD19O,4.200000X2.000000*%
%ADD20O,2.000000X4.200000*%
%ADD21C,4.000000*%
%ADD22C,1.524000*%
%ADD23C,3.540000*%
G04 APERTURE END LIST*
D10*
%TO.C,J10*%
X38000000Y-103000000D03*
D11*
X38000000Y-100460000D03*
%TD*%
D10*
%TO.C,J5*%
X60000000Y-103000000D03*
D11*
X60000000Y-100460000D03*
X60000000Y-97920000D03*
%TD*%
%TO.C,U3*%
X70540000Y-62900000D03*
D10*
X68000000Y-62900000D03*
D11*
X65460000Y-62900000D03*
X76890000Y-14870000D03*
X76890000Y-17410000D03*
D10*
X76890000Y-19950000D03*
D11*
X76890000Y-22490000D03*
X76890000Y-25030000D03*
X76890000Y-27570000D03*
X76890000Y-30110000D03*
D10*
X76890000Y-32650000D03*
D11*
X76890000Y-35190000D03*
X76890000Y-37730000D03*
X76890000Y-40270000D03*
X76890000Y-42810000D03*
D10*
X76890000Y-45350000D03*
D11*
X76890000Y-47890000D03*
X76890000Y-50430000D03*
X76890000Y-52970000D03*
X76890000Y-55510000D03*
D10*
X76890000Y-58050000D03*
D11*
X76890000Y-60590000D03*
X76890000Y-63130000D03*
X59110000Y-63130000D03*
X59110000Y-60590000D03*
D10*
X59110000Y-58050000D03*
D11*
X59110000Y-55510000D03*
X59110000Y-52970000D03*
X59110000Y-50430000D03*
X59110000Y-47890000D03*
D10*
X59110000Y-45350000D03*
D11*
X59110000Y-42810000D03*
X59110000Y-40270000D03*
X59110000Y-37730000D03*
X59110000Y-35190000D03*
D10*
X59110000Y-32650000D03*
D11*
X59110000Y-30110000D03*
X59110000Y-27570000D03*
X59110000Y-25030000D03*
X59110000Y-22490000D03*
D10*
X59110000Y-19950000D03*
D11*
X59110000Y-17410000D03*
X59110000Y-14870000D03*
D12*
X65275000Y-15000000D03*
X70725000Y-15000000D03*
D13*
X65575000Y-18030000D03*
X70425000Y-18030000D03*
%TD*%
D14*
%TO.C,L1*%
X15000000Y-41000000D03*
D15*
X30240000Y-41000000D03*
%TD*%
D10*
%TO.C,J9*%
X26000000Y-103000000D03*
D11*
X26000000Y-100460000D03*
X26000000Y-97920000D03*
X26000000Y-95380000D03*
%TD*%
D14*
%TO.C,L2*%
X15000000Y-47000000D03*
D15*
X30240000Y-47000000D03*
%TD*%
D10*
%TO.C,J4*%
X66000000Y-103000000D03*
D11*
X66000000Y-100460000D03*
X66000000Y-97920000D03*
%TD*%
D10*
%TO.C,J8*%
X53240000Y-103000000D03*
D11*
X53240000Y-100460000D03*
%TD*%
D10*
%TO.C,J3*%
X78000000Y-103000000D03*
D11*
X78000000Y-100460000D03*
X78000000Y-97920000D03*
X78000000Y-95380000D03*
X78000000Y-92840000D03*
%TD*%
D16*
%TO.C,C2*%
X18000000Y-29652651D03*
D17*
X18000000Y-26152651D03*
%TD*%
D10*
%TO.C,J6*%
X48160000Y-103000000D03*
D11*
X48160000Y-100460000D03*
%TD*%
D10*
%TO.C,J11*%
X32000000Y-103000000D03*
D11*
X32000000Y-100460000D03*
X32000000Y-97920000D03*
%TD*%
D10*
%TO.C,J2*%
X72000000Y-103000000D03*
D11*
X72000000Y-100460000D03*
X72000000Y-97920000D03*
X72000000Y-95380000D03*
%TD*%
D18*
%TO.C,J1*%
X43650000Y-27350000D03*
D19*
X43650000Y-21050000D03*
D20*
X38850000Y-24450000D03*
%TD*%
D21*
%TO.C,U6*%
X60380000Y-70920000D03*
X75620000Y-70920000D03*
D22*
X59110000Y-82350000D03*
X61650000Y-82350000D03*
X64190000Y-82350000D03*
X66730000Y-82350000D03*
X69270000Y-82350000D03*
X71810000Y-82350000D03*
X74350000Y-82350000D03*
X76890000Y-82350000D03*
%TD*%
D23*
%TO.C,U4*%
X16110000Y-54840000D03*
X16110000Y-75160000D03*
D22*
X33890000Y-75160000D03*
X33890000Y-72620000D03*
X33890000Y-70080000D03*
X33890000Y-67540000D03*
X33890000Y-65000000D03*
X33890000Y-62460000D03*
X33890000Y-59920000D03*
X33890000Y-57380000D03*
X33890000Y-54840000D03*
%TD*%
D10*
%TO.C,J7*%
X43080000Y-103000000D03*
D11*
X43080000Y-100460000D03*
%TD*%
D16*
%TO.C,C7*%
X28000000Y-18652651D03*
D17*
X28000000Y-15152651D03*
%TD*%
M02*
