%TF.GenerationSoftware,KiCad,Pcbnew,(6.0.5)*%
%TF.CreationDate,2022-08-14T01:36:17-04:00*%
%TF.ProjectId,RICM Greenpower Telemetry Module,5249434d-2047-4726-9565-6e706f776572,rev?*%
%TF.SameCoordinates,Original*%
%TF.FileFunction,Paste,Top*%
%TF.FilePolarity,Positive*%
%FSLAX46Y46*%
G04 Gerber Fmt 4.6, Leading zero omitted, Abs format (unit mm)*
G04 Created by KiCad (PCBNEW (6.0.5)) date 2022-08-14 01:36:17*
%MOMM*%
%LPD*%
G01*
G04 APERTURE LIST*
G04 Aperture macros list*
%AMRoundRect*
0 Rectangle with rounded corners*
0 $1 Rounding radius*
0 $2 $3 $4 $5 $6 $7 $8 $9 X,Y pos of 4 corners*
0 Add a 4 corners polygon primitive as box body*
4,1,4,$2,$3,$4,$5,$6,$7,$8,$9,$2,$3,0*
0 Add four circle primitives for the rounded corners*
1,1,$1+$1,$2,$3*
1,1,$1+$1,$4,$5*
1,1,$1+$1,$6,$7*
1,1,$1+$1,$8,$9*
0 Add four rect primitives between the rounded corners*
20,1,$1+$1,$2,$3,$4,$5,0*
20,1,$1+$1,$4,$5,$6,$7,0*
20,1,$1+$1,$6,$7,$8,$9,0*
20,1,$1+$1,$8,$9,$2,$3,0*%
G04 Aperture macros list end*
%ADD10RoundRect,0.250000X-0.312500X-0.625000X0.312500X-0.625000X0.312500X0.625000X-0.312500X0.625000X0*%
%ADD11RoundRect,0.250000X0.312500X0.625000X-0.312500X0.625000X-0.312500X-0.625000X0.312500X-0.625000X0*%
%ADD12RoundRect,0.250000X0.625000X-0.312500X0.625000X0.312500X-0.625000X0.312500X-0.625000X-0.312500X0*%
%ADD13RoundRect,0.100000X-0.637500X-0.100000X0.637500X-0.100000X0.637500X0.100000X-0.637500X0.100000X0*%
%ADD14RoundRect,0.250000X0.475000X-0.250000X0.475000X0.250000X-0.475000X0.250000X-0.475000X-0.250000X0*%
%ADD15RoundRect,0.250000X-0.250000X-0.475000X0.250000X-0.475000X0.250000X0.475000X-0.250000X0.475000X0*%
%ADD16RoundRect,0.150000X-0.800000X-0.150000X0.800000X-0.150000X0.800000X0.150000X-0.800000X0.150000X0*%
%ADD17RoundRect,0.250000X0.250000X0.475000X-0.250000X0.475000X-0.250000X-0.475000X0.250000X-0.475000X0*%
%ADD18RoundRect,0.150000X0.150000X-0.512500X0.150000X0.512500X-0.150000X0.512500X-0.150000X-0.512500X0*%
%ADD19R,2.500000X1.800000*%
%ADD20RoundRect,0.250000X-0.625000X0.312500X-0.625000X-0.312500X0.625000X-0.312500X0.625000X0.312500X0*%
G04 APERTURE END LIST*
D10*
%TO.C,R6*%
X85000000Y-49000000D03*
X87925000Y-49000000D03*
%TD*%
%TO.C,R5*%
X85000000Y-44000000D03*
X87925000Y-44000000D03*
%TD*%
%TO.C,R4*%
X85000000Y-39000000D03*
X87925000Y-39000000D03*
%TD*%
%TO.C,R3*%
X85000000Y-34000000D03*
X87925000Y-34000000D03*
%TD*%
D11*
%TO.C,R2*%
X49537500Y-66000000D03*
X52462500Y-66000000D03*
%TD*%
%TO.C,R1*%
X49537500Y-61000000D03*
X52462500Y-61000000D03*
%TD*%
D12*
%TO.C,R19*%
X23000000Y-84862500D03*
X23000000Y-81937500D03*
%TD*%
%TO.C,R20*%
X19000000Y-84862500D03*
X19000000Y-81937500D03*
%TD*%
D13*
%TO.C,U5*%
X57137500Y-86725000D03*
X57137500Y-87375000D03*
X57137500Y-88025000D03*
X57137500Y-88675000D03*
X57137500Y-89325000D03*
X57137500Y-89975000D03*
X57137500Y-90625000D03*
X57137500Y-91275000D03*
X62862500Y-91275000D03*
X62862500Y-90625000D03*
X62862500Y-89975000D03*
X62862500Y-89325000D03*
X62862500Y-88675000D03*
X62862500Y-88025000D03*
X62862500Y-87375000D03*
X62862500Y-86725000D03*
%TD*%
D14*
%TO.C,C1*%
X25000000Y-24950000D03*
X25000000Y-23050000D03*
%TD*%
D12*
%TO.C,R13*%
X43000000Y-84862500D03*
X43000000Y-81937500D03*
%TD*%
%TO.C,R9*%
X47000000Y-84862500D03*
X47000000Y-81937500D03*
%TD*%
%TO.C,R18*%
X19000000Y-91462500D03*
X19000000Y-88537500D03*
%TD*%
D15*
%TO.C,C9*%
X67050000Y-87000000D03*
X68950000Y-87000000D03*
%TD*%
D12*
%TO.C,R17*%
X15000000Y-84862500D03*
X15000000Y-81937500D03*
%TD*%
%TO.C,R25*%
X31000000Y-84862500D03*
X31000000Y-81937500D03*
%TD*%
%TO.C,R15*%
X15000000Y-91462500D03*
X15000000Y-88537500D03*
%TD*%
%TO.C,R26*%
X31000000Y-91462500D03*
X31000000Y-88537500D03*
%TD*%
%TO.C,R11*%
X47000000Y-91462500D03*
X47000000Y-88537500D03*
%TD*%
%TO.C,R12*%
X43000000Y-91462500D03*
X43000000Y-88537500D03*
%TD*%
D14*
%TO.C,C5*%
X33000000Y-24950000D03*
X33000000Y-23050000D03*
%TD*%
%TO.C,C4*%
X29000000Y-24950000D03*
X29000000Y-23050000D03*
%TD*%
D12*
%TO.C,R10*%
X51000000Y-91462500D03*
X51000000Y-88537500D03*
%TD*%
D16*
%TO.C,U1*%
X26500000Y-30095000D03*
X26500000Y-31365000D03*
X26500000Y-32635000D03*
X26500000Y-33905000D03*
X33500000Y-33905000D03*
X33500000Y-32635000D03*
X33500000Y-31365000D03*
X33500000Y-30095000D03*
%TD*%
D17*
%TO.C,C3*%
X36950000Y-49000000D03*
X35050000Y-49000000D03*
%TD*%
D18*
%TO.C,U2*%
X35050000Y-45137500D03*
X36000000Y-45137500D03*
X36950000Y-45137500D03*
X36950000Y-42862500D03*
X35050000Y-42862500D03*
%TD*%
D19*
%TO.C,D1*%
X42000000Y-34000000D03*
X46000000Y-34000000D03*
%TD*%
D20*
%TO.C,R8*%
X41000000Y-45537500D03*
X41000000Y-48462500D03*
%TD*%
D12*
%TO.C,R27*%
X35000000Y-91462500D03*
X35000000Y-88537500D03*
%TD*%
D10*
%TO.C,R16*%
X52537500Y-73000000D03*
X55462500Y-73000000D03*
%TD*%
D12*
%TO.C,R24*%
X27000000Y-84862500D03*
X27000000Y-81937500D03*
%TD*%
%TO.C,R23*%
X39000000Y-91462500D03*
X39000000Y-88537500D03*
%TD*%
D10*
%TO.C,R14*%
X52537500Y-78000000D03*
X55462500Y-78000000D03*
%TD*%
D17*
%TO.C,C6*%
X36950000Y-39000000D03*
X35050000Y-39000000D03*
%TD*%
D15*
%TO.C,C8*%
X67050000Y-91000000D03*
X68950000Y-91000000D03*
%TD*%
D12*
%TO.C,R21*%
X39000000Y-84862500D03*
X39000000Y-81937500D03*
%TD*%
%TO.C,R22*%
X35000000Y-84862500D03*
X35000000Y-81937500D03*
%TD*%
D20*
%TO.C,R7*%
X41000000Y-39537500D03*
X41000000Y-42462500D03*
%TD*%
M02*
