%TF.GenerationSoftware,KiCad,Pcbnew,(6.0.5)*%
%TF.CreationDate,2022-08-06T13:25:36-04:00*%
%TF.ProjectId,RICM Greenpower Telemetry Module,5249434d-2047-4726-9565-6e706f776572,rev?*%
%TF.SameCoordinates,Original*%
%TF.FileFunction,Copper,L2,Bot*%
%TF.FilePolarity,Positive*%
%FSLAX46Y46*%
G04 Gerber Fmt 4.6, Leading zero omitted, Abs format (unit mm)*
G04 Created by KiCad (PCBNEW (6.0.5)) date 2022-08-06 13:25:36*
%MOMM*%
%LPD*%
G01*
G04 APERTURE LIST*
%TA.AperFunction,ComponentPad*%
%ADD10R,1.700000X1.700000*%
%TD*%
%TA.AperFunction,ComponentPad*%
%ADD11O,1.700000X1.700000*%
%TD*%
%TA.AperFunction,ComponentPad*%
%ADD12C,1.600000*%
%TD*%
%TA.AperFunction,ComponentPad*%
%ADD13O,1.600000X1.600000*%
%TD*%
%TA.AperFunction,ComponentPad*%
%ADD14R,1.600000X1.600000*%
%TD*%
%TA.AperFunction,ComponentPad*%
%ADD15R,2.000000X4.600000*%
%TD*%
%TA.AperFunction,ComponentPad*%
%ADD16O,2.000000X4.200000*%
%TD*%
%TA.AperFunction,ComponentPad*%
%ADD17O,4.200000X2.000000*%
%TD*%
%TA.AperFunction,ComponentPad*%
%ADD18C,3.540000*%
%TD*%
%TA.AperFunction,ComponentPad*%
%ADD19C,1.524000*%
%TD*%
%TA.AperFunction,ComponentPad*%
%ADD20C,4.000000*%
%TD*%
%TA.AperFunction,ViaPad*%
%ADD21C,4.000000*%
%TD*%
%TA.AperFunction,ViaPad*%
%ADD22C,0.800000*%
%TD*%
%TA.AperFunction,Conductor*%
%ADD23C,0.500000*%
%TD*%
%TA.AperFunction,Conductor*%
%ADD24C,1.000000*%
%TD*%
%TA.AperFunction,Conductor*%
%ADD25C,0.250000*%
%TD*%
G04 APERTURE END LIST*
D10*
%TO.P,J4,1,Pin_1*%
%TO.N,SPD_0*%
X16325000Y-85590000D03*
D11*
%TO.P,J4,2,Pin_2*%
%TO.N,GND*%
X18865000Y-85590000D03*
%TO.P,J4,3,Pin_3*%
%TO.N,+5V*%
X21405000Y-85590000D03*
%TD*%
D12*
%TO.P,C1,1*%
%TO.N,Net-(C1-Pad1)*%
X28500000Y-19500000D03*
%TO.P,C1,2*%
%TO.N,Net-(C1-Pad2)*%
X28500000Y-14500000D03*
%TD*%
%TO.P,R18,1*%
%TO.N,Net-(R17-Pad2)*%
X25970000Y-99550000D03*
D13*
%TO.P,R18,2*%
%TO.N,GND*%
X33590000Y-99550000D03*
%TD*%
D12*
%TO.P,R19,1*%
%TO.N,Net-(J11-Pad3)*%
X37400000Y-105900000D03*
D13*
%TO.P,R19,2*%
%TO.N,Net-(R19-Pad2)*%
X37400000Y-98280000D03*
%TD*%
D14*
%TO.P,C2,1*%
%TO.N,Net-(C1-Pad2)*%
X18847349Y-17250000D03*
D12*
%TO.P,C2,2*%
%TO.N,GND*%
X22347349Y-17250000D03*
%TD*%
%TO.P,C8,1*%
%TO.N,+5V*%
X62000000Y-96500000D03*
%TO.P,C8,2*%
%TO.N,GND*%
X62000000Y-91500000D03*
%TD*%
%TO.P,R20,1*%
%TO.N,Net-(R19-Pad2)*%
X37400000Y-118600000D03*
D13*
%TO.P,R20,2*%
%TO.N,GND*%
X37400000Y-110980000D03*
%TD*%
D12*
%TO.P,R7,1*%
%TO.N,THERM_1*%
X20636000Y-112250000D03*
D13*
%TO.P,R7,2*%
%TO.N,+5V*%
X20636000Y-104630000D03*
%TD*%
D12*
%TO.P,C5,1*%
%TO.N,Net-(C5-Pad1)*%
X50140000Y-103360000D03*
%TO.P,C5,2*%
%TO.N,GND*%
X55140000Y-103360000D03*
%TD*%
D10*
%TO.P,J5,1,Pin_1*%
%TO.N,SPD_1*%
X16325000Y-93210000D03*
D11*
%TO.P,J5,2,Pin_2*%
%TO.N,GND*%
X18865000Y-93210000D03*
%TO.P,J5,3,Pin_3*%
%TO.N,+5V*%
X21405000Y-93210000D03*
%TD*%
D12*
%TO.P,C7,1*%
%TO.N,+5V*%
X62000000Y-99500000D03*
%TO.P,C7,2*%
%TO.N,GND*%
X62000000Y-104500000D03*
%TD*%
%TO.P,R4,1*%
%TO.N,Net-(J2-Pad2)*%
X30290000Y-66510000D03*
D13*
%TO.P,R4,2*%
%TO.N,Net-(R4-Pad2)*%
X37910000Y-66510000D03*
%TD*%
D10*
%TO.P,J8,1,Pin_1*%
%TO.N,GND*%
X15556000Y-119870000D03*
D11*
%TO.P,J8,2,Pin_2*%
%TO.N,THERM_0*%
X15556000Y-117330000D03*
%TD*%
D15*
%TO.P,J1,1*%
%TO.N,Net-(C1-Pad2)*%
X28510000Y-27780000D03*
D16*
%TO.P,J1,2*%
%TO.N,GND*%
X22210000Y-27780000D03*
D17*
%TO.P,J1,3*%
X25610000Y-32580000D03*
%TD*%
D10*
%TO.P,J6,1,Pin_1*%
%TO.N,GND*%
X20636000Y-119870000D03*
D11*
%TO.P,J6,2,Pin_2*%
%TO.N,THERM_1*%
X20636000Y-117330000D03*
%TD*%
D12*
%TO.P,R12,1*%
%TO.N,Net-(C5-Pad1)*%
X50735000Y-114790000D03*
D13*
%TO.P,R12,2*%
%TO.N,Net-(R12-Pad2)*%
X50735000Y-107170000D03*
%TD*%
D11*
%TO.P,U2,1,GPIO0*%
%TO.N,unconnected-(U2-Pad1)*%
X47110000Y-18870000D03*
%TO.P,U2,2,GPIO1*%
%TO.N,unconnected-(U2-Pad2)*%
X47110000Y-21410000D03*
D10*
%TO.P,U2,3,GND*%
%TO.N,GND*%
X47110000Y-23950000D03*
D11*
%TO.P,U2,4,GPIO2*%
%TO.N,Net-(J3-Pad8)*%
X47110000Y-26490000D03*
%TO.P,U2,5,GPIO3*%
%TO.N,Net-(J3-Pad7)*%
X47110000Y-29030000D03*
%TO.P,U2,6,GPIO4*%
%TO.N,Net-(J3-Pad6)*%
X47110000Y-31570000D03*
%TO.P,U2,7,GPIO5*%
%TO.N,Net-(J3-Pad5)*%
X47110000Y-34110000D03*
D10*
%TO.P,U2,8,GND*%
%TO.N,GND*%
X47110000Y-36650000D03*
D11*
%TO.P,U2,9,GPIO6*%
%TO.N,Net-(R1-Pad2)*%
X47110000Y-39190000D03*
%TO.P,U2,10,GPIO7*%
%TO.N,Net-(R2-Pad2)*%
X47110000Y-41730000D03*
%TO.P,U2,11,GPIO8*%
%TO.N,Net-(R3-Pad2)*%
X47110000Y-44270000D03*
%TO.P,U2,12,GPIO9*%
%TO.N,Net-(R4-Pad2)*%
X47110000Y-46810000D03*
D10*
%TO.P,U2,13,GND*%
%TO.N,GND*%
X47110000Y-49350000D03*
D11*
%TO.P,U2,14,GPIO10*%
%TO.N,SPI_SCK*%
X47110000Y-51890000D03*
%TO.P,U2,15,GPIO11*%
%TO.N,SPI_TX*%
X47110000Y-54430000D03*
%TO.P,U2,16,GPIO12*%
%TO.N,SPI_RX*%
X47110000Y-56970000D03*
%TO.P,U2,17,GPIO13*%
%TO.N,SD_CS*%
X47110000Y-59510000D03*
D10*
%TO.P,U2,18,GND*%
%TO.N,GND*%
X47110000Y-62050000D03*
D11*
%TO.P,U2,19,GPIO14*%
%TO.N,I2C0_SDA*%
X47110000Y-64590000D03*
%TO.P,U2,20,GPIO15*%
%TO.N,I2C0_SCL*%
X47110000Y-67130000D03*
%TO.P,U2,21,GPIO16*%
%TO.N,I2C_SDA*%
X64890000Y-67130000D03*
%TO.P,U2,22,GPIO17*%
%TO.N,I2C_SCL*%
X64890000Y-64590000D03*
D10*
%TO.P,U2,23,GND*%
%TO.N,GND*%
X64890000Y-62050000D03*
D11*
%TO.P,U2,24,GPIO18*%
%TO.N,unconnected-(U2-Pad24)*%
X64890000Y-59510000D03*
%TO.P,U2,25,GPIO19*%
%TO.N,SPD_1*%
X64890000Y-56970000D03*
%TO.P,U2,26,GPIO20*%
%TO.N,SPD_0*%
X64890000Y-54430000D03*
%TO.P,U2,27,GPIO21*%
%TO.N,ACC_INT*%
X64890000Y-51890000D03*
D10*
%TO.P,U2,28,GND*%
%TO.N,GND*%
X64890000Y-49350000D03*
D11*
%TO.P,U2,29,GPIO22*%
%TO.N,SD_DET*%
X64890000Y-46810000D03*
%TO.P,U2,30,RUN*%
%TO.N,unconnected-(U2-Pad30)*%
X64890000Y-44270000D03*
%TO.P,U2,31,GPIO26_ADC0*%
%TO.N,unconnected-(U2-Pad31)*%
X64890000Y-41730000D03*
%TO.P,U2,32,GPIO27_ADC1*%
%TO.N,unconnected-(U2-Pad32)*%
X64890000Y-39190000D03*
D10*
%TO.P,U2,33,AGND*%
%TO.N,unconnected-(U2-Pad33)*%
X64890000Y-36650000D03*
D11*
%TO.P,U2,34,GPIO28_ADC2*%
%TO.N,unconnected-(U2-Pad34)*%
X64890000Y-34110000D03*
%TO.P,U2,35,ADC_VREF*%
%TO.N,unconnected-(U2-Pad35)*%
X64890000Y-31570000D03*
%TO.P,U2,36,3V3*%
%TO.N,+3V3*%
X64890000Y-29030000D03*
%TO.P,U2,37,3V3_EN*%
%TO.N,unconnected-(U2-Pad37)*%
X64890000Y-26490000D03*
D10*
%TO.P,U2,38,GND*%
%TO.N,GND*%
X64890000Y-23950000D03*
D11*
%TO.P,U2,39,VSYS*%
%TO.N,+5V*%
X64890000Y-21410000D03*
%TO.P,U2,40,VBUS*%
%TO.N,unconnected-(U2-Pad40)*%
X64890000Y-18870000D03*
%TO.P,U2,41,SWCLK*%
%TO.N,unconnected-(U2-Pad41)*%
X53460000Y-66900000D03*
D10*
%TO.P,U2,42,GND*%
%TO.N,unconnected-(U2-Pad42)*%
X56000000Y-66900000D03*
D11*
%TO.P,U2,43,SWDIO*%
%TO.N,unconnected-(U2-Pad43)*%
X58540000Y-66900000D03*
%TD*%
D12*
%TO.P,R3,1*%
%TO.N,Net-(J2-Pad3)*%
X30290000Y-70320000D03*
D13*
%TO.P,R3,2*%
%TO.N,Net-(R3-Pad2)*%
X37910000Y-70320000D03*
%TD*%
D10*
%TO.P,J9,1,Pin_1*%
%TO.N,Net-(C6-Pad1)*%
X68500000Y-104630000D03*
D11*
%TO.P,J9,2,Pin_2*%
%TO.N,Net-(C5-Pad1)*%
X68500000Y-102090000D03*
%TO.P,J9,3,Pin_3*%
%TO.N,GND*%
X68500000Y-99550000D03*
%TO.P,J9,4,Pin_4*%
%TO.N,+5V*%
X68500000Y-97010000D03*
%TD*%
D10*
%TO.P,J11,1,Pin_1*%
%TO.N,GND*%
X69000000Y-116025000D03*
D11*
%TO.P,J11,2,Pin_2*%
%TO.N,Net-(J11-Pad2)*%
X69000000Y-113485000D03*
%TO.P,J11,3,Pin_3*%
%TO.N,Net-(J11-Pad3)*%
X69000000Y-110945000D03*
%TD*%
D12*
%TO.P,R11,1*%
%TO.N,Net-(R10-Pad2)*%
X46925000Y-114790000D03*
D13*
%TO.P,R11,2*%
%TO.N,GND*%
X46925000Y-107170000D03*
%TD*%
D12*
%TO.P,R16,1*%
%TO.N,Net-(J10-Pad2)*%
X30796000Y-112250000D03*
D13*
%TO.P,R16,2*%
%TO.N,+5V*%
X30796000Y-104630000D03*
%TD*%
D10*
%TO.P,J3,1,Pin_1*%
%TO.N,+5V*%
X16330000Y-69055000D03*
D11*
%TO.P,J3,2,Pin_2*%
%TO.N,GND*%
X18870000Y-69055000D03*
%TO.P,J3,3,Pin_3*%
%TO.N,I2C0_SCL*%
X21410000Y-69055000D03*
%TO.P,J3,4,Pin_4*%
%TO.N,I2C0_SDA*%
X23950000Y-69055000D03*
%TO.P,J3,5,Pin_5*%
%TO.N,Net-(J3-Pad5)*%
X23950000Y-66515000D03*
%TO.P,J3,6,Pin_6*%
%TO.N,Net-(J3-Pad6)*%
X21410000Y-66515000D03*
%TO.P,J3,7,Pin_7*%
%TO.N,Net-(J3-Pad7)*%
X18870000Y-66515000D03*
%TO.P,J3,8,Pin_8*%
%TO.N,Net-(J3-Pad8)*%
X16330000Y-66515000D03*
%TD*%
D12*
%TO.P,L1,1,1*%
%TO.N,Net-(L1-Pad1)*%
X40000000Y-22920000D03*
D13*
%TO.P,L1,2,2*%
%TO.N,+5V*%
X40000000Y-33080000D03*
%TD*%
D12*
%TO.P,R13,1*%
%TO.N,Net-(R12-Pad2)*%
X54545000Y-114790000D03*
D13*
%TO.P,R13,2*%
%TO.N,GND*%
X54545000Y-107170000D03*
%TD*%
D14*
%TO.P,C3,1*%
%TO.N,GND*%
X33847349Y-17000000D03*
D12*
%TO.P,C3,2*%
%TO.N,+5V*%
X37347349Y-17000000D03*
%TD*%
%TO.P,R6,1*%
%TO.N,+5V*%
X27240000Y-93210000D03*
D13*
%TO.P,R6,2*%
%TO.N,SPD_1*%
X34860000Y-93210000D03*
%TD*%
D10*
%TO.P,J2,1,Pin_1*%
%TO.N,GND*%
X16325000Y-77940000D03*
D11*
%TO.P,J2,2,Pin_2*%
%TO.N,Net-(J2-Pad2)*%
X18865000Y-77940000D03*
%TO.P,J2,3,Pin_3*%
%TO.N,Net-(J2-Pad3)*%
X21405000Y-77940000D03*
%TO.P,J2,4,Pin_4*%
%TO.N,Net-(J2-Pad4)*%
X23945000Y-77940000D03*
%TO.P,J2,5,Pin_5*%
%TO.N,Net-(J2-Pad5)*%
X26485000Y-77940000D03*
%TD*%
D12*
%TO.P,R5,1*%
%TO.N,+5V*%
X27240000Y-85590000D03*
D13*
%TO.P,R5,2*%
%TO.N,SPD_0*%
X34860000Y-85590000D03*
%TD*%
D12*
%TO.P,R1,1*%
%TO.N,Net-(J2-Pad5)*%
X30290000Y-77940000D03*
D13*
%TO.P,R1,2*%
%TO.N,Net-(R1-Pad2)*%
X37910000Y-77940000D03*
%TD*%
D12*
%TO.P,R9,1*%
%TO.N,THERM_0*%
X15556000Y-112250000D03*
D13*
%TO.P,R9,2*%
%TO.N,+5V*%
X15556000Y-104630000D03*
%TD*%
D12*
%TO.P,R10,1*%
%TO.N,Net-(C6-Pad1)*%
X43115000Y-114790000D03*
D13*
%TO.P,R10,2*%
%TO.N,Net-(R10-Pad2)*%
X43115000Y-107170000D03*
%TD*%
D18*
%TO.P,U4,*%
%TO.N,*%
X17080000Y-58910000D03*
X17080000Y-38590000D03*
D19*
%TO.P,U4,1,3v*%
%TO.N,+3V3*%
X34860000Y-58910000D03*
%TO.P,U4,2,GND*%
%TO.N,GND*%
X34860000Y-56370000D03*
%TO.P,U4,3,CLK*%
%TO.N,SPI_SCK*%
X34860000Y-53830000D03*
%TO.P,U4,4,SO/D0*%
%TO.N,SPI_RX*%
X34860000Y-51290000D03*
%TO.P,U4,5,SI/CMD*%
%TO.N,SPI_TX*%
X34860000Y-48750000D03*
%TO.P,U4,6,CS/D3*%
%TO.N,SD_CS*%
X34860000Y-46210000D03*
%TO.P,U4,7,D1*%
%TO.N,unconnected-(U4-Pad7)*%
X34860000Y-43670000D03*
%TO.P,U4,8,D2*%
%TO.N,unconnected-(U4-Pad8)*%
X34860000Y-41130000D03*
%TO.P,U4,9,DET*%
%TO.N,SD_DET*%
X34860000Y-38590000D03*
%TD*%
D12*
%TO.P,R15,1*%
%TO.N,GND*%
X40956000Y-121140000D03*
D13*
%TO.P,R15,2*%
%TO.N,THERM_3*%
X48576000Y-121140000D03*
%TD*%
D12*
%TO.P,R2,1*%
%TO.N,Net-(J2-Pad4)*%
X30290000Y-74130000D03*
D13*
%TO.P,R2,2*%
%TO.N,Net-(R2-Pad2)*%
X37910000Y-74130000D03*
%TD*%
D20*
%TO.P,U3,*%
%TO.N,*%
X47880000Y-76000000D03*
X63120000Y-76000000D03*
D19*
%TO.P,U3,1,VCC*%
%TO.N,+5V*%
X46610000Y-87430000D03*
%TO.P,U3,2,GND*%
%TO.N,GND*%
X49150000Y-87430000D03*
%TO.P,U3,3,SCL*%
%TO.N,I2C_SCL*%
X51690000Y-87430000D03*
%TO.P,U3,4,SDA*%
%TO.N,I2C_SDA*%
X54230000Y-87430000D03*
%TO.P,U3,5,XDA*%
%TO.N,unconnected-(U3-Pad5)*%
X56770000Y-87430000D03*
%TO.P,U3,6,XCL*%
%TO.N,unconnected-(U3-Pad6)*%
X59310000Y-87430000D03*
%TO.P,U3,7,ADO*%
%TO.N,GND*%
X61850000Y-87430000D03*
%TO.P,U3,8,INT*%
%TO.N,ACC_INT*%
X64390000Y-87430000D03*
%TD*%
D12*
%TO.P,R14,1*%
%TO.N,Net-(J10-Pad2)*%
X51624000Y-121140000D03*
D13*
%TO.P,R14,2*%
%TO.N,THERM_3*%
X59244000Y-121140000D03*
%TD*%
D10*
%TO.P,J10,1,Pin_1*%
%TO.N,GND*%
X30796000Y-119875000D03*
D11*
%TO.P,J10,2,Pin_2*%
%TO.N,Net-(J10-Pad2)*%
X30796000Y-117335000D03*
%TD*%
D12*
%TO.P,R8,1*%
%TO.N,THERM_2*%
X25716000Y-112250000D03*
D13*
%TO.P,R8,2*%
%TO.N,+5V*%
X25716000Y-104630000D03*
%TD*%
D12*
%TO.P,R17,1*%
%TO.N,Net-(J11-Pad2)*%
X22160000Y-99550000D03*
D13*
%TO.P,R17,2*%
%TO.N,Net-(R17-Pad2)*%
X14540000Y-99550000D03*
%TD*%
D10*
%TO.P,J7,1,Pin_1*%
%TO.N,GND*%
X25716000Y-119870000D03*
D11*
%TO.P,J7,2,Pin_2*%
%TO.N,THERM_2*%
X25716000Y-117330000D03*
%TD*%
D12*
%TO.P,C4,1*%
%TO.N,+5V*%
X41845000Y-98280000D03*
%TO.P,C4,2*%
%TO.N,GND*%
X46845000Y-98280000D03*
%TD*%
%TO.P,C6,1*%
%TO.N,Net-(C6-Pad1)*%
X41845000Y-103360000D03*
%TO.P,C6,2*%
%TO.N,GND*%
X46845000Y-103360000D03*
%TD*%
D21*
%TO.N,*%
X14000000Y-125000000D03*
X14000000Y-14000000D03*
X68500000Y-125000000D03*
X68500000Y-14000000D03*
D22*
%TO.N,GND*%
X33590000Y-107170000D03*
%TO.N,I2C_SCL*%
X53148000Y-94978000D03*
%TO.N,+5V*%
X45020000Y-95105000D03*
X13270000Y-80500000D03*
%TO.N,Net-(C6-Pad1)*%
X49211000Y-99931000D03*
X50608000Y-101328000D03*
%TO.N,Net-(J3-Pad7)*%
X26224000Y-62974000D03*
X32828000Y-40114000D03*
%TO.N,I2C_SDA*%
X54672000Y-94978000D03*
%TO.N,Net-(J3-Pad8)*%
X20382000Y-45702000D03*
X23938000Y-45702000D03*
X33082000Y-36558000D03*
%TO.N,Net-(R10-Pad2)*%
X57974000Y-103360000D03*
X55180000Y-100058000D03*
%TO.N,I2C0_SCL*%
X34098000Y-72372000D03*
%TO.N,Net-(R12-Pad2)*%
X48830000Y-101544500D03*
%TO.N,THERM_3*%
X52640000Y-104122000D03*
X52132000Y-100058000D03*
X52640000Y-110726000D03*
%TO.N,Net-(R19-Pad2)*%
X34860000Y-106535000D03*
%TD*%
D23*
%TO.N,GND*%
X50350000Y-49350000D02*
X64890000Y-49350000D01*
X14540000Y-81265000D02*
X18865000Y-85590000D01*
X33590000Y-97010000D02*
X33590000Y-99550000D01*
X31685000Y-95105000D02*
X33590000Y-97010000D01*
X62800000Y-116055000D02*
X68945000Y-116055000D01*
X47110000Y-62050000D02*
X49950000Y-62050000D01*
X45020000Y-110980000D02*
X46925000Y-109075000D01*
X34860000Y-61704000D02*
X35206000Y-62050000D01*
X22210000Y-17387349D02*
X22347349Y-17250000D01*
X46845000Y-98280000D02*
X46845000Y-92645000D01*
X56410000Y-104630000D02*
X58736000Y-104630000D01*
X54545000Y-105265000D02*
X54545000Y-107170000D01*
X55140000Y-103360000D02*
X55140000Y-104670000D01*
X36638000Y-59926000D02*
X34860000Y-61704000D01*
X34860000Y-56370000D02*
X36638000Y-58148000D01*
D24*
X44630000Y-24130000D02*
X39500000Y-19000000D01*
D23*
X66500000Y-99500000D02*
X68500000Y-99500000D01*
X61525000Y-116055000D02*
X62800000Y-116055000D01*
X49950000Y-49750000D02*
X50350000Y-49350000D01*
X47110000Y-49350000D02*
X50350000Y-49350000D01*
D24*
X33847349Y-17000000D02*
X22597349Y-17000000D01*
D23*
X58736000Y-104630000D02*
X65370000Y-104630000D01*
X14540000Y-71102000D02*
X14540000Y-76155000D01*
X46925000Y-103440000D02*
X46845000Y-103360000D01*
X14540000Y-71102000D02*
X18096000Y-71102000D01*
X46845000Y-92645000D02*
X49150000Y-90340000D01*
X37400000Y-110980000D02*
X45020000Y-110980000D01*
D24*
X35847349Y-19000000D02*
X33847349Y-17000000D01*
D23*
X18865000Y-94350000D02*
X19620000Y-95105000D01*
X22210000Y-27780000D02*
X15190000Y-27780000D01*
X55140000Y-104670000D02*
X54545000Y-105265000D01*
D24*
X39500000Y-19000000D02*
X35847349Y-19000000D01*
D23*
X33590000Y-99550000D02*
X33590000Y-107170000D01*
D24*
X46930000Y-24130000D02*
X44630000Y-24130000D01*
D23*
X61845000Y-90345000D02*
X61850000Y-90340000D01*
X18865000Y-85590000D02*
X18865000Y-93210000D01*
X14540000Y-28430000D02*
X14540000Y-61704000D01*
X61845000Y-90345000D02*
X66500000Y-95000000D01*
X55140000Y-103360000D02*
X56410000Y-104630000D01*
X14540000Y-64725000D02*
X14540000Y-71102000D01*
X14540000Y-76155000D02*
X16325000Y-77940000D01*
X66500000Y-103500000D02*
X66500000Y-99500000D01*
X33590000Y-107170000D02*
X37400000Y-110980000D01*
X54545000Y-109075000D02*
X54545000Y-107170000D01*
X33341000Y-119875000D02*
X34606000Y-121140000D01*
X36638000Y-58148000D02*
X36638000Y-59926000D01*
X34606000Y-121140000D02*
X40956000Y-121140000D01*
X18865000Y-93210000D02*
X18865000Y-94350000D01*
X19620000Y-95105000D02*
X31685000Y-95105000D01*
X15190000Y-27780000D02*
X14540000Y-28430000D01*
X14540000Y-76155000D02*
X14540000Y-81265000D01*
X54545000Y-109075000D02*
X61525000Y-116055000D01*
X65370000Y-104630000D02*
X66500000Y-103500000D01*
X66500000Y-95000000D02*
X66500000Y-99500000D01*
X49950000Y-62050000D02*
X64890000Y-62050000D01*
X30796000Y-119870000D02*
X15556000Y-119870000D01*
D24*
X22210000Y-27780000D02*
X22210000Y-17387349D01*
D23*
X46845000Y-103360000D02*
X46845000Y-98280000D01*
X34860000Y-61704000D02*
X14540000Y-61704000D01*
X46925000Y-107170000D02*
X46925000Y-103440000D01*
X18858000Y-70340000D02*
X18858000Y-69070000D01*
X46925000Y-109075000D02*
X54545000Y-109075000D01*
X61850000Y-90340000D02*
X61850000Y-87350000D01*
X46925000Y-109075000D02*
X46925000Y-107170000D01*
X30796000Y-119875000D02*
X33341000Y-119875000D01*
X35206000Y-62050000D02*
X47110000Y-62050000D01*
X49950000Y-62050000D02*
X49950000Y-49750000D01*
X49150000Y-90340000D02*
X49150000Y-87350000D01*
D24*
X47110000Y-23950000D02*
X46930000Y-24130000D01*
D23*
X14540000Y-61704000D02*
X14540000Y-64725000D01*
X18096000Y-71102000D02*
X18858000Y-70340000D01*
X22597349Y-17000000D02*
X22347349Y-17250000D01*
D25*
%TO.N,I2C_SCL*%
X63250000Y-70250000D02*
X63250000Y-66230000D01*
X51690000Y-87350000D02*
X51690000Y-84310000D01*
X53148000Y-94978000D02*
X51690000Y-93520000D01*
X51690000Y-84310000D02*
X58250000Y-77750000D01*
X58250000Y-75250000D02*
X63250000Y-70250000D01*
X51690000Y-93520000D02*
X51690000Y-87350000D01*
X58250000Y-77750000D02*
X58250000Y-75250000D01*
X63250000Y-66230000D02*
X64890000Y-64590000D01*
D23*
%TO.N,+5V*%
X31060000Y-93210000D02*
X27240000Y-93210000D01*
X37400000Y-95105000D02*
X32955000Y-95105000D01*
X62000000Y-96500000D02*
X62000000Y-99500000D01*
X45020000Y-91930000D02*
X46610000Y-90340000D01*
X14540000Y-104630000D02*
X13270000Y-103360000D01*
X27240000Y-93210000D02*
X21405000Y-93210000D01*
X27240000Y-85590000D02*
X27240000Y-93210000D01*
X32955000Y-95105000D02*
X31060000Y-93210000D01*
X41845000Y-98280000D02*
X40575000Y-98280000D01*
X21405000Y-85590000D02*
X21405000Y-93210000D01*
X30796000Y-104630000D02*
X14540000Y-104630000D01*
X45020000Y-91930000D02*
X45020000Y-95105000D01*
X45020000Y-95105000D02*
X41845000Y-98280000D01*
X13270000Y-103360000D02*
X13270000Y-80500000D01*
X40575000Y-98280000D02*
X37400000Y-95105000D01*
X46610000Y-90340000D02*
X46610000Y-87350000D01*
D25*
%TO.N,Net-(C6-Pad1)*%
X50608000Y-101328000D02*
X49211000Y-99931000D01*
D23*
%TO.N,THERM_1*%
X20636000Y-112250000D02*
X20636000Y-117330000D01*
%TO.N,THERM_2*%
X25716000Y-112250000D02*
X25716000Y-117330000D01*
%TO.N,THERM_0*%
X15556000Y-112250000D02*
X15556000Y-117330000D01*
D25*
%TO.N,Net-(J3-Pad7)*%
X19366000Y-62974000D02*
X18858000Y-63482000D01*
X32828000Y-40114000D02*
X32828000Y-38590000D01*
X32828000Y-38590000D02*
X36338000Y-35080000D01*
X18858000Y-63482000D02*
X18858000Y-66530000D01*
X36338000Y-35080000D02*
X41060000Y-35080000D01*
X41060000Y-35080000D02*
X47110000Y-29030000D01*
X26224000Y-62974000D02*
X19366000Y-62974000D01*
%TO.N,Net-(J2-Pad2)*%
X30290000Y-66515000D02*
X30290000Y-66510000D01*
X18865000Y-77940000D02*
X30290000Y-66515000D01*
%TO.N,Net-(J2-Pad3)*%
X29025000Y-70320000D02*
X30290000Y-70320000D01*
X21405000Y-77940000D02*
X29025000Y-70320000D01*
%TO.N,I2C_SDA*%
X59000000Y-75500000D02*
X64890000Y-69610000D01*
X54230000Y-82770000D02*
X59000000Y-78000000D01*
X59000000Y-78000000D02*
X59000000Y-75500000D01*
X54672000Y-93962000D02*
X54230000Y-93520000D01*
X54230000Y-87350000D02*
X54230000Y-82770000D01*
X54230000Y-93520000D02*
X54230000Y-87350000D01*
X64890000Y-69610000D02*
X64890000Y-67130000D01*
X54672000Y-93962000D02*
X54672000Y-94978000D01*
%TO.N,Net-(J2-Pad4)*%
X27755000Y-74130000D02*
X30290000Y-74130000D01*
X23945000Y-77940000D02*
X27755000Y-74130000D01*
%TO.N,Net-(J2-Pad5)*%
X26485000Y-77940000D02*
X30290000Y-77940000D01*
%TO.N,Net-(J3-Pad8)*%
X33082000Y-36558000D02*
X35195000Y-34445000D01*
X35195000Y-34445000D02*
X41059282Y-34445000D01*
X23938000Y-45702000D02*
X20382000Y-45702000D01*
X42754282Y-32750000D02*
X42754282Y-30845718D01*
X41059282Y-34445000D02*
X42754282Y-32750000D01*
X42754282Y-30845718D02*
X47110000Y-26490000D01*
%TO.N,Net-(J10-Pad2)*%
X33341000Y-117335000D02*
X36130000Y-120124000D01*
X39432000Y-120124000D02*
X39940000Y-119616000D01*
X39940000Y-119616000D02*
X50100000Y-119616000D01*
D23*
X30796000Y-112250000D02*
X30796000Y-117330000D01*
D25*
X50100000Y-119616000D02*
X51624000Y-121140000D01*
X36130000Y-120124000D02*
X39432000Y-120124000D01*
X30796000Y-117335000D02*
X33341000Y-117335000D01*
%TO.N,Net-(R10-Pad2)*%
X57974000Y-103360000D02*
X57974000Y-102852000D01*
X57974000Y-102852000D02*
X55180000Y-100058000D01*
%TO.N,SPI_SCK*%
X34573440Y-47500000D02*
X42720000Y-47500000D01*
X33336000Y-52306000D02*
X33336000Y-48737440D01*
X42720000Y-47500000D02*
X47110000Y-51890000D01*
X34860000Y-53830000D02*
X33336000Y-52306000D01*
X33336000Y-48737440D02*
X34573440Y-47500000D01*
%TO.N,SPI_TX*%
X41430000Y-48750000D02*
X47110000Y-54430000D01*
X34860000Y-48750000D02*
X41430000Y-48750000D01*
%TO.N,SPI_RX*%
X34860000Y-51290000D02*
X40540000Y-56970000D01*
X40540000Y-56970000D02*
X47110000Y-56970000D01*
%TO.N,I2C0_SCL*%
X43628000Y-72372000D02*
X47110000Y-68890000D01*
X43562000Y-72372000D02*
X43628000Y-72372000D01*
X34098000Y-72372000D02*
X43562000Y-72372000D01*
X47110000Y-68890000D02*
X47110000Y-67130000D01*
%TO.N,Net-(R12-Pad2)*%
X48830000Y-101544500D02*
X48830000Y-105265000D01*
X48830000Y-105265000D02*
X50735000Y-107170000D01*
%TO.N,THERM_3*%
X52132000Y-100312000D02*
X52132000Y-100058000D01*
X52640000Y-110980000D02*
X52640000Y-110726000D01*
X52640000Y-100820000D02*
X52132000Y-100312000D01*
X52640000Y-104122000D02*
X52640000Y-100820000D01*
X48576000Y-121140000D02*
X49846000Y-122410000D01*
X53402000Y-120886000D02*
X53402000Y-117076000D01*
X53402000Y-115806000D02*
X52640000Y-115044000D01*
X49846000Y-122410000D02*
X53402000Y-122410000D01*
X53402000Y-122410000D02*
X53402000Y-120886000D01*
X53402000Y-116568000D02*
X53402000Y-116314000D01*
X49084000Y-123172000D02*
X58736000Y-123172000D01*
X59244000Y-122664000D02*
X59244000Y-121140000D01*
X53402000Y-117076000D02*
X53402000Y-116568000D01*
X48576000Y-122664000D02*
X49084000Y-123172000D01*
X58736000Y-123172000D02*
X59244000Y-122664000D01*
X52640000Y-115044000D02*
X52640000Y-110980000D01*
X48576000Y-121140000D02*
X48576000Y-122664000D01*
X53402000Y-116314000D02*
X53402000Y-115806000D01*
%TO.N,SD_DET*%
X59810000Y-46810000D02*
X64890000Y-46810000D01*
X44750000Y-43000000D02*
X56000000Y-43000000D01*
X34860000Y-38590000D02*
X40340000Y-38590000D01*
X40340000Y-38590000D02*
X44750000Y-43000000D01*
X56000000Y-43000000D02*
X59810000Y-46810000D01*
%TO.N,Net-(R19-Pad2)*%
X37400000Y-98280000D02*
X34860000Y-100820000D01*
X34860000Y-100820000D02*
X34860000Y-106535000D01*
%TO.N,SD_CS*%
X33844000Y-55100000D02*
X35876000Y-55100000D01*
X40286000Y-59510000D02*
X47110000Y-59510000D01*
X34860000Y-46210000D02*
X32574000Y-48496000D01*
X35876000Y-55100000D02*
X40286000Y-59510000D01*
X32574000Y-48496000D02*
X32574000Y-53830000D01*
X32574000Y-53830000D02*
X33844000Y-55100000D01*
%TD*%
M02*
