M48
; DRILL file {KiCad (6.0.5)} date Sun Aug 14 01:36:21 2022
; FORMAT={-:-/ absolute / inch / decimal}
; #@! TF.CreationDate,2022-08-14T01:36:21-04:00
; #@! TF.GenerationSoftware,Kicad,Pcbnew,(6.0.5)
; #@! TF.FileFunction,Plated,1,2,PTH
FMAT,2
INCH
; #@! TA.AperFunction,Plated,PTH,ViaDrill
T1C0.0157
; #@! TA.AperFunction,Plated,PTH,ComponentDrill
T2C0.0300
; #@! TA.AperFunction,Plated,PTH,ComponentDrill
T3C0.0315
; #@! TA.AperFunction,Plated,PTH,ComponentDrill
T4C0.0394
; #@! TA.AperFunction,Plated,PTH,ComponentDrill
T5C0.0402
; #@! TA.AperFunction,Plated,PTH,ComponentDrill
T6C0.0472
; #@! TA.AperFunction,Plated,PTH,ComponentDrill
T7C0.1000
; #@! TA.AperFunction,Plated,PTH,ComponentDrill
T8C0.1181
; #@! TA.AperFunction,Plated,PTH,ViaDrill
T9C0.1575
%
G90
G05
T1
X0.5906Y-3.2835
X0.5906Y-3.5394
X0.5906Y-3.6929
X0.748Y-3.1772
X0.748Y-3.5433
X0.8504Y-2.0276
X0.9449Y-1.3386
X1.0433Y-1.1142
X1.2205Y-3.1772
X1.2205Y-3.2835
X1.2913Y-1.0276
X1.315Y-1.4134
X1.3307Y-1.9291
X1.378Y-3.5433
X1.4173Y-1.6142
X1.4961Y-1.6142
X1.5197Y-1.7992
X1.5354Y-3.2874
X1.6142Y-1.7362
X1.6929Y-3.1614
X1.6929Y-3.2835
X1.6929Y-3.5591
X1.8031Y-3.4016
X1.8504Y-3.1732
X1.8622Y-3.4331
X1.8961Y-3.6466
X1.9055Y-1.3386
X1.9094Y-2.2756
X1.937Y-3.4646
X1.9488Y-3.189
X1.9528Y-2.3031
X1.9961Y-2.0512
X1.9961Y-2.248
X2.0079Y-3.4213
X2.0079Y-3.5472
X2.0236Y-1.5157
X2.0551Y-3.689
X2.0827Y-3.6024
X2.1181Y-2.9724
X2.122Y-3.5
X2.1299Y-1.9213
X2.1417Y-3.4528
X2.1535Y-3.689
X2.1732Y-3.5433
X2.185Y-3.1378
X2.2638Y-3.8425
X2.3071Y-3.4921
X2.3465Y-3.6654
X2.4252Y-1.3543
X2.4803Y-3.189
X2.563Y-1.3543
X2.564Y-3.4144
X2.5787Y-2.3465
X2.5787Y-2.3976
X2.6417Y-2.874
X2.685Y-2.8504
X2.7165Y-3.0528
X2.8268Y-2.9803
X2.8268Y-3.0551
X2.9252Y-2.2402
X2.9252Y-2.3701
X2.9291Y-2.0315
X2.9606Y-3.6378
X3.2283Y-1.9685
X3.2717Y-2.0472
X3.4055Y-1.3386
X3.4055Y-1.5354
T2
X1.3343Y-2.1591
X1.3343Y-2.2591
X1.3343Y-2.3591
X1.3343Y-2.4591
X1.3343Y-2.5591
X1.3343Y-2.6591
X1.3343Y-2.7591
X1.3343Y-2.8591
X1.3343Y-2.9591
X2.3272Y-3.2421
X2.4272Y-3.2421
X2.5272Y-3.2421
X2.6272Y-3.2421
X2.7272Y-3.2421
X2.8272Y-3.2421
X2.9272Y-3.2421
X3.0272Y-3.2421
T3
X0.7087Y-1.0296
X0.7087Y-1.1674
X1.1024Y-0.5966
X1.1024Y-0.7344
T4
X1.0236Y-3.7551
X1.0236Y-3.8551
X1.0236Y-3.9551
X1.0236Y-4.0551
X1.2598Y-3.8551
X1.2598Y-3.9551
X1.2598Y-4.0551
X1.4961Y-3.9551
X1.4961Y-4.0551
X1.6961Y-3.9551
X1.6961Y-4.0551
X1.8961Y-3.9551
X1.8961Y-4.0551
X2.0961Y-3.9551
X2.0961Y-4.0551
X2.3622Y-3.8551
X2.3622Y-3.9551
X2.3622Y-4.0551
X2.5984Y-3.8551
X2.5984Y-3.9551
X2.5984Y-4.0551
X2.8346Y-3.7551
X2.8346Y-3.8551
X2.8346Y-3.9551
X2.8346Y-4.0551
X3.0709Y-3.6551
X3.0709Y-3.7551
X3.0709Y-3.8551
X3.0709Y-3.9551
X3.0709Y-4.0551
T5
X2.3272Y-0.5854
X2.3272Y-0.6854
X2.3272Y-0.7854
X2.3272Y-0.8854
X2.3272Y-0.9854
X2.3272Y-1.0854
X2.3272Y-1.1854
X2.3272Y-1.2854
X2.3272Y-1.3854
X2.3272Y-1.4854
X2.3272Y-1.5854
X2.3272Y-1.6854
X2.3272Y-1.7854
X2.3272Y-1.8854
X2.3272Y-1.9854
X2.3272Y-2.0854
X2.3272Y-2.1854
X2.3272Y-2.2854
X2.3272Y-2.3854
X2.3272Y-2.4854
X2.5772Y-2.4764
X2.6772Y-2.4764
X2.7772Y-2.4764
X3.0272Y-0.5854
X3.0272Y-0.6854
X3.0272Y-0.7854
X3.0272Y-0.8854
X3.0272Y-0.9854
X3.0272Y-1.0854
X3.0272Y-1.1854
X3.0272Y-1.2854
X3.0272Y-1.3854
X3.0272Y-1.4854
X3.0272Y-1.5854
X3.0272Y-1.6854
X3.0272Y-1.7854
X3.0272Y-1.8854
X3.0272Y-1.9854
X3.0272Y-2.0854
X3.0272Y-2.1854
X3.0272Y-2.2854
X3.0272Y-2.3854
X3.0272Y-2.4854
T6
X0.5906Y-1.6142
X0.5906Y-1.8504
X1.1906Y-1.6142
X1.1906Y-1.8504
T7
X0.6343Y-2.1591
X0.6343Y-2.9591
T8
X2.3772Y-2.7921
X2.9772Y-2.7921
T9
X0.7087Y-0.7087
X0.7087Y-3.9764
X3.3858Y-0.7087
X3.3858Y-3.9764
T4
G00X1.5295Y-1.0059
M15
G01X1.5295Y-0.9193
M16
G05
G00X1.7618Y-0.8287
M15
G01X1.6752Y-0.8287
M16
G05
G00X1.7697Y-1.0768
M15
G01X1.6673Y-1.0768
M16
G05
T0
M30
