M48
; DRILL file {KiCad (6.0.5)} date Fri Aug  5 12:45:16 2022
; FORMAT={-:-/ absolute / inch / decimal}
; #@! TF.CreationDate,2022-08-05T12:45:16-04:00
; #@! TF.GenerationSoftware,Kicad,Pcbnew,(6.0.5)
; #@! TF.FileFunction,Plated,1,2,PTH
FMAT,2
INCH
; #@! TA.AperFunction,Plated,PTH,ViaDrill
T1C0.0157
; #@! TA.AperFunction,Plated,PTH,ComponentDrill
T2C0.0300
; #@! TA.AperFunction,Plated,PTH,ComponentDrill
T3C0.0315
; #@! TA.AperFunction,Plated,PTH,ComponentDrill
T4C0.0394
; #@! TA.AperFunction,Plated,PTH,ComponentDrill
T5C0.0402
; #@! TA.AperFunction,Plated,PTH,ComponentDrill
T6C0.0433
; #@! TA.AperFunction,Plated,PTH,ViaDrill
T7C0.0787
; #@! TA.AperFunction,Plated,PTH,ComponentDrill
T8C0.1000
; #@! TA.AperFunction,Plated,PTH,ComponentDrill
T9C0.1181
%
G90
G05
T1
X0.5224Y-3.1693
X0.8024Y-1.7993
X0.9424Y-1.7993
X1.0224Y-0.9693
X1.0324Y-2.4793
X1.2924Y-1.5793
X1.3024Y-1.4393
X1.3224Y-4.2193
X1.3424Y-2.8493
X1.3724Y-4.1943
X1.7724Y-3.7443
X1.9224Y-3.9978
X1.9374Y-3.9343
X1.9924Y-3.9893
X2.0524Y-3.9393
X2.0724Y-4.0993
X2.0724Y-4.3593
X2.0924Y-3.7393
X2.1524Y-3.7393
X2.1724Y-3.9393
X2.2824Y-4.0693
T2
X1.3724Y-1.5193
X1.3724Y-1.6193
X1.3724Y-1.7193
X1.3724Y-1.8193
X1.3724Y-1.9193
X1.3724Y-2.0193
X1.3724Y-2.1193
X1.3724Y-2.2193
X1.3724Y-2.3193
X1.835Y-3.4421
X1.935Y-3.4421
X2.035Y-3.4421
X2.135Y-3.4421
X2.235Y-3.4421
X2.335Y-3.4421
X2.435Y-3.4421
X2.535Y-3.4421
T3
X0.5724Y-3.9193
X0.6124Y-4.1193
X0.6124Y-4.4193
X0.8124Y-4.1193
X0.8124Y-4.4193
X0.8724Y-3.9193
X1.0124Y-4.1193
X1.0124Y-4.4193
X1.0224Y-3.9193
X1.0724Y-3.3697
X1.0724Y-3.6697
X1.0974Y-0.6693
X1.1925Y-2.6185
X1.1925Y-2.7685
X1.1925Y-2.9185
X1.1925Y-3.0685
X1.2124Y-4.1193
X1.2124Y-4.4193
X1.2352Y-0.6693
X1.3224Y-3.9193
X1.3386Y-0.9646
X1.3386Y-1.1614
X1.3724Y-3.3697
X1.3724Y-3.6697
X1.4724Y-3.8693
X1.4724Y-4.1693
X1.4724Y-4.3693
X1.4724Y-4.6693
X1.4774Y-0.6693
X1.4925Y-2.6185
X1.4925Y-2.7685
X1.4925Y-2.9185
X1.4925Y-3.0685
X1.5748Y-0.9024
X1.5748Y-1.3024
X1.6124Y-4.7693
X1.6152Y-0.6693
X1.6474Y-3.8693
X1.6474Y-4.0693
X1.6974Y-4.2193
X1.6974Y-4.5193
X1.8443Y-3.8693
X1.8443Y-4.0693
X1.8474Y-4.2193
X1.8474Y-4.5193
X1.9124Y-4.7693
X1.974Y-4.0693
X1.9974Y-4.2193
X1.9974Y-4.5193
X2.0324Y-4.7693
X2.1474Y-4.2193
X2.1474Y-4.5193
X2.1709Y-4.0693
X2.3324Y-4.7693
T4
X0.6124Y-4.6193
X0.6124Y-4.7193
X0.6427Y-3.0685
X0.6427Y-3.3697
X0.6427Y-3.6697
X0.6429Y-2.6187
X0.6429Y-2.7187
X0.7427Y-3.0685
X0.7427Y-3.3697
X0.7427Y-3.6697
X0.7429Y-2.6187
X0.7429Y-2.7187
X0.8124Y-4.6193
X0.8124Y-4.7193
X0.8427Y-3.0685
X0.8427Y-3.3697
X0.8427Y-3.6697
X0.8429Y-2.6187
X0.8429Y-2.7187
X0.9427Y-3.0685
X0.9429Y-2.6187
X0.9429Y-2.7187
X1.0124Y-4.6193
X1.0124Y-4.7193
X1.0427Y-3.0685
X1.2124Y-4.6195
X1.2124Y-4.7195
X2.4724Y-3.8193
X2.4724Y-3.9193
X2.4724Y-4.0193
X2.4724Y-4.1193
X2.4724Y-4.3691
X2.4724Y-4.4691
X2.4724Y-4.5691
T5
X1.8547Y-0.7429
X1.8547Y-0.8429
X1.8547Y-0.9429
X1.8547Y-1.0429
X1.8547Y-1.1429
X1.8547Y-1.2429
X1.8547Y-1.3429
X1.8547Y-1.4429
X1.8547Y-1.5429
X1.8547Y-1.6429
X1.8547Y-1.7429
X1.8547Y-1.8429
X1.8547Y-1.9429
X1.8547Y-2.0429
X1.8547Y-2.1429
X1.8547Y-2.2429
X1.8547Y-2.3429
X1.8547Y-2.4429
X1.8547Y-2.5429
X1.8547Y-2.6429
X2.1047Y-2.6339
X2.2047Y-2.6339
X2.3047Y-2.6339
X2.5547Y-0.7429
X2.5547Y-0.8429
X2.5547Y-0.9429
X2.5547Y-1.0429
X2.5547Y-1.1429
X2.5547Y-1.2429
X2.5547Y-1.3429
X2.5547Y-1.4429
X2.5547Y-1.5429
X2.5547Y-1.6429
X2.5547Y-1.7429
X2.5547Y-1.8429
X2.5547Y-1.9429
X2.5547Y-2.0429
X2.5547Y-2.1429
X2.5547Y-2.2429
X2.5547Y-2.3429
X2.5547Y-2.4429
X2.5547Y-2.5429
X2.5547Y-2.6429
T6
X0.6324Y-0.833
X0.6994Y-0.6873
X0.7663Y-0.833
X0.8332Y-0.6873
X0.9002Y-0.833
T7
X0.5512Y-0.5512
X2.6378Y-0.5512
X2.6378Y-4.8425
T8
X0.6724Y-1.5193
X0.6724Y-2.3193
T9
X1.885Y-2.9921
X2.485Y-2.9921
T4
G00X0.8744Y-1.0504
M15
G01X0.8744Y-1.137
M16
G05
G00X1.0516Y-1.2827
M15
G01X0.965Y-1.2827
M16
G05
G00X1.1224Y-1.0425
M15
G01X1.1224Y-1.1449
M16
G05
T0
M30
