%TF.GenerationSoftware,KiCad,Pcbnew,(6.0.5)*%
%TF.CreationDate,2022-08-14T01:36:17-04:00*%
%TF.ProjectId,RICM Greenpower Telemetry Module,5249434d-2047-4726-9565-6e706f776572,rev?*%
%TF.SameCoordinates,Original*%
%TF.FileFunction,Copper,L2,Bot*%
%TF.FilePolarity,Positive*%
%FSLAX46Y46*%
G04 Gerber Fmt 4.6, Leading zero omitted, Abs format (unit mm)*
G04 Created by KiCad (PCBNEW (6.0.5)) date 2022-08-14 01:36:17*
%MOMM*%
%LPD*%
G01*
G04 APERTURE LIST*
%TA.AperFunction,ComponentPad*%
%ADD10R,1.700000X1.700000*%
%TD*%
%TA.AperFunction,ComponentPad*%
%ADD11O,1.700000X1.700000*%
%TD*%
%TA.AperFunction,ComponentPad*%
%ADD12C,2.400000*%
%TD*%
%TA.AperFunction,ComponentPad*%
%ADD13O,2.400000X2.400000*%
%TD*%
%TA.AperFunction,ComponentPad*%
%ADD14R,1.600000X1.600000*%
%TD*%
%TA.AperFunction,ComponentPad*%
%ADD15C,1.600000*%
%TD*%
%TA.AperFunction,ComponentPad*%
%ADD16R,4.600000X2.000000*%
%TD*%
%TA.AperFunction,ComponentPad*%
%ADD17O,4.200000X2.000000*%
%TD*%
%TA.AperFunction,ComponentPad*%
%ADD18O,2.000000X4.200000*%
%TD*%
%TA.AperFunction,ComponentPad*%
%ADD19C,4.000000*%
%TD*%
%TA.AperFunction,ComponentPad*%
%ADD20C,1.524000*%
%TD*%
%TA.AperFunction,ComponentPad*%
%ADD21C,3.540000*%
%TD*%
%TA.AperFunction,ViaPad*%
%ADD22C,0.800000*%
%TD*%
%TA.AperFunction,ViaPad*%
%ADD23C,6.000000*%
%TD*%
%TA.AperFunction,Conductor*%
%ADD24C,0.250000*%
%TD*%
%TA.AperFunction,Conductor*%
%ADD25C,0.500000*%
%TD*%
%TA.AperFunction,Conductor*%
%ADD26C,1.000000*%
%TD*%
%TA.AperFunction,Conductor*%
%ADD27C,1.500000*%
%TD*%
G04 APERTURE END LIST*
D10*
%TO.P,J10,1,Pin_1*%
%TO.N,GND*%
X38000000Y-103000000D03*
D11*
%TO.P,J10,2,Pin_2*%
%TO.N,Net-(J10-Pad2)*%
X38000000Y-100460000D03*
%TD*%
D10*
%TO.P,J5,1,Pin_1*%
%TO.N,SPD_1*%
X60000000Y-103000000D03*
D11*
%TO.P,J5,2,Pin_2*%
%TO.N,GND*%
X60000000Y-100460000D03*
%TO.P,J5,3,Pin_3*%
%TO.N,+3V3*%
X60000000Y-97920000D03*
%TD*%
%TO.P,U3,43,SWDIO*%
%TO.N,unconnected-(U3-Pad43)*%
X70540000Y-62900000D03*
D10*
%TO.P,U3,42,GND*%
%TO.N,unconnected-(U3-Pad42)*%
X68000000Y-62900000D03*
D11*
%TO.P,U3,41,SWCLK*%
%TO.N,unconnected-(U3-Pad41)*%
X65460000Y-62900000D03*
%TO.P,U3,40,VBUS*%
%TO.N,unconnected-(U3-Pad40)*%
X76890000Y-14870000D03*
%TO.P,U3,39,VSYS*%
%TO.N,+5V*%
X76890000Y-17410000D03*
D10*
%TO.P,U3,38,GND*%
%TO.N,GND*%
X76890000Y-19950000D03*
D11*
%TO.P,U3,37,3V3_EN*%
%TO.N,unconnected-(U3-Pad37)*%
X76890000Y-22490000D03*
%TO.P,U3,36,3V3*%
%TO.N,unconnected-(U3-Pad36)*%
X76890000Y-25030000D03*
%TO.P,U3,35,ADC_VREF*%
%TO.N,unconnected-(U3-Pad35)*%
X76890000Y-27570000D03*
%TO.P,U3,34,GPIO28_ADC2*%
%TO.N,unconnected-(U3-Pad34)*%
X76890000Y-30110000D03*
D10*
%TO.P,U3,33,AGND*%
%TO.N,unconnected-(U3-Pad33)*%
X76890000Y-32650000D03*
D11*
%TO.P,U3,32,GPIO27_ADC1*%
%TO.N,unconnected-(U3-Pad32)*%
X76890000Y-35190000D03*
%TO.P,U3,31,GPIO26_ADC0*%
%TO.N,unconnected-(U3-Pad31)*%
X76890000Y-37730000D03*
%TO.P,U3,30,RUN*%
%TO.N,unconnected-(U3-Pad30)*%
X76890000Y-40270000D03*
%TO.P,U3,29,GPIO22*%
%TO.N,SD_DET*%
X76890000Y-42810000D03*
D10*
%TO.P,U3,28,GND*%
%TO.N,GND*%
X76890000Y-45350000D03*
D11*
%TO.P,U3,27,GPIO21*%
%TO.N,ACC_INT*%
X76890000Y-47890000D03*
%TO.P,U3,26,GPIO20*%
%TO.N,SPD_0*%
X76890000Y-50430000D03*
%TO.P,U3,25,GPIO19*%
%TO.N,SPD_1*%
X76890000Y-52970000D03*
%TO.P,U3,24,GPIO18*%
%TO.N,unconnected-(U3-Pad24)*%
X76890000Y-55510000D03*
D10*
%TO.P,U3,23,GND*%
%TO.N,GND*%
X76890000Y-58050000D03*
D11*
%TO.P,U3,22,GPIO17*%
%TO.N,I2C_SCL*%
X76890000Y-60590000D03*
%TO.P,U3,21,GPIO16*%
%TO.N,I2C_SDA*%
X76890000Y-63130000D03*
%TO.P,U3,20,GPIO15*%
%TO.N,I2C0_SCL*%
X59110000Y-63130000D03*
%TO.P,U3,19,GPIO14*%
%TO.N,I2C0_SDA*%
X59110000Y-60590000D03*
D10*
%TO.P,U3,18,GND*%
%TO.N,GND*%
X59110000Y-58050000D03*
D11*
%TO.P,U3,17,GPIO13*%
%TO.N,SD_CS*%
X59110000Y-55510000D03*
%TO.P,U3,16,GPIO12*%
%TO.N,SPI_RX*%
X59110000Y-52970000D03*
%TO.P,U3,15,GPIO11*%
%TO.N,SPI_TX*%
X59110000Y-50430000D03*
%TO.P,U3,14,GPIO10*%
%TO.N,SPI_SCK*%
X59110000Y-47890000D03*
D10*
%TO.P,U3,13,GND*%
%TO.N,GND*%
X59110000Y-45350000D03*
D11*
%TO.P,U3,12,GPIO9*%
%TO.N,Net-(R6-Pad1)*%
X59110000Y-42810000D03*
%TO.P,U3,11,GPIO8*%
%TO.N,Net-(R5-Pad1)*%
X59110000Y-40270000D03*
%TO.P,U3,10,GPIO7*%
%TO.N,Net-(R4-Pad1)*%
X59110000Y-37730000D03*
%TO.P,U3,9,GPIO6*%
%TO.N,Net-(R3-Pad1)*%
X59110000Y-35190000D03*
D10*
%TO.P,U3,8,GND*%
%TO.N,GND*%
X59110000Y-32650000D03*
D11*
%TO.P,U3,7,GPIO5*%
%TO.N,unconnected-(U3-Pad7)*%
X59110000Y-30110000D03*
%TO.P,U3,6,GPIO4*%
%TO.N,unconnected-(U3-Pad6)*%
X59110000Y-27570000D03*
%TO.P,U3,5,GPIO3*%
%TO.N,unconnected-(U3-Pad5)*%
X59110000Y-25030000D03*
%TO.P,U3,4,GPIO2*%
%TO.N,unconnected-(U3-Pad4)*%
X59110000Y-22490000D03*
D10*
%TO.P,U3,3,GND*%
%TO.N,GND*%
X59110000Y-19950000D03*
D11*
%TO.P,U3,2,GPIO1*%
%TO.N,unconnected-(U3-Pad2)*%
X59110000Y-17410000D03*
%TO.P,U3,1,GPIO0*%
%TO.N,unconnected-(U3-Pad1)*%
X59110000Y-14870000D03*
%TD*%
D12*
%TO.P,L1,1,1*%
%TO.N,Net-(L1-Pad1)*%
X15000000Y-41000000D03*
D13*
%TO.P,L1,2,2*%
%TO.N,+5V*%
X30240000Y-41000000D03*
%TD*%
D10*
%TO.P,J9,1,Pin_1*%
%TO.N,+5V*%
X26000000Y-103000000D03*
D11*
%TO.P,J9,2,Pin_2*%
%TO.N,GND*%
X26000000Y-100460000D03*
%TO.P,J9,3,Pin_3*%
%TO.N,Net-(J9-Pad3)*%
X26000000Y-97920000D03*
%TO.P,J9,4,Pin_4*%
%TO.N,Net-(J9-Pad4)*%
X26000000Y-95380000D03*
%TD*%
D12*
%TO.P,L2,1,1*%
%TO.N,Net-(L2-Pad1)*%
X15000000Y-47000000D03*
D13*
%TO.P,L2,2,2*%
%TO.N,+3V3*%
X30240000Y-47000000D03*
%TD*%
D10*
%TO.P,J4,1,Pin_1*%
%TO.N,SPD_0*%
X66000000Y-103000000D03*
D11*
%TO.P,J4,2,Pin_2*%
%TO.N,GND*%
X66000000Y-100460000D03*
%TO.P,J4,3,Pin_3*%
%TO.N,+3V3*%
X66000000Y-97920000D03*
%TD*%
D10*
%TO.P,J8,1,Pin_1*%
%TO.N,GND*%
X53240000Y-103000000D03*
D11*
%TO.P,J8,2,Pin_2*%
%TO.N,THERM_0*%
X53240000Y-100460000D03*
%TD*%
D10*
%TO.P,J3,1,Pin_1*%
%TO.N,GND*%
X78000000Y-103000000D03*
D11*
%TO.P,J3,2,Pin_2*%
%TO.N,Net-(J3-Pad2)*%
X78000000Y-100460000D03*
%TO.P,J3,3,Pin_3*%
%TO.N,Net-(J3-Pad3)*%
X78000000Y-97920000D03*
%TO.P,J3,4,Pin_4*%
%TO.N,Net-(J3-Pad4)*%
X78000000Y-95380000D03*
%TO.P,J3,5,Pin_5*%
%TO.N,Net-(J3-Pad5)*%
X78000000Y-92840000D03*
%TD*%
D14*
%TO.P,C2,1*%
%TO.N,Net-(C1-Pad2)*%
X18000000Y-29652651D03*
D15*
%TO.P,C2,2*%
%TO.N,GND*%
X18000000Y-26152651D03*
%TD*%
D10*
%TO.P,J6,1,Pin_1*%
%TO.N,GND*%
X48160000Y-103000000D03*
D11*
%TO.P,J6,2,Pin_2*%
%TO.N,THERM_1*%
X48160000Y-100460000D03*
%TD*%
D10*
%TO.P,J11,1,Pin_1*%
%TO.N,GND*%
X32000000Y-103000000D03*
D11*
%TO.P,J11,2,Pin_2*%
%TO.N,Net-(J11-Pad2)*%
X32000000Y-100460000D03*
%TO.P,J11,3,Pin_3*%
%TO.N,Net-(J11-Pad3)*%
X32000000Y-97920000D03*
%TD*%
D10*
%TO.P,J2,1,Pin_1*%
%TO.N,+3V3*%
X72000000Y-103000000D03*
D11*
%TO.P,J2,2,Pin_2*%
%TO.N,GND*%
X72000000Y-100460000D03*
%TO.P,J2,3,Pin_3*%
%TO.N,I2C0_SCL*%
X72000000Y-97920000D03*
%TO.P,J2,4,Pin_4*%
%TO.N,I2C0_SDA*%
X72000000Y-95380000D03*
%TD*%
D16*
%TO.P,J1,1*%
%TO.N,Net-(C1-Pad2)*%
X43650000Y-27350000D03*
D17*
%TO.P,J1,2*%
%TO.N,GND*%
X43650000Y-21050000D03*
D18*
%TO.P,J1,3*%
%TO.N,N/C*%
X38850000Y-24450000D03*
%TD*%
D19*
%TO.P,U6,*%
%TO.N,*%
X60380000Y-70920000D03*
X75620000Y-70920000D03*
D20*
%TO.P,U6,1,VCC*%
%TO.N,+3V3*%
X59110000Y-82350000D03*
%TO.P,U6,2,GND*%
%TO.N,GND*%
X61650000Y-82350000D03*
%TO.P,U6,3,SCL*%
%TO.N,I2C_SCL*%
X64190000Y-82350000D03*
%TO.P,U6,4,SDA*%
%TO.N,I2C_SDA*%
X66730000Y-82350000D03*
%TO.P,U6,5,XDA*%
%TO.N,unconnected-(U6-Pad5)*%
X69270000Y-82350000D03*
%TO.P,U6,6,XCL*%
%TO.N,unconnected-(U6-Pad6)*%
X71810000Y-82350000D03*
%TO.P,U6,7,ADO*%
%TO.N,GND*%
X74350000Y-82350000D03*
%TO.P,U6,8,INT*%
%TO.N,ACC_INT*%
X76890000Y-82350000D03*
%TD*%
D21*
%TO.P,U4,*%
%TO.N,*%
X16110000Y-54840000D03*
X16110000Y-75160000D03*
D20*
%TO.P,U4,1,3v*%
%TO.N,+3V3*%
X33890000Y-75160000D03*
%TO.P,U4,2,GND*%
%TO.N,GND*%
X33890000Y-72620000D03*
%TO.P,U4,3,CLK*%
%TO.N,SPI_SCK*%
X33890000Y-70080000D03*
%TO.P,U4,4,SO/D0*%
%TO.N,SPI_RX*%
X33890000Y-67540000D03*
%TO.P,U4,5,SI/CMD*%
%TO.N,SPI_TX*%
X33890000Y-65000000D03*
%TO.P,U4,6,CS/D3*%
%TO.N,SD_CS*%
X33890000Y-62460000D03*
%TO.P,U4,7,D1*%
%TO.N,unconnected-(U4-Pad7)*%
X33890000Y-59920000D03*
%TO.P,U4,8,D2*%
%TO.N,unconnected-(U4-Pad8)*%
X33890000Y-57380000D03*
%TO.P,U4,9,DET*%
%TO.N,SD_DET*%
X33890000Y-54840000D03*
%TD*%
D10*
%TO.P,J7,1,Pin_1*%
%TO.N,GND*%
X43080000Y-103000000D03*
D11*
%TO.P,J7,2,Pin_2*%
%TO.N,THERM_2*%
X43080000Y-100460000D03*
%TD*%
D14*
%TO.P,C7,1*%
%TO.N,+5V*%
X28000000Y-18652651D03*
D15*
%TO.P,C7,2*%
%TO.N,GND*%
X28000000Y-15152651D03*
%TD*%
D22*
%TO.N,+5V*%
X21600000Y-51500000D03*
%TO.N,Net-(J3-Pad4)*%
X86500000Y-39000000D03*
X83100000Y-52000000D03*
%TO.N,Net-(J3-Pad5)*%
X86500000Y-34000000D03*
X82000000Y-50000000D03*
%TO.N,Net-(R24-Pad2)*%
X45800000Y-86400000D03*
X31000000Y-83400000D03*
%TO.N,Net-(R26-Pad2)*%
X59600000Y-93100000D03*
X52200000Y-93700000D03*
X54700000Y-93700000D03*
X35000000Y-90000000D03*
%TO.N,Net-(R19-Pad2)*%
X58600000Y-88700000D03*
X49500000Y-81000000D03*
%TO.N,Net-(R17-Pad2)*%
X47300000Y-87200000D03*
%TO.N,THERM_3*%
X39000000Y-83500000D03*
X49200000Y-88000000D03*
%TO.N,THERM_2*%
X53900000Y-88900000D03*
X43000000Y-90400000D03*
%TO.N,THERM_1*%
X55200000Y-90000000D03*
X48160000Y-92622500D03*
%TO.N,SPD_1*%
X51000000Y-90100000D03*
X57500000Y-97600000D03*
%TO.N,THERM_0*%
X54400000Y-87700000D03*
X43000000Y-83400000D03*
%TO.N,Net-(R17-Pad2)*%
X19000000Y-90000000D03*
X15000000Y-83400000D03*
%TO.N,Net-(J9-Pad3)*%
X15000000Y-89900000D03*
%TO.N,SPD_1*%
X74400000Y-51600000D03*
X65500000Y-59600000D03*
X51000000Y-86900000D03*
%TO.N,SPD_0*%
X65500000Y-60900000D03*
X47000000Y-80600000D03*
%TO.N,+3V3*%
X43000000Y-80300000D03*
%TO.N,SPI_SCK*%
X50700000Y-52100000D03*
X54100000Y-48800000D03*
%TO.N,SPI_RX*%
X50700000Y-57100000D03*
%TO.N,SPI_TX*%
X48500000Y-57800000D03*
%TO.N,+3V3*%
X49600000Y-58500000D03*
X51400000Y-38500000D03*
%TO.N,I2C_SCL*%
X53800000Y-75500000D03*
X69000000Y-77540000D03*
%TO.N,I2C_SDA*%
X63000000Y-81000000D03*
%TO.N,+3V3*%
X52900000Y-91500000D03*
X55500000Y-79700000D03*
%TO.N,GND*%
X31000000Y-80700000D03*
X19000000Y-80700000D03*
X15000000Y-93800000D03*
%TO.N,+3V3*%
X65125000Y-86725000D03*
%TO.N,I2C0_SDA*%
X75200000Y-92400000D03*
X68200000Y-72400000D03*
X71800000Y-75700000D03*
%TO.N,I2C0_SCL*%
X71800000Y-77600000D03*
X67100000Y-73000000D03*
%TO.N,SD_DET*%
X65100000Y-34400000D03*
X61600000Y-34400000D03*
%TO.N,ACC_INT*%
X74300000Y-56900000D03*
X74300000Y-60200000D03*
%TO.N,+5V*%
X32800000Y-26100000D03*
X26500000Y-28300000D03*
%TO.N,GND*%
X48400000Y-34000000D03*
X41000000Y-44100000D03*
%TO.N,Net-(L1-Pad1)*%
X33400000Y-35900000D03*
%TO.N,Net-(C3-Pad2)*%
X33800000Y-49000000D03*
X38600000Y-45700000D03*
%TO.N,Net-(L2-Pad1)*%
X36000000Y-41000000D03*
%TO.N,+3V3*%
X38000000Y-41000000D03*
%TO.N,Net-(C1-Pad2)*%
X24000000Y-34000000D03*
D23*
%TO.N,*%
X86000000Y-18000000D03*
X86000000Y-101000000D03*
X18000000Y-18000000D03*
X18000000Y-101000000D03*
%TD*%
D24*
%TO.N,Net-(R17-Pad2)*%
X46800000Y-87700000D02*
X47300000Y-87200000D01*
X22200000Y-87700000D02*
X46800000Y-87700000D01*
X19900000Y-90000000D02*
X22200000Y-87700000D01*
X19000000Y-90000000D02*
X19900000Y-90000000D01*
D25*
%TO.N,+5V*%
X21500000Y-51600000D02*
X21600000Y-51500000D01*
X21500000Y-73500000D02*
X21500000Y-51600000D01*
X15050000Y-78450000D02*
X16550000Y-78450000D01*
X16550000Y-78450000D02*
X21500000Y-73500000D01*
X13100000Y-94300000D02*
X13100000Y-80400000D01*
X13100000Y-80400000D02*
X15050000Y-78450000D01*
X25100000Y-103000000D02*
X17800000Y-95700000D01*
X26000000Y-103000000D02*
X25100000Y-103000000D01*
X17800000Y-95700000D02*
X14500000Y-95700000D01*
X14500000Y-95700000D02*
X13100000Y-94300000D01*
D24*
%TO.N,Net-(J3-Pad4)*%
X83400000Y-42100000D02*
X86500000Y-39000000D01*
X83400000Y-43200000D02*
X83400000Y-42100000D01*
X83400000Y-51700000D02*
X83400000Y-43200000D01*
X83100000Y-52000000D02*
X83400000Y-51700000D01*
%TO.N,Net-(J3-Pad5)*%
X82000000Y-38500000D02*
X86500000Y-34000000D01*
X82000000Y-50000000D02*
X82000000Y-38500000D01*
%TO.N,Net-(R24-Pad2)*%
X44400000Y-86400000D02*
X45800000Y-86400000D01*
%TO.N,THERM_3*%
X40400000Y-84900000D02*
X39000000Y-83500000D01*
X46100000Y-84900000D02*
X40400000Y-84900000D01*
X49200000Y-88000000D02*
X46100000Y-84900000D01*
%TO.N,Net-(R24-Pad2)*%
X34300000Y-86400000D02*
X44400000Y-86400000D01*
X31300000Y-83400000D02*
X33700000Y-85800000D01*
X33700000Y-85800000D02*
X34300000Y-86400000D01*
X31000000Y-83400000D02*
X31300000Y-83400000D01*
%TO.N,Net-(R26-Pad2)*%
X59000000Y-93700000D02*
X59600000Y-93100000D01*
X54700000Y-93700000D02*
X59000000Y-93700000D01*
X35000000Y-90000000D02*
X38700000Y-93700000D01*
X38700000Y-93700000D02*
X52200000Y-93700000D01*
%TO.N,Net-(R19-Pad2)*%
X59200000Y-88700000D02*
X58600000Y-88700000D01*
X59300000Y-88600000D02*
X59200000Y-88700000D01*
X59300000Y-85500000D02*
X59300000Y-88600000D01*
X49500000Y-81000000D02*
X54800000Y-81000000D01*
X54800000Y-81000000D02*
X58600000Y-84800000D01*
X58600000Y-84800000D02*
X59300000Y-85500000D01*
%TO.N,THERM_2*%
X49900000Y-88900000D02*
X53900000Y-88900000D01*
%TO.N,THERM_1*%
X51675489Y-89375489D02*
X52300000Y-90000000D01*
X50524511Y-89375489D02*
X51675489Y-89375489D01*
X48160000Y-91740000D02*
X50524511Y-89375489D01*
X48160000Y-92622500D02*
X48160000Y-91740000D01*
X52300000Y-90000000D02*
X55200000Y-90000000D01*
%TO.N,THERM_2*%
X48400000Y-90400000D02*
X49900000Y-88900000D01*
X43000000Y-90400000D02*
X48400000Y-90400000D01*
%TO.N,+3V3*%
X66000000Y-97920000D02*
X60000000Y-97920000D01*
%TO.N,SPD_1*%
X51000000Y-91100000D02*
X51000000Y-90100000D01*
X57500000Y-97600000D02*
X51000000Y-91100000D01*
D25*
%TO.N,+3V3*%
X59800000Y-84600000D02*
X63000000Y-84600000D01*
X59700000Y-84600000D02*
X59800000Y-84600000D01*
X60000000Y-84800000D02*
X59800000Y-84600000D01*
X59900000Y-91500000D02*
X60000000Y-91400000D01*
X60000000Y-91400000D02*
X60000000Y-84800000D01*
X52900000Y-91500000D02*
X59900000Y-91500000D01*
D24*
%TO.N,THERM_0*%
X50200000Y-87700000D02*
X54400000Y-87700000D01*
X46600000Y-84100000D02*
X50200000Y-87700000D01*
X43000000Y-83400000D02*
X43700000Y-84100000D01*
X43700000Y-84100000D02*
X46600000Y-84100000D01*
%TO.N,Net-(R17-Pad2)*%
X15000000Y-86000000D02*
X19000000Y-90000000D01*
X15000000Y-83400000D02*
X15000000Y-86000000D01*
%TO.N,Net-(J9-Pad3)*%
X15000000Y-89900000D02*
X23020000Y-97920000D01*
X23020000Y-97920000D02*
X26000000Y-97920000D01*
%TO.N,SPD_1*%
X74400000Y-51600000D02*
X75520000Y-51600000D01*
X75520000Y-51600000D02*
X76890000Y-52970000D01*
%TO.N,ACC_INT*%
X72900000Y-55800000D02*
X72900000Y-51600000D01*
X76610000Y-47890000D02*
X76890000Y-47890000D01*
X74000000Y-56900000D02*
X72900000Y-55800000D01*
X74300000Y-56900000D02*
X74000000Y-56900000D01*
X72900000Y-51600000D02*
X76610000Y-47890000D01*
%TO.N,SPD_1*%
X64000000Y-59600000D02*
X65500000Y-59600000D01*
X63100000Y-60500000D02*
X63900000Y-59700000D01*
X63100000Y-62500000D02*
X63100000Y-61200000D01*
X49900000Y-75700000D02*
X63100000Y-62500000D01*
X63100000Y-61200000D02*
X63100000Y-60500000D01*
X45100000Y-80500000D02*
X49900000Y-75700000D01*
X63900000Y-59700000D02*
X64000000Y-59600000D01*
X45100000Y-81800000D02*
X45100000Y-80500000D01*
X46700000Y-83300000D02*
X46600000Y-83300000D01*
X47900000Y-83300000D02*
X46700000Y-83300000D01*
X51000000Y-86400000D02*
X48400000Y-83800000D01*
X51000000Y-86900000D02*
X51000000Y-86400000D01*
X48400000Y-83800000D02*
X47900000Y-83300000D01*
X46600000Y-83300000D02*
X45100000Y-81800000D01*
%TO.N,SPD_0*%
X64200000Y-60900000D02*
X65500000Y-60900000D01*
X63900000Y-61200000D02*
X64200000Y-60900000D01*
X63900000Y-63000000D02*
X63900000Y-61200000D01*
X47000000Y-79900000D02*
X58000000Y-68900000D01*
X47000000Y-80600000D02*
X47000000Y-79900000D01*
X58000000Y-68900000D02*
X63900000Y-63000000D01*
D25*
%TO.N,+3V3*%
X36300000Y-80300000D02*
X43000000Y-80300000D01*
X33890000Y-77890000D02*
X35800000Y-79800000D01*
X35800000Y-79800000D02*
X36300000Y-80300000D01*
X33890000Y-75160000D02*
X33890000Y-77890000D01*
%TO.N,GND*%
X31000000Y-75510000D02*
X33890000Y-72620000D01*
X31000000Y-80700000D02*
X31000000Y-75510000D01*
D24*
%TO.N,SPI_RX*%
X38324511Y-57075489D02*
X50675489Y-57075489D01*
X50675489Y-57075489D02*
X50700000Y-57100000D01*
X31025000Y-60475000D02*
X32800000Y-58700000D01*
X32800000Y-58700000D02*
X36700000Y-58700000D01*
X36700000Y-58700000D02*
X38324511Y-57075489D01*
X31025000Y-64675000D02*
X31025000Y-60475000D01*
X33890000Y-67540000D02*
X31025000Y-64675000D01*
%TO.N,SPI_SCK*%
X30100000Y-66290000D02*
X33890000Y-70080000D01*
X30100000Y-58900000D02*
X30100000Y-66290000D01*
X41300000Y-52100000D02*
X37300000Y-56100000D01*
X37300000Y-56100000D02*
X32900000Y-56100000D01*
X32900000Y-56100000D02*
X30100000Y-58900000D01*
X50700000Y-52100000D02*
X41300000Y-52100000D01*
X58200000Y-48800000D02*
X54100000Y-48800000D01*
X59110000Y-47890000D02*
X58200000Y-48800000D01*
%TO.N,SPI_TX*%
X33400000Y-61300000D02*
X35200000Y-61300000D01*
X32100000Y-62600000D02*
X33400000Y-61300000D01*
X45000000Y-61300000D02*
X48500000Y-57800000D01*
X32100000Y-63210000D02*
X32100000Y-62600000D01*
X35200000Y-61300000D02*
X45000000Y-61300000D01*
X33890000Y-65000000D02*
X32100000Y-63210000D01*
%TO.N,SD_CS*%
X55000000Y-57100000D02*
X56590000Y-55510000D01*
X55000000Y-59500000D02*
X55000000Y-57100000D01*
X52040000Y-62460000D02*
X55000000Y-59500000D01*
X33890000Y-62460000D02*
X52040000Y-62460000D01*
X56590000Y-55510000D02*
X59110000Y-55510000D01*
D25*
%TO.N,+3V3*%
X51200000Y-58500000D02*
X51000000Y-58500000D01*
X51000000Y-58500000D02*
X49600000Y-58500000D01*
X52500000Y-57200000D02*
X51200000Y-58500000D01*
X52500000Y-39600000D02*
X52500000Y-57200000D01*
X51400000Y-38500000D02*
X52500000Y-39600000D01*
D24*
%TO.N,I2C_SCL*%
X54600000Y-76300000D02*
X67760000Y-76300000D01*
X67760000Y-76300000D02*
X69000000Y-77540000D01*
X53800000Y-75500000D02*
X54600000Y-76300000D01*
%TO.N,I2C_SDA*%
X66400000Y-83900000D02*
X66730000Y-83570000D01*
X66730000Y-83570000D02*
X66730000Y-82350000D01*
X63400000Y-83900000D02*
X66400000Y-83900000D01*
X63000000Y-83500000D02*
X63400000Y-83900000D01*
X63000000Y-81000000D02*
X63000000Y-83500000D01*
D26*
%TO.N,GND*%
X62600489Y-78699511D02*
X70599511Y-78699511D01*
X70599511Y-78699511D02*
X71550000Y-79650000D01*
X61650000Y-79650000D02*
X62600489Y-78699511D01*
X71550000Y-79650000D02*
X74350000Y-79650000D01*
X61650000Y-82350000D02*
X61650000Y-79650000D01*
D25*
%TO.N,+3V3*%
X63000000Y-84600000D02*
X65125000Y-86725000D01*
X59110000Y-84010000D02*
X59700000Y-84600000D01*
X59110000Y-82350000D02*
X59110000Y-84010000D01*
X55500000Y-79700000D02*
X58150000Y-82350000D01*
X58150000Y-82350000D02*
X59110000Y-82350000D01*
%TO.N,GND*%
X19000000Y-80700000D02*
X31000000Y-80700000D01*
X16900000Y-94700000D02*
X15900000Y-94700000D01*
X15900000Y-94700000D02*
X15000000Y-93800000D01*
X18400000Y-94700000D02*
X16900000Y-94700000D01*
X21200000Y-97500000D02*
X18400000Y-94700000D01*
X24160000Y-100460000D02*
X21200000Y-97500000D01*
X26000000Y-100460000D02*
X24160000Y-100460000D01*
X30000000Y-103000000D02*
X32000000Y-103000000D01*
X27460000Y-100460000D02*
X30000000Y-103000000D01*
X26000000Y-100460000D02*
X27460000Y-100460000D01*
X32000000Y-103000000D02*
X38000000Y-103000000D01*
X38000000Y-103000000D02*
X43080000Y-103000000D01*
X43080000Y-103000000D02*
X48160000Y-103000000D01*
X53240000Y-103000000D02*
X48160000Y-103000000D01*
X55700000Y-103000000D02*
X53240000Y-103000000D01*
X58240000Y-100460000D02*
X55700000Y-103000000D01*
X60000000Y-100460000D02*
X58240000Y-100460000D01*
X60000000Y-100460000D02*
X66000000Y-100460000D01*
X66000000Y-100460000D02*
X72000000Y-100460000D01*
X76900000Y-103000000D02*
X74360000Y-100460000D01*
X74360000Y-100460000D02*
X72000000Y-100460000D01*
X78000000Y-103000000D02*
X76900000Y-103000000D01*
X80900000Y-100100000D02*
X78000000Y-103000000D01*
X80900000Y-90400000D02*
X80900000Y-100100000D01*
X74350000Y-82350000D02*
X74350000Y-83850000D01*
X74350000Y-83850000D02*
X80900000Y-90400000D01*
D24*
%TO.N,+3V3*%
X65125000Y-97045000D02*
X66000000Y-97920000D01*
X65125000Y-86725000D02*
X65125000Y-97045000D01*
%TO.N,I2C0_SDA*%
X75200000Y-92400000D02*
X74980000Y-92400000D01*
X74980000Y-92400000D02*
X72000000Y-95380000D01*
X71500000Y-75700000D02*
X71800000Y-75700000D01*
X68200000Y-72400000D02*
X71500000Y-75700000D01*
%TO.N,I2C0_SCL*%
X67100000Y-73000000D02*
X71700000Y-77600000D01*
X71700000Y-77600000D02*
X71800000Y-77600000D01*
%TO.N,SD_DET*%
X68480000Y-34400000D02*
X76890000Y-42810000D01*
X59884511Y-34015489D02*
X61215489Y-34015489D01*
X65100000Y-34400000D02*
X68480000Y-34400000D01*
X54084511Y-34015489D02*
X59884511Y-34015489D01*
X61215489Y-34015489D02*
X61600000Y-34400000D01*
D26*
%TO.N,GND*%
X63450000Y-32650000D02*
X63550000Y-32750000D01*
X59110000Y-32650000D02*
X63450000Y-32650000D01*
X63550000Y-32750000D02*
X63550000Y-45250000D01*
X63550000Y-19950000D02*
X63550000Y-32750000D01*
X63650000Y-45350000D02*
X63650000Y-58050000D01*
X63650000Y-58050000D02*
X72350000Y-58050000D01*
X62050000Y-58050000D02*
X63650000Y-58050000D01*
X63550000Y-45250000D02*
X63650000Y-45350000D01*
X63550000Y-19950000D02*
X76890000Y-19950000D01*
X62050000Y-19950000D02*
X63550000Y-19950000D01*
X62350000Y-45350000D02*
X63650000Y-45350000D01*
X63650000Y-45350000D02*
X76890000Y-45350000D01*
D24*
%TO.N,SD_DET*%
X46900000Y-41200000D02*
X54084511Y-34015489D01*
X43900000Y-48300000D02*
X46900000Y-45300000D01*
X37360000Y-54840000D02*
X43900000Y-48300000D01*
X46900000Y-45300000D02*
X46900000Y-41200000D01*
X33890000Y-54840000D02*
X37360000Y-54840000D01*
%TO.N,ACC_INT*%
X75700000Y-66000000D02*
X74300000Y-64600000D01*
X78100000Y-68900000D02*
X78100000Y-68400000D01*
X78100000Y-68400000D02*
X75700000Y-66000000D01*
X74300000Y-64600000D02*
X74300000Y-60200000D01*
X78100000Y-74000000D02*
X78100000Y-68900000D01*
X76890000Y-75210000D02*
X78100000Y-74000000D01*
X76890000Y-82350000D02*
X76890000Y-75210000D01*
D26*
%TO.N,GND*%
X72350000Y-69650000D02*
X72000000Y-70000000D01*
X72350000Y-58050000D02*
X72350000Y-69650000D01*
X72350000Y-58050000D02*
X73950000Y-58050000D01*
D25*
%TO.N,+5V*%
X28000000Y-20500000D02*
X28000000Y-18652651D01*
X27500000Y-24800000D02*
X27500000Y-21000000D01*
X26500000Y-25800000D02*
X27500000Y-24800000D01*
X27500000Y-21000000D02*
X28000000Y-20500000D01*
X26500000Y-28300000D02*
X26500000Y-25800000D01*
X28700000Y-26100000D02*
X32800000Y-26100000D01*
X26500000Y-28300000D02*
X28700000Y-26100000D01*
%TO.N,GND*%
X48400000Y-37700000D02*
X48400000Y-34000000D01*
X42000000Y-44100000D02*
X48400000Y-37700000D01*
X41000000Y-44100000D02*
X42000000Y-44100000D01*
%TO.N,Net-(L1-Pad1)*%
X31700000Y-37600000D02*
X33400000Y-35900000D01*
X18400000Y-37600000D02*
X31700000Y-37600000D01*
X15000000Y-41000000D02*
X18400000Y-37600000D01*
D24*
%TO.N,Net-(C3-Pad2)*%
X37700000Y-49000000D02*
X33800000Y-49000000D01*
X38600000Y-45700000D02*
X38600000Y-48100000D01*
X38600000Y-48100000D02*
X37700000Y-49000000D01*
D25*
%TO.N,Net-(L2-Pad1)*%
X31000000Y-45000000D02*
X17000000Y-45000000D01*
X35000000Y-41000000D02*
X31000000Y-45000000D01*
X17000000Y-45000000D02*
X15000000Y-47000000D01*
X36000000Y-41000000D02*
X35000000Y-41000000D01*
%TO.N,+3V3*%
X32000000Y-47000000D02*
X38000000Y-41000000D01*
X30240000Y-47000000D02*
X32000000Y-47000000D01*
D26*
%TO.N,GND*%
X74350000Y-79650000D02*
X74350000Y-82350000D01*
X74350000Y-74350000D02*
X74350000Y-79650000D01*
X72000000Y-72000000D02*
X74350000Y-74350000D01*
X72000000Y-70000000D02*
X72000000Y-72000000D01*
X73950000Y-58050000D02*
X76890000Y-58050000D01*
X60950000Y-58050000D02*
X62050000Y-58050000D01*
X59110000Y-58050000D02*
X60950000Y-58050000D01*
X59110000Y-45350000D02*
X62350000Y-45350000D01*
X62000000Y-20000000D02*
X62050000Y-19950000D01*
X61950000Y-19950000D02*
X59110000Y-19950000D01*
X62000000Y-20000000D02*
X61950000Y-19950000D01*
%TO.N,Net-(C1-Pad2)*%
X30650000Y-27350000D02*
X43650000Y-27350000D01*
X24000000Y-34000000D02*
X30650000Y-27350000D01*
D27*
%TO.N,GND*%
X51050000Y-19950000D02*
X59110000Y-19950000D01*
X49950000Y-21050000D02*
X51050000Y-19950000D01*
X43650000Y-21050000D02*
X49950000Y-21050000D01*
X37752651Y-15152651D02*
X43650000Y-21050000D01*
X28000000Y-15152651D02*
X37752651Y-15152651D01*
X26847349Y-15152651D02*
X28000000Y-15152651D01*
X18000000Y-24000000D02*
X26847349Y-15152651D01*
X18000000Y-26152651D02*
X18000000Y-24000000D01*
%TD*%
M02*
