%TF.GenerationSoftware,KiCad,Pcbnew,(6.0.5)*%
%TF.CreationDate,2022-08-06T13:25:36-04:00*%
%TF.ProjectId,RICM Greenpower Telemetry Module,5249434d-2047-4726-9565-6e706f776572,rev?*%
%TF.SameCoordinates,Original*%
%TF.FileFunction,Soldermask,Top*%
%TF.FilePolarity,Negative*%
%FSLAX46Y46*%
G04 Gerber Fmt 4.6, Leading zero omitted, Abs format (unit mm)*
G04 Created by KiCad (PCBNEW (6.0.5)) date 2022-08-06 13:25:36*
%MOMM*%
%LPD*%
G01*
G04 APERTURE LIST*
G04 Aperture macros list*
%AMRoundRect*
0 Rectangle with rounded corners*
0 $1 Rounding radius*
0 $2 $3 $4 $5 $6 $7 $8 $9 X,Y pos of 4 corners*
0 Add a 4 corners polygon primitive as box body*
4,1,4,$2,$3,$4,$5,$6,$7,$8,$9,$2,$3,0*
0 Add four circle primitives for the rounded corners*
1,1,$1+$1,$2,$3*
1,1,$1+$1,$4,$5*
1,1,$1+$1,$6,$7*
1,1,$1+$1,$8,$9*
0 Add four rect primitives between the rounded corners*
20,1,$1+$1,$2,$3,$4,$5,0*
20,1,$1+$1,$4,$5,$6,$7,0*
20,1,$1+$1,$6,$7,$8,$9,0*
20,1,$1+$1,$8,$9,$2,$3,0*%
G04 Aperture macros list end*
%ADD10R,1.700000X1.700000*%
%ADD11O,1.700000X1.700000*%
%ADD12C,1.600000*%
%ADD13O,1.600000X1.600000*%
%ADD14R,1.600000X1.600000*%
%ADD15R,2.000000X4.600000*%
%ADD16O,2.000000X4.200000*%
%ADD17O,4.200000X2.000000*%
%ADD18O,1.500000X1.500000*%
%ADD19O,1.800000X1.800000*%
%ADD20R,3.500000X1.700000*%
%ADD21R,1.700000X3.500000*%
%ADD22RoundRect,0.150000X0.150000X-0.800000X0.150000X0.800000X-0.150000X0.800000X-0.150000X-0.800000X0*%
%ADD23C,3.540000*%
%ADD24C,1.524000*%
%ADD25C,4.000000*%
%ADD26RoundRect,0.100000X-0.637500X-0.100000X0.637500X-0.100000X0.637500X0.100000X-0.637500X0.100000X0*%
G04 APERTURE END LIST*
D10*
%TO.C,J4*%
X16325000Y-85590000D03*
D11*
X18865000Y-85590000D03*
X21405000Y-85590000D03*
%TD*%
D12*
%TO.C,C1*%
X28500000Y-19500000D03*
X28500000Y-14500000D03*
%TD*%
%TO.C,R18*%
X25970000Y-99550000D03*
D13*
X33590000Y-99550000D03*
%TD*%
D12*
%TO.C,R19*%
X37400000Y-105900000D03*
D13*
X37400000Y-98280000D03*
%TD*%
D14*
%TO.C,C2*%
X18847349Y-17250000D03*
D12*
X22347349Y-17250000D03*
%TD*%
%TO.C,C8*%
X62000000Y-96500000D03*
X62000000Y-91500000D03*
%TD*%
%TO.C,R20*%
X37400000Y-118600000D03*
D13*
X37400000Y-110980000D03*
%TD*%
D12*
%TO.C,R7*%
X20636000Y-112250000D03*
D13*
X20636000Y-104630000D03*
%TD*%
D12*
%TO.C,C5*%
X50140000Y-103360000D03*
X55140000Y-103360000D03*
%TD*%
D10*
%TO.C,J5*%
X16325000Y-93210000D03*
D11*
X18865000Y-93210000D03*
X21405000Y-93210000D03*
%TD*%
D12*
%TO.C,C7*%
X62000000Y-99500000D03*
X62000000Y-104500000D03*
%TD*%
%TO.C,R4*%
X30290000Y-66510000D03*
D13*
X37910000Y-66510000D03*
%TD*%
D10*
%TO.C,J8*%
X15556000Y-119870000D03*
D11*
X15556000Y-117330000D03*
%TD*%
D15*
%TO.C,J1*%
X28510000Y-27780000D03*
D16*
X22210000Y-27780000D03*
D17*
X25610000Y-32580000D03*
%TD*%
D10*
%TO.C,J6*%
X20636000Y-119870000D03*
D11*
X20636000Y-117330000D03*
%TD*%
D12*
%TO.C,R12*%
X50735000Y-114790000D03*
D13*
X50735000Y-107170000D03*
%TD*%
D18*
%TO.C,U2*%
X53575000Y-22030000D03*
X58425000Y-22030000D03*
D19*
X53275000Y-19000000D03*
X58725000Y-19000000D03*
D20*
X46210000Y-18870000D03*
D11*
X47110000Y-18870000D03*
D20*
X46210000Y-21410000D03*
D11*
X47110000Y-21410000D03*
D20*
X46210000Y-23950000D03*
D10*
X47110000Y-23950000D03*
D20*
X46210000Y-26490000D03*
D11*
X47110000Y-26490000D03*
D20*
X46210000Y-29030000D03*
D11*
X47110000Y-29030000D03*
X47110000Y-31570000D03*
D20*
X46210000Y-31570000D03*
D11*
X47110000Y-34110000D03*
D20*
X46210000Y-34110000D03*
X46210000Y-36650000D03*
D10*
X47110000Y-36650000D03*
D20*
X46210000Y-39190000D03*
D11*
X47110000Y-39190000D03*
X47110000Y-41730000D03*
D20*
X46210000Y-41730000D03*
D11*
X47110000Y-44270000D03*
D20*
X46210000Y-44270000D03*
X46210000Y-46810000D03*
D11*
X47110000Y-46810000D03*
D10*
X47110000Y-49350000D03*
D20*
X46210000Y-49350000D03*
X46210000Y-51890000D03*
D11*
X47110000Y-51890000D03*
X47110000Y-54430000D03*
D20*
X46210000Y-54430000D03*
D11*
X47110000Y-56970000D03*
D20*
X46210000Y-56970000D03*
X46210000Y-59510000D03*
D11*
X47110000Y-59510000D03*
D10*
X47110000Y-62050000D03*
D20*
X46210000Y-62050000D03*
D11*
X47110000Y-64590000D03*
D20*
X46210000Y-64590000D03*
D11*
X47110000Y-67130000D03*
D20*
X46210000Y-67130000D03*
D11*
X64890000Y-67130000D03*
D20*
X65790000Y-67130000D03*
X65790000Y-64590000D03*
D11*
X64890000Y-64590000D03*
D20*
X65790000Y-62050000D03*
D10*
X64890000Y-62050000D03*
D20*
X65790000Y-59510000D03*
D11*
X64890000Y-59510000D03*
X64890000Y-56970000D03*
D20*
X65790000Y-56970000D03*
D11*
X64890000Y-54430000D03*
D20*
X65790000Y-54430000D03*
D11*
X64890000Y-51890000D03*
D20*
X65790000Y-51890000D03*
X65790000Y-49350000D03*
D10*
X64890000Y-49350000D03*
D20*
X65790000Y-46810000D03*
D11*
X64890000Y-46810000D03*
X64890000Y-44270000D03*
D20*
X65790000Y-44270000D03*
X65790000Y-41730000D03*
D11*
X64890000Y-41730000D03*
D20*
X65790000Y-39190000D03*
D11*
X64890000Y-39190000D03*
D20*
X65790000Y-36650000D03*
D10*
X64890000Y-36650000D03*
D11*
X64890000Y-34110000D03*
D20*
X65790000Y-34110000D03*
D11*
X64890000Y-31570000D03*
D20*
X65790000Y-31570000D03*
X65790000Y-29030000D03*
D11*
X64890000Y-29030000D03*
X64890000Y-26490000D03*
D20*
X65790000Y-26490000D03*
D10*
X64890000Y-23950000D03*
D20*
X65790000Y-23950000D03*
D11*
X64890000Y-21410000D03*
D20*
X65790000Y-21410000D03*
D11*
X64890000Y-18870000D03*
D20*
X65790000Y-18870000D03*
D21*
X53460000Y-67800000D03*
D11*
X53460000Y-66900000D03*
D21*
X56000000Y-67800000D03*
D10*
X56000000Y-66900000D03*
D11*
X58540000Y-66900000D03*
D21*
X58540000Y-67800000D03*
%TD*%
D12*
%TO.C,R3*%
X30290000Y-70320000D03*
D13*
X37910000Y-70320000D03*
%TD*%
D10*
%TO.C,J9*%
X68500000Y-104630000D03*
D11*
X68500000Y-102090000D03*
X68500000Y-99550000D03*
X68500000Y-97010000D03*
%TD*%
D22*
%TO.C,U1*%
X32595000Y-30000000D03*
X33865000Y-30000000D03*
X35135000Y-30000000D03*
X36405000Y-30000000D03*
X36405000Y-23000000D03*
X35135000Y-23000000D03*
X33865000Y-23000000D03*
X32595000Y-23000000D03*
%TD*%
D10*
%TO.C,J11*%
X69000000Y-116025000D03*
D11*
X69000000Y-113485000D03*
X69000000Y-110945000D03*
%TD*%
D12*
%TO.C,R11*%
X46925000Y-114790000D03*
D13*
X46925000Y-107170000D03*
%TD*%
D12*
%TO.C,R16*%
X30796000Y-112250000D03*
D13*
X30796000Y-104630000D03*
%TD*%
D10*
%TO.C,J3*%
X16330000Y-69055000D03*
D11*
X18870000Y-69055000D03*
X21410000Y-69055000D03*
X23950000Y-69055000D03*
X23950000Y-66515000D03*
X21410000Y-66515000D03*
X18870000Y-66515000D03*
X16330000Y-66515000D03*
%TD*%
D12*
%TO.C,L1*%
X40000000Y-22920000D03*
D13*
X40000000Y-33080000D03*
%TD*%
D12*
%TO.C,R13*%
X54545000Y-114790000D03*
D13*
X54545000Y-107170000D03*
%TD*%
D14*
%TO.C,C3*%
X33847349Y-17000000D03*
D12*
X37347349Y-17000000D03*
%TD*%
%TO.C,R6*%
X27240000Y-93210000D03*
D13*
X34860000Y-93210000D03*
%TD*%
D10*
%TO.C,J2*%
X16325000Y-77940000D03*
D11*
X18865000Y-77940000D03*
X21405000Y-77940000D03*
X23945000Y-77940000D03*
X26485000Y-77940000D03*
%TD*%
D12*
%TO.C,R5*%
X27240000Y-85590000D03*
D13*
X34860000Y-85590000D03*
%TD*%
D12*
%TO.C,R1*%
X30290000Y-77940000D03*
D13*
X37910000Y-77940000D03*
%TD*%
D12*
%TO.C,R9*%
X15556000Y-112250000D03*
D13*
X15556000Y-104630000D03*
%TD*%
D12*
%TO.C,R10*%
X43115000Y-114790000D03*
D13*
X43115000Y-107170000D03*
%TD*%
D23*
%TO.C,U4*%
X17080000Y-58910000D03*
X17080000Y-38590000D03*
D24*
X34860000Y-58910000D03*
X34860000Y-56370000D03*
X34860000Y-53830000D03*
X34860000Y-51290000D03*
X34860000Y-48750000D03*
X34860000Y-46210000D03*
X34860000Y-43670000D03*
X34860000Y-41130000D03*
X34860000Y-38590000D03*
%TD*%
D12*
%TO.C,R15*%
X40956000Y-121140000D03*
D13*
X48576000Y-121140000D03*
%TD*%
D12*
%TO.C,R2*%
X30290000Y-74130000D03*
D13*
X37910000Y-74130000D03*
%TD*%
D25*
%TO.C,U3*%
X47880000Y-76000000D03*
X63120000Y-76000000D03*
D24*
X46610000Y-87430000D03*
X49150000Y-87430000D03*
X51690000Y-87430000D03*
X54230000Y-87430000D03*
X56770000Y-87430000D03*
X59310000Y-87430000D03*
X61850000Y-87430000D03*
X64390000Y-87430000D03*
%TD*%
D12*
%TO.C,R14*%
X51624000Y-121140000D03*
D13*
X59244000Y-121140000D03*
%TD*%
D10*
%TO.C,J10*%
X30796000Y-119875000D03*
D11*
X30796000Y-117335000D03*
%TD*%
D12*
%TO.C,R8*%
X25716000Y-112250000D03*
D13*
X25716000Y-104630000D03*
%TD*%
D12*
%TO.C,R17*%
X22160000Y-99550000D03*
D13*
X14540000Y-99550000D03*
%TD*%
D10*
%TO.C,J7*%
X25716000Y-119870000D03*
D11*
X25716000Y-117330000D03*
%TD*%
D12*
%TO.C,C4*%
X41845000Y-98280000D03*
X46845000Y-98280000D03*
%TD*%
D26*
%TO.C,U5*%
X51047500Y-94481000D03*
X51047500Y-95131000D03*
X51047500Y-95781000D03*
X51047500Y-96431000D03*
X51047500Y-97081000D03*
X51047500Y-97731000D03*
X51047500Y-98381000D03*
X51047500Y-99031000D03*
X56772500Y-99031000D03*
X56772500Y-98381000D03*
X56772500Y-97731000D03*
X56772500Y-97081000D03*
X56772500Y-96431000D03*
X56772500Y-95781000D03*
X56772500Y-95131000D03*
X56772500Y-94481000D03*
%TD*%
D12*
%TO.C,C6*%
X41845000Y-103360000D03*
X46845000Y-103360000D03*
%TD*%
M02*
