%TF.GenerationSoftware,KiCad,Pcbnew,(6.0.5)*%
%TF.CreationDate,2022-08-14T01:36:17-04:00*%
%TF.ProjectId,RICM Greenpower Telemetry Module,5249434d-2047-4726-9565-6e706f776572,rev?*%
%TF.SameCoordinates,Original*%
%TF.FileFunction,Copper,L1,Top*%
%TF.FilePolarity,Positive*%
%FSLAX46Y46*%
G04 Gerber Fmt 4.6, Leading zero omitted, Abs format (unit mm)*
G04 Created by KiCad (PCBNEW (6.0.5)) date 2022-08-14 01:36:17*
%MOMM*%
%LPD*%
G01*
G04 APERTURE LIST*
G04 Aperture macros list*
%AMRoundRect*
0 Rectangle with rounded corners*
0 $1 Rounding radius*
0 $2 $3 $4 $5 $6 $7 $8 $9 X,Y pos of 4 corners*
0 Add a 4 corners polygon primitive as box body*
4,1,4,$2,$3,$4,$5,$6,$7,$8,$9,$2,$3,0*
0 Add four circle primitives for the rounded corners*
1,1,$1+$1,$2,$3*
1,1,$1+$1,$4,$5*
1,1,$1+$1,$6,$7*
1,1,$1+$1,$8,$9*
0 Add four rect primitives between the rounded corners*
20,1,$1+$1,$2,$3,$4,$5,0*
20,1,$1+$1,$4,$5,$6,$7,0*
20,1,$1+$1,$6,$7,$8,$9,0*
20,1,$1+$1,$8,$9,$2,$3,0*%
G04 Aperture macros list end*
%TA.AperFunction,SMDPad,CuDef*%
%ADD10RoundRect,0.250000X-0.312500X-0.625000X0.312500X-0.625000X0.312500X0.625000X-0.312500X0.625000X0*%
%TD*%
%TA.AperFunction,SMDPad,CuDef*%
%ADD11RoundRect,0.250000X0.312500X0.625000X-0.312500X0.625000X-0.312500X-0.625000X0.312500X-0.625000X0*%
%TD*%
%TA.AperFunction,SMDPad,CuDef*%
%ADD12RoundRect,0.250000X0.625000X-0.312500X0.625000X0.312500X-0.625000X0.312500X-0.625000X-0.312500X0*%
%TD*%
%TA.AperFunction,SMDPad,CuDef*%
%ADD13RoundRect,0.100000X-0.637500X-0.100000X0.637500X-0.100000X0.637500X0.100000X-0.637500X0.100000X0*%
%TD*%
%TA.AperFunction,SMDPad,CuDef*%
%ADD14RoundRect,0.250000X0.475000X-0.250000X0.475000X0.250000X-0.475000X0.250000X-0.475000X-0.250000X0*%
%TD*%
%TA.AperFunction,ComponentPad*%
%ADD15R,1.700000X1.700000*%
%TD*%
%TA.AperFunction,ComponentPad*%
%ADD16O,1.700000X1.700000*%
%TD*%
%TA.AperFunction,SMDPad,CuDef*%
%ADD17R,1.700000X3.500000*%
%TD*%
%TA.AperFunction,SMDPad,CuDef*%
%ADD18R,3.500000X1.700000*%
%TD*%
%TA.AperFunction,ComponentPad*%
%ADD19C,2.400000*%
%TD*%
%TA.AperFunction,ComponentPad*%
%ADD20O,2.400000X2.400000*%
%TD*%
%TA.AperFunction,SMDPad,CuDef*%
%ADD21RoundRect,0.250000X-0.250000X-0.475000X0.250000X-0.475000X0.250000X0.475000X-0.250000X0.475000X0*%
%TD*%
%TA.AperFunction,ComponentPad*%
%ADD22R,1.600000X1.600000*%
%TD*%
%TA.AperFunction,ComponentPad*%
%ADD23C,1.600000*%
%TD*%
%TA.AperFunction,SMDPad,CuDef*%
%ADD24RoundRect,0.150000X-0.800000X-0.150000X0.800000X-0.150000X0.800000X0.150000X-0.800000X0.150000X0*%
%TD*%
%TA.AperFunction,SMDPad,CuDef*%
%ADD25RoundRect,0.250000X0.250000X0.475000X-0.250000X0.475000X-0.250000X-0.475000X0.250000X-0.475000X0*%
%TD*%
%TA.AperFunction,SMDPad,CuDef*%
%ADD26RoundRect,0.150000X0.150000X-0.512500X0.150000X0.512500X-0.150000X0.512500X-0.150000X-0.512500X0*%
%TD*%
%TA.AperFunction,ComponentPad*%
%ADD27R,4.600000X2.000000*%
%TD*%
%TA.AperFunction,ComponentPad*%
%ADD28O,4.200000X2.000000*%
%TD*%
%TA.AperFunction,ComponentPad*%
%ADD29O,2.000000X4.200000*%
%TD*%
%TA.AperFunction,SMDPad,CuDef*%
%ADD30R,2.500000X1.800000*%
%TD*%
%TA.AperFunction,SMDPad,CuDef*%
%ADD31RoundRect,0.250000X-0.625000X0.312500X-0.625000X-0.312500X0.625000X-0.312500X0.625000X0.312500X0*%
%TD*%
%TA.AperFunction,ComponentPad*%
%ADD32C,4.000000*%
%TD*%
%TA.AperFunction,ComponentPad*%
%ADD33C,1.524000*%
%TD*%
%TA.AperFunction,ComponentPad*%
%ADD34C,3.540000*%
%TD*%
%TA.AperFunction,ViaPad*%
%ADD35C,0.800000*%
%TD*%
%TA.AperFunction,ViaPad*%
%ADD36C,6.000000*%
%TD*%
%TA.AperFunction,Conductor*%
%ADD37C,0.250000*%
%TD*%
%TA.AperFunction,Conductor*%
%ADD38C,0.500000*%
%TD*%
%TA.AperFunction,Conductor*%
%ADD39C,1.000000*%
%TD*%
G04 APERTURE END LIST*
D10*
%TO.P,R6,1*%
%TO.N,Net-(R6-Pad1)*%
X85000000Y-49000000D03*
%TO.P,R6,2*%
%TO.N,Net-(J3-Pad2)*%
X87925000Y-49000000D03*
%TD*%
%TO.P,R5,1*%
%TO.N,Net-(R5-Pad1)*%
X85000000Y-44000000D03*
%TO.P,R5,2*%
%TO.N,Net-(J3-Pad3)*%
X87925000Y-44000000D03*
%TD*%
%TO.P,R4,1*%
%TO.N,Net-(R4-Pad1)*%
X85000000Y-39000000D03*
%TO.P,R4,2*%
%TO.N,Net-(J3-Pad4)*%
X87925000Y-39000000D03*
%TD*%
%TO.P,R3,1*%
%TO.N,Net-(R3-Pad1)*%
X85000000Y-34000000D03*
%TO.P,R3,2*%
%TO.N,Net-(J3-Pad5)*%
X87925000Y-34000000D03*
%TD*%
D11*
%TO.P,R2,2*%
%TO.N,+3V3*%
X49537500Y-66000000D03*
%TO.P,R2,1*%
%TO.N,I2C0_SCL*%
X52462500Y-66000000D03*
%TD*%
%TO.P,R1,2*%
%TO.N,+3V3*%
X49537500Y-61000000D03*
%TO.P,R1,1*%
%TO.N,I2C0_SDA*%
X52462500Y-61000000D03*
%TD*%
D12*
%TO.P,R19,1*%
%TO.N,Net-(J9-Pad4)*%
X23000000Y-84862500D03*
%TO.P,R19,2*%
%TO.N,Net-(R19-Pad2)*%
X23000000Y-81937500D03*
%TD*%
%TO.P,R20,1*%
%TO.N,Net-(R19-Pad2)*%
X19000000Y-84862500D03*
%TO.P,R20,2*%
%TO.N,GND*%
X19000000Y-81937500D03*
%TD*%
D13*
%TO.P,U5,1,CH0*%
%TO.N,Net-(R24-Pad2)*%
X57137500Y-86725000D03*
%TO.P,U5,2,CH1*%
%TO.N,Net-(R26-Pad2)*%
X57137500Y-87375000D03*
%TO.P,U5,3,CH2*%
%TO.N,Net-(R17-Pad2)*%
X57137500Y-88025000D03*
%TO.P,U5,4,CH3*%
%TO.N,Net-(R19-Pad2)*%
X57137500Y-88675000D03*
%TO.P,U5,5,CH4*%
%TO.N,THERM_0*%
X57137500Y-89325000D03*
%TO.P,U5,6,CH5*%
%TO.N,THERM_1*%
X57137500Y-89975000D03*
%TO.P,U5,7,CH6*%
%TO.N,THERM_2*%
X57137500Y-90625000D03*
%TO.P,U5,8,CH7*%
%TO.N,THERM_3*%
X57137500Y-91275000D03*
%TO.P,U5,9,GND*%
%TO.N,GND*%
X62862500Y-91275000D03*
%TO.P,U5,10,REFin/REFout*%
%TO.N,Net-(C8-Pad1)*%
X62862500Y-90625000D03*
%TO.P,U5,11,COM*%
%TO.N,GND*%
X62862500Y-89975000D03*
%TO.P,U5,12,A0*%
X62862500Y-89325000D03*
%TO.P,U5,13,A1*%
X62862500Y-88675000D03*
%TO.P,U5,14,SCL*%
%TO.N,I2C_SCL*%
X62862500Y-88025000D03*
%TO.P,U5,15,SDA*%
%TO.N,I2C_SDA*%
X62862500Y-87375000D03*
%TO.P,U5,16,VDD*%
%TO.N,+3V3*%
X62862500Y-86725000D03*
%TD*%
D14*
%TO.P,C1,1*%
%TO.N,Net-(C1-Pad1)*%
X25000000Y-24950000D03*
%TO.P,C1,2*%
%TO.N,Net-(C1-Pad2)*%
X25000000Y-23050000D03*
%TD*%
D12*
%TO.P,R13,1*%
%TO.N,THERM_0*%
X43000000Y-84862500D03*
%TO.P,R13,2*%
%TO.N,+3V3*%
X43000000Y-81937500D03*
%TD*%
%TO.P,R9,1*%
%TO.N,+3V3*%
X47000000Y-84862500D03*
%TO.P,R9,2*%
%TO.N,SPD_0*%
X47000000Y-81937500D03*
%TD*%
%TO.P,R18,1*%
%TO.N,Net-(R17-Pad2)*%
X19000000Y-91462500D03*
%TO.P,R18,2*%
%TO.N,GND*%
X19000000Y-88537500D03*
%TD*%
D15*
%TO.P,J10,1,Pin_1*%
%TO.N,GND*%
X38000000Y-103000000D03*
D16*
%TO.P,J10,2,Pin_2*%
%TO.N,Net-(J10-Pad2)*%
X38000000Y-100460000D03*
%TD*%
D15*
%TO.P,J5,1,Pin_1*%
%TO.N,SPD_1*%
X60000000Y-103000000D03*
D16*
%TO.P,J5,2,Pin_2*%
%TO.N,GND*%
X60000000Y-100460000D03*
%TO.P,J5,3,Pin_3*%
%TO.N,+3V3*%
X60000000Y-97920000D03*
%TD*%
D17*
%TO.P,U3,43,SWDIO*%
%TO.N,unconnected-(U3-Pad43)*%
X70540000Y-63800000D03*
D16*
X70540000Y-62900000D03*
D15*
%TO.P,U3,42,GND*%
%TO.N,unconnected-(U3-Pad42)*%
X68000000Y-62900000D03*
D17*
X68000000Y-63800000D03*
%TO.P,U3,41,SWCLK*%
%TO.N,unconnected-(U3-Pad41)*%
X65460000Y-63800000D03*
D16*
X65460000Y-62900000D03*
D18*
%TO.P,U3,40,VBUS*%
%TO.N,unconnected-(U3-Pad40)*%
X77790000Y-14870000D03*
D16*
X76890000Y-14870000D03*
%TO.P,U3,39,VSYS*%
%TO.N,+5V*%
X76890000Y-17410000D03*
D18*
X77790000Y-17410000D03*
%TO.P,U3,38,GND*%
%TO.N,GND*%
X77790000Y-19950000D03*
D15*
X76890000Y-19950000D03*
D16*
%TO.P,U3,37,3V3_EN*%
%TO.N,unconnected-(U3-Pad37)*%
X76890000Y-22490000D03*
D18*
X77790000Y-22490000D03*
D16*
%TO.P,U3,36,3V3*%
%TO.N,unconnected-(U3-Pad36)*%
X76890000Y-25030000D03*
D18*
X77790000Y-25030000D03*
D16*
%TO.P,U3,35,ADC_VREF*%
%TO.N,unconnected-(U3-Pad35)*%
X76890000Y-27570000D03*
D18*
X77790000Y-27570000D03*
D16*
%TO.P,U3,34,GPIO28_ADC2*%
%TO.N,unconnected-(U3-Pad34)*%
X76890000Y-30110000D03*
D18*
X77790000Y-30110000D03*
D15*
%TO.P,U3,33,AGND*%
%TO.N,unconnected-(U3-Pad33)*%
X76890000Y-32650000D03*
D18*
X77790000Y-32650000D03*
%TO.P,U3,32,GPIO27_ADC1*%
%TO.N,unconnected-(U3-Pad32)*%
X77790000Y-35190000D03*
D16*
X76890000Y-35190000D03*
%TO.P,U3,31,GPIO26_ADC0*%
%TO.N,unconnected-(U3-Pad31)*%
X76890000Y-37730000D03*
D18*
X77790000Y-37730000D03*
D16*
%TO.P,U3,30,RUN*%
%TO.N,unconnected-(U3-Pad30)*%
X76890000Y-40270000D03*
D18*
X77790000Y-40270000D03*
%TO.P,U3,29,GPIO22*%
%TO.N,SD_DET*%
X77790000Y-42810000D03*
D16*
X76890000Y-42810000D03*
D18*
%TO.P,U3,28,GND*%
%TO.N,GND*%
X77790000Y-45350000D03*
D15*
X76890000Y-45350000D03*
D16*
%TO.P,U3,27,GPIO21*%
%TO.N,ACC_INT*%
X76890000Y-47890000D03*
D18*
X77790000Y-47890000D03*
D16*
%TO.P,U3,26,GPIO20*%
%TO.N,SPD_0*%
X76890000Y-50430000D03*
D18*
X77790000Y-50430000D03*
%TO.P,U3,25,GPIO19*%
%TO.N,SPD_1*%
X77790000Y-52970000D03*
D16*
X76890000Y-52970000D03*
%TO.P,U3,24,GPIO18*%
%TO.N,unconnected-(U3-Pad24)*%
X76890000Y-55510000D03*
D18*
X77790000Y-55510000D03*
D15*
%TO.P,U3,23,GND*%
%TO.N,GND*%
X76890000Y-58050000D03*
D18*
X77790000Y-58050000D03*
%TO.P,U3,22,GPIO17*%
%TO.N,I2C_SCL*%
X77790000Y-60590000D03*
D16*
X76890000Y-60590000D03*
D18*
%TO.P,U3,21,GPIO16*%
%TO.N,I2C_SDA*%
X77790000Y-63130000D03*
D16*
X76890000Y-63130000D03*
%TO.P,U3,20,GPIO15*%
%TO.N,I2C0_SCL*%
X59110000Y-63130000D03*
D18*
X58210000Y-63130000D03*
D16*
%TO.P,U3,19,GPIO14*%
%TO.N,I2C0_SDA*%
X59110000Y-60590000D03*
D18*
X58210000Y-60590000D03*
%TO.P,U3,18,GND*%
%TO.N,GND*%
X58210000Y-58050000D03*
D15*
X59110000Y-58050000D03*
D16*
%TO.P,U3,17,GPIO13*%
%TO.N,SD_CS*%
X59110000Y-55510000D03*
D18*
X58210000Y-55510000D03*
D16*
%TO.P,U3,16,GPIO12*%
%TO.N,SPI_RX*%
X59110000Y-52970000D03*
D18*
X58210000Y-52970000D03*
D16*
%TO.P,U3,15,GPIO11*%
%TO.N,SPI_TX*%
X59110000Y-50430000D03*
D18*
X58210000Y-50430000D03*
D16*
%TO.P,U3,14,GPIO10*%
%TO.N,SPI_SCK*%
X59110000Y-47890000D03*
D18*
X58210000Y-47890000D03*
D15*
%TO.P,U3,13,GND*%
%TO.N,GND*%
X59110000Y-45350000D03*
D18*
X58210000Y-45350000D03*
D16*
%TO.P,U3,12,GPIO9*%
%TO.N,Net-(R6-Pad1)*%
X59110000Y-42810000D03*
D18*
X58210000Y-42810000D03*
%TO.P,U3,11,GPIO8*%
%TO.N,Net-(R5-Pad1)*%
X58210000Y-40270000D03*
D16*
X59110000Y-40270000D03*
%TO.P,U3,10,GPIO7*%
%TO.N,Net-(R4-Pad1)*%
X59110000Y-37730000D03*
D18*
X58210000Y-37730000D03*
D16*
%TO.P,U3,9,GPIO6*%
%TO.N,Net-(R3-Pad1)*%
X59110000Y-35190000D03*
D18*
X58210000Y-35190000D03*
%TO.P,U3,8,GND*%
%TO.N,GND*%
X58210000Y-32650000D03*
D15*
X59110000Y-32650000D03*
D16*
%TO.P,U3,7,GPIO5*%
%TO.N,unconnected-(U3-Pad7)*%
X59110000Y-30110000D03*
D18*
X58210000Y-30110000D03*
%TO.P,U3,6,GPIO4*%
%TO.N,unconnected-(U3-Pad6)*%
X58210000Y-27570000D03*
D16*
X59110000Y-27570000D03*
%TO.P,U3,5,GPIO3*%
%TO.N,unconnected-(U3-Pad5)*%
X59110000Y-25030000D03*
D18*
X58210000Y-25030000D03*
%TO.P,U3,4,GPIO2*%
%TO.N,unconnected-(U3-Pad4)*%
X58210000Y-22490000D03*
D16*
X59110000Y-22490000D03*
D18*
%TO.P,U3,3,GND*%
%TO.N,GND*%
X58210000Y-19950000D03*
D15*
X59110000Y-19950000D03*
D16*
%TO.P,U3,2,GPIO1*%
%TO.N,unconnected-(U3-Pad2)*%
X59110000Y-17410000D03*
D18*
X58210000Y-17410000D03*
%TO.P,U3,1,GPIO0*%
%TO.N,unconnected-(U3-Pad1)*%
X58210000Y-14870000D03*
D16*
X59110000Y-14870000D03*
%TD*%
D19*
%TO.P,L1,1,1*%
%TO.N,Net-(L1-Pad1)*%
X15000000Y-41000000D03*
D20*
%TO.P,L1,2,2*%
%TO.N,+5V*%
X30240000Y-41000000D03*
%TD*%
D21*
%TO.P,C9,1*%
%TO.N,+3V3*%
X67050000Y-87000000D03*
%TO.P,C9,2*%
%TO.N,GND*%
X68950000Y-87000000D03*
%TD*%
D15*
%TO.P,J9,1,Pin_1*%
%TO.N,+5V*%
X26000000Y-103000000D03*
D16*
%TO.P,J9,2,Pin_2*%
%TO.N,GND*%
X26000000Y-100460000D03*
%TO.P,J9,3,Pin_3*%
%TO.N,Net-(J9-Pad3)*%
X26000000Y-97920000D03*
%TO.P,J9,4,Pin_4*%
%TO.N,Net-(J9-Pad4)*%
X26000000Y-95380000D03*
%TD*%
D12*
%TO.P,R17,1*%
%TO.N,Net-(J9-Pad3)*%
X15000000Y-84862500D03*
%TO.P,R17,2*%
%TO.N,Net-(R17-Pad2)*%
X15000000Y-81937500D03*
%TD*%
D19*
%TO.P,L2,1,1*%
%TO.N,Net-(L2-Pad1)*%
X15000000Y-47000000D03*
D20*
%TO.P,L2,2,2*%
%TO.N,+3V3*%
X30240000Y-47000000D03*
%TD*%
D12*
%TO.P,R25,1*%
%TO.N,Net-(R24-Pad2)*%
X31000000Y-84862500D03*
%TO.P,R25,2*%
%TO.N,GND*%
X31000000Y-81937500D03*
%TD*%
D15*
%TO.P,J4,1,Pin_1*%
%TO.N,SPD_0*%
X66000000Y-103000000D03*
D16*
%TO.P,J4,2,Pin_2*%
%TO.N,GND*%
X66000000Y-100460000D03*
%TO.P,J4,3,Pin_3*%
%TO.N,+3V3*%
X66000000Y-97920000D03*
%TD*%
D15*
%TO.P,J8,1,Pin_1*%
%TO.N,GND*%
X53240000Y-103000000D03*
D16*
%TO.P,J8,2,Pin_2*%
%TO.N,THERM_0*%
X53240000Y-100460000D03*
%TD*%
D12*
%TO.P,R15,1*%
%TO.N,GND*%
X15000000Y-91462500D03*
%TO.P,R15,2*%
%TO.N,Net-(J9-Pad3)*%
X15000000Y-88537500D03*
%TD*%
D15*
%TO.P,J3,1,Pin_1*%
%TO.N,GND*%
X78000000Y-103000000D03*
D16*
%TO.P,J3,2,Pin_2*%
%TO.N,Net-(J3-Pad2)*%
X78000000Y-100460000D03*
%TO.P,J3,3,Pin_3*%
%TO.N,Net-(J3-Pad3)*%
X78000000Y-97920000D03*
%TO.P,J3,4,Pin_4*%
%TO.N,Net-(J3-Pad4)*%
X78000000Y-95380000D03*
%TO.P,J3,5,Pin_5*%
%TO.N,Net-(J3-Pad5)*%
X78000000Y-92840000D03*
%TD*%
D22*
%TO.P,C2,1*%
%TO.N,Net-(C1-Pad2)*%
X18000000Y-29652651D03*
D23*
%TO.P,C2,2*%
%TO.N,GND*%
X18000000Y-26152651D03*
%TD*%
D12*
%TO.P,R26,1*%
%TO.N,Net-(J11-Pad3)*%
X31000000Y-91462500D03*
%TO.P,R26,2*%
%TO.N,Net-(R26-Pad2)*%
X31000000Y-88537500D03*
%TD*%
%TO.P,R11,1*%
%TO.N,THERM_1*%
X47000000Y-91462500D03*
%TO.P,R11,2*%
%TO.N,+3V3*%
X47000000Y-88537500D03*
%TD*%
D15*
%TO.P,J6,1,Pin_1*%
%TO.N,GND*%
X48160000Y-103000000D03*
D16*
%TO.P,J6,2,Pin_2*%
%TO.N,THERM_1*%
X48160000Y-100460000D03*
%TD*%
D12*
%TO.P,R12,1*%
%TO.N,THERM_2*%
X43000000Y-91462500D03*
%TO.P,R12,2*%
%TO.N,+3V3*%
X43000000Y-88537500D03*
%TD*%
D15*
%TO.P,J11,1,Pin_1*%
%TO.N,GND*%
X32000000Y-103000000D03*
D16*
%TO.P,J11,2,Pin_2*%
%TO.N,Net-(J11-Pad2)*%
X32000000Y-100460000D03*
%TO.P,J11,3,Pin_3*%
%TO.N,Net-(J11-Pad3)*%
X32000000Y-97920000D03*
%TD*%
D14*
%TO.P,C5,1*%
%TO.N,+5V*%
X33000000Y-24950000D03*
%TO.P,C5,2*%
%TO.N,GND*%
X33000000Y-23050000D03*
%TD*%
%TO.P,C4,1*%
%TO.N,Net-(C1-Pad2)*%
X29000000Y-24950000D03*
%TO.P,C4,2*%
%TO.N,GND*%
X29000000Y-23050000D03*
%TD*%
D12*
%TO.P,R10,1*%
%TO.N,+3V3*%
X51000000Y-91462500D03*
%TO.P,R10,2*%
%TO.N,SPD_1*%
X51000000Y-88537500D03*
%TD*%
D15*
%TO.P,J2,1,Pin_1*%
%TO.N,+3V3*%
X72000000Y-103000000D03*
D16*
%TO.P,J2,2,Pin_2*%
%TO.N,GND*%
X72000000Y-100460000D03*
%TO.P,J2,3,Pin_3*%
%TO.N,I2C0_SCL*%
X72000000Y-97920000D03*
%TO.P,J2,4,Pin_4*%
%TO.N,I2C0_SDA*%
X72000000Y-95380000D03*
%TD*%
D24*
%TO.P,U1,1,FB*%
%TO.N,+5V*%
X26500000Y-30095000D03*
%TO.P,U1,2,NC*%
%TO.N,unconnected-(U1-Pad2)*%
X26500000Y-31365000D03*
%TO.P,U1,3,VC*%
%TO.N,Net-(C1-Pad1)*%
X26500000Y-32635000D03*
%TO.P,U1,4,VIN*%
%TO.N,Net-(C1-Pad2)*%
X26500000Y-33905000D03*
%TO.P,U1,5,SW*%
%TO.N,Net-(L1-Pad1)*%
X33500000Y-33905000D03*
%TO.P,U1,6,SW*%
X33500000Y-32635000D03*
%TO.P,U1,7,GND*%
%TO.N,GND*%
X33500000Y-31365000D03*
%TO.P,U1,8,GND*%
X33500000Y-30095000D03*
%TD*%
D25*
%TO.P,C3,1*%
%TO.N,+5V*%
X36950000Y-49000000D03*
%TO.P,C3,2*%
%TO.N,Net-(C3-Pad2)*%
X35050000Y-49000000D03*
%TD*%
D26*
%TO.P,U2,1,VIN*%
%TO.N,+5V*%
X35050000Y-45137500D03*
%TO.P,U2,2,GND*%
%TO.N,GND*%
X36000000Y-45137500D03*
%TO.P,U2,3,EN*%
%TO.N,Net-(C3-Pad2)*%
X36950000Y-45137500D03*
%TO.P,U2,4,SW*%
%TO.N,Net-(L2-Pad1)*%
X36950000Y-42862500D03*
%TO.P,U2,5,FB*%
%TO.N,Net-(R7-Pad2)*%
X35050000Y-42862500D03*
%TD*%
D27*
%TO.P,J1,1*%
%TO.N,Net-(C1-Pad2)*%
X43650000Y-27350000D03*
D28*
%TO.P,J1,2*%
%TO.N,GND*%
X43650000Y-21050000D03*
D29*
%TO.P,J1,3*%
%TO.N,N/C*%
X38850000Y-24450000D03*
%TD*%
D30*
%TO.P,D1,1,K*%
%TO.N,Net-(L1-Pad1)*%
X42000000Y-34000000D03*
%TO.P,D1,2,A*%
%TO.N,GND*%
X46000000Y-34000000D03*
%TD*%
D31*
%TO.P,R8,1*%
%TO.N,GND*%
X41000000Y-45537500D03*
%TO.P,R8,2*%
%TO.N,Net-(R7-Pad2)*%
X41000000Y-48462500D03*
%TD*%
D12*
%TO.P,R27,1*%
%TO.N,Net-(R26-Pad2)*%
X35000000Y-91462500D03*
%TO.P,R27,2*%
%TO.N,GND*%
X35000000Y-88537500D03*
%TD*%
D32*
%TO.P,U6,*%
%TO.N,*%
X60380000Y-70920000D03*
X75620000Y-70920000D03*
D33*
%TO.P,U6,1,VCC*%
%TO.N,+3V3*%
X59110000Y-82350000D03*
%TO.P,U6,2,GND*%
%TO.N,GND*%
X61650000Y-82350000D03*
%TO.P,U6,3,SCL*%
%TO.N,I2C_SCL*%
X64190000Y-82350000D03*
%TO.P,U6,4,SDA*%
%TO.N,I2C_SDA*%
X66730000Y-82350000D03*
%TO.P,U6,5,XDA*%
%TO.N,unconnected-(U6-Pad5)*%
X69270000Y-82350000D03*
%TO.P,U6,6,XCL*%
%TO.N,unconnected-(U6-Pad6)*%
X71810000Y-82350000D03*
%TO.P,U6,7,ADO*%
%TO.N,GND*%
X74350000Y-82350000D03*
%TO.P,U6,8,INT*%
%TO.N,ACC_INT*%
X76890000Y-82350000D03*
%TD*%
D10*
%TO.P,R16,1*%
%TO.N,I2C_SCL*%
X52537500Y-73000000D03*
%TO.P,R16,2*%
%TO.N,+3V3*%
X55462500Y-73000000D03*
%TD*%
D34*
%TO.P,U4,*%
%TO.N,*%
X16110000Y-54840000D03*
X16110000Y-75160000D03*
D33*
%TO.P,U4,1,3v*%
%TO.N,+3V3*%
X33890000Y-75160000D03*
%TO.P,U4,2,GND*%
%TO.N,GND*%
X33890000Y-72620000D03*
%TO.P,U4,3,CLK*%
%TO.N,SPI_SCK*%
X33890000Y-70080000D03*
%TO.P,U4,4,SO/D0*%
%TO.N,SPI_RX*%
X33890000Y-67540000D03*
%TO.P,U4,5,SI/CMD*%
%TO.N,SPI_TX*%
X33890000Y-65000000D03*
%TO.P,U4,6,CS/D3*%
%TO.N,SD_CS*%
X33890000Y-62460000D03*
%TO.P,U4,7,D1*%
%TO.N,unconnected-(U4-Pad7)*%
X33890000Y-59920000D03*
%TO.P,U4,8,D2*%
%TO.N,unconnected-(U4-Pad8)*%
X33890000Y-57380000D03*
%TO.P,U4,9,DET*%
%TO.N,SD_DET*%
X33890000Y-54840000D03*
%TD*%
D15*
%TO.P,J7,1,Pin_1*%
%TO.N,GND*%
X43080000Y-103000000D03*
D16*
%TO.P,J7,2,Pin_2*%
%TO.N,THERM_2*%
X43080000Y-100460000D03*
%TD*%
D12*
%TO.P,R24,1*%
%TO.N,Net-(J11-Pad2)*%
X27000000Y-84862500D03*
%TO.P,R24,2*%
%TO.N,Net-(R24-Pad2)*%
X27000000Y-81937500D03*
%TD*%
%TO.P,R23,1*%
%TO.N,Net-(J10-Pad2)*%
X39000000Y-91462500D03*
%TO.P,R23,2*%
%TO.N,+3V3*%
X39000000Y-88537500D03*
%TD*%
D10*
%TO.P,R14,1*%
%TO.N,I2C_SDA*%
X52537500Y-78000000D03*
%TO.P,R14,2*%
%TO.N,+3V3*%
X55462500Y-78000000D03*
%TD*%
D25*
%TO.P,C6,1*%
%TO.N,+3V3*%
X36950000Y-39000000D03*
%TO.P,C6,2*%
%TO.N,GND*%
X35050000Y-39000000D03*
%TD*%
D22*
%TO.P,C7,1*%
%TO.N,+5V*%
X28000000Y-18652651D03*
D23*
%TO.P,C7,2*%
%TO.N,GND*%
X28000000Y-15152651D03*
%TD*%
D21*
%TO.P,C8,1*%
%TO.N,Net-(C8-Pad1)*%
X67050000Y-91000000D03*
%TO.P,C8,2*%
%TO.N,GND*%
X68950000Y-91000000D03*
%TD*%
D12*
%TO.P,R21,1*%
%TO.N,Net-(J10-Pad2)*%
X39000000Y-84862500D03*
%TO.P,R21,2*%
%TO.N,THERM_3*%
X39000000Y-81937500D03*
%TD*%
%TO.P,R22,1*%
%TO.N,GND*%
X35000000Y-84862500D03*
%TO.P,R22,2*%
%TO.N,THERM_3*%
X35000000Y-81937500D03*
%TD*%
D31*
%TO.P,R7,1*%
%TO.N,+3V3*%
X41000000Y-39537500D03*
%TO.P,R7,2*%
%TO.N,Net-(R7-Pad2)*%
X41000000Y-42462500D03*
%TD*%
D35*
%TO.N,+5V*%
X21600000Y-51500000D03*
%TO.N,Net-(J3-Pad4)*%
X86500000Y-39000000D03*
X83100000Y-52000000D03*
%TO.N,Net-(J3-Pad5)*%
X86500000Y-34000000D03*
X82000000Y-50000000D03*
%TO.N,Net-(R24-Pad2)*%
X45800000Y-86400000D03*
X31000000Y-83400000D03*
%TO.N,Net-(R26-Pad2)*%
X59600000Y-93100000D03*
X52200000Y-93700000D03*
X54700000Y-93700000D03*
X35000000Y-90000000D03*
%TO.N,Net-(R19-Pad2)*%
X58600000Y-88700000D03*
X49500000Y-81000000D03*
%TO.N,Net-(R17-Pad2)*%
X47300000Y-87200000D03*
%TO.N,THERM_3*%
X39000000Y-83500000D03*
X49200000Y-88000000D03*
%TO.N,THERM_2*%
X53900000Y-88900000D03*
X43000000Y-90400000D03*
%TO.N,THERM_1*%
X55200000Y-90000000D03*
X48160000Y-92622500D03*
%TO.N,SPD_1*%
X51000000Y-90100000D03*
X57500000Y-97600000D03*
%TO.N,THERM_0*%
X54400000Y-87700000D03*
X43000000Y-83400000D03*
%TO.N,Net-(R17-Pad2)*%
X19000000Y-90000000D03*
X15000000Y-83400000D03*
%TO.N,Net-(J9-Pad3)*%
X15000000Y-89900000D03*
%TO.N,SPD_1*%
X74400000Y-51600000D03*
X65500000Y-59600000D03*
X51000000Y-86900000D03*
%TO.N,SPD_0*%
X65500000Y-60900000D03*
X47000000Y-80600000D03*
%TO.N,+3V3*%
X43000000Y-80300000D03*
%TO.N,SPI_SCK*%
X50700000Y-52100000D03*
X54100000Y-48800000D03*
%TO.N,SPI_RX*%
X50700000Y-57100000D03*
%TO.N,SPI_TX*%
X48500000Y-57800000D03*
%TO.N,+3V3*%
X49600000Y-58500000D03*
X51400000Y-38500000D03*
%TO.N,I2C_SCL*%
X53800000Y-75500000D03*
X69000000Y-77540000D03*
%TO.N,I2C_SDA*%
X63000000Y-81000000D03*
%TO.N,+3V3*%
X52900000Y-91500000D03*
X55500000Y-79700000D03*
%TO.N,GND*%
X31000000Y-80700000D03*
X19000000Y-80700000D03*
X15000000Y-93800000D03*
%TO.N,+3V3*%
X65125000Y-86725000D03*
%TO.N,I2C0_SDA*%
X75200000Y-92400000D03*
X68200000Y-72400000D03*
X71800000Y-75700000D03*
%TO.N,I2C0_SCL*%
X71800000Y-77600000D03*
X67100000Y-73000000D03*
%TO.N,SD_DET*%
X65100000Y-34400000D03*
X61600000Y-34400000D03*
%TO.N,ACC_INT*%
X74300000Y-56900000D03*
X74300000Y-60200000D03*
%TO.N,+5V*%
X32800000Y-26100000D03*
X26500000Y-28300000D03*
%TO.N,GND*%
X48400000Y-34000000D03*
X41000000Y-44100000D03*
%TO.N,Net-(L1-Pad1)*%
X33400000Y-35900000D03*
%TO.N,Net-(C3-Pad2)*%
X33800000Y-49000000D03*
X38600000Y-45700000D03*
%TO.N,Net-(L2-Pad1)*%
X36000000Y-41000000D03*
%TO.N,+3V3*%
X38000000Y-41000000D03*
%TO.N,Net-(C1-Pad2)*%
X24000000Y-34000000D03*
D36*
%TO.N,*%
X86000000Y-18000000D03*
X86000000Y-101000000D03*
X18000000Y-18000000D03*
X18000000Y-101000000D03*
%TD*%
D37*
%TO.N,Net-(J10-Pad2)*%
X37200000Y-86662500D02*
X39000000Y-84862500D01*
X38462500Y-91462500D02*
X37200000Y-90200000D01*
X37200000Y-90200000D02*
X37200000Y-86662500D01*
X39000000Y-91462500D02*
X38462500Y-91462500D01*
D38*
%TO.N,+5V*%
X30240000Y-42860000D02*
X30240000Y-41000000D01*
X21600000Y-51500000D02*
X30240000Y-42860000D01*
D37*
%TO.N,Net-(J3-Pad2)*%
X87530000Y-49395000D02*
X87530000Y-90930000D01*
X78000000Y-100460000D02*
X87530000Y-90930000D01*
X87925000Y-49000000D02*
X87530000Y-49395000D01*
%TO.N,Net-(J3-Pad3)*%
X86500000Y-45425000D02*
X87925000Y-44000000D01*
X78000000Y-97920000D02*
X86500000Y-89420000D01*
X86500000Y-89420000D02*
X86500000Y-45425000D01*
%TO.N,Net-(J3-Pad4)*%
X86500000Y-39000000D02*
X87925000Y-39000000D01*
X83000000Y-52100000D02*
X83100000Y-52000000D01*
X83000000Y-84300000D02*
X83000000Y-52100000D01*
X83000000Y-90380000D02*
X83000000Y-84300000D01*
X78000000Y-95380000D02*
X83000000Y-90380000D01*
%TO.N,Net-(J3-Pad5)*%
X86500000Y-34000000D02*
X87925000Y-34000000D01*
X82000000Y-88840000D02*
X82000000Y-50000000D01*
X78000000Y-92840000D02*
X82000000Y-88840000D01*
%TO.N,Net-(R6-Pad1)*%
X79984511Y-43984511D02*
X85000000Y-49000000D01*
X60284511Y-43984511D02*
X79984511Y-43984511D01*
X59110000Y-42810000D02*
X60284511Y-43984511D01*
%TO.N,Net-(R5-Pad1)*%
X82635489Y-41635489D02*
X85000000Y-44000000D01*
X60475489Y-41635489D02*
X82635489Y-41635489D01*
X59110000Y-40270000D02*
X60475489Y-41635489D01*
%TO.N,Net-(R4-Pad1)*%
X60380000Y-39000000D02*
X85000000Y-39000000D01*
X59110000Y-37730000D02*
X60380000Y-39000000D01*
%TO.N,Net-(R3-Pad1)*%
X82635489Y-36364511D02*
X85000000Y-34000000D01*
X61364511Y-36364511D02*
X82635489Y-36364511D01*
X59110000Y-35190000D02*
X60190000Y-35190000D01*
X60190000Y-35190000D02*
X61364511Y-36364511D01*
%TO.N,Net-(R24-Pad2)*%
X50100000Y-85100000D02*
X55512500Y-85100000D01*
X48800000Y-86400000D02*
X50100000Y-85100000D01*
X45800000Y-86400000D02*
X48800000Y-86400000D01*
X55512500Y-85100000D02*
X57137500Y-86725000D01*
%TO.N,Net-(R17-Pad2)*%
X48800000Y-87200000D02*
X50400000Y-85600000D01*
X47300000Y-87200000D02*
X48800000Y-87200000D01*
X50400000Y-85600000D02*
X53400000Y-85600000D01*
D38*
%TO.N,+3V3*%
X45637500Y-84862500D02*
X47000000Y-84862500D01*
X44700000Y-85800000D02*
X45637500Y-84862500D01*
X44700000Y-87700000D02*
X44700000Y-85800000D01*
X45537500Y-88537500D02*
X44700000Y-87700000D01*
X47000000Y-88537500D02*
X45537500Y-88537500D01*
D37*
%TO.N,Net-(R17-Pad2)*%
X53400000Y-85600000D02*
X55825000Y-88025000D01*
X55825000Y-88025000D02*
X57137500Y-88025000D01*
%TO.N,THERM_3*%
X54175000Y-91275000D02*
X57137500Y-91275000D01*
X52600000Y-89700000D02*
X54175000Y-91275000D01*
X52600000Y-86500000D02*
X52600000Y-89700000D01*
X50699897Y-86175489D02*
X52275489Y-86175489D01*
X49200000Y-87675386D02*
X50699897Y-86175489D01*
X49200000Y-88000000D02*
X49200000Y-87675386D01*
X52275489Y-86175489D02*
X52600000Y-86500000D01*
%TO.N,Net-(R24-Pad2)*%
X31000000Y-84862500D02*
X31000000Y-83400000D01*
%TO.N,THERM_3*%
X35000000Y-81937500D02*
X39000000Y-81937500D01*
%TO.N,Net-(R26-Pad2)*%
X59275000Y-87375000D02*
X57137500Y-87375000D01*
X59600000Y-87700000D02*
X59275000Y-87375000D01*
X59600000Y-93100000D02*
X59600000Y-87700000D01*
X52200000Y-93700000D02*
X54700000Y-93700000D01*
X35000000Y-91462500D02*
X35000000Y-90000000D01*
%TO.N,Net-(R19-Pad2)*%
X57162500Y-88700000D02*
X57137500Y-88675000D01*
X58600000Y-88700000D02*
X57162500Y-88700000D01*
X48075489Y-79575489D02*
X49500000Y-81000000D01*
X30824511Y-79575489D02*
X48075489Y-79575489D01*
X30600000Y-79800000D02*
X30824511Y-79575489D01*
X25137500Y-79800000D02*
X30600000Y-79800000D01*
X23000000Y-81937500D02*
X25137500Y-79800000D01*
%TO.N,THERM_3*%
X39000000Y-83500000D02*
X39000000Y-81937500D01*
%TO.N,THERM_2*%
X53900000Y-89724614D02*
X54899897Y-90724511D01*
X53900000Y-88900000D02*
X53900000Y-89724614D01*
X54899897Y-90724511D02*
X57037989Y-90724511D01*
X57037989Y-90724511D02*
X57137500Y-90625000D01*
X43000000Y-91462500D02*
X43000000Y-90400000D01*
%TO.N,THERM_1*%
X57112500Y-90000000D02*
X57137500Y-89975000D01*
X55200000Y-90000000D02*
X57112500Y-90000000D01*
%TO.N,+3V3*%
X71080000Y-103000000D02*
X72000000Y-103000000D01*
X66000000Y-97920000D02*
X71080000Y-103000000D01*
%TO.N,SPD_0*%
X63400000Y-100400000D02*
X66000000Y-103000000D01*
X60550480Y-87100000D02*
X60550480Y-93550480D01*
X56637500Y-81937500D02*
X60550481Y-85850481D01*
X60550481Y-85850481D02*
X60550480Y-87100000D01*
X63400000Y-96400000D02*
X63400000Y-100400000D01*
X47000000Y-81937500D02*
X56637500Y-81937500D01*
X60550480Y-93550480D02*
X63400000Y-96400000D01*
%TO.N,SPD_1*%
X51000000Y-90100000D02*
X51000000Y-88537500D01*
X60000000Y-103000000D02*
X57500000Y-100500000D01*
X57500000Y-100500000D02*
X57500000Y-97600000D01*
%TO.N,THERM_0*%
X56025000Y-89325000D02*
X57137500Y-89325000D01*
X54400000Y-87700000D02*
X56025000Y-89325000D01*
X43000000Y-84862500D02*
X43000000Y-83400000D01*
X58700000Y-90199639D02*
X57825361Y-89325000D01*
X58700000Y-95000000D02*
X58700000Y-90199639D01*
X57825361Y-89325000D02*
X57137500Y-89325000D01*
X53240000Y-100460000D02*
X58700000Y-95000000D01*
%TO.N,THERM_1*%
X48160000Y-92622500D02*
X47000000Y-91462500D01*
X48160000Y-100460000D02*
X48160000Y-92622500D01*
%TO.N,THERM_2*%
X43080000Y-91542500D02*
X43000000Y-91462500D01*
X43080000Y-100460000D02*
X43080000Y-91542500D01*
%TO.N,Net-(J10-Pad2)*%
X39000000Y-99460000D02*
X39000000Y-91462500D01*
X38000000Y-100460000D02*
X39000000Y-99460000D01*
%TO.N,Net-(R26-Pad2)*%
X32075000Y-88537500D02*
X35000000Y-91462500D01*
X31000000Y-88537500D02*
X32075000Y-88537500D01*
%TO.N,Net-(J11-Pad3)*%
X32000000Y-92462500D02*
X32000000Y-97920000D01*
X31000000Y-91462500D02*
X32000000Y-92462500D01*
%TO.N,Net-(J11-Pad2)*%
X28400000Y-86262500D02*
X27000000Y-84862500D01*
X28400000Y-96860000D02*
X28400000Y-86262500D01*
X32000000Y-100460000D02*
X28400000Y-96860000D01*
%TO.N,Net-(R24-Pad2)*%
X29925000Y-84862500D02*
X27000000Y-81937500D01*
X31000000Y-84862500D02*
X29925000Y-84862500D01*
%TO.N,Net-(R19-Pad2)*%
X19000000Y-84862500D02*
X20075000Y-84862500D01*
X20075000Y-84862500D02*
X23000000Y-81937500D01*
%TO.N,Net-(R17-Pad2)*%
X19000000Y-90000000D02*
X19000000Y-91462500D01*
X15000000Y-81937500D02*
X15000000Y-83400000D01*
%TO.N,Net-(J9-Pad3)*%
X15000000Y-84862500D02*
X15000000Y-88537500D01*
%TO.N,Net-(J9-Pad4)*%
X23000000Y-92380000D02*
X26000000Y-95380000D01*
X23000000Y-84862500D02*
X23000000Y-92380000D01*
%TO.N,Net-(J9-Pad3)*%
X15000000Y-88537500D02*
X15000000Y-89900000D01*
%TO.N,SPD_1*%
X73500000Y-51600000D02*
X74400000Y-51600000D01*
X65500000Y-59600000D02*
X73500000Y-51600000D01*
X51000000Y-88537500D02*
X51000000Y-86900000D01*
%TO.N,SPD_0*%
X66420000Y-60900000D02*
X76890000Y-50430000D01*
X65500000Y-60900000D02*
X66420000Y-60900000D01*
X47000000Y-81937500D02*
X47000000Y-80600000D01*
D38*
%TO.N,+3V3*%
X44075000Y-81937500D02*
X47000000Y-84862500D01*
X43000000Y-81937500D02*
X44075000Y-81937500D01*
X43000000Y-80300000D02*
X43000000Y-81937500D01*
D37*
%TO.N,SPI_SCK*%
X51700000Y-52100000D02*
X50700000Y-52100000D01*
X52200000Y-51600000D02*
X51700000Y-52100000D01*
X54100000Y-48800000D02*
X52200000Y-50700000D01*
X52200000Y-50700000D02*
X52200000Y-51600000D01*
%TO.N,SPI_RX*%
X56730000Y-52970000D02*
X59110000Y-52970000D01*
X52600000Y-57100000D02*
X56730000Y-52970000D01*
X50700000Y-57100000D02*
X52600000Y-57100000D01*
%TO.N,SPI_TX*%
X56570000Y-50430000D02*
X59110000Y-50430000D01*
X53000000Y-54300000D02*
X53000000Y-54000000D01*
X51300000Y-56000000D02*
X53000000Y-54300000D01*
X50300000Y-56000000D02*
X51300000Y-56000000D01*
X53000000Y-54000000D02*
X56570000Y-50430000D01*
X48500000Y-57800000D02*
X50300000Y-56000000D01*
D38*
%TO.N,+3V3*%
X49600000Y-60937500D02*
X49537500Y-61000000D01*
X49600000Y-58500000D02*
X49600000Y-60937500D01*
X50362500Y-39537500D02*
X51400000Y-38500000D01*
X41000000Y-39537500D02*
X50362500Y-39537500D01*
X49537500Y-66000000D02*
X49537500Y-61000000D01*
X49537500Y-67437500D02*
X49537500Y-66000000D01*
X50700000Y-68600000D02*
X49537500Y-67437500D01*
X55462500Y-71262500D02*
X52800000Y-68600000D01*
X52800000Y-68600000D02*
X50700000Y-68600000D01*
X55462500Y-73000000D02*
X55462500Y-71262500D01*
D37*
%TO.N,I2C0_SCL*%
X58120000Y-66000000D02*
X59110000Y-65010000D01*
X52462500Y-66000000D02*
X58120000Y-66000000D01*
%TO.N,I2C0_SDA*%
X59110000Y-60590000D02*
X52872500Y-60590000D01*
X52872500Y-60590000D02*
X52462500Y-61000000D01*
%TO.N,I2C_SCL*%
X52537500Y-74237500D02*
X53800000Y-75500000D01*
X52537500Y-73000000D02*
X52537500Y-74237500D01*
%TO.N,I2C_SDA*%
X53600000Y-81000000D02*
X63000000Y-81000000D01*
X52537500Y-79937500D02*
X53600000Y-81000000D01*
X52537500Y-78000000D02*
X52537500Y-79937500D01*
%TO.N,I2C_SCL*%
X61825000Y-88025000D02*
X62862500Y-88025000D01*
X61000000Y-87200000D02*
X61825000Y-88025000D01*
X62772141Y-85672141D02*
X61792141Y-85672141D01*
X61792141Y-85672141D02*
X61000000Y-86464283D01*
X61000000Y-86464283D02*
X61000000Y-87200000D01*
X64190000Y-84254282D02*
X62772141Y-85672141D01*
X64190000Y-82350000D02*
X64190000Y-84254282D01*
%TO.N,I2C_SDA*%
X61500000Y-86600000D02*
X61900000Y-86200000D01*
X62880000Y-86200000D02*
X66730000Y-82350000D01*
X61500000Y-86900000D02*
X61500000Y-86600000D01*
X61900000Y-86200000D02*
X62880000Y-86200000D01*
X62862500Y-87375000D02*
X61975000Y-87375000D01*
X61975000Y-87375000D02*
X61500000Y-86900000D01*
D38*
%TO.N,+3V3*%
X55462500Y-78000000D02*
X55462500Y-73000000D01*
X52900000Y-91500000D02*
X51037500Y-91500000D01*
X51037500Y-91500000D02*
X51000000Y-91462500D01*
X55462500Y-79662500D02*
X55500000Y-79700000D01*
X55462500Y-78000000D02*
X55462500Y-79662500D01*
X48075000Y-88537500D02*
X51000000Y-91462500D01*
X47000000Y-88537500D02*
X48075000Y-88537500D01*
X43000000Y-88537500D02*
X47000000Y-88537500D01*
X39000000Y-88537500D02*
X43000000Y-88537500D01*
%TO.N,GND*%
X35000000Y-84862500D02*
X35000000Y-88537500D01*
X32075000Y-81937500D02*
X35000000Y-84862500D01*
X31000000Y-81937500D02*
X32075000Y-81937500D01*
X31000000Y-80700000D02*
X31000000Y-81937500D01*
X19000000Y-81937500D02*
X19000000Y-80700000D01*
X18762500Y-81937500D02*
X19000000Y-81937500D01*
X17400000Y-86400000D02*
X17400000Y-83300000D01*
X19000000Y-88000000D02*
X17400000Y-86400000D01*
X17400000Y-83300000D02*
X18762500Y-81937500D01*
X19000000Y-88537500D02*
X19000000Y-88000000D01*
X18562500Y-88537500D02*
X19000000Y-88537500D01*
X15637500Y-91462500D02*
X18562500Y-88537500D01*
X15000000Y-91462500D02*
X15637500Y-91462500D01*
X15000000Y-93800000D02*
X15000000Y-91462500D01*
D37*
%TO.N,+3V3*%
X66775000Y-86725000D02*
X67050000Y-87000000D01*
X62862500Y-86725000D02*
X66775000Y-86725000D01*
%TO.N,GND*%
X62862500Y-89325000D02*
X62862500Y-89975000D01*
%TO.N,Net-(C8-Pad1)*%
X66675000Y-90625000D02*
X67050000Y-91000000D01*
X62862500Y-90625000D02*
X66675000Y-90625000D01*
%TO.N,GND*%
X67275000Y-88675000D02*
X68950000Y-87000000D01*
X62862500Y-88675000D02*
X67275000Y-88675000D01*
X62862500Y-88675000D02*
X62862500Y-89325000D01*
X68950000Y-92150000D02*
X68950000Y-91000000D01*
X68500000Y-92600000D02*
X68950000Y-92150000D01*
X65800000Y-92600000D02*
X68500000Y-92600000D01*
X64475000Y-91275000D02*
X65800000Y-92600000D01*
X62862500Y-91275000D02*
X64475000Y-91275000D01*
X68950000Y-91000000D02*
X68950000Y-87000000D01*
X74350000Y-84350000D02*
X74350000Y-82350000D01*
X71700000Y-87000000D02*
X74350000Y-84350000D01*
X68950000Y-87000000D02*
X71700000Y-87000000D01*
%TO.N,I2C0_SDA*%
X80500000Y-87100000D02*
X75200000Y-92400000D01*
X80500000Y-86000000D02*
X80500000Y-87100000D01*
X80500000Y-78600000D02*
X80500000Y-86000000D01*
X79600000Y-77700000D02*
X80500000Y-78600000D01*
X71800000Y-75700000D02*
X77600000Y-75700000D01*
X62100000Y-66300000D02*
X68200000Y-72400000D01*
X62100000Y-65000000D02*
X62100000Y-66300000D01*
X59110000Y-60590000D02*
X62100000Y-63580000D01*
X62100000Y-63580000D02*
X62100000Y-65000000D01*
X77600000Y-75700000D02*
X79600000Y-77700000D01*
%TO.N,I2C0_SCL*%
X73310000Y-95990000D02*
X73310000Y-96610000D01*
X74200000Y-95100000D02*
X73310000Y-95990000D01*
X73310000Y-96610000D02*
X72000000Y-97920000D01*
X74200000Y-91300000D02*
X74200000Y-95100000D01*
X79600000Y-85900000D02*
X74200000Y-91300000D01*
X79600000Y-79600000D02*
X79600000Y-85900000D01*
X77600000Y-77600000D02*
X79600000Y-79600000D01*
X71800000Y-77600000D02*
X77600000Y-77600000D01*
X59110000Y-65010000D02*
X67100000Y-73000000D01*
X59110000Y-63130000D02*
X59110000Y-65010000D01*
D38*
%TO.N,GND*%
X35050000Y-38250000D02*
X35050000Y-39000000D01*
X36500000Y-36800000D02*
X35050000Y-38250000D01*
X43200000Y-36800000D02*
X36500000Y-36800000D01*
X46000000Y-34000000D02*
X43200000Y-36800000D01*
D37*
%TO.N,SD_DET*%
X61600000Y-34400000D02*
X65100000Y-34400000D01*
D38*
%TO.N,GND*%
X33500000Y-30095000D02*
X33500000Y-31365000D01*
D37*
%TO.N,ACC_INT*%
X74300000Y-60200000D02*
X74300000Y-56900000D01*
D38*
%TO.N,+5V*%
X71900000Y-13100000D02*
X76210000Y-17410000D01*
X45447349Y-18652651D02*
X51000000Y-13100000D01*
X28000000Y-18652651D02*
X45447349Y-18652651D01*
X51000000Y-13100000D02*
X71900000Y-13100000D01*
X76210000Y-17410000D02*
X76890000Y-17410000D01*
X32800000Y-26100000D02*
X32800000Y-25150000D01*
X32800000Y-25150000D02*
X33000000Y-24950000D01*
X26500000Y-30095000D02*
X26500000Y-28300000D01*
%TO.N,Net-(C1-Pad2)*%
X28050000Y-24950000D02*
X29000000Y-24950000D01*
X26150000Y-23050000D02*
X28050000Y-24950000D01*
X25000000Y-23050000D02*
X26150000Y-23050000D01*
%TO.N,Net-(C1-Pad1)*%
X23500000Y-31500000D02*
X23500000Y-26450000D01*
X23500000Y-26450000D02*
X25000000Y-24950000D01*
X24635000Y-32635000D02*
X23500000Y-31500000D01*
X26500000Y-32635000D02*
X24635000Y-32635000D01*
D39*
%TO.N,GND*%
X48400000Y-34000000D02*
X53000000Y-34000000D01*
D38*
X41000000Y-45537500D02*
X41000000Y-44100000D01*
D39*
X46000000Y-34000000D02*
X48400000Y-34000000D01*
D38*
X31400000Y-36600000D02*
X33800000Y-39000000D01*
X31400000Y-32400000D02*
X31400000Y-36600000D01*
X32435000Y-31365000D02*
X31400000Y-32400000D01*
X33500000Y-31365000D02*
X32435000Y-31365000D01*
X33800000Y-39000000D02*
X35050000Y-39000000D01*
%TO.N,Net-(L1-Pad1)*%
X33500000Y-32635000D02*
X33500000Y-33905000D01*
X33400000Y-34005000D02*
X33500000Y-33905000D01*
X33400000Y-35900000D02*
X33400000Y-34005000D01*
X33595000Y-34000000D02*
X42000000Y-34000000D01*
X33500000Y-33905000D02*
X33595000Y-34000000D01*
D37*
%TO.N,Net-(C3-Pad2)*%
X33800000Y-49000000D02*
X35050000Y-49000000D01*
X38037500Y-45137500D02*
X38600000Y-45700000D01*
X36950000Y-45137500D02*
X38037500Y-45137500D01*
%TO.N,Net-(R7-Pad2)*%
X41537500Y-48462500D02*
X41000000Y-48462500D01*
X43000000Y-47000000D02*
X41537500Y-48462500D01*
X43000000Y-44462500D02*
X43000000Y-47000000D01*
X41000000Y-42462500D02*
X43000000Y-44462500D01*
X36187500Y-44000000D02*
X39462500Y-44000000D01*
X39462500Y-44000000D02*
X41000000Y-42462500D01*
X35050000Y-42862500D02*
X36187500Y-44000000D01*
D38*
%TO.N,Net-(L2-Pad1)*%
X36950000Y-41950000D02*
X36000000Y-41000000D01*
X36950000Y-42862500D02*
X36950000Y-41950000D01*
%TO.N,+3V3*%
X38000000Y-41000000D02*
X38000000Y-40050000D01*
X38000000Y-40050000D02*
X36950000Y-39000000D01*
X39537500Y-41000000D02*
X41000000Y-39537500D01*
X38000000Y-41000000D02*
X39537500Y-41000000D01*
%TO.N,GND*%
X36000000Y-46000000D02*
X37000000Y-47000000D01*
X36000000Y-45137500D02*
X36000000Y-46000000D01*
X37000000Y-47000000D02*
X39537500Y-47000000D01*
X39537500Y-47000000D02*
X41000000Y-45537500D01*
%TO.N,+5V*%
X37000000Y-48000000D02*
X37000000Y-48950000D01*
X35050000Y-46050000D02*
X37000000Y-48000000D01*
X35050000Y-45137500D02*
X35050000Y-46050000D01*
X37000000Y-48950000D02*
X36950000Y-49000000D01*
X30240000Y-41000000D02*
X34377500Y-45137500D01*
X34377500Y-45137500D02*
X35050000Y-45137500D01*
X30240000Y-32240000D02*
X30240000Y-41000000D01*
X28095000Y-30095000D02*
X30240000Y-32240000D01*
X26500000Y-30095000D02*
X28095000Y-30095000D01*
D37*
%TO.N,I2C_SDA*%
X73000000Y-68000000D02*
X76890000Y-64110000D01*
X73000000Y-71000000D02*
X73000000Y-68000000D01*
X70000000Y-74000000D02*
X73000000Y-71000000D01*
X70000000Y-78000000D02*
X70000000Y-74000000D01*
X66730000Y-81270000D02*
X70000000Y-78000000D01*
X66730000Y-82350000D02*
X66730000Y-81270000D01*
X76890000Y-64110000D02*
X76890000Y-63130000D01*
%TO.N,I2C_SCL*%
X74000000Y-63480000D02*
X76890000Y-60590000D01*
X74000000Y-66000000D02*
X74000000Y-63480000D01*
X72000000Y-68000000D02*
X74000000Y-66000000D01*
X72000000Y-71000000D02*
X72000000Y-68000000D01*
X69000000Y-74000000D02*
X72000000Y-71000000D01*
X69000000Y-77540000D02*
X69000000Y-74000000D01*
X64190000Y-82350000D02*
X69000000Y-77540000D01*
D39*
%TO.N,GND*%
X54350000Y-32650000D02*
X59110000Y-32650000D01*
X53000000Y-34000000D02*
X54350000Y-32650000D01*
X35950000Y-21050000D02*
X43650000Y-21050000D01*
X33950000Y-23050000D02*
X35950000Y-21050000D01*
X33000000Y-23050000D02*
X33950000Y-23050000D01*
X33000000Y-23050000D02*
X29000000Y-23050000D01*
%TO.N,Net-(C1-Pad2)*%
X24000000Y-34000000D02*
X27000000Y-34000000D01*
X31400000Y-27350000D02*
X29000000Y-24950000D01*
X43650000Y-27350000D02*
X31400000Y-27350000D01*
X22347349Y-34000000D02*
X24000000Y-34000000D01*
X18000000Y-29652651D02*
X22347349Y-34000000D01*
%TD*%
M02*
