%TF.GenerationSoftware,KiCad,Pcbnew,(6.0.5)*%
%TF.CreationDate,2022-08-14T01:36:17-04:00*%
%TF.ProjectId,RICM Greenpower Telemetry Module,5249434d-2047-4726-9565-6e706f776572,rev?*%
%TF.SameCoordinates,Original*%
%TF.FileFunction,Legend,Top*%
%TF.FilePolarity,Positive*%
%FSLAX46Y46*%
G04 Gerber Fmt 4.6, Leading zero omitted, Abs format (unit mm)*
G04 Created by KiCad (PCBNEW (6.0.5)) date 2022-08-14 01:36:17*
%MOMM*%
%LPD*%
G01*
G04 APERTURE LIST*
%ADD10C,0.300000*%
%ADD11C,0.150000*%
%ADD12C,0.120000*%
G04 APERTURE END LIST*
D10*
X51857142Y-96178571D02*
X52714285Y-96178571D01*
X52285714Y-97678571D02*
X52285714Y-96178571D01*
X53500000Y-96178571D02*
X53642857Y-96178571D01*
X53785714Y-96250000D01*
X53857142Y-96321428D01*
X53928571Y-96464285D01*
X54000000Y-96750000D01*
X54000000Y-97107142D01*
X53928571Y-97392857D01*
X53857142Y-97535714D01*
X53785714Y-97607142D01*
X53642857Y-97678571D01*
X53500000Y-97678571D01*
X53357142Y-97607142D01*
X53285714Y-97535714D01*
X53214285Y-97392857D01*
X53142857Y-97107142D01*
X53142857Y-96750000D01*
X53214285Y-96464285D01*
X53285714Y-96321428D01*
X53357142Y-96250000D01*
X53500000Y-96178571D01*
D11*
X34452380Y-103404761D02*
X35452380Y-103071428D01*
X34452380Y-102738095D01*
X35547619Y-102642857D02*
X35547619Y-101880952D01*
X34928571Y-101309523D02*
X34976190Y-101166666D01*
X35023809Y-101119047D01*
X35119047Y-101071428D01*
X35261904Y-101071428D01*
X35357142Y-101119047D01*
X35404761Y-101166666D01*
X35452380Y-101261904D01*
X35452380Y-101642857D01*
X34452380Y-101642857D01*
X34452380Y-101309523D01*
X34500000Y-101214285D01*
X34547619Y-101166666D01*
X34642857Y-101119047D01*
X34738095Y-101119047D01*
X34833333Y-101166666D01*
X34880952Y-101214285D01*
X34928571Y-101309523D01*
X34928571Y-101642857D01*
X35166666Y-100690476D02*
X35166666Y-100214285D01*
X35452380Y-100785714D02*
X34452380Y-100452380D01*
X35452380Y-100119047D01*
X34452380Y-99928571D02*
X34452380Y-99357142D01*
X35452380Y-99642857D02*
X34452380Y-99642857D01*
X34452380Y-99166666D02*
X34452380Y-98595238D01*
X35452380Y-98880952D02*
X34452380Y-98880952D01*
D10*
X36857142Y-96178571D02*
X37714285Y-96178571D01*
X37285714Y-97678571D02*
X37285714Y-96178571D01*
X38071428Y-96178571D02*
X39000000Y-96178571D01*
X38500000Y-96750000D01*
X38714285Y-96750000D01*
X38857142Y-96821428D01*
X38928571Y-96892857D01*
X39000000Y-97035714D01*
X39000000Y-97392857D01*
X38928571Y-97535714D01*
X38857142Y-97607142D01*
X38714285Y-97678571D01*
X38285714Y-97678571D01*
X38142857Y-97607142D01*
X38071428Y-97535714D01*
X46857142Y-96178571D02*
X47714285Y-96178571D01*
X47285714Y-97678571D02*
X47285714Y-96178571D01*
X49000000Y-97678571D02*
X48142857Y-97678571D01*
X48571428Y-97678571D02*
X48571428Y-96178571D01*
X48428571Y-96392857D01*
X48285714Y-96535714D01*
X48142857Y-96607142D01*
X41857142Y-96178571D02*
X42714285Y-96178571D01*
X42285714Y-97678571D02*
X42285714Y-96178571D01*
X43142857Y-96321428D02*
X43214285Y-96250000D01*
X43357142Y-96178571D01*
X43714285Y-96178571D01*
X43857142Y-96250000D01*
X43928571Y-96321428D01*
X44000000Y-96464285D01*
X44000000Y-96607142D01*
X43928571Y-96821428D01*
X43071428Y-97678571D01*
X44000000Y-97678571D01*
D11*
%TO.C,R6*%
X86295833Y-47632380D02*
X85962500Y-47156190D01*
X85724404Y-47632380D02*
X85724404Y-46632380D01*
X86105357Y-46632380D01*
X86200595Y-46680000D01*
X86248214Y-46727619D01*
X86295833Y-46822857D01*
X86295833Y-46965714D01*
X86248214Y-47060952D01*
X86200595Y-47108571D01*
X86105357Y-47156190D01*
X85724404Y-47156190D01*
X87152976Y-46632380D02*
X86962500Y-46632380D01*
X86867261Y-46680000D01*
X86819642Y-46727619D01*
X86724404Y-46870476D01*
X86676785Y-47060952D01*
X86676785Y-47441904D01*
X86724404Y-47537142D01*
X86772023Y-47584761D01*
X86867261Y-47632380D01*
X87057738Y-47632380D01*
X87152976Y-47584761D01*
X87200595Y-47537142D01*
X87248214Y-47441904D01*
X87248214Y-47203809D01*
X87200595Y-47108571D01*
X87152976Y-47060952D01*
X87057738Y-47013333D01*
X86867261Y-47013333D01*
X86772023Y-47060952D01*
X86724404Y-47108571D01*
X86676785Y-47203809D01*
%TO.C,R5*%
X86295833Y-42632380D02*
X85962500Y-42156190D01*
X85724404Y-42632380D02*
X85724404Y-41632380D01*
X86105357Y-41632380D01*
X86200595Y-41680000D01*
X86248214Y-41727619D01*
X86295833Y-41822857D01*
X86295833Y-41965714D01*
X86248214Y-42060952D01*
X86200595Y-42108571D01*
X86105357Y-42156190D01*
X85724404Y-42156190D01*
X87200595Y-41632380D02*
X86724404Y-41632380D01*
X86676785Y-42108571D01*
X86724404Y-42060952D01*
X86819642Y-42013333D01*
X87057738Y-42013333D01*
X87152976Y-42060952D01*
X87200595Y-42108571D01*
X87248214Y-42203809D01*
X87248214Y-42441904D01*
X87200595Y-42537142D01*
X87152976Y-42584761D01*
X87057738Y-42632380D01*
X86819642Y-42632380D01*
X86724404Y-42584761D01*
X86676785Y-42537142D01*
%TO.C,R4*%
X86295833Y-37632380D02*
X85962500Y-37156190D01*
X85724404Y-37632380D02*
X85724404Y-36632380D01*
X86105357Y-36632380D01*
X86200595Y-36680000D01*
X86248214Y-36727619D01*
X86295833Y-36822857D01*
X86295833Y-36965714D01*
X86248214Y-37060952D01*
X86200595Y-37108571D01*
X86105357Y-37156190D01*
X85724404Y-37156190D01*
X87152976Y-36965714D02*
X87152976Y-37632380D01*
X86914880Y-36584761D02*
X86676785Y-37299047D01*
X87295833Y-37299047D01*
%TO.C,R3*%
X86295833Y-32632380D02*
X85962500Y-32156190D01*
X85724404Y-32632380D02*
X85724404Y-31632380D01*
X86105357Y-31632380D01*
X86200595Y-31680000D01*
X86248214Y-31727619D01*
X86295833Y-31822857D01*
X86295833Y-31965714D01*
X86248214Y-32060952D01*
X86200595Y-32108571D01*
X86105357Y-32156190D01*
X85724404Y-32156190D01*
X86629166Y-31632380D02*
X87248214Y-31632380D01*
X86914880Y-32013333D01*
X87057738Y-32013333D01*
X87152976Y-32060952D01*
X87200595Y-32108571D01*
X87248214Y-32203809D01*
X87248214Y-32441904D01*
X87200595Y-32537142D01*
X87152976Y-32584761D01*
X87057738Y-32632380D01*
X86772023Y-32632380D01*
X86676785Y-32584761D01*
X86629166Y-32537142D01*
%TO.C,R2*%
X50833333Y-68272380D02*
X50500000Y-67796190D01*
X50261904Y-68272380D02*
X50261904Y-67272380D01*
X50642857Y-67272380D01*
X50738095Y-67320000D01*
X50785714Y-67367619D01*
X50833333Y-67462857D01*
X50833333Y-67605714D01*
X50785714Y-67700952D01*
X50738095Y-67748571D01*
X50642857Y-67796190D01*
X50261904Y-67796190D01*
X51214285Y-67367619D02*
X51261904Y-67320000D01*
X51357142Y-67272380D01*
X51595238Y-67272380D01*
X51690476Y-67320000D01*
X51738095Y-67367619D01*
X51785714Y-67462857D01*
X51785714Y-67558095D01*
X51738095Y-67700952D01*
X51166666Y-68272380D01*
X51785714Y-68272380D01*
%TO.C,R1*%
X50833333Y-63272380D02*
X50500000Y-62796190D01*
X50261904Y-63272380D02*
X50261904Y-62272380D01*
X50642857Y-62272380D01*
X50738095Y-62320000D01*
X50785714Y-62367619D01*
X50833333Y-62462857D01*
X50833333Y-62605714D01*
X50785714Y-62700952D01*
X50738095Y-62748571D01*
X50642857Y-62796190D01*
X50261904Y-62796190D01*
X51785714Y-63272380D02*
X51214285Y-63272380D01*
X51500000Y-63272380D02*
X51500000Y-62272380D01*
X51404761Y-62415238D01*
X51309523Y-62510476D01*
X51214285Y-62558095D01*
%TO.C,R19*%
X21632380Y-84042857D02*
X21156190Y-84376190D01*
X21632380Y-84614285D02*
X20632380Y-84614285D01*
X20632380Y-84233333D01*
X20680000Y-84138095D01*
X20727619Y-84090476D01*
X20822857Y-84042857D01*
X20965714Y-84042857D01*
X21060952Y-84090476D01*
X21108571Y-84138095D01*
X21156190Y-84233333D01*
X21156190Y-84614285D01*
X21632380Y-83090476D02*
X21632380Y-83661904D01*
X21632380Y-83376190D02*
X20632380Y-83376190D01*
X20775238Y-83471428D01*
X20870476Y-83566666D01*
X20918095Y-83661904D01*
X21632380Y-82614285D02*
X21632380Y-82423809D01*
X21584761Y-82328571D01*
X21537142Y-82280952D01*
X21394285Y-82185714D01*
X21203809Y-82138095D01*
X20822857Y-82138095D01*
X20727619Y-82185714D01*
X20680000Y-82233333D01*
X20632380Y-82328571D01*
X20632380Y-82519047D01*
X20680000Y-82614285D01*
X20727619Y-82661904D01*
X20822857Y-82709523D01*
X21060952Y-82709523D01*
X21156190Y-82661904D01*
X21203809Y-82614285D01*
X21251428Y-82519047D01*
X21251428Y-82328571D01*
X21203809Y-82233333D01*
X21156190Y-82185714D01*
X21060952Y-82138095D01*
%TO.C,R20*%
X17632380Y-84042857D02*
X17156190Y-84376190D01*
X17632380Y-84614285D02*
X16632380Y-84614285D01*
X16632380Y-84233333D01*
X16680000Y-84138095D01*
X16727619Y-84090476D01*
X16822857Y-84042857D01*
X16965714Y-84042857D01*
X17060952Y-84090476D01*
X17108571Y-84138095D01*
X17156190Y-84233333D01*
X17156190Y-84614285D01*
X16727619Y-83661904D02*
X16680000Y-83614285D01*
X16632380Y-83519047D01*
X16632380Y-83280952D01*
X16680000Y-83185714D01*
X16727619Y-83138095D01*
X16822857Y-83090476D01*
X16918095Y-83090476D01*
X17060952Y-83138095D01*
X17632380Y-83709523D01*
X17632380Y-83090476D01*
X16632380Y-82471428D02*
X16632380Y-82376190D01*
X16680000Y-82280952D01*
X16727619Y-82233333D01*
X16822857Y-82185714D01*
X17013333Y-82138095D01*
X17251428Y-82138095D01*
X17441904Y-82185714D01*
X17537142Y-82233333D01*
X17584761Y-82280952D01*
X17632380Y-82376190D01*
X17632380Y-82471428D01*
X17584761Y-82566666D01*
X17537142Y-82614285D01*
X17441904Y-82661904D01*
X17251428Y-82709523D01*
X17013333Y-82709523D01*
X16822857Y-82661904D01*
X16727619Y-82614285D01*
X16680000Y-82566666D01*
X16632380Y-82471428D01*
%TO.C,U5*%
X59238095Y-85002380D02*
X59238095Y-85811904D01*
X59285714Y-85907142D01*
X59333333Y-85954761D01*
X59428571Y-86002380D01*
X59619047Y-86002380D01*
X59714285Y-85954761D01*
X59761904Y-85907142D01*
X59809523Y-85811904D01*
X59809523Y-85002380D01*
X60761904Y-85002380D02*
X60285714Y-85002380D01*
X60238095Y-85478571D01*
X60285714Y-85430952D01*
X60380952Y-85383333D01*
X60619047Y-85383333D01*
X60714285Y-85430952D01*
X60761904Y-85478571D01*
X60809523Y-85573809D01*
X60809523Y-85811904D01*
X60761904Y-85907142D01*
X60714285Y-85954761D01*
X60619047Y-86002380D01*
X60380952Y-86002380D01*
X60285714Y-85954761D01*
X60238095Y-85907142D01*
%TO.C,C1*%
X23677142Y-24166666D02*
X23724761Y-24214285D01*
X23772380Y-24357142D01*
X23772380Y-24452380D01*
X23724761Y-24595238D01*
X23629523Y-24690476D01*
X23534285Y-24738095D01*
X23343809Y-24785714D01*
X23200952Y-24785714D01*
X23010476Y-24738095D01*
X22915238Y-24690476D01*
X22820000Y-24595238D01*
X22772380Y-24452380D01*
X22772380Y-24357142D01*
X22820000Y-24214285D01*
X22867619Y-24166666D01*
X23772380Y-23214285D02*
X23772380Y-23785714D01*
X23772380Y-23500000D02*
X22772380Y-23500000D01*
X22915238Y-23595238D01*
X23010476Y-23690476D01*
X23058095Y-23785714D01*
%TO.C,R13*%
X41632380Y-84042857D02*
X41156190Y-84376190D01*
X41632380Y-84614285D02*
X40632380Y-84614285D01*
X40632380Y-84233333D01*
X40680000Y-84138095D01*
X40727619Y-84090476D01*
X40822857Y-84042857D01*
X40965714Y-84042857D01*
X41060952Y-84090476D01*
X41108571Y-84138095D01*
X41156190Y-84233333D01*
X41156190Y-84614285D01*
X41632380Y-83090476D02*
X41632380Y-83661904D01*
X41632380Y-83376190D02*
X40632380Y-83376190D01*
X40775238Y-83471428D01*
X40870476Y-83566666D01*
X40918095Y-83661904D01*
X40632380Y-82757142D02*
X40632380Y-82138095D01*
X41013333Y-82471428D01*
X41013333Y-82328571D01*
X41060952Y-82233333D01*
X41108571Y-82185714D01*
X41203809Y-82138095D01*
X41441904Y-82138095D01*
X41537142Y-82185714D01*
X41584761Y-82233333D01*
X41632380Y-82328571D01*
X41632380Y-82614285D01*
X41584761Y-82709523D01*
X41537142Y-82757142D01*
%TO.C,R9*%
X45632380Y-83566666D02*
X45156190Y-83900000D01*
X45632380Y-84138095D02*
X44632380Y-84138095D01*
X44632380Y-83757142D01*
X44680000Y-83661904D01*
X44727619Y-83614285D01*
X44822857Y-83566666D01*
X44965714Y-83566666D01*
X45060952Y-83614285D01*
X45108571Y-83661904D01*
X45156190Y-83757142D01*
X45156190Y-84138095D01*
X45632380Y-83090476D02*
X45632380Y-82900000D01*
X45584761Y-82804761D01*
X45537142Y-82757142D01*
X45394285Y-82661904D01*
X45203809Y-82614285D01*
X44822857Y-82614285D01*
X44727619Y-82661904D01*
X44680000Y-82709523D01*
X44632380Y-82804761D01*
X44632380Y-82995238D01*
X44680000Y-83090476D01*
X44727619Y-83138095D01*
X44822857Y-83185714D01*
X45060952Y-83185714D01*
X45156190Y-83138095D01*
X45203809Y-83090476D01*
X45251428Y-82995238D01*
X45251428Y-82804761D01*
X45203809Y-82709523D01*
X45156190Y-82661904D01*
X45060952Y-82614285D01*
%TO.C,R18*%
X17632380Y-90642857D02*
X17156190Y-90976190D01*
X17632380Y-91214285D02*
X16632380Y-91214285D01*
X16632380Y-90833333D01*
X16680000Y-90738095D01*
X16727619Y-90690476D01*
X16822857Y-90642857D01*
X16965714Y-90642857D01*
X17060952Y-90690476D01*
X17108571Y-90738095D01*
X17156190Y-90833333D01*
X17156190Y-91214285D01*
X17632380Y-89690476D02*
X17632380Y-90261904D01*
X17632380Y-89976190D02*
X16632380Y-89976190D01*
X16775238Y-90071428D01*
X16870476Y-90166666D01*
X16918095Y-90261904D01*
X17060952Y-89119047D02*
X17013333Y-89214285D01*
X16965714Y-89261904D01*
X16870476Y-89309523D01*
X16822857Y-89309523D01*
X16727619Y-89261904D01*
X16680000Y-89214285D01*
X16632380Y-89119047D01*
X16632380Y-88928571D01*
X16680000Y-88833333D01*
X16727619Y-88785714D01*
X16822857Y-88738095D01*
X16870476Y-88738095D01*
X16965714Y-88785714D01*
X17013333Y-88833333D01*
X17060952Y-88928571D01*
X17060952Y-89119047D01*
X17108571Y-89214285D01*
X17156190Y-89261904D01*
X17251428Y-89309523D01*
X17441904Y-89309523D01*
X17537142Y-89261904D01*
X17584761Y-89214285D01*
X17632380Y-89119047D01*
X17632380Y-88928571D01*
X17584761Y-88833333D01*
X17537142Y-88785714D01*
X17441904Y-88738095D01*
X17251428Y-88738095D01*
X17156190Y-88785714D01*
X17108571Y-88833333D01*
X17060952Y-88928571D01*
%TO.C,J10*%
X37190476Y-104782380D02*
X37190476Y-105496666D01*
X37142857Y-105639523D01*
X37047619Y-105734761D01*
X36904761Y-105782380D01*
X36809523Y-105782380D01*
X38190476Y-105782380D02*
X37619047Y-105782380D01*
X37904761Y-105782380D02*
X37904761Y-104782380D01*
X37809523Y-104925238D01*
X37714285Y-105020476D01*
X37619047Y-105068095D01*
X38809523Y-104782380D02*
X38904761Y-104782380D01*
X39000000Y-104830000D01*
X39047619Y-104877619D01*
X39095238Y-104972857D01*
X39142857Y-105163333D01*
X39142857Y-105401428D01*
X39095238Y-105591904D01*
X39047619Y-105687142D01*
X39000000Y-105734761D01*
X38904761Y-105782380D01*
X38809523Y-105782380D01*
X38714285Y-105734761D01*
X38666666Y-105687142D01*
X38619047Y-105591904D01*
X38571428Y-105401428D01*
X38571428Y-105163333D01*
X38619047Y-104972857D01*
X38666666Y-104877619D01*
X38714285Y-104830000D01*
X38809523Y-104782380D01*
%TO.C,J5*%
X59666666Y-104782380D02*
X59666666Y-105496666D01*
X59619047Y-105639523D01*
X59523809Y-105734761D01*
X59380952Y-105782380D01*
X59285714Y-105782380D01*
X60619047Y-104782380D02*
X60142857Y-104782380D01*
X60095238Y-105258571D01*
X60142857Y-105210952D01*
X60238095Y-105163333D01*
X60476190Y-105163333D01*
X60571428Y-105210952D01*
X60619047Y-105258571D01*
X60666666Y-105353809D01*
X60666666Y-105591904D01*
X60619047Y-105687142D01*
X60571428Y-105734761D01*
X60476190Y-105782380D01*
X60238095Y-105782380D01*
X60142857Y-105734761D01*
X60095238Y-105687142D01*
%TO.C,U3*%
X67238095Y-38452380D02*
X67238095Y-39261904D01*
X67285714Y-39357142D01*
X67333333Y-39404761D01*
X67428571Y-39452380D01*
X67619047Y-39452380D01*
X67714285Y-39404761D01*
X67761904Y-39357142D01*
X67809523Y-39261904D01*
X67809523Y-38452380D01*
X68190476Y-38452380D02*
X68809523Y-38452380D01*
X68476190Y-38833333D01*
X68619047Y-38833333D01*
X68714285Y-38880952D01*
X68761904Y-38928571D01*
X68809523Y-39023809D01*
X68809523Y-39261904D01*
X68761904Y-39357142D01*
X68714285Y-39404761D01*
X68619047Y-39452380D01*
X68333333Y-39452380D01*
X68238095Y-39404761D01*
X68190476Y-39357142D01*
X79922131Y-22958308D02*
X80272317Y-22608122D01*
X80299255Y-23012183D01*
X80380067Y-22931370D01*
X80460879Y-22904433D01*
X80514754Y-22904433D01*
X80595566Y-22931370D01*
X80730253Y-23066057D01*
X80757190Y-23146870D01*
X80757190Y-23200744D01*
X80730253Y-23281557D01*
X80568629Y-23443181D01*
X80487816Y-23470118D01*
X80433942Y-23470118D01*
X80433942Y-22446497D02*
X81188189Y-22823621D01*
X80811065Y-22069374D01*
X80945752Y-21934687D02*
X81295938Y-21584500D01*
X81322876Y-21988561D01*
X81403688Y-21907749D01*
X81484500Y-21880812D01*
X81538375Y-21880812D01*
X81619187Y-21907749D01*
X81753874Y-22042436D01*
X81780812Y-22123248D01*
X81780812Y-22177123D01*
X81753874Y-22257935D01*
X81592250Y-22419560D01*
X81511438Y-22446497D01*
X81457563Y-22446497D01*
X82023248Y-22096311D02*
X82454247Y-21665312D01*
X82238748Y-21180439D02*
X82427309Y-20991877D01*
X82804433Y-21207377D02*
X82535059Y-21476751D01*
X81969374Y-20911065D01*
X82238748Y-20641691D01*
X83046870Y-20964940D02*
X82481184Y-20399255D01*
X83370118Y-20641691D01*
X82804433Y-20076006D01*
X79953129Y-15527309D02*
X80707377Y-15904433D01*
X80330253Y-15150186D01*
X80976751Y-15042436D02*
X81084500Y-14988561D01*
X81138375Y-14988561D01*
X81219187Y-15015499D01*
X81299999Y-15096311D01*
X81326937Y-15177123D01*
X81326937Y-15230998D01*
X81300000Y-15311810D01*
X81084500Y-15527309D01*
X80518815Y-14961624D01*
X80707377Y-14773062D01*
X80788189Y-14746125D01*
X80842064Y-14746125D01*
X80922876Y-14773062D01*
X80976751Y-14826937D01*
X81003688Y-14907749D01*
X81003688Y-14961624D01*
X80976751Y-15042436D01*
X80788189Y-15230998D01*
X81084500Y-14395938D02*
X81542436Y-14853874D01*
X81623248Y-14880812D01*
X81677123Y-14880812D01*
X81757935Y-14853874D01*
X81865685Y-14746125D01*
X81892622Y-14665312D01*
X81892622Y-14611438D01*
X81865685Y-14530625D01*
X81407749Y-14072690D01*
X82188934Y-14369001D02*
X82296683Y-14315126D01*
X82431370Y-14180439D01*
X82458308Y-14099627D01*
X82458308Y-14045752D01*
X82431370Y-13964940D01*
X82377496Y-13911065D01*
X82296683Y-13884128D01*
X82242809Y-13884128D01*
X82161996Y-13911065D01*
X82027309Y-13991877D01*
X81946497Y-14018815D01*
X81892622Y-14018815D01*
X81811810Y-13991877D01*
X81757935Y-13938003D01*
X81730998Y-13857190D01*
X81730998Y-13803316D01*
X81757935Y-13722503D01*
X81892622Y-13587816D01*
X82000372Y-13533942D01*
X54486158Y-32798155D02*
X54405346Y-32825093D01*
X54324534Y-32905905D01*
X54270659Y-33013654D01*
X54270659Y-33121404D01*
X54297597Y-33202216D01*
X54378409Y-33336903D01*
X54459221Y-33417715D01*
X54593908Y-33498528D01*
X54674720Y-33525465D01*
X54782470Y-33525465D01*
X54890219Y-33471590D01*
X54944094Y-33417715D01*
X54997969Y-33309966D01*
X54997969Y-33256091D01*
X54809407Y-33067529D01*
X54701658Y-33175279D01*
X55294280Y-33067529D02*
X54728595Y-32501844D01*
X55617529Y-32744280D01*
X55051844Y-32178595D01*
X55886903Y-32474906D02*
X55321218Y-31909221D01*
X55455905Y-31774534D01*
X55563654Y-31720659D01*
X55671404Y-31720659D01*
X55752216Y-31747597D01*
X55886903Y-31828409D01*
X55967715Y-31909221D01*
X56048528Y-32043908D01*
X56075465Y-32124720D01*
X56075465Y-32232470D01*
X56021590Y-32340219D01*
X55886903Y-32474906D01*
X80097722Y-63520592D02*
X80016910Y-63547529D01*
X79936097Y-63628341D01*
X79882223Y-63736091D01*
X79882223Y-63843841D01*
X79909160Y-63924653D01*
X79989972Y-64059340D01*
X80070784Y-64140152D01*
X80205471Y-64220964D01*
X80286284Y-64247902D01*
X80394033Y-64247902D01*
X80501783Y-64194027D01*
X80555658Y-64140152D01*
X80609532Y-64032402D01*
X80609532Y-63978528D01*
X80420971Y-63789966D01*
X80313221Y-63897715D01*
X80905844Y-63789966D02*
X80340158Y-63224280D01*
X80555658Y-63008781D01*
X80636470Y-62981844D01*
X80690345Y-62981844D01*
X80771157Y-63008781D01*
X80851969Y-63089593D01*
X80878906Y-63170406D01*
X80878906Y-63224280D01*
X80851969Y-63305093D01*
X80636470Y-63520592D01*
X81767841Y-62927969D02*
X81444592Y-63251218D01*
X81606216Y-63089593D02*
X81040531Y-62523908D01*
X81067468Y-62658595D01*
X81067468Y-62766345D01*
X81040531Y-62847157D01*
X81687028Y-61877410D02*
X81579279Y-61985160D01*
X81552341Y-62065972D01*
X81552341Y-62119847D01*
X81579279Y-62254534D01*
X81660091Y-62389221D01*
X81875590Y-62604720D01*
X81956402Y-62631658D01*
X82010277Y-62631658D01*
X82091089Y-62604720D01*
X82198839Y-62496971D01*
X82225776Y-62416158D01*
X82225776Y-62362284D01*
X82198839Y-62281471D01*
X82064152Y-62146784D01*
X81983340Y-62119847D01*
X81929465Y-62119847D01*
X81848653Y-62146784D01*
X81740903Y-62254534D01*
X81713966Y-62335346D01*
X81713966Y-62389221D01*
X81740903Y-62470033D01*
X54513096Y-14991218D02*
X54432284Y-15018155D01*
X54351471Y-15098967D01*
X54297597Y-15206717D01*
X54297597Y-15314467D01*
X54324534Y-15395279D01*
X54405346Y-15529966D01*
X54486158Y-15610778D01*
X54620845Y-15691590D01*
X54701658Y-15718528D01*
X54809407Y-15718528D01*
X54917157Y-15664653D01*
X54971032Y-15610778D01*
X55024906Y-15503028D01*
X55024906Y-15449154D01*
X54836345Y-15260592D01*
X54728595Y-15368341D01*
X55321218Y-15260592D02*
X54755532Y-14694906D01*
X54971032Y-14479407D01*
X55051844Y-14452470D01*
X55105719Y-14452470D01*
X55186531Y-14479407D01*
X55267343Y-14560219D01*
X55294280Y-14641032D01*
X55294280Y-14694906D01*
X55267343Y-14775719D01*
X55051844Y-14991218D01*
X55428967Y-14021471D02*
X55482842Y-13967597D01*
X55563654Y-13940659D01*
X55617529Y-13940659D01*
X55698341Y-13967597D01*
X55833028Y-14048409D01*
X55967715Y-14183096D01*
X56048528Y-14317783D01*
X56075465Y-14398595D01*
X56075465Y-14452470D01*
X56048528Y-14533282D01*
X55994653Y-14587157D01*
X55913841Y-14614094D01*
X55859966Y-14614094D01*
X55779154Y-14587157D01*
X55644467Y-14506345D01*
X55509780Y-14371658D01*
X55428967Y-14236971D01*
X55402030Y-14156158D01*
X55402030Y-14102284D01*
X55428967Y-14021471D01*
X54513096Y-30231218D02*
X54432284Y-30258155D01*
X54351471Y-30338967D01*
X54297597Y-30446717D01*
X54297597Y-30554467D01*
X54324534Y-30635279D01*
X54405346Y-30769966D01*
X54486158Y-30850778D01*
X54620845Y-30931590D01*
X54701658Y-30958528D01*
X54809407Y-30958528D01*
X54917157Y-30904653D01*
X54971032Y-30850778D01*
X55024906Y-30743028D01*
X55024906Y-30689154D01*
X54836345Y-30500592D01*
X54728595Y-30608341D01*
X55321218Y-30500592D02*
X54755532Y-29934906D01*
X54971032Y-29719407D01*
X55051844Y-29692470D01*
X55105719Y-29692470D01*
X55186531Y-29719407D01*
X55267343Y-29800219D01*
X55294280Y-29881032D01*
X55294280Y-29934906D01*
X55267343Y-30015719D01*
X55051844Y-30231218D01*
X55590592Y-29099847D02*
X55321218Y-29369221D01*
X55563654Y-29665532D01*
X55563654Y-29611658D01*
X55590592Y-29530845D01*
X55725279Y-29396158D01*
X55806091Y-29369221D01*
X55859966Y-29369221D01*
X55940778Y-29396158D01*
X56075465Y-29530845D01*
X56102402Y-29611658D01*
X56102402Y-29665532D01*
X56075465Y-29746345D01*
X55940778Y-29881032D01*
X55859966Y-29907969D01*
X55806091Y-29907969D01*
X80097722Y-60980592D02*
X80016910Y-61007529D01*
X79936097Y-61088341D01*
X79882223Y-61196091D01*
X79882223Y-61303841D01*
X79909160Y-61384653D01*
X79989972Y-61519340D01*
X80070784Y-61600152D01*
X80205471Y-61680964D01*
X80286284Y-61707902D01*
X80394033Y-61707902D01*
X80501783Y-61654027D01*
X80555658Y-61600152D01*
X80609532Y-61492402D01*
X80609532Y-61438528D01*
X80420971Y-61249966D01*
X80313221Y-61357715D01*
X80905844Y-61249966D02*
X80340158Y-60684280D01*
X80555658Y-60468781D01*
X80636470Y-60441844D01*
X80690345Y-60441844D01*
X80771157Y-60468781D01*
X80851969Y-60549593D01*
X80878906Y-60630406D01*
X80878906Y-60684280D01*
X80851969Y-60765093D01*
X80636470Y-60980592D01*
X81767841Y-60387969D02*
X81444592Y-60711218D01*
X81606216Y-60549593D02*
X81040531Y-59983908D01*
X81067468Y-60118595D01*
X81067468Y-60226345D01*
X81040531Y-60307157D01*
X81390717Y-59633722D02*
X81767841Y-59256598D01*
X82091089Y-60064720D01*
X80097722Y-53360592D02*
X80016910Y-53387529D01*
X79936097Y-53468341D01*
X79882223Y-53576091D01*
X79882223Y-53683841D01*
X79909160Y-53764653D01*
X79989972Y-53899340D01*
X80070784Y-53980152D01*
X80205471Y-54060964D01*
X80286284Y-54087902D01*
X80394033Y-54087902D01*
X80501783Y-54034027D01*
X80555658Y-53980152D01*
X80609532Y-53872402D01*
X80609532Y-53818528D01*
X80420971Y-53629966D01*
X80313221Y-53737715D01*
X80905844Y-53629966D02*
X80340158Y-53064280D01*
X80555658Y-52848781D01*
X80636470Y-52821844D01*
X80690345Y-52821844D01*
X80771157Y-52848781D01*
X80851969Y-52929593D01*
X80878906Y-53010406D01*
X80878906Y-53064280D01*
X80851969Y-53145093D01*
X80636470Y-53360592D01*
X81767841Y-52767969D02*
X81444592Y-53091218D01*
X81606216Y-52929593D02*
X81040531Y-52363908D01*
X81067468Y-52498595D01*
X81067468Y-52606345D01*
X81040531Y-52687157D01*
X82037215Y-52498595D02*
X82144964Y-52390845D01*
X82171902Y-52310033D01*
X82171902Y-52256158D01*
X82144964Y-52121471D01*
X82064152Y-51986784D01*
X81848653Y-51771285D01*
X81767841Y-51744348D01*
X81713966Y-51744348D01*
X81633154Y-51771285D01*
X81525404Y-51879035D01*
X81498467Y-51959847D01*
X81498467Y-52013722D01*
X81525404Y-52094534D01*
X81660091Y-52229221D01*
X81740903Y-52256158D01*
X81794778Y-52256158D01*
X81875590Y-52229221D01*
X81983340Y-52121471D01*
X82010277Y-52040659D01*
X82010277Y-51986784D01*
X81983340Y-51905972D01*
X80097722Y-50820592D02*
X80016910Y-50847529D01*
X79936097Y-50928341D01*
X79882223Y-51036091D01*
X79882223Y-51143841D01*
X79909160Y-51224653D01*
X79989972Y-51359340D01*
X80070784Y-51440152D01*
X80205471Y-51520964D01*
X80286284Y-51547902D01*
X80394033Y-51547902D01*
X80501783Y-51494027D01*
X80555658Y-51440152D01*
X80609532Y-51332402D01*
X80609532Y-51278528D01*
X80420971Y-51089966D01*
X80313221Y-51197715D01*
X80905844Y-51089966D02*
X80340158Y-50524280D01*
X80555658Y-50308781D01*
X80636470Y-50281844D01*
X80690345Y-50281844D01*
X80771157Y-50308781D01*
X80851969Y-50389593D01*
X80878906Y-50470406D01*
X80878906Y-50524280D01*
X80851969Y-50605093D01*
X80636470Y-50820592D01*
X80932781Y-50039407D02*
X80932781Y-49985532D01*
X80959719Y-49904720D01*
X81094406Y-49770033D01*
X81175218Y-49743096D01*
X81229093Y-49743096D01*
X81309905Y-49770033D01*
X81363780Y-49823908D01*
X81417654Y-49931658D01*
X81417654Y-50578155D01*
X81767841Y-50227969D01*
X81552341Y-49312097D02*
X81606216Y-49258223D01*
X81687028Y-49231285D01*
X81740903Y-49231285D01*
X81821715Y-49258223D01*
X81956402Y-49339035D01*
X82091089Y-49473722D01*
X82171902Y-49608409D01*
X82198839Y-49689221D01*
X82198839Y-49743096D01*
X82171902Y-49823908D01*
X82118027Y-49877783D01*
X82037215Y-49904720D01*
X81983340Y-49904720D01*
X81902528Y-49877783D01*
X81767841Y-49796971D01*
X81633154Y-49662284D01*
X81552341Y-49527597D01*
X81525404Y-49446784D01*
X81525404Y-49392910D01*
X81552341Y-49312097D01*
X79889847Y-25490592D02*
X80240033Y-25140406D01*
X80266971Y-25544467D01*
X80347783Y-25463654D01*
X80428595Y-25436717D01*
X80482470Y-25436717D01*
X80563282Y-25463654D01*
X80697969Y-25598341D01*
X80724906Y-25679154D01*
X80724906Y-25733028D01*
X80697969Y-25813841D01*
X80536345Y-25975465D01*
X80455532Y-26002402D01*
X80401658Y-26002402D01*
X80401658Y-24978781D02*
X81155905Y-25355905D01*
X80778781Y-24601658D01*
X80913468Y-24466971D02*
X81263654Y-24116784D01*
X81290592Y-24520845D01*
X81371404Y-24440033D01*
X81452216Y-24413096D01*
X81506091Y-24413096D01*
X81586903Y-24440033D01*
X81721590Y-24574720D01*
X81748528Y-24655532D01*
X81748528Y-24709407D01*
X81721590Y-24790219D01*
X81559966Y-24951844D01*
X81479154Y-24978781D01*
X81425279Y-24978781D01*
X54513096Y-42931218D02*
X54432284Y-42958155D01*
X54351471Y-43038967D01*
X54297597Y-43146717D01*
X54297597Y-43254467D01*
X54324534Y-43335279D01*
X54405346Y-43469966D01*
X54486158Y-43550778D01*
X54620845Y-43631590D01*
X54701658Y-43658528D01*
X54809407Y-43658528D01*
X54917157Y-43604653D01*
X54971032Y-43550778D01*
X55024906Y-43443028D01*
X55024906Y-43389154D01*
X54836345Y-43200592D01*
X54728595Y-43308341D01*
X55321218Y-43200592D02*
X54755532Y-42634906D01*
X54971032Y-42419407D01*
X55051844Y-42392470D01*
X55105719Y-42392470D01*
X55186531Y-42419407D01*
X55267343Y-42500219D01*
X55294280Y-42581032D01*
X55294280Y-42634906D01*
X55267343Y-42715719D01*
X55051844Y-42931218D01*
X55913841Y-42607969D02*
X56021590Y-42500219D01*
X56048528Y-42419407D01*
X56048528Y-42365532D01*
X56021590Y-42230845D01*
X55940778Y-42096158D01*
X55725279Y-41880659D01*
X55644467Y-41853722D01*
X55590592Y-41853722D01*
X55509780Y-41880659D01*
X55402030Y-41988409D01*
X55375093Y-42069221D01*
X55375093Y-42123096D01*
X55402030Y-42203908D01*
X55536717Y-42338595D01*
X55617529Y-42365532D01*
X55671404Y-42365532D01*
X55752216Y-42338595D01*
X55859966Y-42230845D01*
X55886903Y-42150033D01*
X55886903Y-42096158D01*
X55859966Y-42015346D01*
X80097722Y-35590592D02*
X80016910Y-35617529D01*
X79936097Y-35698341D01*
X79882223Y-35806091D01*
X79882223Y-35913841D01*
X79909160Y-35994653D01*
X79989972Y-36129340D01*
X80070784Y-36210152D01*
X80205471Y-36290964D01*
X80286284Y-36317902D01*
X80394033Y-36317902D01*
X80501783Y-36264027D01*
X80555658Y-36210152D01*
X80609532Y-36102402D01*
X80609532Y-36048528D01*
X80420971Y-35859966D01*
X80313221Y-35967715D01*
X80905844Y-35859966D02*
X80340158Y-35294280D01*
X80555658Y-35078781D01*
X80636470Y-35051844D01*
X80690345Y-35051844D01*
X80771157Y-35078781D01*
X80851969Y-35159593D01*
X80878906Y-35240406D01*
X80878906Y-35294280D01*
X80851969Y-35375093D01*
X80636470Y-35590592D01*
X80932781Y-34809407D02*
X80932781Y-34755532D01*
X80959719Y-34674720D01*
X81094406Y-34540033D01*
X81175218Y-34513096D01*
X81229093Y-34513096D01*
X81309905Y-34540033D01*
X81363780Y-34593908D01*
X81417654Y-34701658D01*
X81417654Y-35348155D01*
X81767841Y-34997969D01*
X81390717Y-34243722D02*
X81767841Y-33866598D01*
X82091089Y-34674720D01*
X54413096Y-17521218D02*
X54332284Y-17548155D01*
X54251471Y-17628967D01*
X54197597Y-17736717D01*
X54197597Y-17844467D01*
X54224534Y-17925279D01*
X54305346Y-18059966D01*
X54386158Y-18140778D01*
X54520845Y-18221590D01*
X54601658Y-18248528D01*
X54709407Y-18248528D01*
X54817157Y-18194653D01*
X54871032Y-18140778D01*
X54924906Y-18033028D01*
X54924906Y-17979154D01*
X54736345Y-17790592D01*
X54628595Y-17898341D01*
X55221218Y-17790592D02*
X54655532Y-17224906D01*
X54871032Y-17009407D01*
X54951844Y-16982470D01*
X55005719Y-16982470D01*
X55086531Y-17009407D01*
X55167343Y-17090219D01*
X55194280Y-17171032D01*
X55194280Y-17224906D01*
X55167343Y-17305719D01*
X54951844Y-17521218D01*
X56083215Y-16928595D02*
X55759966Y-17251844D01*
X55921590Y-17090219D02*
X55355905Y-16524534D01*
X55382842Y-16659221D01*
X55382842Y-16766971D01*
X55355905Y-16847783D01*
X80097722Y-38120592D02*
X80016910Y-38147529D01*
X79936097Y-38228341D01*
X79882223Y-38336091D01*
X79882223Y-38443841D01*
X79909160Y-38524653D01*
X79989972Y-38659340D01*
X80070784Y-38740152D01*
X80205471Y-38820964D01*
X80286284Y-38847902D01*
X80394033Y-38847902D01*
X80501783Y-38794027D01*
X80555658Y-38740152D01*
X80609532Y-38632402D01*
X80609532Y-38578528D01*
X80420971Y-38389966D01*
X80313221Y-38497715D01*
X80905844Y-38389966D02*
X80340158Y-37824280D01*
X80555658Y-37608781D01*
X80636470Y-37581844D01*
X80690345Y-37581844D01*
X80771157Y-37608781D01*
X80851969Y-37689593D01*
X80878906Y-37770406D01*
X80878906Y-37824280D01*
X80851969Y-37905093D01*
X80636470Y-38120592D01*
X80932781Y-37339407D02*
X80932781Y-37285532D01*
X80959719Y-37204720D01*
X81094406Y-37070033D01*
X81175218Y-37043096D01*
X81229093Y-37043096D01*
X81309905Y-37070033D01*
X81363780Y-37123908D01*
X81417654Y-37231658D01*
X81417654Y-37878155D01*
X81767841Y-37527969D01*
X81687028Y-36477410D02*
X81579279Y-36585160D01*
X81552341Y-36665972D01*
X81552341Y-36719847D01*
X81579279Y-36854534D01*
X81660091Y-36989221D01*
X81875590Y-37204720D01*
X81956402Y-37231658D01*
X82010277Y-37231658D01*
X82091089Y-37204720D01*
X82198839Y-37096971D01*
X82225776Y-37016158D01*
X82225776Y-36962284D01*
X82198839Y-36881471D01*
X82064152Y-36746784D01*
X81983340Y-36719847D01*
X81929465Y-36719847D01*
X81848653Y-36746784D01*
X81740903Y-36854534D01*
X81713966Y-36935346D01*
X81713966Y-36989221D01*
X81740903Y-37070033D01*
X80838375Y-40943435D02*
X80380439Y-40862622D01*
X80515126Y-41266683D02*
X79949441Y-40700998D01*
X80164940Y-40485499D01*
X80245752Y-40458561D01*
X80299627Y-40458561D01*
X80380439Y-40485499D01*
X80461251Y-40566311D01*
X80488189Y-40647123D01*
X80488189Y-40700998D01*
X80461251Y-40781810D01*
X80245752Y-40997309D01*
X80515126Y-40135312D02*
X80973062Y-40593248D01*
X81053874Y-40620186D01*
X81107749Y-40620186D01*
X81188561Y-40593248D01*
X81296311Y-40485499D01*
X81323248Y-40404687D01*
X81323248Y-40350812D01*
X81296311Y-40270000D01*
X80838375Y-39812064D01*
X81673435Y-40108375D02*
X81107749Y-39542690D01*
X81996683Y-39785126D01*
X81430998Y-39219441D01*
X71904761Y-65523809D02*
X72019047Y-65561904D01*
X72209523Y-65561904D01*
X72285714Y-65523809D01*
X72323809Y-65485714D01*
X72361904Y-65409523D01*
X72361904Y-65333333D01*
X72323809Y-65257142D01*
X72285714Y-65219047D01*
X72209523Y-65180952D01*
X72057142Y-65142857D01*
X71980952Y-65104761D01*
X71942857Y-65066666D01*
X71904761Y-64990476D01*
X71904761Y-64914285D01*
X71942857Y-64838095D01*
X71980952Y-64800000D01*
X72057142Y-64761904D01*
X72247619Y-64761904D01*
X72361904Y-64800000D01*
X72628571Y-64761904D02*
X72819047Y-65561904D01*
X72971428Y-64990476D01*
X73123809Y-65561904D01*
X73314285Y-64761904D01*
X73619047Y-65561904D02*
X73619047Y-64761904D01*
X73809523Y-64761904D01*
X73923809Y-64800000D01*
X74000000Y-64876190D01*
X74038095Y-64952380D01*
X74076190Y-65104761D01*
X74076190Y-65219047D01*
X74038095Y-65371428D01*
X74000000Y-65447619D01*
X73923809Y-65523809D01*
X73809523Y-65561904D01*
X73619047Y-65561904D01*
X74419047Y-65561904D02*
X74419047Y-64761904D01*
X74952380Y-64761904D02*
X75104761Y-64761904D01*
X75180952Y-64800000D01*
X75257142Y-64876190D01*
X75295238Y-65028571D01*
X75295238Y-65295238D01*
X75257142Y-65447619D01*
X75180952Y-65523809D01*
X75104761Y-65561904D01*
X74952380Y-65561904D01*
X74876190Y-65523809D01*
X74800000Y-65447619D01*
X74761904Y-65295238D01*
X74761904Y-65028571D01*
X74800000Y-64876190D01*
X74876190Y-64800000D01*
X74952380Y-64761904D01*
X54413096Y-22611218D02*
X54332284Y-22638155D01*
X54251471Y-22718967D01*
X54197597Y-22826717D01*
X54197597Y-22934467D01*
X54224534Y-23015279D01*
X54305346Y-23149966D01*
X54386158Y-23230778D01*
X54520845Y-23311590D01*
X54601658Y-23338528D01*
X54709407Y-23338528D01*
X54817157Y-23284653D01*
X54871032Y-23230778D01*
X54924906Y-23123028D01*
X54924906Y-23069154D01*
X54736345Y-22880592D01*
X54628595Y-22988341D01*
X55221218Y-22880592D02*
X54655532Y-22314906D01*
X54871032Y-22099407D01*
X54951844Y-22072470D01*
X55005719Y-22072470D01*
X55086531Y-22099407D01*
X55167343Y-22180219D01*
X55194280Y-22261032D01*
X55194280Y-22314906D01*
X55167343Y-22395719D01*
X54951844Y-22611218D01*
X55248155Y-21830033D02*
X55248155Y-21776158D01*
X55275093Y-21695346D01*
X55409780Y-21560659D01*
X55490592Y-21533722D01*
X55544467Y-21533722D01*
X55625279Y-21560659D01*
X55679154Y-21614534D01*
X55733028Y-21722284D01*
X55733028Y-22368781D01*
X56083215Y-22018595D01*
X80086158Y-45498155D02*
X80005346Y-45525093D01*
X79924534Y-45605905D01*
X79870659Y-45713654D01*
X79870659Y-45821404D01*
X79897597Y-45902216D01*
X79978409Y-46036903D01*
X80059221Y-46117715D01*
X80193908Y-46198528D01*
X80274720Y-46225465D01*
X80382470Y-46225465D01*
X80490219Y-46171590D01*
X80544094Y-46117715D01*
X80597969Y-46009966D01*
X80597969Y-45956091D01*
X80409407Y-45767529D01*
X80301658Y-45875279D01*
X80894280Y-45767529D02*
X80328595Y-45201844D01*
X81217529Y-45444280D01*
X80651844Y-44878595D01*
X81486903Y-45174906D02*
X80921218Y-44609221D01*
X81055905Y-44474534D01*
X81163654Y-44420659D01*
X81271404Y-44420659D01*
X81352216Y-44447597D01*
X81486903Y-44528409D01*
X81567715Y-44609221D01*
X81648528Y-44743908D01*
X81675465Y-44824720D01*
X81675465Y-44932470D01*
X81621590Y-45040219D01*
X81486903Y-45174906D01*
X54513096Y-35311218D02*
X54432284Y-35338155D01*
X54351471Y-35418967D01*
X54297597Y-35526717D01*
X54297597Y-35634467D01*
X54324534Y-35715279D01*
X54405346Y-35849966D01*
X54486158Y-35930778D01*
X54620845Y-36011590D01*
X54701658Y-36038528D01*
X54809407Y-36038528D01*
X54917157Y-35984653D01*
X54971032Y-35930778D01*
X55024906Y-35823028D01*
X55024906Y-35769154D01*
X54836345Y-35580592D01*
X54728595Y-35688341D01*
X55321218Y-35580592D02*
X54755532Y-35014906D01*
X54971032Y-34799407D01*
X55051844Y-34772470D01*
X55105719Y-34772470D01*
X55186531Y-34799407D01*
X55267343Y-34880219D01*
X55294280Y-34961032D01*
X55294280Y-35014906D01*
X55267343Y-35095719D01*
X55051844Y-35311218D01*
X55563654Y-34206784D02*
X55455905Y-34314534D01*
X55428967Y-34395346D01*
X55428967Y-34449221D01*
X55455905Y-34583908D01*
X55536717Y-34718595D01*
X55752216Y-34934094D01*
X55833028Y-34961032D01*
X55886903Y-34961032D01*
X55967715Y-34934094D01*
X56075465Y-34826345D01*
X56102402Y-34745532D01*
X56102402Y-34691658D01*
X56075465Y-34610845D01*
X55940778Y-34476158D01*
X55859966Y-34449221D01*
X55806091Y-34449221D01*
X55725279Y-34476158D01*
X55617529Y-34583908D01*
X55590592Y-34664720D01*
X55590592Y-34718595D01*
X55617529Y-34799407D01*
X53943722Y-60980592D02*
X53862910Y-61007529D01*
X53782097Y-61088341D01*
X53728223Y-61196091D01*
X53728223Y-61303841D01*
X53755160Y-61384653D01*
X53835972Y-61519340D01*
X53916784Y-61600152D01*
X54051471Y-61680964D01*
X54132284Y-61707902D01*
X54240033Y-61707902D01*
X54347783Y-61654027D01*
X54401658Y-61600152D01*
X54455532Y-61492402D01*
X54455532Y-61438528D01*
X54266971Y-61249966D01*
X54159221Y-61357715D01*
X54751844Y-61249966D02*
X54186158Y-60684280D01*
X54401658Y-60468781D01*
X54482470Y-60441844D01*
X54536345Y-60441844D01*
X54617157Y-60468781D01*
X54697969Y-60549593D01*
X54724906Y-60630406D01*
X54724906Y-60684280D01*
X54697969Y-60765093D01*
X54482470Y-60980592D01*
X55613841Y-60387969D02*
X55290592Y-60711218D01*
X55452216Y-60549593D02*
X54886531Y-59983908D01*
X54913468Y-60118595D01*
X54913468Y-60226345D01*
X54886531Y-60307157D01*
X55721590Y-59525972D02*
X56098714Y-59903096D01*
X55371404Y-59445160D02*
X55640778Y-59983908D01*
X55990964Y-59633722D01*
X53843722Y-50820592D02*
X53762910Y-50847529D01*
X53682097Y-50928341D01*
X53628223Y-51036091D01*
X53628223Y-51143841D01*
X53655160Y-51224653D01*
X53735972Y-51359340D01*
X53816784Y-51440152D01*
X53951471Y-51520964D01*
X54032284Y-51547902D01*
X54140033Y-51547902D01*
X54247783Y-51494027D01*
X54301658Y-51440152D01*
X54355532Y-51332402D01*
X54355532Y-51278528D01*
X54166971Y-51089966D01*
X54059221Y-51197715D01*
X54651844Y-51089966D02*
X54086158Y-50524280D01*
X54301658Y-50308781D01*
X54382470Y-50281844D01*
X54436345Y-50281844D01*
X54517157Y-50308781D01*
X54597969Y-50389593D01*
X54624906Y-50470406D01*
X54624906Y-50524280D01*
X54597969Y-50605093D01*
X54382470Y-50820592D01*
X55513841Y-50227969D02*
X55190592Y-50551218D01*
X55352216Y-50389593D02*
X54786531Y-49823908D01*
X54813468Y-49958595D01*
X54813468Y-50066345D01*
X54786531Y-50147157D01*
X56052589Y-49689221D02*
X55729340Y-50012470D01*
X55890964Y-49850845D02*
X55325279Y-49285160D01*
X55352216Y-49419847D01*
X55352216Y-49527597D01*
X55325279Y-49608409D01*
X53989722Y-55900592D02*
X53908910Y-55927529D01*
X53828097Y-56008341D01*
X53774223Y-56116091D01*
X53774223Y-56223841D01*
X53801160Y-56304653D01*
X53881972Y-56439340D01*
X53962784Y-56520152D01*
X54097471Y-56600964D01*
X54178284Y-56627902D01*
X54286033Y-56627902D01*
X54393783Y-56574027D01*
X54447658Y-56520152D01*
X54501532Y-56412402D01*
X54501532Y-56358528D01*
X54312971Y-56169966D01*
X54205221Y-56277715D01*
X54797844Y-56169966D02*
X54232158Y-55604280D01*
X54447658Y-55388781D01*
X54528470Y-55361844D01*
X54582345Y-55361844D01*
X54663157Y-55388781D01*
X54743969Y-55469593D01*
X54770906Y-55550406D01*
X54770906Y-55604280D01*
X54743969Y-55685093D01*
X54528470Y-55900592D01*
X55659841Y-55307969D02*
X55336592Y-55631218D01*
X55498216Y-55469593D02*
X54932531Y-54903908D01*
X54959468Y-55038595D01*
X54959468Y-55146345D01*
X54932531Y-55227157D01*
X55282717Y-54553722D02*
X55632903Y-54203536D01*
X55659841Y-54607597D01*
X55740653Y-54526784D01*
X55821465Y-54499847D01*
X55875340Y-54499847D01*
X55956152Y-54526784D01*
X56090839Y-54661471D01*
X56117776Y-54742284D01*
X56117776Y-54796158D01*
X56090839Y-54876971D01*
X55929215Y-55038595D01*
X55848402Y-55065532D01*
X55794528Y-55065532D01*
X54513096Y-25151218D02*
X54432284Y-25178155D01*
X54351471Y-25258967D01*
X54297597Y-25366717D01*
X54297597Y-25474467D01*
X54324534Y-25555279D01*
X54405346Y-25689966D01*
X54486158Y-25770778D01*
X54620845Y-25851590D01*
X54701658Y-25878528D01*
X54809407Y-25878528D01*
X54917157Y-25824653D01*
X54971032Y-25770778D01*
X55024906Y-25663028D01*
X55024906Y-25609154D01*
X54836345Y-25420592D01*
X54728595Y-25528341D01*
X55321218Y-25420592D02*
X54755532Y-24854906D01*
X54971032Y-24639407D01*
X55051844Y-24612470D01*
X55105719Y-24612470D01*
X55186531Y-24639407D01*
X55267343Y-24720219D01*
X55294280Y-24801032D01*
X55294280Y-24854906D01*
X55267343Y-24935719D01*
X55051844Y-25151218D01*
X55267343Y-24343096D02*
X55617529Y-23992910D01*
X55644467Y-24396971D01*
X55725279Y-24316158D01*
X55806091Y-24289221D01*
X55859966Y-24289221D01*
X55940778Y-24316158D01*
X56075465Y-24450845D01*
X56102402Y-24531658D01*
X56102402Y-24585532D01*
X56075465Y-24666345D01*
X55913841Y-24827969D01*
X55833028Y-24854906D01*
X55779154Y-24854906D01*
X54486158Y-45498155D02*
X54405346Y-45525093D01*
X54324534Y-45605905D01*
X54270659Y-45713654D01*
X54270659Y-45821404D01*
X54297597Y-45902216D01*
X54378409Y-46036903D01*
X54459221Y-46117715D01*
X54593908Y-46198528D01*
X54674720Y-46225465D01*
X54782470Y-46225465D01*
X54890219Y-46171590D01*
X54944094Y-46117715D01*
X54997969Y-46009966D01*
X54997969Y-45956091D01*
X54809407Y-45767529D01*
X54701658Y-45875279D01*
X55294280Y-45767529D02*
X54728595Y-45201844D01*
X55617529Y-45444280D01*
X55051844Y-44878595D01*
X55886903Y-45174906D02*
X55321218Y-44609221D01*
X55455905Y-44474534D01*
X55563654Y-44420659D01*
X55671404Y-44420659D01*
X55752216Y-44447597D01*
X55886903Y-44528409D01*
X55967715Y-44609221D01*
X56048528Y-44743908D01*
X56075465Y-44824720D01*
X56075465Y-44932470D01*
X56021590Y-45040219D01*
X55886903Y-45174906D01*
X80086158Y-58198155D02*
X80005346Y-58225093D01*
X79924534Y-58305905D01*
X79870659Y-58413654D01*
X79870659Y-58521404D01*
X79897597Y-58602216D01*
X79978409Y-58736903D01*
X80059221Y-58817715D01*
X80193908Y-58898528D01*
X80274720Y-58925465D01*
X80382470Y-58925465D01*
X80490219Y-58871590D01*
X80544094Y-58817715D01*
X80597969Y-58709966D01*
X80597969Y-58656091D01*
X80409407Y-58467529D01*
X80301658Y-58575279D01*
X80894280Y-58467529D02*
X80328595Y-57901844D01*
X81217529Y-58144280D01*
X80651844Y-57578595D01*
X81486903Y-57874906D02*
X80921218Y-57309221D01*
X81055905Y-57174534D01*
X81163654Y-57120659D01*
X81271404Y-57120659D01*
X81352216Y-57147597D01*
X81486903Y-57228409D01*
X81567715Y-57309221D01*
X81648528Y-57443908D01*
X81675465Y-57524720D01*
X81675465Y-57632470D01*
X81621590Y-57740219D01*
X81486903Y-57874906D01*
X79920473Y-18069966D02*
X80674720Y-18447089D01*
X80297597Y-17692842D01*
X80997969Y-18069966D02*
X81105719Y-18016091D01*
X81240406Y-17881404D01*
X81267343Y-17800592D01*
X81267343Y-17746717D01*
X81240406Y-17665905D01*
X81186531Y-17612030D01*
X81105719Y-17585093D01*
X81051844Y-17585093D01*
X80971032Y-17612030D01*
X80836345Y-17692842D01*
X80755532Y-17719780D01*
X80701658Y-17719780D01*
X80620845Y-17692842D01*
X80566971Y-17638967D01*
X80540033Y-17558155D01*
X80540033Y-17504280D01*
X80566971Y-17423468D01*
X80701658Y-17288781D01*
X80809407Y-17234906D01*
X81428967Y-17154094D02*
X81698341Y-17423468D01*
X80944094Y-17046345D02*
X81428967Y-17154094D01*
X81321218Y-16669221D01*
X82021590Y-17046345D02*
X82129340Y-16992470D01*
X82264027Y-16857783D01*
X82290964Y-16776971D01*
X82290964Y-16723096D01*
X82264027Y-16642284D01*
X82210152Y-16588409D01*
X82129340Y-16561471D01*
X82075465Y-16561471D01*
X81994653Y-16588409D01*
X81859966Y-16669221D01*
X81779154Y-16696158D01*
X81725279Y-16696158D01*
X81644467Y-16669221D01*
X81590592Y-16615346D01*
X81563654Y-16534534D01*
X81563654Y-16480659D01*
X81590592Y-16399847D01*
X81725279Y-16265160D01*
X81833028Y-16211285D01*
X60490476Y-65523809D02*
X60604761Y-65561904D01*
X60795238Y-65561904D01*
X60871428Y-65523809D01*
X60909523Y-65485714D01*
X60947619Y-65409523D01*
X60947619Y-65333333D01*
X60909523Y-65257142D01*
X60871428Y-65219047D01*
X60795238Y-65180952D01*
X60642857Y-65142857D01*
X60566666Y-65104761D01*
X60528571Y-65066666D01*
X60490476Y-64990476D01*
X60490476Y-64914285D01*
X60528571Y-64838095D01*
X60566666Y-64800000D01*
X60642857Y-64761904D01*
X60833333Y-64761904D01*
X60947619Y-64800000D01*
X61214285Y-64761904D02*
X61404761Y-65561904D01*
X61557142Y-64990476D01*
X61709523Y-65561904D01*
X61900000Y-64761904D01*
X62661904Y-65485714D02*
X62623809Y-65523809D01*
X62509523Y-65561904D01*
X62433333Y-65561904D01*
X62319047Y-65523809D01*
X62242857Y-65447619D01*
X62204761Y-65371428D01*
X62166666Y-65219047D01*
X62166666Y-65104761D01*
X62204761Y-64952380D01*
X62242857Y-64876190D01*
X62319047Y-64800000D01*
X62433333Y-64761904D01*
X62509523Y-64761904D01*
X62623809Y-64800000D01*
X62661904Y-64838095D01*
X63385714Y-65561904D02*
X63004761Y-65561904D01*
X63004761Y-64761904D01*
X63652380Y-65561904D02*
X63652380Y-64761904D01*
X64109523Y-65561904D02*
X63766666Y-65104761D01*
X64109523Y-64761904D02*
X63652380Y-65219047D01*
X54613096Y-37821218D02*
X54532284Y-37848155D01*
X54451471Y-37928967D01*
X54397597Y-38036717D01*
X54397597Y-38144467D01*
X54424534Y-38225279D01*
X54505346Y-38359966D01*
X54586158Y-38440778D01*
X54720845Y-38521590D01*
X54801658Y-38548528D01*
X54909407Y-38548528D01*
X55017157Y-38494653D01*
X55071032Y-38440778D01*
X55124906Y-38333028D01*
X55124906Y-38279154D01*
X54936345Y-38090592D01*
X54828595Y-38198341D01*
X55421218Y-38090592D02*
X54855532Y-37524906D01*
X55071032Y-37309407D01*
X55151844Y-37282470D01*
X55205719Y-37282470D01*
X55286531Y-37309407D01*
X55367343Y-37390219D01*
X55394280Y-37471032D01*
X55394280Y-37524906D01*
X55367343Y-37605719D01*
X55151844Y-37821218D01*
X55367343Y-37013096D02*
X55744467Y-36635972D01*
X56067715Y-37444094D01*
X53989722Y-63520592D02*
X53908910Y-63547529D01*
X53828097Y-63628341D01*
X53774223Y-63736091D01*
X53774223Y-63843841D01*
X53801160Y-63924653D01*
X53881972Y-64059340D01*
X53962784Y-64140152D01*
X54097471Y-64220964D01*
X54178284Y-64247902D01*
X54286033Y-64247902D01*
X54393783Y-64194027D01*
X54447658Y-64140152D01*
X54501532Y-64032402D01*
X54501532Y-63978528D01*
X54312971Y-63789966D01*
X54205221Y-63897715D01*
X54797844Y-63789966D02*
X54232158Y-63224280D01*
X54447658Y-63008781D01*
X54528470Y-62981844D01*
X54582345Y-62981844D01*
X54663157Y-63008781D01*
X54743969Y-63089593D01*
X54770906Y-63170406D01*
X54770906Y-63224280D01*
X54743969Y-63305093D01*
X54528470Y-63520592D01*
X55659841Y-62927969D02*
X55336592Y-63251218D01*
X55498216Y-63089593D02*
X54932531Y-62523908D01*
X54959468Y-62658595D01*
X54959468Y-62766345D01*
X54932531Y-62847157D01*
X55605966Y-61850473D02*
X55336592Y-62119847D01*
X55579028Y-62416158D01*
X55579028Y-62362284D01*
X55605966Y-62281471D01*
X55740653Y-62146784D01*
X55821465Y-62119847D01*
X55875340Y-62119847D01*
X55956152Y-62146784D01*
X56090839Y-62281471D01*
X56117776Y-62362284D01*
X56117776Y-62416158D01*
X56090839Y-62496971D01*
X55956152Y-62631658D01*
X55875340Y-62658595D01*
X55821465Y-62658595D01*
X80154788Y-28533773D02*
X80424162Y-28264399D01*
X80262537Y-28749272D02*
X79885414Y-27995025D01*
X80639661Y-28372149D01*
X80828223Y-28183587D02*
X80262537Y-27617902D01*
X80397224Y-27483215D01*
X80504974Y-27429340D01*
X80612723Y-27429340D01*
X80693536Y-27456277D01*
X80828223Y-27537089D01*
X80909035Y-27617902D01*
X80989847Y-27752589D01*
X81016784Y-27833401D01*
X81016784Y-27941150D01*
X80962910Y-28048900D01*
X80828223Y-28183587D01*
X81663282Y-27240778D02*
X81663282Y-27294653D01*
X81609407Y-27402402D01*
X81555532Y-27456277D01*
X81447783Y-27510152D01*
X81340033Y-27510152D01*
X81259221Y-27483215D01*
X81124534Y-27402402D01*
X81043722Y-27321590D01*
X80962910Y-27186903D01*
X80935972Y-27106091D01*
X80935972Y-26998341D01*
X80989847Y-26890592D01*
X81043722Y-26836717D01*
X81151471Y-26782842D01*
X81205346Y-26782842D01*
X81878781Y-27240778D02*
X82309780Y-26809780D01*
X81744094Y-26136345D02*
X82498341Y-26513468D01*
X82121218Y-25759221D01*
X83198714Y-25813096D02*
X82740778Y-25732284D01*
X82875465Y-26136345D02*
X82309780Y-25570659D01*
X82525279Y-25355160D01*
X82606091Y-25328223D01*
X82659966Y-25328223D01*
X82740778Y-25355160D01*
X82821590Y-25435972D01*
X82848528Y-25516784D01*
X82848528Y-25570659D01*
X82821590Y-25651471D01*
X82606091Y-25866971D01*
X83144839Y-25274348D02*
X83333401Y-25085786D01*
X83710524Y-25301285D02*
X83441150Y-25570659D01*
X82875465Y-25004974D01*
X83144839Y-24735600D01*
X83845211Y-24573975D02*
X83656650Y-24762537D01*
X83952961Y-25058849D02*
X83387276Y-24493163D01*
X83656650Y-24223789D01*
X80097722Y-55900592D02*
X80016910Y-55927529D01*
X79936097Y-56008341D01*
X79882223Y-56116091D01*
X79882223Y-56223841D01*
X79909160Y-56304653D01*
X79989972Y-56439340D01*
X80070784Y-56520152D01*
X80205471Y-56600964D01*
X80286284Y-56627902D01*
X80394033Y-56627902D01*
X80501783Y-56574027D01*
X80555658Y-56520152D01*
X80609532Y-56412402D01*
X80609532Y-56358528D01*
X80420971Y-56169966D01*
X80313221Y-56277715D01*
X80905844Y-56169966D02*
X80340158Y-55604280D01*
X80555658Y-55388781D01*
X80636470Y-55361844D01*
X80690345Y-55361844D01*
X80771157Y-55388781D01*
X80851969Y-55469593D01*
X80878906Y-55550406D01*
X80878906Y-55604280D01*
X80851969Y-55685093D01*
X80636470Y-55900592D01*
X81767841Y-55307969D02*
X81444592Y-55631218D01*
X81606216Y-55469593D02*
X81040531Y-54903908D01*
X81067468Y-55038595D01*
X81067468Y-55146345D01*
X81040531Y-55227157D01*
X81767841Y-54661471D02*
X81687028Y-54688409D01*
X81633154Y-54688409D01*
X81552341Y-54661471D01*
X81525404Y-54634534D01*
X81498467Y-54553722D01*
X81498467Y-54499847D01*
X81525404Y-54419035D01*
X81633154Y-54311285D01*
X81713966Y-54284348D01*
X81767841Y-54284348D01*
X81848653Y-54311285D01*
X81875590Y-54338223D01*
X81902528Y-54419035D01*
X81902528Y-54472910D01*
X81875590Y-54553722D01*
X81767841Y-54661471D01*
X81740903Y-54742284D01*
X81740903Y-54796158D01*
X81767841Y-54876971D01*
X81875590Y-54984720D01*
X81956402Y-55011658D01*
X82010277Y-55011658D01*
X82091089Y-54984720D01*
X82198839Y-54876971D01*
X82225776Y-54796158D01*
X82225776Y-54742284D01*
X82198839Y-54661471D01*
X82091089Y-54553722D01*
X82010277Y-54526784D01*
X81956402Y-54526784D01*
X81875590Y-54553722D01*
X80151597Y-33740964D02*
X80420971Y-33471590D01*
X80259346Y-33956463D02*
X79882223Y-33202216D01*
X80636470Y-33579340D01*
X80582595Y-32555719D02*
X80501783Y-32582656D01*
X80420971Y-32663468D01*
X80367096Y-32771218D01*
X80367096Y-32878967D01*
X80394033Y-32959780D01*
X80474845Y-33094467D01*
X80555658Y-33175279D01*
X80690345Y-33256091D01*
X80771157Y-33283028D01*
X80878906Y-33283028D01*
X80986656Y-33229154D01*
X81040531Y-33175279D01*
X81094406Y-33067529D01*
X81094406Y-33013654D01*
X80905844Y-32825093D01*
X80798094Y-32932842D01*
X81390717Y-32825093D02*
X80825032Y-32259407D01*
X81713966Y-32501844D01*
X81148280Y-31936158D01*
X81983340Y-32232470D02*
X81417654Y-31666784D01*
X81552341Y-31532097D01*
X81660091Y-31478223D01*
X81767841Y-31478223D01*
X81848653Y-31505160D01*
X81983340Y-31585972D01*
X82064152Y-31666784D01*
X82144964Y-31801471D01*
X82171902Y-31882284D01*
X82171902Y-31990033D01*
X82118027Y-32097783D01*
X81983340Y-32232470D01*
X54513096Y-27691218D02*
X54432284Y-27718155D01*
X54351471Y-27798967D01*
X54297597Y-27906717D01*
X54297597Y-28014467D01*
X54324534Y-28095279D01*
X54405346Y-28229966D01*
X54486158Y-28310778D01*
X54620845Y-28391590D01*
X54701658Y-28418528D01*
X54809407Y-28418528D01*
X54917157Y-28364653D01*
X54971032Y-28310778D01*
X55024906Y-28203028D01*
X55024906Y-28149154D01*
X54836345Y-27960592D01*
X54728595Y-28068341D01*
X55321218Y-27960592D02*
X54755532Y-27394906D01*
X54971032Y-27179407D01*
X55051844Y-27152470D01*
X55105719Y-27152470D01*
X55186531Y-27179407D01*
X55267343Y-27260219D01*
X55294280Y-27341032D01*
X55294280Y-27394906D01*
X55267343Y-27475719D01*
X55051844Y-27691218D01*
X55752216Y-26775346D02*
X56129340Y-27152470D01*
X55402030Y-26694534D02*
X55671404Y-27233282D01*
X56021590Y-26883096D01*
X54486158Y-20098155D02*
X54405346Y-20125093D01*
X54324534Y-20205905D01*
X54270659Y-20313654D01*
X54270659Y-20421404D01*
X54297597Y-20502216D01*
X54378409Y-20636903D01*
X54459221Y-20717715D01*
X54593908Y-20798528D01*
X54674720Y-20825465D01*
X54782470Y-20825465D01*
X54890219Y-20771590D01*
X54944094Y-20717715D01*
X54997969Y-20609966D01*
X54997969Y-20556091D01*
X54809407Y-20367529D01*
X54701658Y-20475279D01*
X55294280Y-20367529D02*
X54728595Y-19801844D01*
X55617529Y-20044280D01*
X55051844Y-19478595D01*
X55886903Y-19774906D02*
X55321218Y-19209221D01*
X55455905Y-19074534D01*
X55563654Y-19020659D01*
X55671404Y-19020659D01*
X55752216Y-19047597D01*
X55886903Y-19128409D01*
X55967715Y-19209221D01*
X56048528Y-19343908D01*
X56075465Y-19424720D01*
X56075465Y-19532470D01*
X56021590Y-19640219D01*
X55886903Y-19774906D01*
X53989722Y-48280592D02*
X53908910Y-48307529D01*
X53828097Y-48388341D01*
X53774223Y-48496091D01*
X53774223Y-48603841D01*
X53801160Y-48684653D01*
X53881972Y-48819340D01*
X53962784Y-48900152D01*
X54097471Y-48980964D01*
X54178284Y-49007902D01*
X54286033Y-49007902D01*
X54393783Y-48954027D01*
X54447658Y-48900152D01*
X54501532Y-48792402D01*
X54501532Y-48738528D01*
X54312971Y-48549966D01*
X54205221Y-48657715D01*
X54797844Y-48549966D02*
X54232158Y-47984280D01*
X54447658Y-47768781D01*
X54528470Y-47741844D01*
X54582345Y-47741844D01*
X54663157Y-47768781D01*
X54743969Y-47849593D01*
X54770906Y-47930406D01*
X54770906Y-47984280D01*
X54743969Y-48065093D01*
X54528470Y-48280592D01*
X55659841Y-47687969D02*
X55336592Y-48011218D01*
X55498216Y-47849593D02*
X54932531Y-47283908D01*
X54959468Y-47418595D01*
X54959468Y-47526345D01*
X54932531Y-47607157D01*
X55444341Y-46772097D02*
X55498216Y-46718223D01*
X55579028Y-46691285D01*
X55632903Y-46691285D01*
X55713715Y-46718223D01*
X55848402Y-46799035D01*
X55983089Y-46933722D01*
X56063902Y-47068409D01*
X56090839Y-47149221D01*
X56090839Y-47203096D01*
X56063902Y-47283908D01*
X56010027Y-47337783D01*
X55929215Y-47364720D01*
X55875340Y-47364720D01*
X55794528Y-47337783D01*
X55659841Y-47256971D01*
X55525154Y-47122284D01*
X55444341Y-46987597D01*
X55417404Y-46906784D01*
X55417404Y-46852910D01*
X55444341Y-46772097D01*
X80097722Y-43200592D02*
X80016910Y-43227529D01*
X79936097Y-43308341D01*
X79882223Y-43416091D01*
X79882223Y-43523841D01*
X79909160Y-43604653D01*
X79989972Y-43739340D01*
X80070784Y-43820152D01*
X80205471Y-43900964D01*
X80286284Y-43927902D01*
X80394033Y-43927902D01*
X80501783Y-43874027D01*
X80555658Y-43820152D01*
X80609532Y-43712402D01*
X80609532Y-43658528D01*
X80420971Y-43469966D01*
X80313221Y-43577715D01*
X80905844Y-43469966D02*
X80340158Y-42904280D01*
X80555658Y-42688781D01*
X80636470Y-42661844D01*
X80690345Y-42661844D01*
X80771157Y-42688781D01*
X80851969Y-42769593D01*
X80878906Y-42850406D01*
X80878906Y-42904280D01*
X80851969Y-42985093D01*
X80636470Y-43200592D01*
X80932781Y-42419407D02*
X80932781Y-42365532D01*
X80959719Y-42284720D01*
X81094406Y-42150033D01*
X81175218Y-42123096D01*
X81229093Y-42123096D01*
X81309905Y-42150033D01*
X81363780Y-42203908D01*
X81417654Y-42311658D01*
X81417654Y-42958155D01*
X81767841Y-42607969D01*
X81471529Y-41880659D02*
X81471529Y-41826784D01*
X81498467Y-41745972D01*
X81633154Y-41611285D01*
X81713966Y-41584348D01*
X81767841Y-41584348D01*
X81848653Y-41611285D01*
X81902528Y-41665160D01*
X81956402Y-41772910D01*
X81956402Y-42419407D01*
X82306589Y-42069221D01*
X80086158Y-20098155D02*
X80005346Y-20125093D01*
X79924534Y-20205905D01*
X79870659Y-20313654D01*
X79870659Y-20421404D01*
X79897597Y-20502216D01*
X79978409Y-20636903D01*
X80059221Y-20717715D01*
X80193908Y-20798528D01*
X80274720Y-20825465D01*
X80382470Y-20825465D01*
X80490219Y-20771590D01*
X80544094Y-20717715D01*
X80597969Y-20609966D01*
X80597969Y-20556091D01*
X80409407Y-20367529D01*
X80301658Y-20475279D01*
X80894280Y-20367529D02*
X80328595Y-19801844D01*
X81217529Y-20044280D01*
X80651844Y-19478595D01*
X81486903Y-19774906D02*
X80921218Y-19209221D01*
X81055905Y-19074534D01*
X81163654Y-19020659D01*
X81271404Y-19020659D01*
X81352216Y-19047597D01*
X81486903Y-19128409D01*
X81567715Y-19209221D01*
X81648528Y-19343908D01*
X81675465Y-19424720D01*
X81675465Y-19532470D01*
X81621590Y-19640219D01*
X81486903Y-19774906D01*
X53843722Y-53360592D02*
X53762910Y-53387529D01*
X53682097Y-53468341D01*
X53628223Y-53576091D01*
X53628223Y-53683841D01*
X53655160Y-53764653D01*
X53735972Y-53899340D01*
X53816784Y-53980152D01*
X53951471Y-54060964D01*
X54032284Y-54087902D01*
X54140033Y-54087902D01*
X54247783Y-54034027D01*
X54301658Y-53980152D01*
X54355532Y-53872402D01*
X54355532Y-53818528D01*
X54166971Y-53629966D01*
X54059221Y-53737715D01*
X54651844Y-53629966D02*
X54086158Y-53064280D01*
X54301658Y-52848781D01*
X54382470Y-52821844D01*
X54436345Y-52821844D01*
X54517157Y-52848781D01*
X54597969Y-52929593D01*
X54624906Y-53010406D01*
X54624906Y-53064280D01*
X54597969Y-53145093D01*
X54382470Y-53360592D01*
X55513841Y-52767969D02*
X55190592Y-53091218D01*
X55352216Y-52929593D02*
X54786531Y-52363908D01*
X54813468Y-52498595D01*
X54813468Y-52606345D01*
X54786531Y-52687157D01*
X55217529Y-52040659D02*
X55217529Y-51986784D01*
X55244467Y-51905972D01*
X55379154Y-51771285D01*
X55459966Y-51744348D01*
X55513841Y-51744348D01*
X55594653Y-51771285D01*
X55648528Y-51825160D01*
X55702402Y-51932910D01*
X55702402Y-52579407D01*
X56052589Y-52229221D01*
X54513096Y-40391218D02*
X54432284Y-40418155D01*
X54351471Y-40498967D01*
X54297597Y-40606717D01*
X54297597Y-40714467D01*
X54324534Y-40795279D01*
X54405346Y-40929966D01*
X54486158Y-41010778D01*
X54620845Y-41091590D01*
X54701658Y-41118528D01*
X54809407Y-41118528D01*
X54917157Y-41064653D01*
X54971032Y-41010778D01*
X55024906Y-40903028D01*
X55024906Y-40849154D01*
X54836345Y-40660592D01*
X54728595Y-40768341D01*
X55321218Y-40660592D02*
X54755532Y-40094906D01*
X54971032Y-39879407D01*
X55051844Y-39852470D01*
X55105719Y-39852470D01*
X55186531Y-39879407D01*
X55267343Y-39960219D01*
X55294280Y-40041032D01*
X55294280Y-40094906D01*
X55267343Y-40175719D01*
X55051844Y-40391218D01*
X55644467Y-39690845D02*
X55563654Y-39717783D01*
X55509780Y-39717783D01*
X55428967Y-39690845D01*
X55402030Y-39663908D01*
X55375093Y-39583096D01*
X55375093Y-39529221D01*
X55402030Y-39448409D01*
X55509780Y-39340659D01*
X55590592Y-39313722D01*
X55644467Y-39313722D01*
X55725279Y-39340659D01*
X55752216Y-39367597D01*
X55779154Y-39448409D01*
X55779154Y-39502284D01*
X55752216Y-39583096D01*
X55644467Y-39690845D01*
X55617529Y-39771658D01*
X55617529Y-39825532D01*
X55644467Y-39906345D01*
X55752216Y-40014094D01*
X55833028Y-40041032D01*
X55886903Y-40041032D01*
X55967715Y-40014094D01*
X56075465Y-39906345D01*
X56102402Y-39825532D01*
X56102402Y-39771658D01*
X56075465Y-39690845D01*
X55967715Y-39583096D01*
X55886903Y-39556158D01*
X55833028Y-39556158D01*
X55752216Y-39583096D01*
X54486158Y-58198155D02*
X54405346Y-58225093D01*
X54324534Y-58305905D01*
X54270659Y-58413654D01*
X54270659Y-58521404D01*
X54297597Y-58602216D01*
X54378409Y-58736903D01*
X54459221Y-58817715D01*
X54593908Y-58898528D01*
X54674720Y-58925465D01*
X54782470Y-58925465D01*
X54890219Y-58871590D01*
X54944094Y-58817715D01*
X54997969Y-58709966D01*
X54997969Y-58656091D01*
X54809407Y-58467529D01*
X54701658Y-58575279D01*
X55294280Y-58467529D02*
X54728595Y-57901844D01*
X55617529Y-58144280D01*
X55051844Y-57578595D01*
X55886903Y-57874906D02*
X55321218Y-57309221D01*
X55455905Y-57174534D01*
X55563654Y-57120659D01*
X55671404Y-57120659D01*
X55752216Y-57147597D01*
X55886903Y-57228409D01*
X55967715Y-57309221D01*
X56048528Y-57443908D01*
X56075465Y-57524720D01*
X56075465Y-57632470D01*
X56021590Y-57740219D01*
X55886903Y-57874906D01*
X80097722Y-30246592D02*
X80016910Y-30273529D01*
X79936097Y-30354341D01*
X79882223Y-30462091D01*
X79882223Y-30569841D01*
X79909160Y-30650653D01*
X79989972Y-30785340D01*
X80070784Y-30866152D01*
X80205471Y-30946964D01*
X80286284Y-30973902D01*
X80394033Y-30973902D01*
X80501783Y-30920027D01*
X80555658Y-30866152D01*
X80609532Y-30758402D01*
X80609532Y-30704528D01*
X80420971Y-30515966D01*
X80313221Y-30623715D01*
X80905844Y-30515966D02*
X80340158Y-29950280D01*
X80555658Y-29734781D01*
X80636470Y-29707844D01*
X80690345Y-29707844D01*
X80771157Y-29734781D01*
X80851969Y-29815593D01*
X80878906Y-29896406D01*
X80878906Y-29950280D01*
X80851969Y-30031093D01*
X80636470Y-30246592D01*
X80932781Y-29465407D02*
X80932781Y-29411532D01*
X80959719Y-29330720D01*
X81094406Y-29196033D01*
X81175218Y-29169096D01*
X81229093Y-29169096D01*
X81309905Y-29196033D01*
X81363780Y-29249908D01*
X81417654Y-29357658D01*
X81417654Y-30004155D01*
X81767841Y-29653969D01*
X81767841Y-29007471D02*
X81687028Y-29034409D01*
X81633154Y-29034409D01*
X81552341Y-29007471D01*
X81525404Y-28980534D01*
X81498467Y-28899722D01*
X81498467Y-28845847D01*
X81525404Y-28765035D01*
X81633154Y-28657285D01*
X81713966Y-28630348D01*
X81767841Y-28630348D01*
X81848653Y-28657285D01*
X81875590Y-28684223D01*
X81902528Y-28765035D01*
X81902528Y-28818910D01*
X81875590Y-28899722D01*
X81767841Y-29007471D01*
X81740903Y-29088284D01*
X81740903Y-29142158D01*
X81767841Y-29222971D01*
X81875590Y-29330720D01*
X81956402Y-29357658D01*
X82010277Y-29357658D01*
X82091089Y-29330720D01*
X82198839Y-29222971D01*
X82225776Y-29142158D01*
X82225776Y-29088284D01*
X82198839Y-29007471D01*
X82091089Y-28899722D01*
X82010277Y-28872784D01*
X81956402Y-28872784D01*
X81875590Y-28899722D01*
X80097722Y-48290592D02*
X80016910Y-48317529D01*
X79936097Y-48398341D01*
X79882223Y-48506091D01*
X79882223Y-48613841D01*
X79909160Y-48694653D01*
X79989972Y-48829340D01*
X80070784Y-48910152D01*
X80205471Y-48990964D01*
X80286284Y-49017902D01*
X80394033Y-49017902D01*
X80501783Y-48964027D01*
X80555658Y-48910152D01*
X80609532Y-48802402D01*
X80609532Y-48748528D01*
X80420971Y-48559966D01*
X80313221Y-48667715D01*
X80905844Y-48559966D02*
X80340158Y-47994280D01*
X80555658Y-47778781D01*
X80636470Y-47751844D01*
X80690345Y-47751844D01*
X80771157Y-47778781D01*
X80851969Y-47859593D01*
X80878906Y-47940406D01*
X80878906Y-47994280D01*
X80851969Y-48075093D01*
X80636470Y-48290592D01*
X80932781Y-47509407D02*
X80932781Y-47455532D01*
X80959719Y-47374720D01*
X81094406Y-47240033D01*
X81175218Y-47213096D01*
X81229093Y-47213096D01*
X81309905Y-47240033D01*
X81363780Y-47293908D01*
X81417654Y-47401658D01*
X81417654Y-48048155D01*
X81767841Y-47697969D01*
X82306589Y-47159221D02*
X81983340Y-47482470D01*
X82144964Y-47320845D02*
X81579279Y-46755160D01*
X81606216Y-46889847D01*
X81606216Y-46997597D01*
X81579279Y-47078409D01*
%TO.C,L1*%
X22453333Y-37832380D02*
X21977142Y-37832380D01*
X21977142Y-36832380D01*
X23310476Y-37832380D02*
X22739047Y-37832380D01*
X23024761Y-37832380D02*
X23024761Y-36832380D01*
X22929523Y-36975238D01*
X22834285Y-37070476D01*
X22739047Y-37118095D01*
%TO.C,C9*%
X67833333Y-85677142D02*
X67785714Y-85724761D01*
X67642857Y-85772380D01*
X67547619Y-85772380D01*
X67404761Y-85724761D01*
X67309523Y-85629523D01*
X67261904Y-85534285D01*
X67214285Y-85343809D01*
X67214285Y-85200952D01*
X67261904Y-85010476D01*
X67309523Y-84915238D01*
X67404761Y-84820000D01*
X67547619Y-84772380D01*
X67642857Y-84772380D01*
X67785714Y-84820000D01*
X67833333Y-84867619D01*
X68309523Y-85772380D02*
X68500000Y-85772380D01*
X68595238Y-85724761D01*
X68642857Y-85677142D01*
X68738095Y-85534285D01*
X68785714Y-85343809D01*
X68785714Y-84962857D01*
X68738095Y-84867619D01*
X68690476Y-84820000D01*
X68595238Y-84772380D01*
X68404761Y-84772380D01*
X68309523Y-84820000D01*
X68261904Y-84867619D01*
X68214285Y-84962857D01*
X68214285Y-85200952D01*
X68261904Y-85296190D01*
X68309523Y-85343809D01*
X68404761Y-85391428D01*
X68595238Y-85391428D01*
X68690476Y-85343809D01*
X68738095Y-85296190D01*
X68785714Y-85200952D01*
%TO.C,J9*%
X25666666Y-104782380D02*
X25666666Y-105496666D01*
X25619047Y-105639523D01*
X25523809Y-105734761D01*
X25380952Y-105782380D01*
X25285714Y-105782380D01*
X26190476Y-105782380D02*
X26380952Y-105782380D01*
X26476190Y-105734761D01*
X26523809Y-105687142D01*
X26619047Y-105544285D01*
X26666666Y-105353809D01*
X26666666Y-104972857D01*
X26619047Y-104877619D01*
X26571428Y-104830000D01*
X26476190Y-104782380D01*
X26285714Y-104782380D01*
X26190476Y-104830000D01*
X26142857Y-104877619D01*
X26095238Y-104972857D01*
X26095238Y-105210952D01*
X26142857Y-105306190D01*
X26190476Y-105353809D01*
X26285714Y-105401428D01*
X26476190Y-105401428D01*
X26571428Y-105353809D01*
X26619047Y-105306190D01*
X26666666Y-105210952D01*
%TO.C,R17*%
X13632380Y-84042857D02*
X13156190Y-84376190D01*
X13632380Y-84614285D02*
X12632380Y-84614285D01*
X12632380Y-84233333D01*
X12680000Y-84138095D01*
X12727619Y-84090476D01*
X12822857Y-84042857D01*
X12965714Y-84042857D01*
X13060952Y-84090476D01*
X13108571Y-84138095D01*
X13156190Y-84233333D01*
X13156190Y-84614285D01*
X13632380Y-83090476D02*
X13632380Y-83661904D01*
X13632380Y-83376190D02*
X12632380Y-83376190D01*
X12775238Y-83471428D01*
X12870476Y-83566666D01*
X12918095Y-83661904D01*
X12632380Y-82757142D02*
X12632380Y-82090476D01*
X13632380Y-82519047D01*
%TO.C,L2*%
X22453333Y-51052380D02*
X21977142Y-51052380D01*
X21977142Y-50052380D01*
X22739047Y-50147619D02*
X22786666Y-50100000D01*
X22881904Y-50052380D01*
X23120000Y-50052380D01*
X23215238Y-50100000D01*
X23262857Y-50147619D01*
X23310476Y-50242857D01*
X23310476Y-50338095D01*
X23262857Y-50480952D01*
X22691428Y-51052380D01*
X23310476Y-51052380D01*
%TO.C,R25*%
X29632380Y-84042857D02*
X29156190Y-84376190D01*
X29632380Y-84614285D02*
X28632380Y-84614285D01*
X28632380Y-84233333D01*
X28680000Y-84138095D01*
X28727619Y-84090476D01*
X28822857Y-84042857D01*
X28965714Y-84042857D01*
X29060952Y-84090476D01*
X29108571Y-84138095D01*
X29156190Y-84233333D01*
X29156190Y-84614285D01*
X28727619Y-83661904D02*
X28680000Y-83614285D01*
X28632380Y-83519047D01*
X28632380Y-83280952D01*
X28680000Y-83185714D01*
X28727619Y-83138095D01*
X28822857Y-83090476D01*
X28918095Y-83090476D01*
X29060952Y-83138095D01*
X29632380Y-83709523D01*
X29632380Y-83090476D01*
X28632380Y-82185714D02*
X28632380Y-82661904D01*
X29108571Y-82709523D01*
X29060952Y-82661904D01*
X29013333Y-82566666D01*
X29013333Y-82328571D01*
X29060952Y-82233333D01*
X29108571Y-82185714D01*
X29203809Y-82138095D01*
X29441904Y-82138095D01*
X29537142Y-82185714D01*
X29584761Y-82233333D01*
X29632380Y-82328571D01*
X29632380Y-82566666D01*
X29584761Y-82661904D01*
X29537142Y-82709523D01*
%TO.C,J4*%
X65666666Y-104782380D02*
X65666666Y-105496666D01*
X65619047Y-105639523D01*
X65523809Y-105734761D01*
X65380952Y-105782380D01*
X65285714Y-105782380D01*
X66571428Y-105115714D02*
X66571428Y-105782380D01*
X66333333Y-104734761D02*
X66095238Y-105449047D01*
X66714285Y-105449047D01*
%TO.C,J8*%
X52906666Y-104782380D02*
X52906666Y-105496666D01*
X52859047Y-105639523D01*
X52763809Y-105734761D01*
X52620952Y-105782380D01*
X52525714Y-105782380D01*
X53525714Y-105210952D02*
X53430476Y-105163333D01*
X53382857Y-105115714D01*
X53335238Y-105020476D01*
X53335238Y-104972857D01*
X53382857Y-104877619D01*
X53430476Y-104830000D01*
X53525714Y-104782380D01*
X53716190Y-104782380D01*
X53811428Y-104830000D01*
X53859047Y-104877619D01*
X53906666Y-104972857D01*
X53906666Y-105020476D01*
X53859047Y-105115714D01*
X53811428Y-105163333D01*
X53716190Y-105210952D01*
X53525714Y-105210952D01*
X53430476Y-105258571D01*
X53382857Y-105306190D01*
X53335238Y-105401428D01*
X53335238Y-105591904D01*
X53382857Y-105687142D01*
X53430476Y-105734761D01*
X53525714Y-105782380D01*
X53716190Y-105782380D01*
X53811428Y-105734761D01*
X53859047Y-105687142D01*
X53906666Y-105591904D01*
X53906666Y-105401428D01*
X53859047Y-105306190D01*
X53811428Y-105258571D01*
X53716190Y-105210952D01*
%TO.C,R15*%
X13632380Y-90642857D02*
X13156190Y-90976190D01*
X13632380Y-91214285D02*
X12632380Y-91214285D01*
X12632380Y-90833333D01*
X12680000Y-90738095D01*
X12727619Y-90690476D01*
X12822857Y-90642857D01*
X12965714Y-90642857D01*
X13060952Y-90690476D01*
X13108571Y-90738095D01*
X13156190Y-90833333D01*
X13156190Y-91214285D01*
X13632380Y-89690476D02*
X13632380Y-90261904D01*
X13632380Y-89976190D02*
X12632380Y-89976190D01*
X12775238Y-90071428D01*
X12870476Y-90166666D01*
X12918095Y-90261904D01*
X12632380Y-88785714D02*
X12632380Y-89261904D01*
X13108571Y-89309523D01*
X13060952Y-89261904D01*
X13013333Y-89166666D01*
X13013333Y-88928571D01*
X13060952Y-88833333D01*
X13108571Y-88785714D01*
X13203809Y-88738095D01*
X13441904Y-88738095D01*
X13537142Y-88785714D01*
X13584761Y-88833333D01*
X13632380Y-88928571D01*
X13632380Y-89166666D01*
X13584761Y-89261904D01*
X13537142Y-89309523D01*
%TO.C,J3*%
X77666666Y-104782380D02*
X77666666Y-105496666D01*
X77619047Y-105639523D01*
X77523809Y-105734761D01*
X77380952Y-105782380D01*
X77285714Y-105782380D01*
X78047619Y-104782380D02*
X78666666Y-104782380D01*
X78333333Y-105163333D01*
X78476190Y-105163333D01*
X78571428Y-105210952D01*
X78619047Y-105258571D01*
X78666666Y-105353809D01*
X78666666Y-105591904D01*
X78619047Y-105687142D01*
X78571428Y-105734761D01*
X78476190Y-105782380D01*
X78190476Y-105782380D01*
X78095238Y-105734761D01*
X78047619Y-105687142D01*
%TO.C,C2*%
X13107142Y-28069317D02*
X13154761Y-28116936D01*
X13202380Y-28259793D01*
X13202380Y-28355031D01*
X13154761Y-28497889D01*
X13059523Y-28593127D01*
X12964285Y-28640746D01*
X12773809Y-28688365D01*
X12630952Y-28688365D01*
X12440476Y-28640746D01*
X12345238Y-28593127D01*
X12250000Y-28497889D01*
X12202380Y-28355031D01*
X12202380Y-28259793D01*
X12250000Y-28116936D01*
X12297619Y-28069317D01*
X12297619Y-27688365D02*
X12250000Y-27640746D01*
X12202380Y-27545508D01*
X12202380Y-27307412D01*
X12250000Y-27212174D01*
X12297619Y-27164555D01*
X12392857Y-27116936D01*
X12488095Y-27116936D01*
X12630952Y-27164555D01*
X13202380Y-27735984D01*
X13202380Y-27116936D01*
%TO.C,R26*%
X29632380Y-90642857D02*
X29156190Y-90976190D01*
X29632380Y-91214285D02*
X28632380Y-91214285D01*
X28632380Y-90833333D01*
X28680000Y-90738095D01*
X28727619Y-90690476D01*
X28822857Y-90642857D01*
X28965714Y-90642857D01*
X29060952Y-90690476D01*
X29108571Y-90738095D01*
X29156190Y-90833333D01*
X29156190Y-91214285D01*
X28727619Y-90261904D02*
X28680000Y-90214285D01*
X28632380Y-90119047D01*
X28632380Y-89880952D01*
X28680000Y-89785714D01*
X28727619Y-89738095D01*
X28822857Y-89690476D01*
X28918095Y-89690476D01*
X29060952Y-89738095D01*
X29632380Y-90309523D01*
X29632380Y-89690476D01*
X28632380Y-88833333D02*
X28632380Y-89023809D01*
X28680000Y-89119047D01*
X28727619Y-89166666D01*
X28870476Y-89261904D01*
X29060952Y-89309523D01*
X29441904Y-89309523D01*
X29537142Y-89261904D01*
X29584761Y-89214285D01*
X29632380Y-89119047D01*
X29632380Y-88928571D01*
X29584761Y-88833333D01*
X29537142Y-88785714D01*
X29441904Y-88738095D01*
X29203809Y-88738095D01*
X29108571Y-88785714D01*
X29060952Y-88833333D01*
X29013333Y-88928571D01*
X29013333Y-89119047D01*
X29060952Y-89214285D01*
X29108571Y-89261904D01*
X29203809Y-89309523D01*
%TO.C,R11*%
X45632380Y-90642857D02*
X45156190Y-90976190D01*
X45632380Y-91214285D02*
X44632380Y-91214285D01*
X44632380Y-90833333D01*
X44680000Y-90738095D01*
X44727619Y-90690476D01*
X44822857Y-90642857D01*
X44965714Y-90642857D01*
X45060952Y-90690476D01*
X45108571Y-90738095D01*
X45156190Y-90833333D01*
X45156190Y-91214285D01*
X45632380Y-89690476D02*
X45632380Y-90261904D01*
X45632380Y-89976190D02*
X44632380Y-89976190D01*
X44775238Y-90071428D01*
X44870476Y-90166666D01*
X44918095Y-90261904D01*
X45632380Y-88738095D02*
X45632380Y-89309523D01*
X45632380Y-89023809D02*
X44632380Y-89023809D01*
X44775238Y-89119047D01*
X44870476Y-89214285D01*
X44918095Y-89309523D01*
%TO.C,J6*%
X47826666Y-104782380D02*
X47826666Y-105496666D01*
X47779047Y-105639523D01*
X47683809Y-105734761D01*
X47540952Y-105782380D01*
X47445714Y-105782380D01*
X48731428Y-104782380D02*
X48540952Y-104782380D01*
X48445714Y-104830000D01*
X48398095Y-104877619D01*
X48302857Y-105020476D01*
X48255238Y-105210952D01*
X48255238Y-105591904D01*
X48302857Y-105687142D01*
X48350476Y-105734761D01*
X48445714Y-105782380D01*
X48636190Y-105782380D01*
X48731428Y-105734761D01*
X48779047Y-105687142D01*
X48826666Y-105591904D01*
X48826666Y-105353809D01*
X48779047Y-105258571D01*
X48731428Y-105210952D01*
X48636190Y-105163333D01*
X48445714Y-105163333D01*
X48350476Y-105210952D01*
X48302857Y-105258571D01*
X48255238Y-105353809D01*
%TO.C,R12*%
X41632380Y-90642857D02*
X41156190Y-90976190D01*
X41632380Y-91214285D02*
X40632380Y-91214285D01*
X40632380Y-90833333D01*
X40680000Y-90738095D01*
X40727619Y-90690476D01*
X40822857Y-90642857D01*
X40965714Y-90642857D01*
X41060952Y-90690476D01*
X41108571Y-90738095D01*
X41156190Y-90833333D01*
X41156190Y-91214285D01*
X41632380Y-89690476D02*
X41632380Y-90261904D01*
X41632380Y-89976190D02*
X40632380Y-89976190D01*
X40775238Y-90071428D01*
X40870476Y-90166666D01*
X40918095Y-90261904D01*
X40727619Y-89309523D02*
X40680000Y-89261904D01*
X40632380Y-89166666D01*
X40632380Y-88928571D01*
X40680000Y-88833333D01*
X40727619Y-88785714D01*
X40822857Y-88738095D01*
X40918095Y-88738095D01*
X41060952Y-88785714D01*
X41632380Y-89357142D01*
X41632380Y-88738095D01*
%TO.C,J11*%
X31190476Y-104782380D02*
X31190476Y-105496666D01*
X31142857Y-105639523D01*
X31047619Y-105734761D01*
X30904761Y-105782380D01*
X30809523Y-105782380D01*
X32190476Y-105782380D02*
X31619047Y-105782380D01*
X31904761Y-105782380D02*
X31904761Y-104782380D01*
X31809523Y-104925238D01*
X31714285Y-105020476D01*
X31619047Y-105068095D01*
X33142857Y-105782380D02*
X32571428Y-105782380D01*
X32857142Y-105782380D02*
X32857142Y-104782380D01*
X32761904Y-104925238D01*
X32666666Y-105020476D01*
X32571428Y-105068095D01*
%TO.C,C5*%
X31677142Y-24166666D02*
X31724761Y-24214285D01*
X31772380Y-24357142D01*
X31772380Y-24452380D01*
X31724761Y-24595238D01*
X31629523Y-24690476D01*
X31534285Y-24738095D01*
X31343809Y-24785714D01*
X31200952Y-24785714D01*
X31010476Y-24738095D01*
X30915238Y-24690476D01*
X30820000Y-24595238D01*
X30772380Y-24452380D01*
X30772380Y-24357142D01*
X30820000Y-24214285D01*
X30867619Y-24166666D01*
X30772380Y-23261904D02*
X30772380Y-23738095D01*
X31248571Y-23785714D01*
X31200952Y-23738095D01*
X31153333Y-23642857D01*
X31153333Y-23404761D01*
X31200952Y-23309523D01*
X31248571Y-23261904D01*
X31343809Y-23214285D01*
X31581904Y-23214285D01*
X31677142Y-23261904D01*
X31724761Y-23309523D01*
X31772380Y-23404761D01*
X31772380Y-23642857D01*
X31724761Y-23738095D01*
X31677142Y-23785714D01*
%TO.C,C4*%
X27677142Y-24166666D02*
X27724761Y-24214285D01*
X27772380Y-24357142D01*
X27772380Y-24452380D01*
X27724761Y-24595238D01*
X27629523Y-24690476D01*
X27534285Y-24738095D01*
X27343809Y-24785714D01*
X27200952Y-24785714D01*
X27010476Y-24738095D01*
X26915238Y-24690476D01*
X26820000Y-24595238D01*
X26772380Y-24452380D01*
X26772380Y-24357142D01*
X26820000Y-24214285D01*
X26867619Y-24166666D01*
X27105714Y-23309523D02*
X27772380Y-23309523D01*
X26724761Y-23547619D02*
X27439047Y-23785714D01*
X27439047Y-23166666D01*
%TO.C,R10*%
X49632380Y-90642857D02*
X49156190Y-90976190D01*
X49632380Y-91214285D02*
X48632380Y-91214285D01*
X48632380Y-90833333D01*
X48680000Y-90738095D01*
X48727619Y-90690476D01*
X48822857Y-90642857D01*
X48965714Y-90642857D01*
X49060952Y-90690476D01*
X49108571Y-90738095D01*
X49156190Y-90833333D01*
X49156190Y-91214285D01*
X49632380Y-89690476D02*
X49632380Y-90261904D01*
X49632380Y-89976190D02*
X48632380Y-89976190D01*
X48775238Y-90071428D01*
X48870476Y-90166666D01*
X48918095Y-90261904D01*
X48632380Y-89071428D02*
X48632380Y-88976190D01*
X48680000Y-88880952D01*
X48727619Y-88833333D01*
X48822857Y-88785714D01*
X49013333Y-88738095D01*
X49251428Y-88738095D01*
X49441904Y-88785714D01*
X49537142Y-88833333D01*
X49584761Y-88880952D01*
X49632380Y-88976190D01*
X49632380Y-89071428D01*
X49584761Y-89166666D01*
X49537142Y-89214285D01*
X49441904Y-89261904D01*
X49251428Y-89309523D01*
X49013333Y-89309523D01*
X48822857Y-89261904D01*
X48727619Y-89214285D01*
X48680000Y-89166666D01*
X48632380Y-89071428D01*
%TO.C,J2*%
X71666666Y-104782380D02*
X71666666Y-105496666D01*
X71619047Y-105639523D01*
X71523809Y-105734761D01*
X71380952Y-105782380D01*
X71285714Y-105782380D01*
X72095238Y-104877619D02*
X72142857Y-104830000D01*
X72238095Y-104782380D01*
X72476190Y-104782380D01*
X72571428Y-104830000D01*
X72619047Y-104877619D01*
X72666666Y-104972857D01*
X72666666Y-105068095D01*
X72619047Y-105210952D01*
X72047619Y-105782380D01*
X72666666Y-105782380D01*
%TO.C,U1*%
X29238095Y-27402380D02*
X29238095Y-28211904D01*
X29285714Y-28307142D01*
X29333333Y-28354761D01*
X29428571Y-28402380D01*
X29619047Y-28402380D01*
X29714285Y-28354761D01*
X29761904Y-28307142D01*
X29809523Y-28211904D01*
X29809523Y-27402380D01*
X30809523Y-28402380D02*
X30238095Y-28402380D01*
X30523809Y-28402380D02*
X30523809Y-27402380D01*
X30428571Y-27545238D01*
X30333333Y-27640476D01*
X30238095Y-27688095D01*
%TO.C,C3*%
X35833333Y-51037142D02*
X35785714Y-51084761D01*
X35642857Y-51132380D01*
X35547619Y-51132380D01*
X35404761Y-51084761D01*
X35309523Y-50989523D01*
X35261904Y-50894285D01*
X35214285Y-50703809D01*
X35214285Y-50560952D01*
X35261904Y-50370476D01*
X35309523Y-50275238D01*
X35404761Y-50180000D01*
X35547619Y-50132380D01*
X35642857Y-50132380D01*
X35785714Y-50180000D01*
X35833333Y-50227619D01*
X36166666Y-50132380D02*
X36785714Y-50132380D01*
X36452380Y-50513333D01*
X36595238Y-50513333D01*
X36690476Y-50560952D01*
X36738095Y-50608571D01*
X36785714Y-50703809D01*
X36785714Y-50941904D01*
X36738095Y-51037142D01*
X36690476Y-51084761D01*
X36595238Y-51132380D01*
X36309523Y-51132380D01*
X36214285Y-51084761D01*
X36166666Y-51037142D01*
%TO.C,U2*%
X33052380Y-44761904D02*
X33861904Y-44761904D01*
X33957142Y-44714285D01*
X34004761Y-44666666D01*
X34052380Y-44571428D01*
X34052380Y-44380952D01*
X34004761Y-44285714D01*
X33957142Y-44238095D01*
X33861904Y-44190476D01*
X33052380Y-44190476D01*
X33147619Y-43761904D02*
X33100000Y-43714285D01*
X33052380Y-43619047D01*
X33052380Y-43380952D01*
X33100000Y-43285714D01*
X33147619Y-43238095D01*
X33242857Y-43190476D01*
X33338095Y-43190476D01*
X33480952Y-43238095D01*
X34052380Y-43809523D01*
X34052380Y-43190476D01*
%TO.C,J1*%
X43316666Y-29302380D02*
X43316666Y-30016666D01*
X43269047Y-30159523D01*
X43173809Y-30254761D01*
X43030952Y-30302380D01*
X42935714Y-30302380D01*
X44316666Y-30302380D02*
X43745238Y-30302380D01*
X44030952Y-30302380D02*
X44030952Y-29302380D01*
X43935714Y-29445238D01*
X43840476Y-29540476D01*
X43745238Y-29588095D01*
%TO.C,D1*%
X43261904Y-31952380D02*
X43261904Y-30952380D01*
X43500000Y-30952380D01*
X43642857Y-31000000D01*
X43738095Y-31095238D01*
X43785714Y-31190476D01*
X43833333Y-31380952D01*
X43833333Y-31523809D01*
X43785714Y-31714285D01*
X43738095Y-31809523D01*
X43642857Y-31904761D01*
X43500000Y-31952380D01*
X43261904Y-31952380D01*
X44785714Y-31952380D02*
X44214285Y-31952380D01*
X44500000Y-31952380D02*
X44500000Y-30952380D01*
X44404761Y-31095238D01*
X44309523Y-31190476D01*
X44214285Y-31238095D01*
%TO.C,R8*%
X43272380Y-47166666D02*
X42796190Y-47500000D01*
X43272380Y-47738095D02*
X42272380Y-47738095D01*
X42272380Y-47357142D01*
X42320000Y-47261904D01*
X42367619Y-47214285D01*
X42462857Y-47166666D01*
X42605714Y-47166666D01*
X42700952Y-47214285D01*
X42748571Y-47261904D01*
X42796190Y-47357142D01*
X42796190Y-47738095D01*
X42700952Y-46595238D02*
X42653333Y-46690476D01*
X42605714Y-46738095D01*
X42510476Y-46785714D01*
X42462857Y-46785714D01*
X42367619Y-46738095D01*
X42320000Y-46690476D01*
X42272380Y-46595238D01*
X42272380Y-46404761D01*
X42320000Y-46309523D01*
X42367619Y-46261904D01*
X42462857Y-46214285D01*
X42510476Y-46214285D01*
X42605714Y-46261904D01*
X42653333Y-46309523D01*
X42700952Y-46404761D01*
X42700952Y-46595238D01*
X42748571Y-46690476D01*
X42796190Y-46738095D01*
X42891428Y-46785714D01*
X43081904Y-46785714D01*
X43177142Y-46738095D01*
X43224761Y-46690476D01*
X43272380Y-46595238D01*
X43272380Y-46404761D01*
X43224761Y-46309523D01*
X43177142Y-46261904D01*
X43081904Y-46214285D01*
X42891428Y-46214285D01*
X42796190Y-46261904D01*
X42748571Y-46309523D01*
X42700952Y-46404761D01*
%TO.C,R27*%
X33632380Y-90642857D02*
X33156190Y-90976190D01*
X33632380Y-91214285D02*
X32632380Y-91214285D01*
X32632380Y-90833333D01*
X32680000Y-90738095D01*
X32727619Y-90690476D01*
X32822857Y-90642857D01*
X32965714Y-90642857D01*
X33060952Y-90690476D01*
X33108571Y-90738095D01*
X33156190Y-90833333D01*
X33156190Y-91214285D01*
X32727619Y-90261904D02*
X32680000Y-90214285D01*
X32632380Y-90119047D01*
X32632380Y-89880952D01*
X32680000Y-89785714D01*
X32727619Y-89738095D01*
X32822857Y-89690476D01*
X32918095Y-89690476D01*
X33060952Y-89738095D01*
X33632380Y-90309523D01*
X33632380Y-89690476D01*
X32632380Y-89357142D02*
X32632380Y-88690476D01*
X33632380Y-89119047D01*
%TO.C,U6*%
X67452380Y-76761904D02*
X68261904Y-76761904D01*
X68357142Y-76714285D01*
X68404761Y-76666666D01*
X68452380Y-76571428D01*
X68452380Y-76380952D01*
X68404761Y-76285714D01*
X68357142Y-76238095D01*
X68261904Y-76190476D01*
X67452380Y-76190476D01*
X67452380Y-75285714D02*
X67452380Y-75476190D01*
X67500000Y-75571428D01*
X67547619Y-75619047D01*
X67690476Y-75714285D01*
X67880952Y-75761904D01*
X68261904Y-75761904D01*
X68357142Y-75714285D01*
X68404761Y-75666666D01*
X68452380Y-75571428D01*
X68452380Y-75380952D01*
X68404761Y-75285714D01*
X68357142Y-75238095D01*
X68261904Y-75190476D01*
X68023809Y-75190476D01*
X67928571Y-75238095D01*
X67880952Y-75285714D01*
X67833333Y-75380952D01*
X67833333Y-75571428D01*
X67880952Y-75666666D01*
X67928571Y-75714285D01*
X68023809Y-75761904D01*
%TO.C,R16*%
X53357142Y-71632380D02*
X53023809Y-71156190D01*
X52785714Y-71632380D02*
X52785714Y-70632380D01*
X53166666Y-70632380D01*
X53261904Y-70680000D01*
X53309523Y-70727619D01*
X53357142Y-70822857D01*
X53357142Y-70965714D01*
X53309523Y-71060952D01*
X53261904Y-71108571D01*
X53166666Y-71156190D01*
X52785714Y-71156190D01*
X54309523Y-71632380D02*
X53738095Y-71632380D01*
X54023809Y-71632380D02*
X54023809Y-70632380D01*
X53928571Y-70775238D01*
X53833333Y-70870476D01*
X53738095Y-70918095D01*
X55166666Y-70632380D02*
X54976190Y-70632380D01*
X54880952Y-70680000D01*
X54833333Y-70727619D01*
X54738095Y-70870476D01*
X54690476Y-71060952D01*
X54690476Y-71441904D01*
X54738095Y-71537142D01*
X54785714Y-71584761D01*
X54880952Y-71632380D01*
X55071428Y-71632380D01*
X55166666Y-71584761D01*
X55214285Y-71537142D01*
X55261904Y-71441904D01*
X55261904Y-71203809D01*
X55214285Y-71108571D01*
X55166666Y-71060952D01*
X55071428Y-71013333D01*
X54880952Y-71013333D01*
X54785714Y-71060952D01*
X54738095Y-71108571D01*
X54690476Y-71203809D01*
%TO.C,U4*%
X24452380Y-65761904D02*
X25261904Y-65761904D01*
X25357142Y-65714285D01*
X25404761Y-65666666D01*
X25452380Y-65571428D01*
X25452380Y-65380952D01*
X25404761Y-65285714D01*
X25357142Y-65238095D01*
X25261904Y-65190476D01*
X24452380Y-65190476D01*
X24785714Y-64285714D02*
X25452380Y-64285714D01*
X24404761Y-64523809D02*
X25119047Y-64761904D01*
X25119047Y-64142857D01*
%TO.C,J7*%
X42746666Y-104782380D02*
X42746666Y-105496666D01*
X42699047Y-105639523D01*
X42603809Y-105734761D01*
X42460952Y-105782380D01*
X42365714Y-105782380D01*
X43127619Y-104782380D02*
X43794285Y-104782380D01*
X43365714Y-105782380D01*
%TO.C,R24*%
X25632380Y-84042857D02*
X25156190Y-84376190D01*
X25632380Y-84614285D02*
X24632380Y-84614285D01*
X24632380Y-84233333D01*
X24680000Y-84138095D01*
X24727619Y-84090476D01*
X24822857Y-84042857D01*
X24965714Y-84042857D01*
X25060952Y-84090476D01*
X25108571Y-84138095D01*
X25156190Y-84233333D01*
X25156190Y-84614285D01*
X24727619Y-83661904D02*
X24680000Y-83614285D01*
X24632380Y-83519047D01*
X24632380Y-83280952D01*
X24680000Y-83185714D01*
X24727619Y-83138095D01*
X24822857Y-83090476D01*
X24918095Y-83090476D01*
X25060952Y-83138095D01*
X25632380Y-83709523D01*
X25632380Y-83090476D01*
X24965714Y-82233333D02*
X25632380Y-82233333D01*
X24584761Y-82471428D02*
X25299047Y-82709523D01*
X25299047Y-82090476D01*
%TO.C,R23*%
X37632380Y-90642857D02*
X37156190Y-90976190D01*
X37632380Y-91214285D02*
X36632380Y-91214285D01*
X36632380Y-90833333D01*
X36680000Y-90738095D01*
X36727619Y-90690476D01*
X36822857Y-90642857D01*
X36965714Y-90642857D01*
X37060952Y-90690476D01*
X37108571Y-90738095D01*
X37156190Y-90833333D01*
X37156190Y-91214285D01*
X36727619Y-90261904D02*
X36680000Y-90214285D01*
X36632380Y-90119047D01*
X36632380Y-89880952D01*
X36680000Y-89785714D01*
X36727619Y-89738095D01*
X36822857Y-89690476D01*
X36918095Y-89690476D01*
X37060952Y-89738095D01*
X37632380Y-90309523D01*
X37632380Y-89690476D01*
X36632380Y-89357142D02*
X36632380Y-88738095D01*
X37013333Y-89071428D01*
X37013333Y-88928571D01*
X37060952Y-88833333D01*
X37108571Y-88785714D01*
X37203809Y-88738095D01*
X37441904Y-88738095D01*
X37537142Y-88785714D01*
X37584761Y-88833333D01*
X37632380Y-88928571D01*
X37632380Y-89214285D01*
X37584761Y-89309523D01*
X37537142Y-89357142D01*
%TO.C,R14*%
X53357142Y-76632380D02*
X53023809Y-76156190D01*
X52785714Y-76632380D02*
X52785714Y-75632380D01*
X53166666Y-75632380D01*
X53261904Y-75680000D01*
X53309523Y-75727619D01*
X53357142Y-75822857D01*
X53357142Y-75965714D01*
X53309523Y-76060952D01*
X53261904Y-76108571D01*
X53166666Y-76156190D01*
X52785714Y-76156190D01*
X54309523Y-76632380D02*
X53738095Y-76632380D01*
X54023809Y-76632380D02*
X54023809Y-75632380D01*
X53928571Y-75775238D01*
X53833333Y-75870476D01*
X53738095Y-75918095D01*
X55166666Y-75965714D02*
X55166666Y-76632380D01*
X54928571Y-75584761D02*
X54690476Y-76299047D01*
X55309523Y-76299047D01*
%TO.C,C6*%
X35833333Y-41037142D02*
X35785714Y-41084761D01*
X35642857Y-41132380D01*
X35547619Y-41132380D01*
X35404761Y-41084761D01*
X35309523Y-40989523D01*
X35261904Y-40894285D01*
X35214285Y-40703809D01*
X35214285Y-40560952D01*
X35261904Y-40370476D01*
X35309523Y-40275238D01*
X35404761Y-40180000D01*
X35547619Y-40132380D01*
X35642857Y-40132380D01*
X35785714Y-40180000D01*
X35833333Y-40227619D01*
X36690476Y-40132380D02*
X36500000Y-40132380D01*
X36404761Y-40180000D01*
X36357142Y-40227619D01*
X36261904Y-40370476D01*
X36214285Y-40560952D01*
X36214285Y-40941904D01*
X36261904Y-41037142D01*
X36309523Y-41084761D01*
X36404761Y-41132380D01*
X36595238Y-41132380D01*
X36690476Y-41084761D01*
X36738095Y-41037142D01*
X36785714Y-40941904D01*
X36785714Y-40703809D01*
X36738095Y-40608571D01*
X36690476Y-40560952D01*
X36595238Y-40513333D01*
X36404761Y-40513333D01*
X36309523Y-40560952D01*
X36261904Y-40608571D01*
X36214285Y-40703809D01*
%TO.C,C7*%
X23107142Y-17069317D02*
X23154761Y-17116936D01*
X23202380Y-17259793D01*
X23202380Y-17355031D01*
X23154761Y-17497889D01*
X23059523Y-17593127D01*
X22964285Y-17640746D01*
X22773809Y-17688365D01*
X22630952Y-17688365D01*
X22440476Y-17640746D01*
X22345238Y-17593127D01*
X22250000Y-17497889D01*
X22202380Y-17355031D01*
X22202380Y-17259793D01*
X22250000Y-17116936D01*
X22297619Y-17069317D01*
X22202380Y-16735984D02*
X22202380Y-16069317D01*
X23202380Y-16497889D01*
%TO.C,C8*%
X67833333Y-89677142D02*
X67785714Y-89724761D01*
X67642857Y-89772380D01*
X67547619Y-89772380D01*
X67404761Y-89724761D01*
X67309523Y-89629523D01*
X67261904Y-89534285D01*
X67214285Y-89343809D01*
X67214285Y-89200952D01*
X67261904Y-89010476D01*
X67309523Y-88915238D01*
X67404761Y-88820000D01*
X67547619Y-88772380D01*
X67642857Y-88772380D01*
X67785714Y-88820000D01*
X67833333Y-88867619D01*
X68404761Y-89200952D02*
X68309523Y-89153333D01*
X68261904Y-89105714D01*
X68214285Y-89010476D01*
X68214285Y-88962857D01*
X68261904Y-88867619D01*
X68309523Y-88820000D01*
X68404761Y-88772380D01*
X68595238Y-88772380D01*
X68690476Y-88820000D01*
X68738095Y-88867619D01*
X68785714Y-88962857D01*
X68785714Y-89010476D01*
X68738095Y-89105714D01*
X68690476Y-89153333D01*
X68595238Y-89200952D01*
X68404761Y-89200952D01*
X68309523Y-89248571D01*
X68261904Y-89296190D01*
X68214285Y-89391428D01*
X68214285Y-89581904D01*
X68261904Y-89677142D01*
X68309523Y-89724761D01*
X68404761Y-89772380D01*
X68595238Y-89772380D01*
X68690476Y-89724761D01*
X68738095Y-89677142D01*
X68785714Y-89581904D01*
X68785714Y-89391428D01*
X68738095Y-89296190D01*
X68690476Y-89248571D01*
X68595238Y-89200952D01*
%TO.C,R21*%
X37632380Y-84042857D02*
X37156190Y-84376190D01*
X37632380Y-84614285D02*
X36632380Y-84614285D01*
X36632380Y-84233333D01*
X36680000Y-84138095D01*
X36727619Y-84090476D01*
X36822857Y-84042857D01*
X36965714Y-84042857D01*
X37060952Y-84090476D01*
X37108571Y-84138095D01*
X37156190Y-84233333D01*
X37156190Y-84614285D01*
X36727619Y-83661904D02*
X36680000Y-83614285D01*
X36632380Y-83519047D01*
X36632380Y-83280952D01*
X36680000Y-83185714D01*
X36727619Y-83138095D01*
X36822857Y-83090476D01*
X36918095Y-83090476D01*
X37060952Y-83138095D01*
X37632380Y-83709523D01*
X37632380Y-83090476D01*
X37632380Y-82138095D02*
X37632380Y-82709523D01*
X37632380Y-82423809D02*
X36632380Y-82423809D01*
X36775238Y-82519047D01*
X36870476Y-82614285D01*
X36918095Y-82709523D01*
%TO.C,R22*%
X33632380Y-84042857D02*
X33156190Y-84376190D01*
X33632380Y-84614285D02*
X32632380Y-84614285D01*
X32632380Y-84233333D01*
X32680000Y-84138095D01*
X32727619Y-84090476D01*
X32822857Y-84042857D01*
X32965714Y-84042857D01*
X33060952Y-84090476D01*
X33108571Y-84138095D01*
X33156190Y-84233333D01*
X33156190Y-84614285D01*
X32727619Y-83661904D02*
X32680000Y-83614285D01*
X32632380Y-83519047D01*
X32632380Y-83280952D01*
X32680000Y-83185714D01*
X32727619Y-83138095D01*
X32822857Y-83090476D01*
X32918095Y-83090476D01*
X33060952Y-83138095D01*
X33632380Y-83709523D01*
X33632380Y-83090476D01*
X32727619Y-82709523D02*
X32680000Y-82661904D01*
X32632380Y-82566666D01*
X32632380Y-82328571D01*
X32680000Y-82233333D01*
X32727619Y-82185714D01*
X32822857Y-82138095D01*
X32918095Y-82138095D01*
X33060952Y-82185714D01*
X33632380Y-82757142D01*
X33632380Y-82138095D01*
%TO.C,R7*%
X43272380Y-41166666D02*
X42796190Y-41500000D01*
X43272380Y-41738095D02*
X42272380Y-41738095D01*
X42272380Y-41357142D01*
X42320000Y-41261904D01*
X42367619Y-41214285D01*
X42462857Y-41166666D01*
X42605714Y-41166666D01*
X42700952Y-41214285D01*
X42748571Y-41261904D01*
X42796190Y-41357142D01*
X42796190Y-41738095D01*
X42272380Y-40833333D02*
X42272380Y-40166666D01*
X43272380Y-40595238D01*
D12*
%TO.C,R6*%
X85735436Y-49910000D02*
X87189564Y-49910000D01*
X85735436Y-48090000D02*
X87189564Y-48090000D01*
%TO.C,R5*%
X85735436Y-44910000D02*
X87189564Y-44910000D01*
X85735436Y-43090000D02*
X87189564Y-43090000D01*
%TO.C,R4*%
X85735436Y-39910000D02*
X87189564Y-39910000D01*
X85735436Y-38090000D02*
X87189564Y-38090000D01*
%TO.C,R3*%
X85735436Y-34910000D02*
X87189564Y-34910000D01*
X85735436Y-33090000D02*
X87189564Y-33090000D01*
%TO.C,R2*%
X51727064Y-66910000D02*
X50272936Y-66910000D01*
X51727064Y-65090000D02*
X50272936Y-65090000D01*
%TO.C,R1*%
X51727064Y-61910000D02*
X50272936Y-61910000D01*
X51727064Y-60090000D02*
X50272936Y-60090000D01*
%TO.C,R19*%
X23910000Y-84127064D02*
X23910000Y-82672936D01*
X22090000Y-84127064D02*
X22090000Y-82672936D01*
%TO.C,R20*%
X18090000Y-84127064D02*
X18090000Y-82672936D01*
X19910000Y-84127064D02*
X19910000Y-82672936D01*
%TO.C,U5*%
X60000000Y-86265000D02*
X62200000Y-86265000D01*
X60000000Y-91735000D02*
X62200000Y-91735000D01*
X60000000Y-86265000D02*
X56400000Y-86265000D01*
X60000000Y-91735000D02*
X57800000Y-91735000D01*
%TO.C,C1*%
X24265000Y-24261252D02*
X24265000Y-23738748D01*
X25735000Y-24261252D02*
X25735000Y-23738748D01*
%TO.C,R13*%
X43910000Y-84127064D02*
X43910000Y-82672936D01*
X42090000Y-84127064D02*
X42090000Y-82672936D01*
%TO.C,R9*%
X47910000Y-84127064D02*
X47910000Y-82672936D01*
X46090000Y-84127064D02*
X46090000Y-82672936D01*
%TO.C,R18*%
X19910000Y-90727064D02*
X19910000Y-89272936D01*
X18090000Y-90727064D02*
X18090000Y-89272936D01*
%TO.C,J10*%
X39330000Y-101730000D02*
X36670000Y-101730000D01*
X39330000Y-99130000D02*
X36670000Y-99130000D01*
X39330000Y-101730000D02*
X39330000Y-99130000D01*
X36670000Y-101730000D02*
X36670000Y-99130000D01*
X39330000Y-104330000D02*
X38000000Y-104330000D01*
X39330000Y-103000000D02*
X39330000Y-104330000D01*
%TO.C,J5*%
X61330000Y-96590000D02*
X58670000Y-96590000D01*
X61330000Y-101730000D02*
X61330000Y-96590000D01*
X61330000Y-104330000D02*
X60000000Y-104330000D01*
X58670000Y-101730000D02*
X58670000Y-96590000D01*
X61330000Y-101730000D02*
X58670000Y-101730000D01*
X61330000Y-103000000D02*
X61330000Y-104330000D01*
%TO.C,U3*%
X78500000Y-61700000D02*
X78500000Y-62100000D01*
X78500000Y-21000000D02*
X78500000Y-21400000D01*
X57500000Y-38800000D02*
X57500000Y-39200000D01*
X57500000Y-51500000D02*
X57500000Y-51900000D01*
X57500000Y-16167000D02*
X60507000Y-16167000D01*
X78500000Y-15900000D02*
X78500000Y-16300000D01*
X78500000Y-43900000D02*
X78500000Y-44300000D01*
X57500000Y-33700000D02*
X57500000Y-34100000D01*
X78500000Y-18500000D02*
X78500000Y-18900000D01*
X78500000Y-13500000D02*
X78500000Y-13800000D01*
X57500000Y-41300000D02*
X57500000Y-41700000D01*
X57500000Y-26100000D02*
X57500000Y-26500000D01*
X57500000Y-13500000D02*
X57500000Y-13800000D01*
X78500000Y-64500000D02*
X71700000Y-64500000D01*
X78500000Y-56600000D02*
X78500000Y-57000000D01*
X78500000Y-59100000D02*
X78500000Y-59500000D01*
X57500000Y-56600000D02*
X57500000Y-57000000D01*
X60507000Y-16167000D02*
X60507000Y-13500000D01*
X78500000Y-23600000D02*
X78500000Y-24000000D01*
X57500000Y-61700000D02*
X57500000Y-62100000D01*
X78500000Y-54100000D02*
X78500000Y-54500000D01*
X78500000Y-31200000D02*
X78500000Y-31600000D01*
X69100000Y-64500000D02*
X69500000Y-64500000D01*
X78500000Y-46400000D02*
X78500000Y-46800000D01*
X78500000Y-49000000D02*
X78500000Y-49400000D01*
X78500000Y-26100000D02*
X78500000Y-26500000D01*
X57500000Y-13500000D02*
X78500000Y-13500000D01*
X57500000Y-31200000D02*
X57500000Y-31600000D01*
X57500000Y-23600000D02*
X57500000Y-24000000D01*
X57500000Y-28600000D02*
X57500000Y-29000000D01*
X78500000Y-28600000D02*
X78500000Y-29000000D01*
X57500000Y-18500000D02*
X57500000Y-18900000D01*
X57500000Y-46400000D02*
X57500000Y-46800000D01*
X57500000Y-49000000D02*
X57500000Y-49400000D01*
X78500000Y-33700000D02*
X78500000Y-34100000D01*
X78500000Y-51500000D02*
X78500000Y-51900000D01*
X57500000Y-15900000D02*
X57500000Y-16300000D01*
X57500000Y-36300000D02*
X57500000Y-36700000D01*
X66500000Y-64500000D02*
X66900000Y-64500000D01*
X57500000Y-43900000D02*
X57500000Y-44300000D01*
X57500000Y-59100000D02*
X57500000Y-59500000D01*
X64300000Y-64500000D02*
X57500000Y-64500000D01*
X78500000Y-41300000D02*
X78500000Y-41700000D01*
X57500000Y-21000000D02*
X57500000Y-21400000D01*
X57500000Y-54100000D02*
X57500000Y-54500000D01*
X78500000Y-38800000D02*
X78500000Y-39200000D01*
X78500000Y-36300000D02*
X78500000Y-36700000D01*
%TO.C,L1*%
X16500000Y-38380000D02*
X16500000Y-43620000D01*
X16440000Y-41000000D02*
X16500000Y-41000000D01*
X28740000Y-43620000D02*
X28740000Y-38380000D01*
X28800000Y-41000000D02*
X28740000Y-41000000D01*
X16500000Y-43620000D02*
X28740000Y-43620000D01*
X28740000Y-38380000D02*
X16500000Y-38380000D01*
%TO.C,C9*%
X67738748Y-87735000D02*
X68261252Y-87735000D01*
X67738748Y-86265000D02*
X68261252Y-86265000D01*
%TO.C,J9*%
X27330000Y-94050000D02*
X24670000Y-94050000D01*
X24670000Y-101730000D02*
X24670000Y-94050000D01*
X27330000Y-104330000D02*
X26000000Y-104330000D01*
X27330000Y-101730000D02*
X24670000Y-101730000D01*
X27330000Y-103000000D02*
X27330000Y-104330000D01*
X27330000Y-101730000D02*
X27330000Y-94050000D01*
%TO.C,R17*%
X15910000Y-84127064D02*
X15910000Y-82672936D01*
X14090000Y-84127064D02*
X14090000Y-82672936D01*
%TO.C,L2*%
X16440000Y-47000000D02*
X16500000Y-47000000D01*
X16500000Y-44380000D02*
X16500000Y-49620000D01*
X28800000Y-47000000D02*
X28740000Y-47000000D01*
X16500000Y-49620000D02*
X28740000Y-49620000D01*
X28740000Y-49620000D02*
X28740000Y-44380000D01*
X28740000Y-44380000D02*
X16500000Y-44380000D01*
%TO.C,R25*%
X30090000Y-84127064D02*
X30090000Y-82672936D01*
X31910000Y-84127064D02*
X31910000Y-82672936D01*
%TO.C,J4*%
X67330000Y-103000000D02*
X67330000Y-104330000D01*
X67330000Y-101730000D02*
X67330000Y-96590000D01*
X67330000Y-104330000D02*
X66000000Y-104330000D01*
X64670000Y-101730000D02*
X64670000Y-96590000D01*
X67330000Y-101730000D02*
X64670000Y-101730000D01*
X67330000Y-96590000D02*
X64670000Y-96590000D01*
%TO.C,J8*%
X54570000Y-99130000D02*
X51910000Y-99130000D01*
X54570000Y-104330000D02*
X53240000Y-104330000D01*
X54570000Y-103000000D02*
X54570000Y-104330000D01*
X54570000Y-101730000D02*
X54570000Y-99130000D01*
X51910000Y-101730000D02*
X51910000Y-99130000D01*
X54570000Y-101730000D02*
X51910000Y-101730000D01*
%TO.C,R15*%
X15910000Y-90727064D02*
X15910000Y-89272936D01*
X14090000Y-90727064D02*
X14090000Y-89272936D01*
%TO.C,J3*%
X79330000Y-103000000D02*
X79330000Y-104330000D01*
X79330000Y-91510000D02*
X76670000Y-91510000D01*
X79330000Y-101730000D02*
X76670000Y-101730000D01*
X79330000Y-104330000D02*
X78000000Y-104330000D01*
X79330000Y-101730000D02*
X79330000Y-91510000D01*
X76670000Y-101730000D02*
X76670000Y-91510000D01*
%TO.C,C2*%
X19040000Y-26141651D02*
X21686000Y-26141651D01*
X19040000Y-25941651D02*
X21584000Y-25941651D01*
X19040000Y-25461651D02*
X21280000Y-25461651D01*
X14086000Y-26741651D02*
X16960000Y-26741651D01*
X19040000Y-25901651D02*
X21562000Y-25901651D01*
X14165000Y-26501651D02*
X16960000Y-26501651D01*
X14691000Y-25501651D02*
X16960000Y-25501651D01*
X13920000Y-27862651D02*
X22080000Y-27862651D01*
X15713000Y-24501651D02*
X20287000Y-24501651D01*
X19040000Y-25661651D02*
X21418000Y-25661651D01*
X17232000Y-23861651D02*
X18768000Y-23861651D01*
X19040000Y-26661651D02*
X21889000Y-26661651D01*
X16547000Y-24061651D02*
X19453000Y-24061651D01*
X13924000Y-27702651D02*
X22076000Y-27702651D01*
X13952000Y-27382651D02*
X22048000Y-27382651D01*
X19040000Y-26421651D02*
X21805000Y-26421651D01*
X19040000Y-26741651D02*
X21914000Y-26741651D01*
X19040000Y-26941651D02*
X21967000Y-26941651D01*
X14811000Y-25341651D02*
X16960000Y-25341651D01*
X19040000Y-25381651D02*
X21220000Y-25381651D01*
X13929000Y-27622651D02*
X22071000Y-27622651D01*
X19040000Y-25501651D02*
X21309000Y-25501651D01*
X17052000Y-23901651D02*
X18948000Y-23901651D01*
X13990000Y-27141651D02*
X16960000Y-27141651D01*
X15055000Y-25061651D02*
X20945000Y-25061651D01*
X14945000Y-25181651D02*
X16960000Y-25181651D01*
X14608000Y-25621651D02*
X16960000Y-25621651D01*
X16036000Y-24301651D02*
X19964000Y-24301651D01*
X13970000Y-27262651D02*
X22030000Y-27262651D01*
X15834000Y-24421651D02*
X20166000Y-24421651D01*
X15396000Y-24741651D02*
X20604000Y-24741651D01*
X14098000Y-26701651D02*
X16960000Y-26701651D01*
X19040000Y-27021651D02*
X21985000Y-27021651D01*
X14123000Y-26621651D02*
X16960000Y-26621651D01*
X15017000Y-25101651D02*
X20983000Y-25101651D01*
X13958000Y-27342651D02*
X22042000Y-27342651D01*
X14296000Y-26181651D02*
X16960000Y-26181651D01*
X19040000Y-26341651D02*
X21774000Y-26341651D01*
X16269000Y-24181651D02*
X19731000Y-24181651D01*
X14137000Y-26581651D02*
X16960000Y-26581651D01*
X19040000Y-25861651D02*
X21540000Y-25861651D01*
X14043000Y-26901651D02*
X16960000Y-26901651D01*
X15133000Y-24981651D02*
X20867000Y-24981651D01*
X19040000Y-25301651D02*
X21156000Y-25301651D01*
X15546000Y-24621651D02*
X20454000Y-24621651D01*
X14033000Y-26941651D02*
X16960000Y-26941651D01*
X19040000Y-26101651D02*
X21666000Y-26101651D01*
X14635000Y-25581651D02*
X16960000Y-25581651D01*
X14720000Y-25461651D02*
X16960000Y-25461651D01*
X19040000Y-27101651D02*
X22002000Y-27101651D01*
X14373000Y-26021651D02*
X16960000Y-26021651D01*
X19040000Y-25701651D02*
X21444000Y-25701651D01*
X15495000Y-24661651D02*
X20505000Y-24661651D01*
X14662000Y-25541651D02*
X16960000Y-25541651D01*
X15685000Y-32312349D02*
X15685000Y-31512349D01*
X14582000Y-25661651D02*
X16960000Y-25661651D01*
X13943000Y-27462651D02*
X22057000Y-27462651D01*
X14334000Y-26101651D02*
X16960000Y-26101651D01*
X19040000Y-27061651D02*
X21994000Y-27061651D01*
X13932000Y-27582651D02*
X22068000Y-27582651D01*
X14556000Y-25701651D02*
X16960000Y-25701651D01*
X13976000Y-27222651D02*
X22024000Y-27222651D01*
X19040000Y-25141651D02*
X21019000Y-25141651D01*
X19040000Y-25541651D02*
X21338000Y-25541651D01*
X15655000Y-24541651D02*
X20345000Y-24541651D01*
X19040000Y-25981651D02*
X21606000Y-25981651D01*
X14353000Y-26061651D02*
X16960000Y-26061651D01*
X15772000Y-24461651D02*
X20228000Y-24461651D01*
X16902000Y-23941651D02*
X19098000Y-23941651D01*
X19040000Y-26221651D02*
X21722000Y-26221651D01*
X14844000Y-25301651D02*
X16960000Y-25301651D01*
X19040000Y-25181651D02*
X21055000Y-25181651D01*
X14438000Y-25901651D02*
X16960000Y-25901651D01*
X16187000Y-24221651D02*
X19813000Y-24221651D01*
X14150000Y-26541651D02*
X16960000Y-26541651D01*
X19040000Y-25261651D02*
X21124000Y-25261651D01*
X13998000Y-27101651D02*
X16960000Y-27101651D01*
X14075000Y-26781651D02*
X16960000Y-26781651D01*
X19040000Y-26981651D02*
X21976000Y-26981651D01*
X14876000Y-25261651D02*
X16960000Y-25261651D01*
X19040000Y-27181651D02*
X22017000Y-27181651D01*
X14780000Y-25381651D02*
X16960000Y-25381651D01*
X19040000Y-25821651D02*
X21517000Y-25821651D01*
X19040000Y-26261651D02*
X21740000Y-26261651D01*
X19040000Y-26381651D02*
X21790000Y-26381651D01*
X19040000Y-26701651D02*
X21902000Y-26701651D01*
X14064000Y-26821651D02*
X16960000Y-26821651D01*
X13920000Y-27902651D02*
X22080000Y-27902651D01*
X14210000Y-26381651D02*
X16960000Y-26381651D01*
X14226000Y-26341651D02*
X16960000Y-26341651D01*
X16355000Y-24141651D02*
X19645000Y-24141651D01*
X15093000Y-25021651D02*
X20907000Y-25021651D01*
X14053000Y-26861651D02*
X16960000Y-26861651D01*
X14179000Y-26461651D02*
X16960000Y-26461651D01*
X14195000Y-26421651D02*
X16960000Y-26421651D01*
X14260000Y-26261651D02*
X16960000Y-26261651D01*
X19040000Y-26181651D02*
X21704000Y-26181651D01*
X14111000Y-26661651D02*
X16960000Y-26661651D01*
X14750000Y-25421651D02*
X16960000Y-25421651D01*
X15600000Y-24581651D02*
X20400000Y-24581651D01*
X15216000Y-24901651D02*
X20784000Y-24901651D01*
X13963000Y-27302651D02*
X22037000Y-27302651D01*
X19040000Y-25781651D02*
X21493000Y-25781651D01*
X14416000Y-25941651D02*
X16960000Y-25941651D01*
X19040000Y-26901651D02*
X21957000Y-26901651D01*
X13923000Y-27742651D02*
X22077000Y-27742651D01*
X15285000Y-31912349D02*
X16085000Y-31912349D01*
X14483000Y-25821651D02*
X16960000Y-25821651D01*
X13921000Y-27782651D02*
X22079000Y-27782651D01*
X14460000Y-25861651D02*
X16960000Y-25861651D01*
X14531000Y-25741651D02*
X16960000Y-25741651D01*
X15444000Y-24701651D02*
X20556000Y-24701651D01*
X15966000Y-24341651D02*
X20034000Y-24341651D01*
X14394000Y-25981651D02*
X16960000Y-25981651D01*
X19040000Y-25421651D02*
X21250000Y-25421651D01*
X19040000Y-25741651D02*
X21469000Y-25741651D01*
X19040000Y-26861651D02*
X21947000Y-26861651D01*
X14507000Y-25781651D02*
X16960000Y-25781651D01*
X15259000Y-24861651D02*
X20741000Y-24861651D01*
X14006000Y-27061651D02*
X16960000Y-27061651D01*
X14981000Y-25141651D02*
X16960000Y-25141651D01*
X16771000Y-23981651D02*
X19229000Y-23981651D01*
X19040000Y-25581651D02*
X21365000Y-25581651D01*
X16448000Y-24101651D02*
X19552000Y-24101651D01*
X17467000Y-23821651D02*
X18533000Y-23821651D01*
X14015000Y-27021651D02*
X16960000Y-27021651D01*
X19040000Y-26781651D02*
X21925000Y-26781651D01*
X14278000Y-26221651D02*
X16960000Y-26221651D01*
X19040000Y-26621651D02*
X21877000Y-26621651D01*
X19040000Y-26461651D02*
X21821000Y-26461651D01*
X16110000Y-24261651D02*
X19890000Y-24261651D01*
X15174000Y-24941651D02*
X20826000Y-24941651D01*
X13939000Y-27502651D02*
X22061000Y-27502651D01*
X13926000Y-27662651D02*
X22074000Y-27662651D01*
X13920000Y-27822651D02*
X22080000Y-27822651D01*
X13983000Y-27181651D02*
X16960000Y-27181651D01*
X19040000Y-26021651D02*
X21627000Y-26021651D01*
X19040000Y-25341651D02*
X21189000Y-25341651D01*
X19040000Y-26541651D02*
X21850000Y-26541651D01*
X19040000Y-26581651D02*
X21863000Y-26581651D01*
X19040000Y-26301651D02*
X21757000Y-26301651D01*
X14243000Y-26301651D02*
X16960000Y-26301651D01*
X16654000Y-24021651D02*
X19346000Y-24021651D01*
X19040000Y-26061651D02*
X21647000Y-26061651D01*
X19040000Y-26821651D02*
X21936000Y-26821651D01*
X19040000Y-25621651D02*
X21392000Y-25621651D01*
X19040000Y-25221651D02*
X21090000Y-25221651D01*
X19040000Y-26501651D02*
X21835000Y-26501651D01*
X13948000Y-27422651D02*
X22052000Y-27422651D01*
X19040000Y-27141651D02*
X22010000Y-27141651D01*
X14024000Y-26981651D02*
X16960000Y-26981651D01*
X14314000Y-26141651D02*
X16960000Y-26141651D01*
X14910000Y-25221651D02*
X16960000Y-25221651D01*
X15349000Y-24781651D02*
X20651000Y-24781651D01*
X15303000Y-24821651D02*
X20697000Y-24821651D01*
X15898000Y-24381651D02*
X20102000Y-24381651D01*
X13935000Y-27542651D02*
X22065000Y-27542651D01*
X22120000Y-27902651D02*
G75*
G03*
X22120000Y-27902651I-4120000J0D01*
G01*
%TO.C,R26*%
X31910000Y-90727064D02*
X31910000Y-89272936D01*
X30090000Y-90727064D02*
X30090000Y-89272936D01*
%TO.C,R11*%
X47910000Y-90727064D02*
X47910000Y-89272936D01*
X46090000Y-90727064D02*
X46090000Y-89272936D01*
%TO.C,J6*%
X49490000Y-101730000D02*
X49490000Y-99130000D01*
X46830000Y-101730000D02*
X46830000Y-99130000D01*
X49490000Y-99130000D02*
X46830000Y-99130000D01*
X49490000Y-104330000D02*
X48160000Y-104330000D01*
X49490000Y-103000000D02*
X49490000Y-104330000D01*
X49490000Y-101730000D02*
X46830000Y-101730000D01*
%TO.C,R12*%
X42090000Y-90727064D02*
X42090000Y-89272936D01*
X43910000Y-90727064D02*
X43910000Y-89272936D01*
%TO.C,J11*%
X33330000Y-101730000D02*
X33330000Y-96590000D01*
X33330000Y-96590000D02*
X30670000Y-96590000D01*
X30670000Y-101730000D02*
X30670000Y-96590000D01*
X33330000Y-103000000D02*
X33330000Y-104330000D01*
X33330000Y-101730000D02*
X30670000Y-101730000D01*
X33330000Y-104330000D02*
X32000000Y-104330000D01*
%TO.C,C5*%
X33735000Y-24261252D02*
X33735000Y-23738748D01*
X32265000Y-24261252D02*
X32265000Y-23738748D01*
%TO.C,C4*%
X29735000Y-24261252D02*
X29735000Y-23738748D01*
X28265000Y-24261252D02*
X28265000Y-23738748D01*
%TO.C,R10*%
X50090000Y-90727064D02*
X50090000Y-89272936D01*
X51910000Y-90727064D02*
X51910000Y-89272936D01*
%TO.C,J2*%
X73330000Y-101730000D02*
X73330000Y-94050000D01*
X73330000Y-103000000D02*
X73330000Y-104330000D01*
X73330000Y-104330000D02*
X72000000Y-104330000D01*
X70670000Y-101730000D02*
X70670000Y-94050000D01*
X73330000Y-101730000D02*
X70670000Y-101730000D01*
X73330000Y-94050000D02*
X70670000Y-94050000D01*
%TO.C,U1*%
X30000000Y-35210000D02*
X32760000Y-35210000D01*
X27240000Y-28790000D02*
X27240000Y-29535000D01*
X32760000Y-28790000D02*
X32760000Y-29535000D01*
X32760000Y-35210000D02*
X32760000Y-34465000D01*
X30000000Y-35210000D02*
X27240000Y-35210000D01*
X27240000Y-35210000D02*
X27240000Y-34465000D01*
X30000000Y-28790000D02*
X27240000Y-28790000D01*
X27240000Y-29535000D02*
X25550000Y-29535000D01*
X30000000Y-28790000D02*
X32760000Y-28790000D01*
%TO.C,C3*%
X36261252Y-48265000D02*
X35738748Y-48265000D01*
X36261252Y-49735000D02*
X35738748Y-49735000D01*
%TO.C,U2*%
X37560000Y-44000000D02*
X37560000Y-43200000D01*
X34440000Y-44000000D02*
X34440000Y-45800000D01*
X34440000Y-44000000D02*
X34440000Y-43200000D01*
X37560000Y-44000000D02*
X37560000Y-44800000D01*
%TO.C,J1*%
X46850000Y-28350000D02*
X48550000Y-28350000D01*
X39050000Y-28050000D02*
X39050000Y-26750000D01*
X48250000Y-28050000D02*
X46250000Y-28050000D01*
X39050000Y-22150000D02*
X39050000Y-13550000D01*
X48250000Y-13550000D02*
X48250000Y-28050000D01*
X48550000Y-28350000D02*
X48550000Y-27050000D01*
X41050000Y-28050000D02*
X39050000Y-28050000D01*
X39050000Y-13550000D02*
X48250000Y-13550000D01*
%TO.C,D1*%
X40600000Y-35650000D02*
X46000000Y-35650000D01*
X40600000Y-32350000D02*
X40600000Y-35650000D01*
X40600000Y-32350000D02*
X46000000Y-32350000D01*
%TO.C,R8*%
X41910000Y-46272936D02*
X41910000Y-47727064D01*
X40090000Y-46272936D02*
X40090000Y-47727064D01*
%TO.C,R27*%
X34090000Y-90727064D02*
X34090000Y-89272936D01*
X35910000Y-90727064D02*
X35910000Y-89272936D01*
%TO.C,U6*%
X57840000Y-83620000D02*
X78160000Y-83620000D01*
X78160000Y-83620000D02*
X78160000Y-68380000D01*
X78160000Y-68380000D02*
X57840000Y-68380000D01*
X57840000Y-68380000D02*
X57840000Y-83620000D01*
%TO.C,R16*%
X53272936Y-73910000D02*
X54727064Y-73910000D01*
X53272936Y-72090000D02*
X54727064Y-72090000D01*
%TO.C,U4*%
X13570000Y-77700000D02*
X36430000Y-77700000D01*
X36430000Y-77700000D02*
X36430000Y-52300000D01*
X36430000Y-52300000D02*
X13570000Y-52300000D01*
X13570000Y-52300000D02*
X13570000Y-77700000D01*
%TO.C,J7*%
X44410000Y-99130000D02*
X41750000Y-99130000D01*
X44410000Y-103000000D02*
X44410000Y-104330000D01*
X44410000Y-101730000D02*
X41750000Y-101730000D01*
X41750000Y-101730000D02*
X41750000Y-99130000D01*
X44410000Y-101730000D02*
X44410000Y-99130000D01*
X44410000Y-104330000D02*
X43080000Y-104330000D01*
%TO.C,R24*%
X26090000Y-84127064D02*
X26090000Y-82672936D01*
X27910000Y-84127064D02*
X27910000Y-82672936D01*
%TO.C,R23*%
X39910000Y-90727064D02*
X39910000Y-89272936D01*
X38090000Y-90727064D02*
X38090000Y-89272936D01*
%TO.C,R14*%
X53272936Y-78910000D02*
X54727064Y-78910000D01*
X53272936Y-77090000D02*
X54727064Y-77090000D01*
%TO.C,C6*%
X36261252Y-38265000D02*
X35738748Y-38265000D01*
X36261252Y-39735000D02*
X35738748Y-39735000D01*
%TO.C,C7*%
X29040000Y-14461651D02*
X31280000Y-14461651D01*
X24582000Y-14661651D02*
X26960000Y-14661651D01*
X29040000Y-15221651D02*
X31722000Y-15221651D01*
X24353000Y-15061651D02*
X26960000Y-15061651D01*
X29040000Y-15661651D02*
X31889000Y-15661651D01*
X29040000Y-15341651D02*
X31774000Y-15341651D01*
X23920000Y-16902651D02*
X32080000Y-16902651D01*
X29040000Y-14661651D02*
X31418000Y-14661651D01*
X25285000Y-20912349D02*
X26085000Y-20912349D01*
X29040000Y-14901651D02*
X31562000Y-14901651D01*
X29040000Y-14861651D02*
X31540000Y-14861651D01*
X24811000Y-14341651D02*
X26960000Y-14341651D01*
X23923000Y-16742651D02*
X32077000Y-16742651D01*
X24086000Y-15741651D02*
X26960000Y-15741651D01*
X24075000Y-15781651D02*
X26960000Y-15781651D01*
X25017000Y-14101651D02*
X30983000Y-14101651D01*
X24438000Y-14901651D02*
X26960000Y-14901651D01*
X29040000Y-15021651D02*
X31627000Y-15021651D01*
X24394000Y-14981651D02*
X26960000Y-14981651D01*
X24910000Y-14221651D02*
X26960000Y-14221651D01*
X29040000Y-15581651D02*
X31863000Y-15581651D01*
X27467000Y-12821651D02*
X28533000Y-12821651D01*
X24556000Y-14701651D02*
X26960000Y-14701651D01*
X24226000Y-15341651D02*
X26960000Y-15341651D01*
X29040000Y-14221651D02*
X31090000Y-14221651D01*
X25495000Y-13661651D02*
X30505000Y-13661651D01*
X23935000Y-16542651D02*
X32065000Y-16542651D01*
X23939000Y-16502651D02*
X32061000Y-16502651D01*
X29040000Y-14341651D02*
X31189000Y-14341651D01*
X29040000Y-15381651D02*
X31790000Y-15381651D01*
X23929000Y-16622651D02*
X32071000Y-16622651D01*
X29040000Y-15781651D02*
X31925000Y-15781651D01*
X25444000Y-13701651D02*
X30556000Y-13701651D01*
X29040000Y-16181651D02*
X32017000Y-16181651D01*
X24460000Y-14861651D02*
X26960000Y-14861651D01*
X26547000Y-13061651D02*
X29453000Y-13061651D01*
X23932000Y-16582651D02*
X32068000Y-16582651D01*
X29040000Y-15981651D02*
X31976000Y-15981651D01*
X29040000Y-15141651D02*
X31686000Y-15141651D01*
X24195000Y-15421651D02*
X26960000Y-15421651D01*
X23948000Y-16422651D02*
X32052000Y-16422651D01*
X25216000Y-13901651D02*
X30784000Y-13901651D01*
X29040000Y-15261651D02*
X31740000Y-15261651D01*
X23920000Y-16822651D02*
X32080000Y-16822651D01*
X26036000Y-13301651D02*
X29964000Y-13301651D01*
X25396000Y-13741651D02*
X30604000Y-13741651D01*
X26110000Y-13261651D02*
X29890000Y-13261651D01*
X29040000Y-14581651D02*
X31365000Y-14581651D01*
X27232000Y-12861651D02*
X28768000Y-12861651D01*
X24260000Y-15261651D02*
X26960000Y-15261651D01*
X24531000Y-14741651D02*
X26960000Y-14741651D01*
X24334000Y-15101651D02*
X26960000Y-15101651D01*
X29040000Y-14261651D02*
X31124000Y-14261651D01*
X24720000Y-14461651D02*
X26960000Y-14461651D01*
X29040000Y-16141651D02*
X32010000Y-16141651D01*
X29040000Y-15741651D02*
X31914000Y-15741651D01*
X29040000Y-16021651D02*
X31985000Y-16021651D01*
X25713000Y-13501651D02*
X30287000Y-13501651D01*
X29040000Y-14421651D02*
X31250000Y-14421651D01*
X24150000Y-15541651D02*
X26960000Y-15541651D01*
X29040000Y-14621651D02*
X31392000Y-14621651D01*
X29040000Y-14381651D02*
X31220000Y-14381651D01*
X24507000Y-14781651D02*
X26960000Y-14781651D01*
X26771000Y-12981651D02*
X29229000Y-12981651D01*
X25546000Y-13621651D02*
X30454000Y-13621651D01*
X23921000Y-16782651D02*
X32079000Y-16782651D01*
X25174000Y-13941651D02*
X30826000Y-13941651D01*
X29040000Y-14781651D02*
X31493000Y-14781651D01*
X24635000Y-14581651D02*
X26960000Y-14581651D01*
X24373000Y-15021651D02*
X26960000Y-15021651D01*
X24243000Y-15301651D02*
X26960000Y-15301651D01*
X23983000Y-16181651D02*
X26960000Y-16181651D01*
X23920000Y-16862651D02*
X32080000Y-16862651D01*
X24111000Y-15661651D02*
X26960000Y-15661651D01*
X24780000Y-14381651D02*
X26960000Y-14381651D01*
X29040000Y-14541651D02*
X31338000Y-14541651D01*
X24006000Y-16061651D02*
X26960000Y-16061651D01*
X26269000Y-13181651D02*
X29731000Y-13181651D01*
X24945000Y-14181651D02*
X26960000Y-14181651D01*
X24015000Y-16021651D02*
X26960000Y-16021651D01*
X23976000Y-16222651D02*
X32024000Y-16222651D01*
X23952000Y-16382651D02*
X32048000Y-16382651D01*
X26448000Y-13101651D02*
X29552000Y-13101651D01*
X29040000Y-15621651D02*
X31877000Y-15621651D01*
X24296000Y-15181651D02*
X26960000Y-15181651D01*
X29040000Y-14701651D02*
X31444000Y-14701651D01*
X23998000Y-16101651D02*
X26960000Y-16101651D01*
X24981000Y-14141651D02*
X26960000Y-14141651D01*
X29040000Y-14941651D02*
X31584000Y-14941651D01*
X24844000Y-14301651D02*
X26960000Y-14301651D01*
X29040000Y-16061651D02*
X31994000Y-16061651D01*
X29040000Y-15061651D02*
X31647000Y-15061651D01*
X25898000Y-13381651D02*
X30102000Y-13381651D01*
X23924000Y-16702651D02*
X32076000Y-16702651D01*
X24137000Y-15581651D02*
X26960000Y-15581651D01*
X24314000Y-15141651D02*
X26960000Y-15141651D01*
X29040000Y-15861651D02*
X31947000Y-15861651D01*
X23963000Y-16302651D02*
X32037000Y-16302651D01*
X29040000Y-14181651D02*
X31055000Y-14181651D01*
X25655000Y-13541651D02*
X30345000Y-13541651D01*
X24608000Y-14621651D02*
X26960000Y-14621651D01*
X29040000Y-15821651D02*
X31936000Y-15821651D01*
X29040000Y-15701651D02*
X31902000Y-15701651D01*
X29040000Y-15901651D02*
X31957000Y-15901651D01*
X24210000Y-15381651D02*
X26960000Y-15381651D01*
X29040000Y-14821651D02*
X31517000Y-14821651D01*
X29040000Y-14141651D02*
X31019000Y-14141651D01*
X26355000Y-13141651D02*
X29645000Y-13141651D01*
X24165000Y-15501651D02*
X26960000Y-15501651D01*
X24098000Y-15701651D02*
X26960000Y-15701651D01*
X29040000Y-15421651D02*
X31805000Y-15421651D01*
X24053000Y-15861651D02*
X26960000Y-15861651D01*
X29040000Y-14741651D02*
X31469000Y-14741651D01*
X29040000Y-14981651D02*
X31606000Y-14981651D01*
X25303000Y-13821651D02*
X30697000Y-13821651D01*
X25966000Y-13341651D02*
X30034000Y-13341651D01*
X23926000Y-16662651D02*
X32074000Y-16662651D01*
X29040000Y-15541651D02*
X31850000Y-15541651D01*
X27052000Y-12901651D02*
X28948000Y-12901651D01*
X24123000Y-15621651D02*
X26960000Y-15621651D01*
X23958000Y-16342651D02*
X32042000Y-16342651D01*
X23943000Y-16462651D02*
X32057000Y-16462651D01*
X24024000Y-15981651D02*
X26960000Y-15981651D01*
X23970000Y-16262651D02*
X32030000Y-16262651D01*
X25133000Y-13981651D02*
X30867000Y-13981651D01*
X24750000Y-14421651D02*
X26960000Y-14421651D01*
X24043000Y-15901651D02*
X26960000Y-15901651D01*
X25093000Y-14021651D02*
X30907000Y-14021651D01*
X26902000Y-12941651D02*
X29098000Y-12941651D01*
X25259000Y-13861651D02*
X30741000Y-13861651D01*
X26654000Y-13021651D02*
X29346000Y-13021651D01*
X29040000Y-15501651D02*
X31835000Y-15501651D01*
X24179000Y-15461651D02*
X26960000Y-15461651D01*
X24691000Y-14501651D02*
X26960000Y-14501651D01*
X25600000Y-13581651D02*
X30400000Y-13581651D01*
X29040000Y-15301651D02*
X31757000Y-15301651D01*
X26187000Y-13221651D02*
X29813000Y-13221651D01*
X25834000Y-13421651D02*
X30166000Y-13421651D01*
X24416000Y-14941651D02*
X26960000Y-14941651D01*
X24876000Y-14261651D02*
X26960000Y-14261651D01*
X29040000Y-15941651D02*
X31967000Y-15941651D01*
X29040000Y-14501651D02*
X31309000Y-14501651D01*
X29040000Y-14301651D02*
X31156000Y-14301651D01*
X24033000Y-15941651D02*
X26960000Y-15941651D01*
X24064000Y-15821651D02*
X26960000Y-15821651D01*
X24278000Y-15221651D02*
X26960000Y-15221651D01*
X29040000Y-15461651D02*
X31821000Y-15461651D01*
X25685000Y-21312349D02*
X25685000Y-20512349D01*
X24662000Y-14541651D02*
X26960000Y-14541651D01*
X29040000Y-15101651D02*
X31666000Y-15101651D01*
X29040000Y-15181651D02*
X31704000Y-15181651D01*
X25055000Y-14061651D02*
X30945000Y-14061651D01*
X24483000Y-14821651D02*
X26960000Y-14821651D01*
X23990000Y-16141651D02*
X26960000Y-16141651D01*
X25772000Y-13461651D02*
X30228000Y-13461651D01*
X25349000Y-13781651D02*
X30651000Y-13781651D01*
X29040000Y-16101651D02*
X32002000Y-16101651D01*
X32120000Y-16902651D02*
G75*
G03*
X32120000Y-16902651I-4120000J0D01*
G01*
%TO.C,C8*%
X67738748Y-90265000D02*
X68261252Y-90265000D01*
X67738748Y-91735000D02*
X68261252Y-91735000D01*
%TO.C,R21*%
X39910000Y-84127064D02*
X39910000Y-82672936D01*
X38090000Y-84127064D02*
X38090000Y-82672936D01*
%TO.C,R22*%
X34090000Y-84127064D02*
X34090000Y-82672936D01*
X35910000Y-84127064D02*
X35910000Y-82672936D01*
%TO.C,R7*%
X40090000Y-40272936D02*
X40090000Y-41727064D01*
X41910000Y-40272936D02*
X41910000Y-41727064D01*
%TD*%
M02*
