%TF.GenerationSoftware,KiCad,Pcbnew,(6.0.5)*%
%TF.CreationDate,2022-08-05T12:45:14-04:00*%
%TF.ProjectId,RICM Greenpower Telemetry Module,5249434d-2047-4726-9565-6e706f776572,rev?*%
%TF.SameCoordinates,Original*%
%TF.FileFunction,Copper,L1,Top*%
%TF.FilePolarity,Positive*%
%FSLAX46Y46*%
G04 Gerber Fmt 4.6, Leading zero omitted, Abs format (unit mm)*
G04 Created by KiCad (PCBNEW (6.0.5)) date 2022-08-05 12:45:14*
%MOMM*%
%LPD*%
G01*
G04 APERTURE LIST*
G04 Aperture macros list*
%AMRoundRect*
0 Rectangle with rounded corners*
0 $1 Rounding radius*
0 $2 $3 $4 $5 $6 $7 $8 $9 X,Y pos of 4 corners*
0 Add a 4 corners polygon primitive as box body*
4,1,4,$2,$3,$4,$5,$6,$7,$8,$9,$2,$3,0*
0 Add four circle primitives for the rounded corners*
1,1,$1+$1,$2,$3*
1,1,$1+$1,$4,$5*
1,1,$1+$1,$6,$7*
1,1,$1+$1,$8,$9*
0 Add four rect primitives between the rounded corners*
20,1,$1+$1,$2,$3,$4,$5,0*
20,1,$1+$1,$4,$5,$6,$7,0*
20,1,$1+$1,$6,$7,$8,$9,0*
20,1,$1+$1,$8,$9,$2,$3,0*%
G04 Aperture macros list end*
%TA.AperFunction,SMDPad,CuDef*%
%ADD10R,3.500000X1.700000*%
%TD*%
%TA.AperFunction,ComponentPad*%
%ADD11O,1.700000X1.700000*%
%TD*%
%TA.AperFunction,ComponentPad*%
%ADD12R,1.700000X1.700000*%
%TD*%
%TA.AperFunction,SMDPad,CuDef*%
%ADD13R,1.700000X3.500000*%
%TD*%
%TA.AperFunction,ComponentPad*%
%ADD14C,1.600000*%
%TD*%
%TA.AperFunction,ComponentPad*%
%ADD15O,1.600000X1.600000*%
%TD*%
%TA.AperFunction,ComponentPad*%
%ADD16R,1.600000X1.600000*%
%TD*%
%TA.AperFunction,ComponentPad*%
%ADD17R,1.800000X1.800000*%
%TD*%
%TA.AperFunction,ComponentPad*%
%ADD18O,1.800000X1.800000*%
%TD*%
%TA.AperFunction,ComponentPad*%
%ADD19R,2.000000X4.600000*%
%TD*%
%TA.AperFunction,ComponentPad*%
%ADD20O,2.000000X4.200000*%
%TD*%
%TA.AperFunction,ComponentPad*%
%ADD21O,4.200000X2.000000*%
%TD*%
%TA.AperFunction,ComponentPad*%
%ADD22C,3.540000*%
%TD*%
%TA.AperFunction,ComponentPad*%
%ADD23C,1.524000*%
%TD*%
%TA.AperFunction,ComponentPad*%
%ADD24C,4.000000*%
%TD*%
%TA.AperFunction,SMDPad,CuDef*%
%ADD25RoundRect,0.100000X-0.637500X-0.100000X0.637500X-0.100000X0.637500X0.100000X-0.637500X0.100000X0*%
%TD*%
%TA.AperFunction,ViaPad*%
%ADD26C,3.000000*%
%TD*%
%TA.AperFunction,ViaPad*%
%ADD27C,0.800000*%
%TD*%
%TA.AperFunction,Conductor*%
%ADD28C,0.500000*%
%TD*%
%TA.AperFunction,Conductor*%
%ADD29C,0.250000*%
%TD*%
%TA.AperFunction,Conductor*%
%ADD30C,1.000000*%
%TD*%
%TA.AperFunction,Conductor*%
%ADD31C,1.500000*%
%TD*%
G04 APERTURE END LIST*
D10*
%TO.P,U2,1,GPIO0*%
%TO.N,unconnected-(U2-Pad1)*%
X46210000Y-18870000D03*
D11*
X47110000Y-18870000D03*
D10*
%TO.P,U2,2,GPIO1*%
%TO.N,unconnected-(U2-Pad2)*%
X46210000Y-21410000D03*
D11*
X47110000Y-21410000D03*
D10*
%TO.P,U2,3,GND*%
%TO.N,GND*%
X46210000Y-23950000D03*
D12*
X47110000Y-23950000D03*
D10*
%TO.P,U2,4,GPIO2*%
%TO.N,Net-(J1-Pad8)*%
X46210000Y-26490000D03*
D11*
X47110000Y-26490000D03*
D10*
%TO.P,U2,5,GPIO3*%
%TO.N,Net-(J1-Pad7)*%
X46210000Y-29030000D03*
D11*
X47110000Y-29030000D03*
%TO.P,U2,6,GPIO4*%
%TO.N,Net-(J1-Pad6)*%
X47110000Y-31570000D03*
D10*
X46210000Y-31570000D03*
D11*
%TO.P,U2,7,GPIO5*%
%TO.N,Net-(J1-Pad5)*%
X47110000Y-34110000D03*
D10*
X46210000Y-34110000D03*
%TO.P,U2,8,GND*%
%TO.N,GND*%
X46210000Y-36650000D03*
D12*
X47110000Y-36650000D03*
D10*
%TO.P,U2,9,GPIO6*%
%TO.N,Net-(R1-Pad2)*%
X46210000Y-39190000D03*
D11*
X47110000Y-39190000D03*
%TO.P,U2,10,GPIO7*%
%TO.N,Net-(R2-Pad2)*%
X47110000Y-41730000D03*
D10*
X46210000Y-41730000D03*
D11*
%TO.P,U2,11,GPIO8*%
%TO.N,Net-(R3-Pad2)*%
X47110000Y-44270000D03*
D10*
X46210000Y-44270000D03*
%TO.P,U2,12,GPIO9*%
%TO.N,Net-(R4-Pad2)*%
X46210000Y-46810000D03*
D11*
X47110000Y-46810000D03*
D12*
%TO.P,U2,13,GND*%
%TO.N,GND*%
X47110000Y-49350000D03*
D10*
X46210000Y-49350000D03*
%TO.P,U2,14,GPIO10*%
%TO.N,SPI_SCK*%
X46210000Y-51890000D03*
D11*
X47110000Y-51890000D03*
%TO.P,U2,15,GPIO11*%
%TO.N,SPI_TX*%
X47110000Y-54430000D03*
D10*
X46210000Y-54430000D03*
D11*
%TO.P,U2,16,GPIO12*%
%TO.N,SPI_RX*%
X47110000Y-56970000D03*
D10*
X46210000Y-56970000D03*
%TO.P,U2,17,GPIO13*%
%TO.N,SD_CS*%
X46210000Y-59510000D03*
D11*
X47110000Y-59510000D03*
D12*
%TO.P,U2,18,GND*%
%TO.N,GND*%
X47110000Y-62050000D03*
D10*
X46210000Y-62050000D03*
D11*
%TO.P,U2,19,GPIO14*%
%TO.N,I2C0_SDA*%
X47110000Y-64590000D03*
D10*
X46210000Y-64590000D03*
D11*
%TO.P,U2,20,GPIO15*%
%TO.N,I2C0_SCL*%
X47110000Y-67130000D03*
D10*
X46210000Y-67130000D03*
D11*
%TO.P,U2,21,GPIO16*%
%TO.N,I2C_SDA*%
X64890000Y-67130000D03*
D10*
X65790000Y-67130000D03*
%TO.P,U2,22,GPIO17*%
%TO.N,I2C_SCL*%
X65790000Y-64590000D03*
D11*
X64890000Y-64590000D03*
D10*
%TO.P,U2,23,GND*%
%TO.N,GND*%
X65790000Y-62050000D03*
D12*
X64890000Y-62050000D03*
D10*
%TO.P,U2,24,GPIO18*%
%TO.N,unconnected-(U2-Pad24)*%
X65790000Y-59510000D03*
D11*
X64890000Y-59510000D03*
%TO.P,U2,25,GPIO19*%
%TO.N,SPD_1*%
X64890000Y-56970000D03*
D10*
X65790000Y-56970000D03*
D11*
%TO.P,U2,26,GPIO20*%
%TO.N,SPD_0*%
X64890000Y-54430000D03*
D10*
X65790000Y-54430000D03*
D11*
%TO.P,U2,27,GPIO21*%
%TO.N,ACC_INT*%
X64890000Y-51890000D03*
D10*
X65790000Y-51890000D03*
%TO.P,U2,28,GND*%
%TO.N,GND*%
X65790000Y-49350000D03*
D12*
X64890000Y-49350000D03*
D10*
%TO.P,U2,29,GPIO22*%
%TO.N,SD_DET*%
X65790000Y-46810000D03*
D11*
X64890000Y-46810000D03*
%TO.P,U2,30,RUN*%
%TO.N,unconnected-(U2-Pad30)*%
X64890000Y-44270000D03*
D10*
X65790000Y-44270000D03*
%TO.P,U2,31,GPIO26_ADC0*%
%TO.N,unconnected-(U2-Pad31)*%
X65790000Y-41730000D03*
D11*
X64890000Y-41730000D03*
D10*
%TO.P,U2,32,GPIO27_ADC1*%
%TO.N,unconnected-(U2-Pad32)*%
X65790000Y-39190000D03*
D11*
X64890000Y-39190000D03*
D10*
%TO.P,U2,33,AGND*%
%TO.N,unconnected-(U2-Pad33)*%
X65790000Y-36650000D03*
D12*
X64890000Y-36650000D03*
D11*
%TO.P,U2,34,GPIO28_ADC2*%
%TO.N,unconnected-(U2-Pad34)*%
X64890000Y-34110000D03*
D10*
X65790000Y-34110000D03*
D11*
%TO.P,U2,35,ADC_VREF*%
%TO.N,unconnected-(U2-Pad35)*%
X64890000Y-31570000D03*
D10*
X65790000Y-31570000D03*
%TO.P,U2,36,3V3*%
%TO.N,+3V3*%
X65790000Y-29030000D03*
D11*
X64890000Y-29030000D03*
%TO.P,U2,37,3V3_EN*%
%TO.N,unconnected-(U2-Pad37)*%
X64890000Y-26490000D03*
D10*
X65790000Y-26490000D03*
D12*
%TO.P,U2,38,GND*%
%TO.N,GND*%
X64890000Y-23950000D03*
D10*
X65790000Y-23950000D03*
D11*
%TO.P,U2,39,VSYS*%
%TO.N,+5V*%
X64890000Y-21410000D03*
D10*
X65790000Y-21410000D03*
D11*
%TO.P,U2,40,VBUS*%
%TO.N,unconnected-(U2-Pad40)*%
X64890000Y-18870000D03*
D10*
X65790000Y-18870000D03*
D13*
%TO.P,U2,41,SWCLK*%
%TO.N,unconnected-(U2-Pad41)*%
X53460000Y-67800000D03*
D11*
X53460000Y-66900000D03*
D13*
%TO.P,U2,42,GND*%
%TO.N,unconnected-(U2-Pad42)*%
X56000000Y-67800000D03*
D12*
X56000000Y-66900000D03*
D11*
%TO.P,U2,43,SWDIO*%
%TO.N,unconnected-(U2-Pad43)*%
X58540000Y-66900000D03*
D13*
X58540000Y-67800000D03*
%TD*%
D12*
%TO.P,J4,1,Pin_1*%
%TO.N,SPD_0*%
X16325000Y-85590000D03*
D11*
%TO.P,J4,2,Pin_2*%
%TO.N,GND*%
X18865000Y-85590000D03*
%TO.P,J4,3,Pin_3*%
%TO.N,+5V*%
X21405000Y-85590000D03*
%TD*%
D14*
%TO.P,R8,1*%
%TO.N,Net-(R6-Pad2)*%
X25970000Y-99550000D03*
D15*
%TO.P,R8,2*%
%TO.N,GND*%
X33590000Y-99550000D03*
%TD*%
D14*
%TO.P,R7,1*%
%TO.N,Net-(J3-Pad3)*%
X37400000Y-105900000D03*
D15*
%TO.P,R7,2*%
%TO.N,Net-(R7-Pad2)*%
X37400000Y-98280000D03*
%TD*%
D16*
%TO.P,C1,1*%
%TO.N,Net-(C1-Pad1)*%
X37525349Y-17000000D03*
D14*
%TO.P,C1,2*%
%TO.N,GND*%
X41025349Y-17000000D03*
%TD*%
D17*
%TO.P,U4,1,IN*%
%TO.N,Net-(C1-Pad1)*%
X16064000Y-21158000D03*
D18*
%TO.P,U4,2,SW*%
%TO.N,Net-(L1-Pad1)*%
X17764000Y-17458000D03*
%TO.P,U4,3,GND*%
%TO.N,GND*%
X19464000Y-21158000D03*
%TO.P,U4,4,ADJ*%
%TO.N,unconnected-(U4-Pad4)*%
X21164000Y-17458000D03*
%TO.P,U4,5,SS*%
%TO.N,unconnected-(U4-Pad5)*%
X22864000Y-21158000D03*
%TD*%
D14*
%TO.P,R9,1*%
%TO.N,Net-(R7-Pad2)*%
X37400000Y-118600000D03*
D15*
%TO.P,R9,2*%
%TO.N,GND*%
X37400000Y-110980000D03*
%TD*%
D14*
%TO.P,R16,1*%
%TO.N,THERM_1*%
X20636000Y-112250000D03*
D15*
%TO.P,R16,2*%
%TO.N,+5V*%
X20636000Y-104630000D03*
%TD*%
D14*
%TO.P,C4,1*%
%TO.N,Net-(C4-Pad1)*%
X50140000Y-103360000D03*
%TO.P,C4,2*%
%TO.N,GND*%
X55140000Y-103360000D03*
%TD*%
D12*
%TO.P,J6,1,Pin_1*%
%TO.N,SPD_1*%
X16325000Y-93210000D03*
D11*
%TO.P,J6,2,Pin_2*%
%TO.N,GND*%
X18865000Y-93210000D03*
%TO.P,J6,3,Pin_3*%
%TO.N,+5V*%
X21405000Y-93210000D03*
%TD*%
D14*
%TO.P,R4,1*%
%TO.N,Net-(J2-Pad2)*%
X30290000Y-66510000D03*
D15*
%TO.P,R4,2*%
%TO.N,Net-(R4-Pad2)*%
X37910000Y-66510000D03*
%TD*%
D12*
%TO.P,J8,1,Pin_1*%
%TO.N,GND*%
X15556000Y-119870000D03*
D11*
%TO.P,J8,2,Pin_2*%
%TO.N,THERM_0*%
X15556000Y-117330000D03*
%TD*%
D14*
%TO.P,F1,1*%
%TO.N,Net-(F1-Pad1)*%
X34000000Y-29500000D03*
%TO.P,F1,2*%
%TO.N,Net-(C1-Pad1)*%
X34000000Y-24500000D03*
%TD*%
D19*
%TO.P,J5,1*%
%TO.N,Net-(F1-Pad1)*%
X28510000Y-27780000D03*
D20*
%TO.P,J5,2*%
%TO.N,GND*%
X22210000Y-27780000D03*
D21*
%TO.P,J5,3*%
X25610000Y-32580000D03*
%TD*%
D12*
%TO.P,J9,1,Pin_1*%
%TO.N,GND*%
X20636000Y-119870000D03*
D11*
%TO.P,J9,2,Pin_2*%
%TO.N,THERM_1*%
X20636000Y-117330000D03*
%TD*%
D14*
%TO.P,R13,1*%
%TO.N,Net-(C4-Pad1)*%
X50735000Y-114790000D03*
D15*
%TO.P,R13,2*%
%TO.N,Net-(R13-Pad2)*%
X50735000Y-107170000D03*
%TD*%
D14*
%TO.P,R3,1*%
%TO.N,Net-(J2-Pad3)*%
X30290000Y-70320000D03*
D15*
%TO.P,R3,2*%
%TO.N,Net-(R3-Pad2)*%
X37910000Y-70320000D03*
%TD*%
D12*
%TO.P,J7,1,Pin_1*%
%TO.N,Net-(C5-Pad1)*%
X62800000Y-104630000D03*
D11*
%TO.P,J7,2,Pin_2*%
%TO.N,Net-(C4-Pad1)*%
X62800000Y-102090000D03*
%TO.P,J7,3,Pin_3*%
%TO.N,GND*%
X62800000Y-99550000D03*
%TO.P,J7,4,Pin_4*%
%TO.N,+5V*%
X62800000Y-97010000D03*
%TD*%
D12*
%TO.P,J3,1,Pin_1*%
%TO.N,GND*%
X62800000Y-116055000D03*
D11*
%TO.P,J3,2,Pin_2*%
%TO.N,Net-(J3-Pad2)*%
X62800000Y-113515000D03*
%TO.P,J3,3,Pin_3*%
%TO.N,Net-(J3-Pad3)*%
X62800000Y-110975000D03*
%TD*%
D14*
%TO.P,R12,1*%
%TO.N,Net-(R11-Pad2)*%
X46925000Y-114790000D03*
D15*
%TO.P,R12,2*%
%TO.N,GND*%
X46925000Y-107170000D03*
%TD*%
D14*
%TO.P,R17,1*%
%TO.N,Net-(J10-Pad2)*%
X30796000Y-112250000D03*
D15*
%TO.P,R17,2*%
%TO.N,+5V*%
X30796000Y-104630000D03*
%TD*%
D12*
%TO.P,J1,1,Pin_1*%
%TO.N,+5V*%
X16330000Y-69055000D03*
D11*
%TO.P,J1,2,Pin_2*%
%TO.N,GND*%
X18870000Y-69055000D03*
%TO.P,J1,3,Pin_3*%
%TO.N,I2C0_SCL*%
X21410000Y-69055000D03*
%TO.P,J1,4,Pin_4*%
%TO.N,I2C0_SDA*%
X23950000Y-69055000D03*
%TO.P,J1,5,Pin_5*%
%TO.N,Net-(J1-Pad5)*%
X23950000Y-66515000D03*
%TO.P,J1,6,Pin_6*%
%TO.N,Net-(J1-Pad6)*%
X21410000Y-66515000D03*
%TO.P,J1,7,Pin_7*%
%TO.N,Net-(J1-Pad7)*%
X18870000Y-66515000D03*
%TO.P,J1,8,Pin_8*%
%TO.N,Net-(J1-Pad8)*%
X16330000Y-66515000D03*
%TD*%
D15*
%TO.P,L1,2,2*%
%TO.N,+5V*%
X40000000Y-33080000D03*
D14*
%TO.P,L1,1,1*%
%TO.N,Net-(L1-Pad1)*%
X40000000Y-22920000D03*
%TD*%
%TO.P,R14,1*%
%TO.N,Net-(R13-Pad2)*%
X54545000Y-114790000D03*
D15*
%TO.P,R14,2*%
%TO.N,GND*%
X54545000Y-107170000D03*
%TD*%
D16*
%TO.P,C2,1*%
%TO.N,GND*%
X27873349Y-17000000D03*
D14*
%TO.P,C2,2*%
%TO.N,+5V*%
X31373349Y-17000000D03*
%TD*%
%TO.P,R10,1*%
%TO.N,+5V*%
X27240000Y-93210000D03*
D15*
%TO.P,R10,2*%
%TO.N,SPD_1*%
X34860000Y-93210000D03*
%TD*%
D12*
%TO.P,J2,1,Pin_1*%
%TO.N,GND*%
X16325000Y-77940000D03*
D11*
%TO.P,J2,2,Pin_2*%
%TO.N,Net-(J2-Pad2)*%
X18865000Y-77940000D03*
%TO.P,J2,3,Pin_3*%
%TO.N,Net-(J2-Pad3)*%
X21405000Y-77940000D03*
%TO.P,J2,4,Pin_4*%
%TO.N,Net-(J2-Pad4)*%
X23945000Y-77940000D03*
%TO.P,J2,5,Pin_5*%
%TO.N,Net-(J2-Pad5)*%
X26485000Y-77940000D03*
%TD*%
D14*
%TO.P,R5,1*%
%TO.N,+5V*%
X27240000Y-85590000D03*
D15*
%TO.P,R5,2*%
%TO.N,SPD_0*%
X34860000Y-85590000D03*
%TD*%
D14*
%TO.P,R1,1*%
%TO.N,Net-(J2-Pad5)*%
X30290000Y-77940000D03*
D15*
%TO.P,R1,2*%
%TO.N,Net-(R1-Pad2)*%
X37910000Y-77940000D03*
%TD*%
D14*
%TO.P,R15,1*%
%TO.N,THERM_0*%
X15556000Y-112250000D03*
D15*
%TO.P,R15,2*%
%TO.N,+5V*%
X15556000Y-104630000D03*
%TD*%
D14*
%TO.P,R11,1*%
%TO.N,Net-(C5-Pad1)*%
X43115000Y-114790000D03*
D15*
%TO.P,R11,2*%
%TO.N,Net-(R11-Pad2)*%
X43115000Y-107170000D03*
%TD*%
D22*
%TO.P,U3,*%
%TO.N,*%
X17080000Y-58910000D03*
X17080000Y-38590000D03*
D23*
%TO.P,U3,1,3v*%
%TO.N,+3V3*%
X34860000Y-58910000D03*
%TO.P,U3,2,GND*%
%TO.N,GND*%
X34860000Y-56370000D03*
%TO.P,U3,3,CLK*%
%TO.N,SPI_SCK*%
X34860000Y-53830000D03*
%TO.P,U3,4,SO/D0*%
%TO.N,SPI_RX*%
X34860000Y-51290000D03*
%TO.P,U3,5,SI/CMD*%
%TO.N,SPI_TX*%
X34860000Y-48750000D03*
%TO.P,U3,6,CS/D3*%
%TO.N,SD_CS*%
X34860000Y-46210000D03*
%TO.P,U3,7,D1*%
%TO.N,unconnected-(U3-Pad7)*%
X34860000Y-43670000D03*
%TO.P,U3,8,D2*%
%TO.N,unconnected-(U3-Pad8)*%
X34860000Y-41130000D03*
%TO.P,U3,9,DET*%
%TO.N,SD_DET*%
X34860000Y-38590000D03*
%TD*%
D14*
%TO.P,R20,1*%
%TO.N,GND*%
X40956000Y-121140000D03*
D15*
%TO.P,R20,2*%
%TO.N,THERM_3*%
X48576000Y-121140000D03*
%TD*%
D14*
%TO.P,R2,1*%
%TO.N,Net-(J2-Pad4)*%
X30290000Y-74130000D03*
D15*
%TO.P,R2,2*%
%TO.N,Net-(R2-Pad2)*%
X37910000Y-74130000D03*
%TD*%
D24*
%TO.P,U1,*%
%TO.N,*%
X47880000Y-76000000D03*
X63120000Y-76000000D03*
D23*
%TO.P,U1,1,VCC*%
%TO.N,+5V*%
X46610000Y-87430000D03*
%TO.P,U1,2,GND*%
%TO.N,GND*%
X49150000Y-87430000D03*
%TO.P,U1,3,SCL*%
%TO.N,I2C_SCL*%
X51690000Y-87430000D03*
%TO.P,U1,4,SDA*%
%TO.N,I2C_SDA*%
X54230000Y-87430000D03*
%TO.P,U1,5,XDA*%
%TO.N,unconnected-(U1-Pad5)*%
X56770000Y-87430000D03*
%TO.P,U1,6,XCL*%
%TO.N,unconnected-(U1-Pad6)*%
X59310000Y-87430000D03*
%TO.P,U1,7,ADO*%
%TO.N,GND*%
X61850000Y-87430000D03*
%TO.P,U1,8,INT*%
%TO.N,ACC_INT*%
X64390000Y-87430000D03*
%TD*%
D14*
%TO.P,R18,1*%
%TO.N,Net-(J10-Pad2)*%
X51624000Y-121140000D03*
D15*
%TO.P,R18,2*%
%TO.N,THERM_3*%
X59244000Y-121140000D03*
%TD*%
D12*
%TO.P,J10,1,Pin_1*%
%TO.N,GND*%
X30796000Y-119875000D03*
D11*
%TO.P,J10,2,Pin_2*%
%TO.N,Net-(J10-Pad2)*%
X30796000Y-117335000D03*
%TD*%
D14*
%TO.P,R19,1*%
%TO.N,THERM_2*%
X25716000Y-112250000D03*
D15*
%TO.P,R19,2*%
%TO.N,+5V*%
X25716000Y-104630000D03*
%TD*%
D14*
%TO.P,R6,1*%
%TO.N,Net-(J3-Pad2)*%
X22160000Y-99550000D03*
D15*
%TO.P,R6,2*%
%TO.N,Net-(R6-Pad2)*%
X14540000Y-99550000D03*
%TD*%
D12*
%TO.P,J11,1,Pin_1*%
%TO.N,GND*%
X25716000Y-119870000D03*
D11*
%TO.P,J11,2,Pin_2*%
%TO.N,THERM_2*%
X25716000Y-117330000D03*
%TD*%
D14*
%TO.P,C3,1*%
%TO.N,+5V*%
X41845000Y-98280000D03*
%TO.P,C3,2*%
%TO.N,GND*%
X46845000Y-98280000D03*
%TD*%
D25*
%TO.P,U5,1,CH0*%
%TO.N,Net-(R6-Pad2)*%
X51047500Y-94481000D03*
%TO.P,U5,2,CH1*%
%TO.N,Net-(R7-Pad2)*%
X51047500Y-95131000D03*
%TO.P,U5,3,CH2*%
%TO.N,Net-(R11-Pad2)*%
X51047500Y-95781000D03*
%TO.P,U5,4,CH3*%
%TO.N,Net-(R13-Pad2)*%
X51047500Y-96431000D03*
%TO.P,U5,5,CH4*%
%TO.N,THERM_0*%
X51047500Y-97081000D03*
%TO.P,U5,6,CH5*%
%TO.N,THERM_1*%
X51047500Y-97731000D03*
%TO.P,U5,7,CH6*%
%TO.N,THERM_2*%
X51047500Y-98381000D03*
%TO.P,U5,8,CH7*%
%TO.N,THERM_3*%
X51047500Y-99031000D03*
%TO.P,U5,9,GND*%
%TO.N,GND*%
X56772500Y-99031000D03*
%TO.P,U5,10,REFin/REFout*%
%TO.N,unconnected-(U5-Pad10)*%
X56772500Y-98381000D03*
%TO.P,U5,11,COM*%
%TO.N,GND*%
X56772500Y-97731000D03*
%TO.P,U5,12,A0*%
X56772500Y-97081000D03*
%TO.P,U5,13,A1*%
X56772500Y-96431000D03*
%TO.P,U5,14,SCL*%
%TO.N,I2C_SCL*%
X56772500Y-95781000D03*
%TO.P,U5,15,SDA*%
%TO.N,I2C_SDA*%
X56772500Y-95131000D03*
%TO.P,U5,16,VDD*%
%TO.N,+5V*%
X56772500Y-94481000D03*
%TD*%
D14*
%TO.P,C5,1*%
%TO.N,Net-(C5-Pad1)*%
X41845000Y-103360000D03*
%TO.P,C5,2*%
%TO.N,GND*%
X46845000Y-103360000D03*
%TD*%
D26*
%TO.N,*%
X67000000Y-123000000D03*
X67000000Y-14000000D03*
X14000000Y-14000000D03*
D27*
%TO.N,GND*%
X33590000Y-107170000D03*
%TO.N,I2C_SCL*%
X53148000Y-94978000D03*
%TO.N,+5V*%
X45020000Y-95105000D03*
X13270000Y-80500000D03*
X25970000Y-24620000D03*
%TO.N,Net-(C5-Pad1)*%
X49211000Y-99931000D03*
X50608000Y-101328000D03*
%TO.N,Net-(J1-Pad7)*%
X26224000Y-62974000D03*
X32828000Y-40114000D03*
%TO.N,Net-(J1-Pad8)*%
X20382000Y-45702000D03*
X23938000Y-45702000D03*
X33082000Y-36558000D03*
%TO.N,I2C_SDA*%
X54672000Y-94978000D03*
%TO.N,Net-(R7-Pad2)*%
X34860000Y-106535000D03*
%TO.N,Net-(R11-Pad2)*%
X57974000Y-103360000D03*
X55180000Y-100058000D03*
%TO.N,I2C0_SCL*%
X34098000Y-72372000D03*
%TO.N,Net-(R13-Pad2)*%
X48830000Y-101544500D03*
%TO.N,THERM_3*%
X52640000Y-104122000D03*
X52132000Y-100058000D03*
X52640000Y-110726000D03*
%TD*%
D28*
%TO.N,GND*%
X50200000Y-33560000D02*
X50200000Y-23950000D01*
X47110000Y-36650000D02*
X50200000Y-33560000D01*
X50200000Y-23950000D02*
X64890000Y-23950000D01*
X47110000Y-23950000D02*
X50200000Y-23950000D01*
D29*
%TO.N,Net-(R7-Pad2)*%
X49693000Y-95131000D02*
X49592000Y-95232000D01*
X51047500Y-95131000D02*
X49693000Y-95131000D01*
%TO.N,+3V3*%
X44150978Y-38000000D02*
X55920000Y-38000000D01*
X40000000Y-53770000D02*
X40000000Y-42150978D01*
X34860000Y-58910000D02*
X40000000Y-53770000D01*
X40000000Y-42150978D02*
X44150978Y-38000000D01*
X55920000Y-38000000D02*
X64890000Y-29030000D01*
%TO.N,ACC_INT*%
X68250000Y-78500000D02*
X68250000Y-52750000D01*
X68250000Y-52750000D02*
X67500000Y-52000000D01*
X64390000Y-82360000D02*
X68250000Y-78500000D01*
X64390000Y-87350000D02*
X64390000Y-82360000D01*
D28*
%TO.N,+5V*%
X60230000Y-16750000D02*
X64890000Y-21410000D01*
X42500000Y-18750000D02*
X44500000Y-16750000D01*
X42500000Y-30580000D02*
X42500000Y-18750000D01*
X44500000Y-16750000D02*
X60230000Y-16750000D01*
X40000000Y-33080000D02*
X42500000Y-30580000D01*
D30*
%TO.N,Net-(L1-Pad1)*%
X39200001Y-22120001D02*
X39200001Y-15450001D01*
X39200001Y-15450001D02*
X38464000Y-14714000D01*
X40000000Y-22920000D02*
X39200001Y-22120001D01*
X38464000Y-14714000D02*
X20508000Y-14714000D01*
D29*
%TO.N,SPD_1*%
X60213551Y-56970000D02*
X64890000Y-56970000D01*
X49183551Y-68000000D02*
X60213551Y-56970000D01*
X49183551Y-70337883D02*
X49183551Y-68000000D01*
X45500000Y-75585718D02*
X45500000Y-74021436D01*
X43115000Y-77970718D02*
X45500000Y-75585718D01*
X43115000Y-84945000D02*
X43115000Y-77970718D01*
X39305000Y-88765000D02*
X39305000Y-88755000D01*
X39305000Y-88755000D02*
X43115000Y-84945000D01*
X45500000Y-74021436D02*
X49183551Y-70337883D01*
X34860000Y-93210000D02*
X39305000Y-88765000D01*
%TO.N,SPD_0*%
X62070000Y-54430000D02*
X64890000Y-54430000D01*
X48734031Y-67765969D02*
X62070000Y-54430000D01*
X48734031Y-70151686D02*
X48734031Y-67765969D01*
X44975000Y-73910718D02*
X48734031Y-70151686D01*
X44975000Y-75475000D02*
X44975000Y-73910718D01*
X34860000Y-85590000D02*
X44975000Y-75475000D01*
%TO.N,I2C0_SDA*%
X48090000Y-64590000D02*
X47110000Y-64590000D01*
X48284511Y-64784511D02*
X48090000Y-64590000D01*
X48284511Y-69965489D02*
X48284511Y-64784511D01*
X44500000Y-75314282D02*
X44500000Y-73750000D01*
X39314282Y-80500000D02*
X44500000Y-75314282D01*
X35368000Y-80500000D02*
X39314282Y-80500000D01*
X31304000Y-75928000D02*
X35368000Y-79992000D01*
X35368000Y-79992000D02*
X35368000Y-80500000D01*
X20128000Y-68562000D02*
X20128000Y-71102000D01*
X44500000Y-73750000D02*
X48284511Y-69965489D01*
X20809511Y-67880489D02*
X20128000Y-68562000D01*
X20128000Y-71102000D02*
X24954000Y-75928000D01*
X24954000Y-75928000D02*
X31304000Y-75928000D01*
X23938000Y-69070000D02*
X22748489Y-67880489D01*
X22748489Y-67880489D02*
X20809511Y-67880489D01*
%TO.N,Net-(J1-Pad5)*%
X45932000Y-35288000D02*
X47110000Y-34110000D01*
X37780282Y-35288000D02*
X45932000Y-35288000D01*
%TO.N,Net-(J1-Pad6)*%
X45500978Y-31570000D02*
X47110000Y-31570000D01*
X42290978Y-34780000D02*
X45500978Y-31570000D01*
X37908000Y-34780000D02*
X42290978Y-34780000D01*
%TO.N,Net-(R1-Pad2)*%
X49899040Y-51350960D02*
X49899040Y-41979040D01*
X49899040Y-41979040D02*
X47110000Y-39190000D01*
X44463621Y-53064511D02*
X48185489Y-53064511D01*
X40643520Y-56884612D02*
X44463621Y-53064511D01*
X40643520Y-75206480D02*
X40643520Y-56884612D01*
X37910000Y-77940000D02*
X40643520Y-75206480D01*
X48185489Y-53064511D02*
X49899040Y-51350960D01*
%TO.N,Net-(R2-Pad2)*%
X49449520Y-44069520D02*
X47110000Y-41730000D01*
X49449520Y-49300480D02*
X49449520Y-44069520D01*
X48225489Y-50524511D02*
X49449520Y-49300480D01*
X44000000Y-52892414D02*
X44000000Y-50750000D01*
X44000000Y-50750000D02*
X44225489Y-50524511D01*
X40194000Y-56698414D02*
X44000000Y-52892414D01*
X40194000Y-71846000D02*
X40194000Y-56698414D01*
X37910000Y-74130000D02*
X40194000Y-71846000D01*
X44225489Y-50524511D02*
X48225489Y-50524511D01*
%TO.N,Net-(R3-Pad2)*%
X49000000Y-46160000D02*
X47110000Y-44270000D01*
X49000000Y-47500000D02*
X49000000Y-46160000D01*
X39432000Y-56824696D02*
X43500000Y-52756696D01*
X44265489Y-47984511D02*
X48515489Y-47984511D01*
X39432000Y-68816000D02*
X39432000Y-56824696D01*
X48515489Y-47984511D02*
X49000000Y-47500000D01*
X39414000Y-68816000D02*
X39432000Y-68816000D01*
X43500000Y-48750000D02*
X44265489Y-47984511D01*
X37910000Y-70320000D02*
X39414000Y-68816000D01*
X43500000Y-52756696D02*
X43500000Y-48750000D01*
%TO.N,Net-(R4-Pad2)*%
X43940000Y-46810000D02*
X47110000Y-46810000D01*
X42750000Y-48000000D02*
X43940000Y-46810000D01*
X42750000Y-52870978D02*
X42750000Y-48000000D01*
X37910000Y-57710978D02*
X42750000Y-52870978D01*
D30*
%TO.N,Net-(L1-Pad1)*%
X20508000Y-14714000D02*
X17764000Y-17458000D01*
%TO.N,Net-(C1-Pad1)*%
X37525349Y-20974651D02*
X34000000Y-24500000D01*
X37525349Y-19668651D02*
X37525349Y-20974651D01*
D31*
%TO.N,Net-(F1-Pad1)*%
X32490000Y-29500000D02*
X34000000Y-29500000D01*
X30900000Y-27910000D02*
X32490000Y-29500000D01*
D30*
%TO.N,Net-(C1-Pad1)*%
X37525349Y-19668651D02*
X37525349Y-17000000D01*
D28*
X16064000Y-21158000D02*
X17682000Y-19540000D01*
X17682000Y-19540000D02*
X37396698Y-19540000D01*
X37396698Y-19540000D02*
X37525349Y-19668651D01*
D29*
%TO.N,Net-(C4-Pad1)*%
X48830000Y-112885000D02*
X48830000Y-104670000D01*
X48830000Y-104670000D02*
X50140000Y-103360000D01*
X51410000Y-102090000D02*
X62800000Y-102090000D01*
X50735000Y-114790000D02*
X48830000Y-112885000D01*
X50140000Y-103360000D02*
X51410000Y-102090000D01*
%TO.N,Net-(R6-Pad2)*%
X44719897Y-95829511D02*
X47978489Y-95829511D01*
X29780000Y-95740000D02*
X44630386Y-95740000D01*
X15810000Y-100820000D02*
X14540000Y-99550000D01*
X44630386Y-95740000D02*
X44719897Y-95829511D01*
X49338000Y-94470000D02*
X50862000Y-94470000D01*
X25970000Y-99550000D02*
X29780000Y-95740000D01*
X25970000Y-99550000D02*
X24700000Y-100820000D01*
X47978489Y-95829511D02*
X49338000Y-94470000D01*
X24700000Y-100820000D02*
X15810000Y-100820000D01*
%TO.N,GND*%
X58228000Y-97010000D02*
X56704000Y-97010000D01*
D31*
X22210000Y-27780000D02*
X22210000Y-29180000D01*
D29*
X62800000Y-99550000D02*
X60260000Y-97010000D01*
D28*
X33590000Y-117076000D02*
X30796000Y-119870000D01*
D29*
X56772500Y-96431000D02*
X56772500Y-97586500D01*
D28*
X33590000Y-107170000D02*
X33590000Y-117076000D01*
D29*
X56772500Y-99031000D02*
X57985000Y-99031000D01*
D31*
X22210000Y-29180000D02*
X25610000Y-32580000D01*
D29*
X58228000Y-98788000D02*
X58228000Y-97010000D01*
X60260000Y-97010000D02*
X58228000Y-97010000D01*
X57985000Y-99031000D02*
X58228000Y-98788000D01*
%TO.N,I2C_SCL*%
X53910000Y-95740000D02*
X56704000Y-95740000D01*
X53148000Y-94978000D02*
X53910000Y-95740000D01*
%TO.N,+5V*%
X60271000Y-94481000D02*
X62800000Y-97010000D01*
D28*
X20890000Y-24620000D02*
X19620000Y-25890000D01*
X19620000Y-32240000D02*
X18350000Y-33510000D01*
D29*
X49084000Y-93708000D02*
X55942000Y-93708000D01*
D28*
X20890000Y-24620000D02*
X25970000Y-24620000D01*
D29*
X45020000Y-95105000D02*
X47687000Y-95105000D01*
D28*
X15795000Y-69055000D02*
X16330000Y-69055000D01*
X21405000Y-83555000D02*
X20890000Y-83040000D01*
X14540000Y-33510000D02*
X13270000Y-34780000D01*
X19620000Y-25890000D02*
X19620000Y-32240000D01*
X18350000Y-33510000D02*
X14540000Y-33510000D01*
D29*
X55942000Y-93708000D02*
X56704000Y-94470000D01*
X56772500Y-94481000D02*
X60271000Y-94481000D01*
D28*
X13270000Y-34780000D02*
X13270000Y-66530000D01*
D29*
X47687000Y-95105000D02*
X49084000Y-93708000D01*
D28*
X13270000Y-66530000D02*
X15795000Y-69055000D01*
X20890000Y-83040000D02*
X15810000Y-83040000D01*
X13270000Y-80500000D02*
X15810000Y-83040000D01*
X13270000Y-80500000D02*
X13270000Y-66530000D01*
X21405000Y-85590000D02*
X21405000Y-83555000D01*
D29*
%TO.N,Net-(C5-Pad1)*%
X58736000Y-101328000D02*
X50608000Y-101328000D01*
X64324000Y-103106000D02*
X64324000Y-101328000D01*
X41845000Y-103360000D02*
X41845000Y-113520000D01*
X45133300Y-101582000D02*
X47560000Y-101582000D01*
X43355300Y-103360000D02*
X45133300Y-101582000D01*
X62038000Y-100820000D02*
X59244000Y-100820000D01*
X59244000Y-100820000D02*
X58736000Y-101328000D01*
X41845000Y-113520000D02*
X43115000Y-114790000D01*
X41845000Y-103360000D02*
X43355300Y-103360000D01*
X63816000Y-100820000D02*
X62038000Y-100820000D01*
X62800000Y-104630000D02*
X64324000Y-103106000D01*
X64324000Y-101328000D02*
X63816000Y-100820000D01*
X47560000Y-101582000D02*
X49211000Y-99931000D01*
%TO.N,Net-(J1-Pad5)*%
X22584511Y-64073489D02*
X22584511Y-40959489D01*
X22584511Y-65176511D02*
X23938000Y-66530000D01*
X22584511Y-40959489D02*
X28256000Y-35288000D01*
X28256000Y-35288000D02*
X37780282Y-35288000D01*
X22584511Y-64073489D02*
X22584511Y-65176511D01*
%TO.N,Net-(J1-Pad6)*%
X27748000Y-34780000D02*
X37908000Y-34780000D01*
X21410000Y-66264000D02*
X21398000Y-66276000D01*
X21410000Y-41118000D02*
X27748000Y-34780000D01*
X21410000Y-41118000D02*
X21410000Y-66264000D01*
%TO.N,THERM_1*%
X20636000Y-112250000D02*
X23430000Y-112250000D01*
X43817802Y-101386480D02*
X44579803Y-100624480D01*
X35748282Y-104884000D02*
X37467803Y-103164480D01*
X41023803Y-101386480D02*
X43817802Y-101386480D01*
X44579803Y-100624480D02*
X46857189Y-100624480D01*
X27494000Y-108186000D02*
X30414282Y-108186000D01*
X39245802Y-103164480D02*
X41023803Y-101386480D01*
X23430000Y-112250000D02*
X27494000Y-108186000D01*
X33716283Y-104884000D02*
X35748282Y-104884000D01*
X46857189Y-100624480D02*
X49709669Y-97772000D01*
X49709669Y-97772000D02*
X51116000Y-97772000D01*
X30414282Y-108186000D02*
X33716283Y-104884000D01*
X37467803Y-103164480D02*
X39245802Y-103164480D01*
%TO.N,THERM_2*%
X39432000Y-103614000D02*
X41210000Y-101836000D01*
X33844000Y-105392000D02*
X35876000Y-105392000D01*
X44766000Y-101074000D02*
X47052000Y-101074000D01*
X49837386Y-98280000D02*
X50608000Y-98280000D01*
X37654000Y-103614000D02*
X39432000Y-103614000D01*
X41210000Y-101836000D02*
X44004000Y-101836000D01*
X44004000Y-101836000D02*
X44766000Y-101074000D01*
X48486489Y-99630897D02*
X49837386Y-98280000D01*
X47052000Y-101074000D02*
X48486489Y-99639511D01*
X26986000Y-112250000D02*
X33844000Y-105392000D01*
X48486489Y-99639511D02*
X48486489Y-99630897D01*
X25716000Y-112250000D02*
X26986000Y-112250000D01*
X35876000Y-105392000D02*
X37654000Y-103614000D01*
%TO.N,THERM_0*%
X43631606Y-100936960D02*
X44393606Y-100174960D01*
X15556000Y-112250000D02*
X18350000Y-112250000D01*
X44766001Y-100174961D02*
X46670990Y-100174961D01*
X39059604Y-102714960D02*
X40837606Y-100936960D01*
X27307803Y-107736480D02*
X30228084Y-107736480D01*
X44393606Y-100174960D02*
X44766001Y-100174961D01*
X25334282Y-109710000D02*
X27307803Y-107736480D01*
X46670990Y-100174961D02*
X49835951Y-97010000D01*
X20890000Y-109710000D02*
X25334282Y-109710000D01*
X40837606Y-100936960D02*
X43631606Y-100936960D01*
X18350000Y-112250000D02*
X20890000Y-109710000D01*
X49835951Y-97010000D02*
X51116000Y-97010000D01*
X33530086Y-104434480D02*
X35562084Y-104434480D01*
X37281606Y-102714960D02*
X39059604Y-102714960D01*
X35562084Y-104434480D02*
X37281606Y-102714960D01*
X30228084Y-107736480D02*
X33530086Y-104434480D01*
%TO.N,Net-(J1-Pad7)*%
X26224000Y-46718000D02*
X32828000Y-40114000D01*
X26224000Y-62466000D02*
X26224000Y-46718000D01*
X26224000Y-62974000D02*
X26224000Y-62466000D01*
%TO.N,Net-(J1-Pad8)*%
X16318000Y-63482000D02*
X16318000Y-66530000D01*
X23950000Y-45690000D02*
X23938000Y-45702000D01*
X20382000Y-45702000D02*
X20382000Y-59418000D01*
X20382000Y-59418000D02*
X16318000Y-63482000D01*
X23950000Y-45690000D02*
X33082000Y-36558000D01*
%TO.N,I2C_SDA*%
X54672000Y-94978000D02*
X54926000Y-95232000D01*
X54926000Y-95232000D02*
X56958000Y-95232000D01*
%TO.N,Net-(J3-Pad2)*%
X13270000Y-98280000D02*
X13270000Y-120505000D01*
X14540000Y-121775000D02*
X31431000Y-121775000D01*
X33336000Y-119870000D02*
X37908000Y-119870000D01*
X13270000Y-120505000D02*
X14540000Y-121775000D01*
X60265000Y-113515000D02*
X62800000Y-113515000D01*
X39686000Y-118092000D02*
X55688000Y-118092000D01*
X55688000Y-118092000D02*
X60265000Y-113515000D01*
X20890000Y-98280000D02*
X13270000Y-98280000D01*
X31431000Y-121775000D02*
X33336000Y-119870000D01*
X37908000Y-119870000D02*
X39686000Y-118092000D01*
X22160000Y-99550000D02*
X20890000Y-98280000D01*
%TO.N,Net-(J3-Pad3)*%
X40575000Y-116060000D02*
X41845000Y-117330000D01*
X37400000Y-105900000D02*
X37400000Y-107170000D01*
X54545000Y-117330000D02*
X60900000Y-110975000D01*
X41845000Y-117330000D02*
X54545000Y-117330000D01*
X60900000Y-110975000D02*
X62800000Y-110975000D01*
X37400000Y-107170000D02*
X40575000Y-110345000D01*
X40575000Y-110345000D02*
X40575000Y-116060000D01*
%TO.N,SPD_0*%
X16325000Y-85590000D02*
X16325000Y-86095000D01*
X32320000Y-88120000D02*
X34860000Y-85580000D01*
X16325000Y-86095000D02*
X18350000Y-88120000D01*
X18350000Y-88120000D02*
X32320000Y-88120000D01*
%TO.N,SPD_1*%
X32838000Y-95232000D02*
X34860000Y-93210000D01*
X18347000Y-95232000D02*
X32838000Y-95232000D01*
X16325000Y-93210000D02*
X18347000Y-95232000D01*
%TO.N,Net-(R4-Pad2)*%
X37910000Y-66510000D02*
X37910000Y-57710978D01*
%TO.N,Net-(R7-Pad2)*%
X34860000Y-116060000D02*
X37400000Y-118600000D01*
X48544969Y-96279031D02*
X49592000Y-95232000D01*
X39178000Y-96502000D02*
X39400969Y-96279031D01*
X37400000Y-98280000D02*
X39178000Y-96502000D01*
X34860000Y-106535000D02*
X34860000Y-116060000D01*
X39400969Y-96279031D02*
X48544969Y-96279031D01*
%TO.N,Net-(R11-Pad2)*%
X51878000Y-95740000D02*
X51116000Y-95740000D01*
X43115000Y-107170000D02*
X43115000Y-109075000D01*
X54418000Y-116568000D02*
X57974000Y-113012000D01*
X43115000Y-107170000D02*
X43115000Y-110980000D01*
X55180000Y-96756000D02*
X54613520Y-96189520D01*
X48703000Y-116568000D02*
X54418000Y-116568000D01*
X54613520Y-96189520D02*
X52327520Y-96189520D01*
X46925000Y-114790000D02*
X48703000Y-116568000D01*
X57974000Y-113012000D02*
X57974000Y-103360000D01*
X55180000Y-100058000D02*
X55180000Y-96756000D01*
X52327520Y-96189520D02*
X51878000Y-95740000D01*
X43115000Y-110980000D02*
X46925000Y-114790000D01*
%TO.N,I2C0_SCL*%
X21398000Y-70848000D02*
X22922000Y-72372000D01*
X21398000Y-70848000D02*
X21398000Y-69070000D01*
X22922000Y-72372000D02*
X34098000Y-72372000D01*
%TO.N,Net-(R13-Pad2)*%
X48830000Y-101544500D02*
X48867500Y-101544500D01*
X48867500Y-101544500D02*
X49846000Y-100566000D01*
X53402000Y-100312000D02*
X53402000Y-97518000D01*
X53402000Y-97518000D02*
X52836480Y-97518000D01*
X51624000Y-96305520D02*
X51116000Y-96305520D01*
X52836480Y-97518000D02*
X51624000Y-96305520D01*
X51615386Y-100566000D02*
X51869386Y-100820000D01*
X50735000Y-107170000D02*
X50735000Y-110980000D01*
X50735000Y-110980000D02*
X54545000Y-114790000D01*
X52894000Y-100820000D02*
X53402000Y-100312000D01*
X51869386Y-100820000D02*
X52894000Y-100820000D01*
X49846000Y-100566000D02*
X51615386Y-100566000D01*
%TO.N,THERM_3*%
X52640000Y-110726000D02*
X52640000Y-104122000D01*
X52132000Y-100058000D02*
X51116000Y-99042000D01*
D31*
%TO.N,Net-(F1-Pad1)*%
X30900000Y-27910000D02*
X28700000Y-27910000D01*
%TD*%
M02*
