%TF.GenerationSoftware,KiCad,Pcbnew,(6.0.5)*%
%TF.CreationDate,2022-08-14T01:36:17-04:00*%
%TF.ProjectId,RICM Greenpower Telemetry Module,5249434d-2047-4726-9565-6e706f776572,rev?*%
%TF.SameCoordinates,Original*%
%TF.FileFunction,Soldermask,Top*%
%TF.FilePolarity,Negative*%
%FSLAX46Y46*%
G04 Gerber Fmt 4.6, Leading zero omitted, Abs format (unit mm)*
G04 Created by KiCad (PCBNEW (6.0.5)) date 2022-08-14 01:36:17*
%MOMM*%
%LPD*%
G01*
G04 APERTURE LIST*
G04 Aperture macros list*
%AMRoundRect*
0 Rectangle with rounded corners*
0 $1 Rounding radius*
0 $2 $3 $4 $5 $6 $7 $8 $9 X,Y pos of 4 corners*
0 Add a 4 corners polygon primitive as box body*
4,1,4,$2,$3,$4,$5,$6,$7,$8,$9,$2,$3,0*
0 Add four circle primitives for the rounded corners*
1,1,$1+$1,$2,$3*
1,1,$1+$1,$4,$5*
1,1,$1+$1,$6,$7*
1,1,$1+$1,$8,$9*
0 Add four rect primitives between the rounded corners*
20,1,$1+$1,$2,$3,$4,$5,0*
20,1,$1+$1,$4,$5,$6,$7,0*
20,1,$1+$1,$6,$7,$8,$9,0*
20,1,$1+$1,$8,$9,$2,$3,0*%
G04 Aperture macros list end*
%ADD10RoundRect,0.250000X-0.312500X-0.625000X0.312500X-0.625000X0.312500X0.625000X-0.312500X0.625000X0*%
%ADD11RoundRect,0.250000X0.312500X0.625000X-0.312500X0.625000X-0.312500X-0.625000X0.312500X-0.625000X0*%
%ADD12RoundRect,0.250000X0.625000X-0.312500X0.625000X0.312500X-0.625000X0.312500X-0.625000X-0.312500X0*%
%ADD13RoundRect,0.100000X-0.637500X-0.100000X0.637500X-0.100000X0.637500X0.100000X-0.637500X0.100000X0*%
%ADD14RoundRect,0.250000X0.475000X-0.250000X0.475000X0.250000X-0.475000X0.250000X-0.475000X-0.250000X0*%
%ADD15R,1.700000X1.700000*%
%ADD16O,1.700000X1.700000*%
%ADD17R,1.700000X3.500000*%
%ADD18R,3.500000X1.700000*%
%ADD19O,1.800000X1.800000*%
%ADD20O,1.500000X1.500000*%
%ADD21C,2.400000*%
%ADD22O,2.400000X2.400000*%
%ADD23RoundRect,0.250000X-0.250000X-0.475000X0.250000X-0.475000X0.250000X0.475000X-0.250000X0.475000X0*%
%ADD24R,1.600000X1.600000*%
%ADD25C,1.600000*%
%ADD26RoundRect,0.150000X-0.800000X-0.150000X0.800000X-0.150000X0.800000X0.150000X-0.800000X0.150000X0*%
%ADD27RoundRect,0.250000X0.250000X0.475000X-0.250000X0.475000X-0.250000X-0.475000X0.250000X-0.475000X0*%
%ADD28RoundRect,0.150000X0.150000X-0.512500X0.150000X0.512500X-0.150000X0.512500X-0.150000X-0.512500X0*%
%ADD29R,4.600000X2.000000*%
%ADD30O,4.200000X2.000000*%
%ADD31O,2.000000X4.200000*%
%ADD32R,2.500000X1.800000*%
%ADD33RoundRect,0.250000X-0.625000X0.312500X-0.625000X-0.312500X0.625000X-0.312500X0.625000X0.312500X0*%
%ADD34C,4.000000*%
%ADD35C,1.524000*%
%ADD36C,3.540000*%
G04 APERTURE END LIST*
D10*
%TO.C,R6*%
X85000000Y-49000000D03*
X87925000Y-49000000D03*
%TD*%
%TO.C,R5*%
X85000000Y-44000000D03*
X87925000Y-44000000D03*
%TD*%
%TO.C,R4*%
X85000000Y-39000000D03*
X87925000Y-39000000D03*
%TD*%
%TO.C,R3*%
X85000000Y-34000000D03*
X87925000Y-34000000D03*
%TD*%
D11*
%TO.C,R2*%
X49537500Y-66000000D03*
X52462500Y-66000000D03*
%TD*%
%TO.C,R1*%
X49537500Y-61000000D03*
X52462500Y-61000000D03*
%TD*%
D12*
%TO.C,R19*%
X23000000Y-84862500D03*
X23000000Y-81937500D03*
%TD*%
%TO.C,R20*%
X19000000Y-84862500D03*
X19000000Y-81937500D03*
%TD*%
D13*
%TO.C,U5*%
X57137500Y-86725000D03*
X57137500Y-87375000D03*
X57137500Y-88025000D03*
X57137500Y-88675000D03*
X57137500Y-89325000D03*
X57137500Y-89975000D03*
X57137500Y-90625000D03*
X57137500Y-91275000D03*
X62862500Y-91275000D03*
X62862500Y-90625000D03*
X62862500Y-89975000D03*
X62862500Y-89325000D03*
X62862500Y-88675000D03*
X62862500Y-88025000D03*
X62862500Y-87375000D03*
X62862500Y-86725000D03*
%TD*%
D14*
%TO.C,C1*%
X25000000Y-24950000D03*
X25000000Y-23050000D03*
%TD*%
D12*
%TO.C,R13*%
X43000000Y-84862500D03*
X43000000Y-81937500D03*
%TD*%
%TO.C,R9*%
X47000000Y-84862500D03*
X47000000Y-81937500D03*
%TD*%
%TO.C,R18*%
X19000000Y-91462500D03*
X19000000Y-88537500D03*
%TD*%
D15*
%TO.C,J10*%
X38000000Y-103000000D03*
D16*
X38000000Y-100460000D03*
%TD*%
D15*
%TO.C,J5*%
X60000000Y-103000000D03*
D16*
X60000000Y-100460000D03*
X60000000Y-97920000D03*
%TD*%
D17*
%TO.C,U3*%
X70540000Y-63800000D03*
D16*
X70540000Y-62900000D03*
D15*
X68000000Y-62900000D03*
D17*
X68000000Y-63800000D03*
X65460000Y-63800000D03*
D16*
X65460000Y-62900000D03*
D18*
X77790000Y-14870000D03*
D16*
X76890000Y-14870000D03*
X76890000Y-17410000D03*
D18*
X77790000Y-17410000D03*
X77790000Y-19950000D03*
D15*
X76890000Y-19950000D03*
D16*
X76890000Y-22490000D03*
D18*
X77790000Y-22490000D03*
D16*
X76890000Y-25030000D03*
D18*
X77790000Y-25030000D03*
D16*
X76890000Y-27570000D03*
D18*
X77790000Y-27570000D03*
D16*
X76890000Y-30110000D03*
D18*
X77790000Y-30110000D03*
D15*
X76890000Y-32650000D03*
D18*
X77790000Y-32650000D03*
X77790000Y-35190000D03*
D16*
X76890000Y-35190000D03*
X76890000Y-37730000D03*
D18*
X77790000Y-37730000D03*
D16*
X76890000Y-40270000D03*
D18*
X77790000Y-40270000D03*
X77790000Y-42810000D03*
D16*
X76890000Y-42810000D03*
D18*
X77790000Y-45350000D03*
D15*
X76890000Y-45350000D03*
D16*
X76890000Y-47890000D03*
D18*
X77790000Y-47890000D03*
D16*
X76890000Y-50430000D03*
D18*
X77790000Y-50430000D03*
X77790000Y-52970000D03*
D16*
X76890000Y-52970000D03*
X76890000Y-55510000D03*
D18*
X77790000Y-55510000D03*
D15*
X76890000Y-58050000D03*
D18*
X77790000Y-58050000D03*
X77790000Y-60590000D03*
D16*
X76890000Y-60590000D03*
D18*
X77790000Y-63130000D03*
D16*
X76890000Y-63130000D03*
X59110000Y-63130000D03*
D18*
X58210000Y-63130000D03*
D16*
X59110000Y-60590000D03*
D18*
X58210000Y-60590000D03*
X58210000Y-58050000D03*
D15*
X59110000Y-58050000D03*
D16*
X59110000Y-55510000D03*
D18*
X58210000Y-55510000D03*
D16*
X59110000Y-52970000D03*
D18*
X58210000Y-52970000D03*
D16*
X59110000Y-50430000D03*
D18*
X58210000Y-50430000D03*
D16*
X59110000Y-47890000D03*
D18*
X58210000Y-47890000D03*
D15*
X59110000Y-45350000D03*
D18*
X58210000Y-45350000D03*
D16*
X59110000Y-42810000D03*
D18*
X58210000Y-42810000D03*
X58210000Y-40270000D03*
D16*
X59110000Y-40270000D03*
X59110000Y-37730000D03*
D18*
X58210000Y-37730000D03*
D16*
X59110000Y-35190000D03*
D18*
X58210000Y-35190000D03*
X58210000Y-32650000D03*
D15*
X59110000Y-32650000D03*
D16*
X59110000Y-30110000D03*
D18*
X58210000Y-30110000D03*
X58210000Y-27570000D03*
D16*
X59110000Y-27570000D03*
X59110000Y-25030000D03*
D18*
X58210000Y-25030000D03*
X58210000Y-22490000D03*
D16*
X59110000Y-22490000D03*
D18*
X58210000Y-19950000D03*
D15*
X59110000Y-19950000D03*
D16*
X59110000Y-17410000D03*
D18*
X58210000Y-17410000D03*
X58210000Y-14870000D03*
D16*
X59110000Y-14870000D03*
D19*
X65275000Y-15000000D03*
X70725000Y-15000000D03*
D20*
X65575000Y-18030000D03*
X70425000Y-18030000D03*
%TD*%
D21*
%TO.C,L1*%
X15000000Y-41000000D03*
D22*
X30240000Y-41000000D03*
%TD*%
D23*
%TO.C,C9*%
X67050000Y-87000000D03*
X68950000Y-87000000D03*
%TD*%
D15*
%TO.C,J9*%
X26000000Y-103000000D03*
D16*
X26000000Y-100460000D03*
X26000000Y-97920000D03*
X26000000Y-95380000D03*
%TD*%
D12*
%TO.C,R17*%
X15000000Y-84862500D03*
X15000000Y-81937500D03*
%TD*%
D21*
%TO.C,L2*%
X15000000Y-47000000D03*
D22*
X30240000Y-47000000D03*
%TD*%
D12*
%TO.C,R25*%
X31000000Y-84862500D03*
X31000000Y-81937500D03*
%TD*%
D15*
%TO.C,J4*%
X66000000Y-103000000D03*
D16*
X66000000Y-100460000D03*
X66000000Y-97920000D03*
%TD*%
D15*
%TO.C,J8*%
X53240000Y-103000000D03*
D16*
X53240000Y-100460000D03*
%TD*%
D12*
%TO.C,R15*%
X15000000Y-91462500D03*
X15000000Y-88537500D03*
%TD*%
D15*
%TO.C,J3*%
X78000000Y-103000000D03*
D16*
X78000000Y-100460000D03*
X78000000Y-97920000D03*
X78000000Y-95380000D03*
X78000000Y-92840000D03*
%TD*%
D24*
%TO.C,C2*%
X18000000Y-29652651D03*
D25*
X18000000Y-26152651D03*
%TD*%
D12*
%TO.C,R26*%
X31000000Y-91462500D03*
X31000000Y-88537500D03*
%TD*%
%TO.C,R11*%
X47000000Y-91462500D03*
X47000000Y-88537500D03*
%TD*%
D15*
%TO.C,J6*%
X48160000Y-103000000D03*
D16*
X48160000Y-100460000D03*
%TD*%
D12*
%TO.C,R12*%
X43000000Y-91462500D03*
X43000000Y-88537500D03*
%TD*%
D15*
%TO.C,J11*%
X32000000Y-103000000D03*
D16*
X32000000Y-100460000D03*
X32000000Y-97920000D03*
%TD*%
D14*
%TO.C,C5*%
X33000000Y-24950000D03*
X33000000Y-23050000D03*
%TD*%
%TO.C,C4*%
X29000000Y-24950000D03*
X29000000Y-23050000D03*
%TD*%
D12*
%TO.C,R10*%
X51000000Y-91462500D03*
X51000000Y-88537500D03*
%TD*%
D15*
%TO.C,J2*%
X72000000Y-103000000D03*
D16*
X72000000Y-100460000D03*
X72000000Y-97920000D03*
X72000000Y-95380000D03*
%TD*%
D26*
%TO.C,U1*%
X26500000Y-30095000D03*
X26500000Y-31365000D03*
X26500000Y-32635000D03*
X26500000Y-33905000D03*
X33500000Y-33905000D03*
X33500000Y-32635000D03*
X33500000Y-31365000D03*
X33500000Y-30095000D03*
%TD*%
D27*
%TO.C,C3*%
X36950000Y-49000000D03*
X35050000Y-49000000D03*
%TD*%
D28*
%TO.C,U2*%
X35050000Y-45137500D03*
X36000000Y-45137500D03*
X36950000Y-45137500D03*
X36950000Y-42862500D03*
X35050000Y-42862500D03*
%TD*%
D29*
%TO.C,J1*%
X43650000Y-27350000D03*
D30*
X43650000Y-21050000D03*
D31*
X38850000Y-24450000D03*
%TD*%
D32*
%TO.C,D1*%
X42000000Y-34000000D03*
X46000000Y-34000000D03*
%TD*%
D33*
%TO.C,R8*%
X41000000Y-45537500D03*
X41000000Y-48462500D03*
%TD*%
D12*
%TO.C,R27*%
X35000000Y-91462500D03*
X35000000Y-88537500D03*
%TD*%
D34*
%TO.C,U6*%
X60380000Y-70920000D03*
X75620000Y-70920000D03*
D35*
X59110000Y-82350000D03*
X61650000Y-82350000D03*
X64190000Y-82350000D03*
X66730000Y-82350000D03*
X69270000Y-82350000D03*
X71810000Y-82350000D03*
X74350000Y-82350000D03*
X76890000Y-82350000D03*
%TD*%
D10*
%TO.C,R16*%
X52537500Y-73000000D03*
X55462500Y-73000000D03*
%TD*%
D36*
%TO.C,U4*%
X16110000Y-54840000D03*
X16110000Y-75160000D03*
D35*
X33890000Y-75160000D03*
X33890000Y-72620000D03*
X33890000Y-70080000D03*
X33890000Y-67540000D03*
X33890000Y-65000000D03*
X33890000Y-62460000D03*
X33890000Y-59920000D03*
X33890000Y-57380000D03*
X33890000Y-54840000D03*
%TD*%
D15*
%TO.C,J7*%
X43080000Y-103000000D03*
D16*
X43080000Y-100460000D03*
%TD*%
D12*
%TO.C,R24*%
X27000000Y-84862500D03*
X27000000Y-81937500D03*
%TD*%
%TO.C,R23*%
X39000000Y-91462500D03*
X39000000Y-88537500D03*
%TD*%
D10*
%TO.C,R14*%
X52537500Y-78000000D03*
X55462500Y-78000000D03*
%TD*%
D27*
%TO.C,C6*%
X36950000Y-39000000D03*
X35050000Y-39000000D03*
%TD*%
D24*
%TO.C,C7*%
X28000000Y-18652651D03*
D25*
X28000000Y-15152651D03*
%TD*%
D23*
%TO.C,C8*%
X67050000Y-91000000D03*
X68950000Y-91000000D03*
%TD*%
D12*
%TO.C,R21*%
X39000000Y-84862500D03*
X39000000Y-81937500D03*
%TD*%
%TO.C,R22*%
X35000000Y-84862500D03*
X35000000Y-81937500D03*
%TD*%
D33*
%TO.C,R7*%
X41000000Y-39537500D03*
X41000000Y-42462500D03*
%TD*%
M02*
